<svg xmlns="http://www.w3.org/2000/svg" xmlns:xlink="http://www.w3.org/1999/xlink" width="371.279" height="42.015" viewBox="0 0 371.279 42.015">
  <defs>
    <clipPath id="clip-path">
      <rect id="Rectangle_59" data-name="Rectangle 59" width="371.279" height="42.015" transform="translate(0 0)" fill="#333"/>
    </clipPath>
  </defs>
  <g id="PHX_logo" data-name="PHX logo" transform="translate(-152 302.268)">
    <g id="Group_6" data-name="Group 6" transform="translate(152 -302.268)" clip-path="url(#clip-path)">
      <path id="Path_203" data-name="Path 203" d="M55.7,23.5l21.541-5.624L84.816.793,60.9,1.033c2.637-.026,3.627,2.545,2.212,5.747Zm.435-22.416-42.964.431c2.638-.027,3.627,2.544,2.21,5.745L0,42.016l14.319-.144c2.636-.026,5.923-2.641,7.339-5.841l1.585-3.583L7.767,36.013l15.676-4.1.193-.434.038-.01L35.755,4.17c2.636-.026,3.625,2.545,2.211,5.744L32.559,21.953a14.748,14.748,0,0,1-6.4,6.589l-1.339,3.017L46.05,26.016a14.658,14.658,0,0,0,6.7-6.734l5.59-12.455c1.416-3.2.427-5.773-2.209-5.746M164.052,0l-27.61,6.362,4.6,11.954ZM131.894,3.6,130.635.334,111.542.525l2.934,7.625Zm6.388,16.6L134.19,9.572h0L133.239,7.1l-17.606,4.058.313.816,3.334,8.659-11.56,9.2L93.6,41.078l19.1-.192,11-8.762,3.316,8.619,19.094-.191ZM54.97,25.136,50.265,35.743H50.3l-2.562,5.794,14.32-.143c2.636-.026,5.923-2.641,7.337-5.842l5.055-11.395,5.123-.911-5.56,12.616.155-.358c-1.416,3.2-4.7,5.816-7.338,5.842l19.077-.191c2.635-.027,5.919-2.641,7.337-5.844l9.387-21.157L76.184,20.248ZM87.094,6.294,82.571,16.481l21.52-5.62L108.664.555,89.549.747Z" transform="translate(0 0)" fill="#333"/>
      <path id="Path_204" data-name="Path 204" d="M308.1,13.484a6.493,6.493,0,0,1,3.81.877,3.877,3.877,0,0,1,1.564,3.283c0,2.969-2.181,4.363-4.449,4.633a7.255,7.255,0,0,1-.948.044l-1.541-.4v3.261c0,1.911.2,2.047,2.114,2.2v.72h-6.541v-.72c1.7-.157,1.894-.315,1.894-2.2V16.408c0-1.934-.2-2.046-1.762-2.2v-.719Zm-1.563,7.6a3.257,3.257,0,0,0,1.343.248c1.035,0,2.8-.653,2.8-3.622,0-2.518-1.454-3.418-2.952-3.418a1.452,1.452,0,0,0-.969.247c-.154.135-.22.383-.22.81Z" transform="translate(-136.453 -6.091)" fill="#333"/>
      <path id="Path_205" data-name="Path 205" d="M332.8,31.419V30.7c1.278-.114,1.432-.248,1.432-1.822V26.314H329.74v2.564c0,1.574.133,1.708,1.322,1.822v.719h-5.33V30.7c1.409-.091,1.542-.248,1.542-1.822v-5.51c0-1.619-.133-1.732-1.586-1.845v-.7h5.418v.7c-1.233.113-1.365.2-1.365,1.822V25.3h4.493V23.345c0-1.6-.154-1.709-1.387-1.822v-.7H338.2v.653c-1.365.157-1.5.27-1.5,1.889v5.51c0,1.6.133,1.708,1.5,1.822v.719Z" transform="translate(-147.102 -9.407)" fill="#333"/>
      <path id="Path_206" data-name="Path 206" d="M357.106,20.293a5.363,5.363,0,0,1,5.7,5.442,5.485,5.485,0,0,1-5.727,5.736,5.4,5.4,0,0,1-5.77-5.375,5.6,5.6,0,0,1,5.77-5.8Zm-.22.809c-1.431,0-2.8,1.575-2.8,4.521,0,2.991,1.344,5.037,3.194,5.037,1.475,0,2.753-1.192,2.753-4.453,0-2.585-1.1-5.1-3.127-5.1Z" transform="translate(-158.677 -9.166)" fill="#333"/>
      <path id="Path_207" data-name="Path 207" d="M384.5,28.495c-.11.809-.463,2.474-.6,2.924h-9.052V30.7c1.5-.114,1.63-.248,1.63-1.822V23.322c0-1.6-.111-1.686-1.476-1.777v-.719h8.479c.022.45.089,1.574.177,2.654l-.705.045a3.705,3.705,0,0,0-.617-1.3c-.286-.383-.7-.54-1.806-.54h-.948c-.594,0-.638.045-.638.653v3.1h1.387c1.256,0,1.41-.157,1.586-1.215h.727v3.419h-.727c-.177-1.035-.331-1.237-1.586-1.237h-1.387V28.81c0,.945.11,1.349.374,1.529a3.394,3.394,0,0,0,1.652.225c.969,0,1.52-.112,1.916-.562a5.068,5.068,0,0,0,.9-1.574Z" transform="translate(-169.308 -9.407)" fill="#333"/>
      <path id="Path_208" data-name="Path 208" d="M406.409,21.523c-.97.045-1.432.248-1.52.944a24.877,24.877,0,0,0-.132,2.9v6.184h-1.08l-6.629-8.074-.022.023v3.35a23.046,23.046,0,0,0,.132,2.879c.088.7.55.9,1.74.989v.7h-4.406v-.7c.948-.068,1.41-.292,1.5-.989a23.032,23.032,0,0,0,.132-2.879V23.817c0-1.867-.4-2.182-1.872-2.294v-.7h3.612l5.947,6.926h.044V25.369a22.564,22.564,0,0,0-.132-2.834c-.088-.764-.484-.945-1.74-1.012v-.7h4.427Z" transform="translate(-178.07 -9.407)" fill="#333"/>
      <path id="Path_209" data-name="Path 209" d="M418.351,31.419V30.7c1.365-.114,1.52-.2,1.52-1.754V23.277c0-1.552-.155-1.641-1.52-1.732v-.719h5.506v.7c-1.387.113-1.519.2-1.519,1.777v5.646c0,1.552.132,1.641,1.519,1.754v.719Z" transform="translate(-188.956 -9.407)" fill="#333"/>
      <path id="Path_210" data-name="Path 210" d="M436.742,31.419V30.7l.551-.091c.484-.111.594-.36.2-.989L435.95,27.19a23.21,23.21,0,0,0-1.542,2.474c-.329.562-.286.833.265.922l.66.114v.719h-4.449V30.7a2.9,2.9,0,0,0,2.489-1.439c.639-.81,1.365-1.8,2.07-2.834l-2.379-3.733a2.14,2.14,0,0,0-2.026-1.147v-.719h5.33v.719l-.572.09c-.4.089-.418.292-.154.7l1.387,2.226a23.132,23.132,0,0,0,1.343-2.069c.353-.585.221-.787-.22-.854l-.506-.09v-.719h4.25v.719a2.969,2.969,0,0,0-2.488,1.236c-.528.63-1.145,1.373-1.916,2.475l2.577,3.913a2.618,2.618,0,0,0,2.356,1.53v.719Z" transform="translate(-194.616 -9.407)" fill="#333"/>
      <path id="Path_211" data-name="Path 211" d="M470.4,16.76c-.42-1.416-1.168-3.036-3-3.036a2.2,2.2,0,0,0-2.269,2.316c0,1.394.9,2.114,2.775,3.082,2.092,1.057,3.855,2.249,3.855,4.588,0,2.5-2.07,4.452-5.2,4.452a6.862,6.862,0,0,1-2.181-.337,7.816,7.816,0,0,1-1.256-.473,27.989,27.989,0,0,1-.638-3.711l.749-.2c.4,1.394,1.586,3.845,3.743,3.845a2.275,2.275,0,0,0,2.379-2.5c0-1.438-1.057-2.271-2.709-3.17-1.96-1.012-3.765-2.2-3.765-4.5,0-2.361,1.827-4.25,4.867-4.25a9.547,9.547,0,0,1,2.951.563c.088.81.22,1.776.418,3.171Z" transform="translate(-208.894 -5.813)" fill="#333"/>
      <path id="Path_212" data-name="Path 212" d="M489.776,31.419c-.529-.652-2.268-3.329-3.062-4.52-.352-.54-.616-.562-.9-.495v2.542c0,1.506.132,1.663,1.5,1.754v.719H482V30.7c1.256-.046,1.41-.225,1.41-1.733v-5.69c0-1.552-.133-1.664-1.476-1.754v-.7h5.286v.7c-1.277.113-1.409.2-1.409,1.754v2.452a2.216,2.216,0,0,0,1.013-.54,20.765,20.765,0,0,0,2.511-2.744c.353-.472.374-.742-.177-.831l-.594-.09v-.7h4.626v.7a3.823,3.823,0,0,0-2.6,1.057c-.572.473-1.585,1.529-2.4,2.384a46.905,46.905,0,0,0,3.348,4.655,2.488,2.488,0,0,0,1.938,1.08v.719Z" transform="translate(-217.674 -9.407)" fill="#333"/>
      <path id="Path_213" data-name="Path 213" d="M515.082,21.545a2.242,2.242,0,0,0-2.092,1.282c-.462.72-1.036,1.686-1.872,3.283a1.681,1.681,0,0,0-.264.99v1.867c0,1.462.154,1.6,1.718,1.732v.72H506.69V30.7c1.586-.135,1.7-.247,1.7-1.71V27.28a1.892,1.892,0,0,0-.33-1.148c-.572-1.057-1.145-2.023-1.916-3.305-.6-1.034-.881-1.17-1.872-1.282v-.719H509.4v.719l-.616.112c-.485.113-.485.315-.222.787.6,1.147,1.256,2.294,1.807,3.306.661-1.215,1.3-2.474,1.608-3.171.286-.629.22-.855-.331-.945l-.594-.09v-.719h4.03Z" transform="translate(-227.761 -9.407)" fill="#333"/>
      <path id="Path_214" data-name="Path 214" d="M549.9,14.2c-1.741.158-1.894.293-1.894,2.182V25.2c0,1.911.176,2.024,1.894,2.182V28.1h-6.431v-.719c1.806-.157,1.982-.293,1.982-2.182v-4.3h-6.564v4.3c0,1.889.176,2.024,1.872,2.182V28.1H534.48v-.719c1.651-.157,1.85-.27,1.85-2.182V16.385c0-1.911-.2-2.023-1.938-2.182v-.719h6.3V14.2c-1.63.158-1.806.293-1.806,2.182v3.441h6.564V16.385c0-1.889-.177-2.023-1.85-2.182v-.719h6.3Z" transform="translate(-241.367 -6.091)" fill="#333"/>
      <path id="Path_215" data-name="Path 215" d="M571.471,31.159V30.44l.4-.046c.617-.111.771-.292.463-1.1L571.8,27.9h-3.525a12.136,12.136,0,0,0-.484,1.438c-.242.765.022.924.595,1.013l.55.09v.719H564.8V30.44c1.013-.135,1.432-.293,2.027-1.754l3.435-8.232,1.058-.2L574.886,29A1.83,1.83,0,0,0,576.8,30.44v.719Zm-1.409-8.029h-.044l-1.41,3.778h2.818Z" transform="translate(-255.101 -9.147)" fill="#333"/>
      <path id="Path_216" data-name="Path 216" d="M600.106,31.553H599.4c-2.246,0-2.929-.54-3.546-1.461-.528-.743-1.013-1.687-1.453-2.451a1.1,1.1,0,0,0-1.19-.743h-.33v2.047c0,1.506.132,1.641,1.52,1.754v.72H588.94V30.7c1.387-.09,1.541-.2,1.541-1.754V23.255c0-1.529-.132-1.642-1.476-1.732v-.7h5.572a5.408,5.408,0,0,1,2.8.54,2.463,2.463,0,0,1,1.167,2.182,2.9,2.9,0,0,1-2.2,2.7c.287.539,1.013,1.71,1.541,2.474a11.147,11.147,0,0,0,1.256,1.619,2.618,2.618,0,0,0,1.058.629Zm-6.585-5.443a2.935,2.935,0,0,0,1.63-.382,2.171,2.171,0,0,0,.77-1.822,2.045,2.045,0,0,0-2.159-2.294c-.7,0-.881.18-.881.81V26.11Z" transform="translate(-266.005 -9.407)" fill="#333"/>
      <path id="Path_217" data-name="Path 217" d="M617.97,25.594c1.74.2,2.973,1.012,2.973,2.631,0,2.518-2.84,3.193-5.462,3.193H610.79v-.7c1.409-.113,1.541-.2,1.541-1.776v-5.6c0-1.619-.132-1.709-1.454-1.822v-.7h5.7c2.334,0,3.7.719,3.7,2.429,0,1.462-1.321,2.069-2.312,2.294Zm-2.4-.248c1.278,0,2.159-.472,2.159-1.821a1.8,1.8,0,0,0-2-1.912c-.881,0-.991.27-.991.967v2.766Zm-.836,3.666c0,1.372.529,1.619,1.278,1.619a2.145,2.145,0,0,0,2.224-2.316c0-1.575-1.1-2.16-2.687-2.16h-.814Z" transform="translate(-275.874 -9.407)" fill="#333"/>
      <path id="Path_218" data-name="Path 218" d="M638.673,20.293a5.363,5.363,0,0,1,5.705,5.442,5.485,5.485,0,0,1-5.727,5.736,5.4,5.4,0,0,1-5.77-5.375,5.6,5.6,0,0,1,5.77-5.8Zm-.22.809c-1.431,0-2.8,1.575-2.8,4.521,0,2.991,1.343,5.037,3.194,5.037,1.475,0,2.752-1.192,2.752-4.453,0-2.585-1.1-5.1-3.127-5.1Z" transform="translate(-285.852 -9.166)" fill="#333"/>
      <path id="Path_219" data-name="Path 219" d="M667.747,31.553h-.705c-2.247,0-2.929-.54-3.546-1.461-.528-.743-1.013-1.687-1.453-2.451a1.1,1.1,0,0,0-1.189-.743h-.331v2.047c0,1.506.132,1.641,1.52,1.754v.72h-5.462V30.7c1.387-.09,1.541-.2,1.541-1.754V23.255c0-1.529-.132-1.642-1.476-1.732v-.7h5.572a5.409,5.409,0,0,1,2.8.54,2.462,2.462,0,0,1,1.167,2.182,2.9,2.9,0,0,1-2.2,2.7c.287.539,1.013,1.71,1.541,2.474a11.156,11.156,0,0,0,1.256,1.619,2.624,2.624,0,0,0,1.058.629Zm-6.585-5.443a2.935,2.935,0,0,0,1.63-.382,2.171,2.171,0,0,0,.77-1.822,2.046,2.046,0,0,0-2.159-2.294c-.7,0-.881.18-.881.81V26.11Z" transform="translate(-296.556 -9.407)" fill="#333"/>
      <path id="Path_220" data-name="Path 220" d="M301.629,61.481v-.623c1.184-.1,1.318-.175,1.318-1.523V54.419c0-1.346-.134-1.424-1.318-1.5v-.625h4.777v.6c-1.2.1-1.318.175-1.318,1.541v4.9c0,1.347.114,1.425,1.318,1.523v.623Z" transform="translate(-136.236 -23.619)" fill="#333"/>
      <path id="Path_221" data-name="Path 221" d="M323.5,52.9c-.841.039-1.242.215-1.318.819a21.555,21.555,0,0,0-.115,2.518V61.6h-.936l-5.751-7-.019.02v2.907a19.968,19.968,0,0,0,.115,2.5c.076.6.478.78,1.51.858v.6h-3.821v-.6c.821-.059,1.223-.253,1.3-.858a20.019,20.019,0,0,0,.114-2.5V54.889c0-1.619-.344-1.893-1.624-1.991v-.6h3.134l5.158,6.009h.038V56.235a19.7,19.7,0,0,0-.114-2.459c-.077-.663-.421-.819-1.51-.878v-.6h3.84Z" transform="translate(-141.351 -23.619)" fill="#333"/>
      <path id="Path_222" data-name="Path 222" d="M342.609,54.618a3.961,3.961,0,0,0-.592-1.5c-.248-.274-.669-.371-1.376-.371h-.764v6.243c0,1.4.115,1.483,1.49,1.581v.623h-5.044v-.623c1.3-.1,1.414-.176,1.414-1.581V52.746h-.515c-1.013,0-1.338.137-1.6.449a3.838,3.838,0,0,0-.554,1.405h-.611c.057-1.19.172-2.224.191-2.947h.42c.229.313.383.351.841.351h5.942a.761.761,0,0,0,.764-.351h.44c0,.683.1,2.087.172,2.927Z" transform="translate(-151.061 -23.33)" fill="#333"/>
      <path id="Path_223" data-name="Path 223" d="M361.6,58.945c-.1.7-.4,2.146-.515,2.536H353.23v-.623c1.3-.1,1.414-.215,1.414-1.581V54.458c0-1.385-.095-1.463-1.28-1.54v-.625h7.355c.02.39.077,1.366.154,2.3l-.612.039a3.207,3.207,0,0,0-.535-1.131c-.248-.331-.611-.468-1.567-.468h-.821c-.515,0-.553.038-.553.565v2.692h1.2c1.089,0,1.223-.137,1.376-1.053h.63V58.2h-.63c-.153-.9-.287-1.073-1.376-1.073h-1.2v2.088c0,.819.1,1.171.323,1.328a2.978,2.978,0,0,0,1.434.194c.841,0,1.318-.1,1.661-.487a4.393,4.393,0,0,0,.784-1.365Z" transform="translate(-159.542 -23.619)" fill="#333"/>
      <path id="Path_224" data-name="Path 224" d="M381,61.6h-.611c-1.949,0-2.541-.469-3.076-1.268-.458-.645-.879-1.464-1.261-2.128a.952.952,0,0,0-1.032-.643h-.287v1.774c0,1.307.115,1.425,1.319,1.523v.623h-4.739v-.623c1.2-.08,1.337-.176,1.337-1.523V54.4c0-1.328-.115-1.425-1.28-1.5v-.6H376.2a4.7,4.7,0,0,1,2.427.468,2.139,2.139,0,0,1,1.012,1.893A2.52,2.52,0,0,1,377.733,57c.248.468.878,1.483,1.337,2.146a9.7,9.7,0,0,0,1.09,1.4,2.283,2.283,0,0,0,.917.546Zm-5.713-4.721a2.531,2.531,0,0,0,1.414-.333,1.875,1.875,0,0,0,.669-1.579,1.774,1.774,0,0,0-1.873-1.99c-.611,0-.764.156-.764.7v3.2Z" transform="translate(-167.71 -23.62)" fill="#333"/>
      <path id="Path_225" data-name="Path 225" d="M400.918,52.9c-.841.039-1.242.215-1.318.819a21.616,21.616,0,0,0-.114,2.518V61.6h-.937l-5.751-7-.02.02v2.907a19.94,19.94,0,0,0,.115,2.5c.077.6.478.78,1.51.858v.6h-3.821v-.6c.821-.059,1.223-.253,1.3-.858a19.972,19.972,0,0,0,.115-2.5V54.889c0-1.619-.344-1.893-1.624-1.991v-.6h3.133l5.159,6.009h.038V56.235a19.681,19.681,0,0,0-.115-2.459c-.077-.663-.421-.819-1.51-.878v-.6h3.841Z" transform="translate(-176.318 -23.619)" fill="#333"/>
      <path id="Path_226" data-name="Path 226" d="M416.613,61.256v-.623l.344-.04c.535-.1.669-.253.4-.956l-.458-1.209h-3.056a10.173,10.173,0,0,0-.421,1.248c-.211.663.019.8.516.878l.478.079v.623h-3.592v-.623c.878-.117,1.243-.254,1.758-1.523l2.981-7.139.917-.176,3.1,7.589a1.587,1.587,0,0,0,1.662,1.249v.623Zm-1.222-6.964h-.038l-1.223,3.277h2.446Z" transform="translate(-185.556 -23.394)" fill="#333"/>
      <path id="Path_227" data-name="Path 227" d="M438.53,54.618a3.98,3.98,0,0,0-.592-1.5c-.248-.274-.669-.371-1.376-.371H435.8v6.243c0,1.4.114,1.483,1.489,1.581v.623h-5.044v-.623c1.3-.1,1.414-.176,1.414-1.581V52.746h-.516c-1.013,0-1.338.137-1.6.449a3.846,3.846,0,0,0-.554,1.405h-.611c.057-1.19.172-2.224.191-2.947h.42c.229.313.383.351.841.351h5.942a.762.762,0,0,0,.765-.351h.439c0,.683.1,2.087.172,2.927Z" transform="translate(-194.385 -23.33)" fill="#333"/>
      <path id="Path_228" data-name="Path 228" d="M449.326,61.481v-.623c1.184-.1,1.318-.175,1.318-1.523V54.419c0-1.346-.134-1.424-1.318-1.5v-.625H454.1v.6c-1.2.1-1.318.175-1.318,1.541v4.9c0,1.347.114,1.425,1.318,1.523v.623Z" transform="translate(-202.946 -23.619)" fill="#333"/>
      <path id="Path_229" data-name="Path 229" d="M466.2,51.832a4.651,4.651,0,0,1,4.948,4.721,4.756,4.756,0,0,1-4.967,4.973,4.687,4.687,0,0,1-5.006-4.662,4.856,4.856,0,0,1,5.006-5.032Zm-.191.7c-1.242,0-2.426,1.365-2.426,3.921,0,2.594,1.165,4.37,2.77,4.37,1.28,0,2.388-1.035,2.388-3.864,0-2.243-.955-4.428-2.713-4.428Z" transform="translate(-208.296 -23.411)" fill="#333"/>
      <path id="Path_230" data-name="Path 230" d="M492.414,52.9c-.841.039-1.243.215-1.318.819a21.561,21.561,0,0,0-.115,2.518V61.6h-.936l-5.751-7-.02.02v2.907a19.906,19.906,0,0,0,.115,2.5c.077.6.478.78,1.509.858v.6h-3.821v-.6c.822-.059,1.223-.253,1.3-.858a19.99,19.99,0,0,0,.114-2.5V54.889c0-1.619-.343-1.893-1.624-1.991v-.6H485L490.16,58.3h.038V56.235a19.545,19.545,0,0,0-.115-2.459c-.077-.663-.42-.819-1.51-.878v-.6h3.841Z" transform="translate(-217.644 -23.619)" fill="#333"/>
      <path id="Path_231" data-name="Path 231" d="M508.109,61.256v-.623l.344-.04c.535-.1.668-.253.4-.956l-.458-1.209h-3.057a10.281,10.281,0,0,0-.42,1.248c-.211.663.019.8.516.878l.478.079v.623H502.32v-.623c.878-.117,1.241-.254,1.758-1.523l2.981-7.139.916-.176,3.1,7.589a1.588,1.588,0,0,0,1.662,1.249v.623Zm-1.222-6.964h-.038l-1.223,3.277h2.445Z" transform="translate(-226.881 -23.394)" fill="#333"/>
      <path id="Path_232" data-name="Path 232" d="M532,58.77c-.115.683-.4,2.224-.516,2.712h-7.661v-.6c1.318-.1,1.413-.195,1.413-1.542V54.419c0-1.365-.134-1.443-1.318-1.522v-.6h4.852v.6c-1.28.078-1.394.157-1.394,1.522v5c0,.682.076,1.034.325,1.17a2.926,2.926,0,0,0,1.357.195,1.84,1.84,0,0,0,1.567-.526,5.052,5.052,0,0,0,.745-1.561Z" transform="translate(-236.592 -23.619)" fill="#333"/>
      <path id="Path_233" data-name="Path 233" d="M554.38,61.256v-.623l.344-.04c.534-.1.668-.253.4-.956l-.458-1.209h-3.057a10.375,10.375,0,0,0-.421,1.248c-.21.663.019.8.516.878l.478.079v.623h-3.592v-.623c.878-.117,1.242-.254,1.758-1.523l2.981-7.139.916-.176,3.1,7.589A1.588,1.588,0,0,0,559,60.633v.623Zm-1.222-6.964h-.038L551.9,57.57h2.446Z" transform="translate(-247.781 -23.394)" fill="#333"/>
      <path id="Path_234" data-name="Path 234" d="M570.263,61.481v-.623c1.184-.1,1.318-.175,1.318-1.523V54.419c0-1.346-.133-1.424-1.318-1.5v-.625h4.776v.6c-1.2.1-1.318.175-1.318,1.541v4.9c0,1.347.114,1.425,1.318,1.523v.623Z" transform="translate(-257.569 -23.619)" fill="#333"/>
      <path id="Path_235" data-name="Path 235" d="M591.83,61.6h-.611c-1.949,0-2.541-.469-3.076-1.268-.458-.645-.879-1.464-1.261-2.128a.951.951,0,0,0-1.031-.643h-.287v1.774c0,1.307.115,1.425,1.318,1.523v.623h-4.738v-.623c1.2-.08,1.338-.176,1.338-1.523V54.4c0-1.328-.115-1.425-1.28-1.5v-.6h4.834a4.7,4.7,0,0,1,2.426.468,2.14,2.14,0,0,1,1.012,1.893A2.52,2.52,0,0,1,588.563,57c.248.468.878,1.483,1.337,2.146a9.689,9.689,0,0,0,1.09,1.4,2.285,2.285,0,0,0,.917.546Zm-5.713-4.721a2.529,2.529,0,0,0,1.414-.333,1.876,1.876,0,0,0,.669-1.579,1.774,1.774,0,0,0-1.872-1.99c-.612,0-.765.156-.765.7v3.2Z" transform="translate(-262.935 -23.62)" fill="#333"/>
      <path id="Path_236" data-name="Path 236" d="M606.628,52.293c2.216,0,3.592.859,3.592,2.731,0,1.815-1.337,2.751-3.133,3a2.662,2.662,0,0,1-.8,0l-1.089-.292v1.64c0,1.267.115,1.365,1.472,1.483v.623h-4.872v-.623c1.185-.118,1.3-.2,1.3-1.483V54.5c0-1.4-.114-1.483-1.222-1.561v-.644ZM605.2,57.034a2.775,2.775,0,0,0,.955.2c.535,0,1.777-.274,1.777-2.185a1.866,1.866,0,0,0-1.91-2.068c-.764,0-.821.156-.821.839Z" transform="translate(-271.811 -23.619)" fill="#333"/>
      <path id="Path_237" data-name="Path 237" d="M625.878,51.832a4.651,4.651,0,0,1,4.948,4.721,4.756,4.756,0,0,1-4.967,4.973,4.687,4.687,0,0,1-5.005-4.662,4.855,4.855,0,0,1,5.005-5.032Zm-.191.7c-1.242,0-2.427,1.365-2.427,3.921,0,2.594,1.165,4.37,2.77,4.37,1.28,0,2.389-1.035,2.389-3.864,0-2.243-.955-4.428-2.713-4.428Z" transform="translate(-280.419 -23.411)" fill="#333"/>
      <path id="Path_238" data-name="Path 238" d="M651.793,61.6h-.611c-1.949,0-2.541-.469-3.076-1.268-.458-.645-.879-1.464-1.261-2.128a.951.951,0,0,0-1.031-.643h-.287v1.774c0,1.307.115,1.425,1.318,1.523v.623h-4.738v-.623c1.2-.08,1.337-.176,1.337-1.523V54.4c0-1.328-.114-1.425-1.28-1.5v-.6H647a4.7,4.7,0,0,1,2.427.468,2.139,2.139,0,0,1,1.012,1.893A2.52,2.52,0,0,1,648.526,57c.248.468.878,1.483,1.337,2.146a9.711,9.711,0,0,0,1.09,1.4,2.283,2.283,0,0,0,.917.546Zm-5.712-4.721a2.531,2.531,0,0,0,1.414-.333,1.875,1.875,0,0,0,.669-1.579,1.774,1.774,0,0,0-1.873-1.99c-.611,0-.764.156-.764.7v3.2Z" transform="translate(-290.018 -23.62)" fill="#333"/>
      <path id="Path_239" data-name="Path 239" d="M669.15,54.618a3.969,3.969,0,0,0-.592-1.5c-.248-.274-.669-.371-1.376-.371h-.764v6.243c0,1.4.115,1.483,1.49,1.581v.623h-5.044v-.623c1.3-.1,1.414-.176,1.414-1.581V52.746h-.515c-1.013,0-1.338.137-1.6.449A3.838,3.838,0,0,0,661.6,54.6h-.611c.058-1.19.171-2.224.191-2.947h.42c.23.313.383.351.842.351h5.941a.762.762,0,0,0,.764-.351h.44c0,.683.1,2.087.172,2.927Z" transform="translate(-298.548 -23.33)" fill="#333"/>
    </g>
  </g>
</svg>
