<svg width="224" height="53" viewBox="0 0 224 53" fill="none" xmlns="http://www.w3.org/2000/svg">
<path d="M67.8947 0.977036C63.7218 0.977036 55.8662 11.5841 50.0737 25.4227C49.8451 25.9674 49.3078 26.3215 48.71 26.3215C47.6805 26.3215 46.9693 25.311 47.3288 24.3602C52.3575 11.0259 53.2405 0.977036 49.175 0.977036C45.1095 0.977036 37.1465 11.5841 31.3539 25.4227C31.1254 25.9674 30.5881 26.3215 29.9903 26.3215C28.9607 26.3215 28.2496 25.311 28.6091 24.3602C33.6377 11.0259 34.5208 0.977036 30.4553 0.977036C26.3897 0.977036 18.0751 12.5079 12.2493 26.7642H5.33345C-0.504011 41.2129 -1.73676 52.8843 2.5671 52.8843C6.87097 52.8843 14.5956 41.875 20.3882 28.0364C20.6167 27.4917 21.154 27.1376 21.7518 27.1376C22.7814 27.1376 23.4925 28.148 23.133 29.0988C18.1044 42.4332 17.2213 52.8843 21.2868 52.8843C25.3524 52.8843 33.3154 41.875 39.1079 28.0364C39.3365 27.4917 39.8737 27.1376 40.4715 27.1376C41.5011 27.1376 42.2122 28.148 41.8528 29.0988C36.8241 42.4332 35.9411 52.8843 40.0066 52.8843C44.0721 52.8843 52.631 41.0204 58.4548 26.7642H65.0092C70.8467 12.3154 72.1986 0.977036 67.8947 0.977036Z" fill="#6032EC"/>
<path d="M70.4852 34.3417L73.3414 26.7834H74.9747L77.8309 34.3417V38.041H76.1977V35.435H72.1165V38.041H70.4833V34.3417H70.4852ZM75.889 33.8278L74.1756 29.324H74.1424L72.4291 33.8278H75.889Z" fill="#6032EC"/>
<path d="M79.7572 26.7834H86.2862V28.3925H81.3885V31.3353H85.6493V32.9444H81.3885V36.4339H86.2862V38.0429H79.7572V26.7854V26.7834ZM83.8051 23.5345H86.0244L83.5101 25.9789H81.8769L83.8031 23.5345H83.8051Z" fill="#6032EC"/>
<path d="M91.5591 33.5391H89.877V38.0429H88.2438V26.7854H92.4871C94.1203 26.7854 95.4253 28.0711 95.4253 29.6801V30.6444C95.4253 31.9801 94.5267 33.0888 93.2861 33.4275L95.4253 38.0429H93.6299L91.5571 33.5391H91.5591ZM92.489 31.9301C93.2236 31.9301 93.7941 31.3681 93.7941 30.6444V29.6801C93.7941 28.9564 93.2236 28.3944 92.489 28.3944H89.877V31.932H92.489V31.9301Z" fill="#6032EC"/>
<path d="M97.2051 35.1309V29.6782C97.2051 28.0691 98.5922 26.7834 100.274 26.7834H101.646C103.343 26.7834 104.715 28.0691 104.715 29.6782V35.1309C104.715 36.7226 103.343 38.041 101.646 38.041H100.274C98.5922 38.041 97.2051 36.7226 97.2051 35.1309ZM100.274 36.4166H101.646C102.429 36.4166 103.099 35.8372 103.099 35.1309V29.6782C103.099 28.9545 102.462 28.3925 101.646 28.3925H100.274C99.4577 28.3925 98.8208 28.9718 98.8208 29.6782V35.1309C98.8208 35.8392 99.4909 36.4166 100.274 36.4166Z" fill="#6032EC"/>
<path d="M106.934 26.7834H111.178C112.811 26.7834 114.116 28.0691 114.116 29.6782V30.6425C114.116 32.2515 112.811 33.5372 111.178 33.5372H108.566V38.041H106.932V26.7834H106.934ZM111.178 31.9301C111.912 31.9301 112.483 31.3681 112.483 30.6444V29.6801C112.483 28.9564 111.912 28.3944 111.178 28.3944H108.566V31.932H111.178V31.9301Z" fill="#6032EC"/>
<path d="M115.716 35.1309V29.6782C115.716 28.0691 117.103 26.7834 118.785 26.7834H120.156C121.854 26.7834 123.226 28.0691 123.226 29.6782V35.1309C123.226 36.7226 121.854 38.041 120.156 38.041H118.785C117.103 38.041 115.716 36.7226 115.716 35.1309ZM118.785 36.4166H120.156C120.94 36.4166 121.61 35.8372 121.61 35.1309V29.6782C121.61 28.9545 120.973 28.3925 120.156 28.3925H118.785C117.968 28.3925 117.331 28.9718 117.331 29.6782V35.1309C117.331 35.8392 118.002 36.4166 118.785 36.4166Z" fill="#6032EC"/>
<path d="M128.758 33.5391H127.076V38.0429H125.443V26.7854H129.686C131.32 26.7854 132.625 28.0711 132.625 29.6801V30.6444C132.625 31.9801 131.726 33.0888 130.485 33.4275L132.625 38.0429H130.829L128.756 33.5391H128.758ZM129.688 31.9301C130.423 31.9301 130.993 31.3681 130.993 30.6444V29.6801C130.993 28.9564 130.423 28.3944 129.688 28.3944H127.076V31.932H129.688V31.9301Z" fill="#6032EC"/>
<path d="M136.364 28.3925H133.588V26.7834H140.771V28.3925H137.995V38.041H136.362V28.3925H136.364Z" fill="#6032EC"/>
<path d="M70.5341 41.6286H72.265L74.6152 46.1478L76.9655 41.6286H78.6964V52.8862H77.0631V44.8121L75.0548 48.6711H74.1737L72.1654 44.8121V52.8862H70.5321V41.6286H70.5341Z" fill="#6032EC"/>
<path d="M80.6226 49.1869L83.4789 41.6286H85.1121L87.9683 49.1869V52.8862H86.3351V50.2802H82.2539V52.8862H80.6207V49.1869H80.6226ZM86.0264 48.6711L84.3131 44.1673H84.2799L82.5665 48.6711H86.0264Z" fill="#6032EC"/>
<path d="M93.208 48.3824H91.5259V52.8862H89.8927V41.6286H94.136C95.7692 41.6286 97.0742 42.9143 97.0742 44.5234V45.4877C97.0742 46.8234 96.1756 47.932 94.935 48.2708L97.0742 52.8862H95.2789L93.206 48.3824H93.208ZM94.1379 46.7734C94.8725 46.7734 95.443 46.2114 95.443 45.4877V44.5234C95.443 43.7997 94.8725 43.2358 94.1379 43.2358H91.5259V46.7734H94.1379Z" fill="#6032EC"/>
<path d="M98.5942 49.8933V49.2505H100.227V49.8933C100.227 50.6497 100.864 51.2772 101.632 51.2772H102.726C103.558 51.2772 104.146 50.7633 104.146 50.055C104.146 47.8358 98.7602 47.3527 98.7602 44.2982C98.7602 42.7219 100.016 41.6286 101.796 41.6286H102.564C104.246 41.6286 105.616 42.9644 105.616 44.6196V45.1027H103.982V44.6196C103.982 43.8478 103.345 43.2358 102.562 43.2358H101.794C100.913 43.2358 100.39 43.638 100.39 44.2982C100.39 46.0035 105.776 46.6617 105.776 50.055C105.776 51.664 104.453 52.8862 102.722 52.8862H101.628C99.9461 52.8862 98.5922 51.5505 98.5922 49.8952H98.5942V49.8933Z" fill="#6032EC"/>
<path d="M107.733 41.6286H114.262V43.2377H109.365V46.1806H113.625V47.7896H109.365V51.2791H114.262V52.8882H107.733V41.6306V41.6286Z" fill="#6032EC"/>
<path d="M115.731 51.2772H118.506V43.2358H115.731V41.6267H122.915V43.2358H120.139V51.2772H122.915V52.8862H115.731V51.2772Z" fill="#6032EC"/>
<path d="M124.759 41.6286H126.392V51.2772H131.093V52.8862H124.759V41.6286Z" fill="#6032EC"/>
<path d="M132.611 41.6286H134.244V51.2772H138.945V52.8862H132.611V41.6286Z" fill="#6032EC"/>
<path d="M140.461 41.6286H146.99V43.2377H142.092V46.1806H146.353V47.7896H142.092V51.2791H146.99V52.8882H140.461V41.6306V41.6286Z" fill="#6032EC"/>
<path d="M153.552 41.6286H157.795C159.428 41.6286 160.733 42.9143 160.733 44.5234V45.4877C160.733 47.0967 159.428 48.3824 157.795 48.3824H155.183V52.8862H153.55V41.6286H153.552ZM157.795 46.7734C158.53 46.7734 159.1 46.2114 159.1 45.4877V44.5234C159.1 43.7997 158.53 43.2358 157.795 43.2358H155.183V46.7734H157.795Z" fill="#6032EC"/>
<path d="M165.86 48.3824H164.178V52.8862H162.544V41.6286H166.788C168.421 41.6286 169.726 42.9143 169.726 44.5234V45.4877C169.726 46.8234 168.827 47.932 167.587 48.2708L169.726 52.8862H167.931L165.858 48.3824H165.86ZM166.79 46.7734C167.524 46.7734 168.095 46.2114 168.095 45.4877V44.5234C168.095 43.7997 167.524 43.2358 166.79 43.2358H164.178V46.7734H166.79Z" fill="#6032EC"/>
<path d="M171.523 49.9742V44.5215C171.523 42.9124 172.91 41.6267 174.593 41.6267H175.964C177.662 41.6267 179.033 42.9124 179.033 44.5215V49.9742C179.033 51.5659 177.662 52.8843 175.964 52.8843H174.593C172.91 52.8843 171.523 51.5659 171.523 49.9742ZM174.593 51.2618H175.964C176.747 51.2618 177.418 50.6824 177.418 49.9761V44.5234C177.418 43.7997 176.781 43.2358 175.964 43.2358H174.593C173.776 43.2358 173.139 43.8151 173.139 44.5234V49.9761C173.139 50.6844 173.809 51.2618 174.593 51.2618Z" fill="#6032EC"/>
<path d="M180.793 45.326V41.6267H182.427V45.0354L184.369 50.3418H184.402L186.344 45.0354V41.6267H187.977V45.326L185.203 52.8843H183.57L180.793 45.326Z" fill="#6032EC"/>
<path d="M189.952 41.6286H196.481V43.2377H191.583V46.1806H195.844V47.7896H191.583V51.2791H196.481V52.8882H189.952V41.6306V41.6286Z" fill="#6032EC"/>
<path d="M198.423 41.6286H200.889L204.464 50.5381V41.6286H206.097V52.8862H203.631L200.056 43.9768V52.8862H198.423V41.6286Z" fill="#6032EC"/>
<path d="M208.314 49.9742V44.5215C208.314 42.9124 209.637 41.6267 211.253 41.6267H212.558C214.191 41.6267 215.496 42.9124 215.496 44.5215V45.4049H213.863V44.5215C213.863 43.7978 213.292 43.2339 212.558 43.2339H211.253C210.518 43.2339 209.948 43.8132 209.948 44.5215V49.9742C209.948 50.6824 210.536 51.2599 211.253 51.2599H212.558C213.277 51.2599 213.863 50.6805 213.863 49.9742V49.0888H215.496V49.9742C215.496 51.5659 214.191 52.8843 212.558 52.8843H211.253C209.637 52.8843 208.314 51.5659 208.314 49.9742Z" fill="#6032EC"/>
<path d="M217.471 41.6286H224V43.2377H219.102V46.1806H223.363V47.7896H219.102V51.2791H224V52.8882H217.471V41.6306V41.6286Z" fill="#6032EC"/>
</svg>
