<?xml version="1.0" encoding="UTF-8"?><svg id="Layer_1" xmlns="http://www.w3.org/2000/svg" viewBox="0 0 200 200"><defs><style>.cls-1{fill:#0b2539;}</style></defs><path class="cls-1" d="M110,107.04l15.6,45.5c.37,1.09,1.76,1.41,2.58.59l9.63-9.6c2.04-2.02,2.93-4.92,2.38-7.73l-9.45-48.63,18.23-18.16c5.37-5.35,8.19-12.61,7.96-20.02-.1-3.07-2.66-5.63-5.74-5.72-7.44-.23-14.73,2.59-20.1,7.93l-18.23,18.16-48.81-9.41c-2.82-.54-5.73.34-7.76,2.37l-9.63,9.6c-.82.81-.49,2.2.6,2.57l45.67,15.54-22.5,26.46-18.36-4.52c-2.06-.51-4.24.1-5.74,1.59l-2.83,2.82c-.67.67-.59,1.78.17,2.35l15.59,11.51c-1.35,2.94-.91,6.46,1.49,8.85,2.4,2.39,5.94,2.84,8.89,1.49l11.55,15.53c.56.76,1.68.85,2.35.17l2.83-2.82c1.5-1.5,2.11-3.66,1.6-5.72l-4.54-18.29,26.56-22.42Z"/></svg>