<?xml version="1.0" encoding="UTF-8"?>
<svg id="_レイヤー_2" data-name="レイヤー 2" xmlns="http://www.w3.org/2000/svg" viewBox="0 0 340.16 77.96">
  <defs>
    <style>
      .cls-1 {
        fill: #121659;
      }
    </style>
  </defs>
  <g id="_レイヤー_1-2" data-name="レイヤー 1">
    <g>
      <polygon class="cls-1" points="233.5 77.96 213.67 77.96 268.21 0 274.53 0 233.5 77.96"/>
      <polygon class="cls-1" points="331.39 77.96 297.95 77.96 299.2 0 312.14 0 331.39 77.96"/>
      <path class="cls-1" d="m340.16,22.22v1.06c-77.29-9.15-136.06,53.19-136.06,53.19v-20.1s50.29-45.66,136.06-34.15Z"/>
    </g>
    <g>
      <path class="cls-1" d="m0,7.22h5.41v9.95h13.06V7.22h5.41v25.83h-5.41v-11.52H5.41v11.52H0V7.22h0Z"/>
      <path class="cls-1" d="m42.44,26.53l-2.6,6.51h-5.6l10.65-25.83h6.84l11.16,25.83h-5.89l-2.74-6.51h-11.82Zm10.24-4.39c-2.63-6.33-3.91-9.44-4.54-11.34h-.04c-.55,1.83-2.05,5.93-4.21,11.34h8.79Z"/>
      <path class="cls-1" d="m73.24,33.04V7.21h6.4c6.8,10.1,11.45,16.28,13.02,19.2h.07c-.26-2.93-.22-7.54-.22-11.74v-7.46h5.01v25.83h-6.04c-2.89-4.28-11.78-17.49-13.43-20.45h-.07c.22,3.26.22,6.91.22,11.49v8.96h-4.96Z"/>
      <path class="cls-1" d="m132.99,21.78h-14.74v6.88h16.35l-.62,4.39h-21.14V7.22h20.96v4.39h-15.55v5.78h14.74v4.39Z"/>
      <path class="cls-1" d="m148.03,7.22h11.3c8.6,0,13.39,5.56,13.39,12.47,0,8.27-6,13.35-13.5,13.35h-11.19V7.22Zm5.42,21.54h5.01c5.63,0,8.52-3.29,8.52-8.93,0-5.16-2.93-8.34-8.38-8.38h-5.16v17.31h.01Z"/>
      <path class="cls-1" d="m189.65,26.53l-2.6,6.51h-5.6l10.65-25.83h6.84l11.16,25.83h-5.89l-2.74-6.51h-11.82Zm10.24-4.39c-2.63-6.33-3.91-9.44-4.54-11.34h-.04c-.55,1.83-2.05,5.93-4.21,11.34h8.79Z"/>
    </g>
  </g>
</svg>