<svg id="Ebene_1" data-name="Ebene 1" xmlns="http://www.w3.org/2000/svg" viewBox="0 0 410.39 98.74"><defs><style>.cls-1{fill:#0035ad;}</style></defs><title>Plan de travail 1</title><path class="cls-1" d="M0,3H39.72v9.82h-28V24.19H37.42v9.08H11.68v13H40.32v9.82H0Z"/><path class="cls-1" d="M82.05,56.11H72V50.75h-.22A13.74,13.74,0,0,1,60,57.15C48.8,57.15,46,50.82,46,41.3V17.65H56.54V39.37c0,6.32,1.86,9.45,6.77,9.45,5.72,0,8.18-3.2,8.18-11V17.65H82.05Z"/><path class="cls-1" d="M89,17.65H99v7.14h.15a13.59,13.59,0,0,1,12.27-8.19,7.66,7.66,0,0,1,2.31.38V26.8a18.76,18.76,0,0,0-3.79-.38c-7.74,0-10.42,5.58-10.42,12.35V56.11H89Z"/><path class="cls-1" d="M134.87,16.6c12.12,0,19.93,8,19.93,20.31S147,57.15,134.87,57.15,115,49.11,115,36.91,122.82,16.6,134.87,16.6Zm0,32.59c7.21,0,9.37-6.18,9.37-12.28s-2.16-12.35-9.37-12.35-9.3,6.18-9.3,12.35S127.73,49.19,134.87,49.19Z"/><path d="M175.41,3h12l19.86,53.12H195.12l-4-11.83H171.24l-4.16,11.83H155.25Zm-1.12,32.58h13.77l-6.7-19.49h-.15Z"/><path d="M221.6,11.69H211V3H221.6Zm-10.56,6H221.6V56.11H211Z"/><path d="M229.94,17.65h10v7.14h.15A13.59,13.59,0,0,1,252.4,16.6a7.66,7.66,0,0,1,2.31.38V26.8a18.78,18.78,0,0,0-3.8-.38c-7.73,0-10.41,5.58-10.41,12.35V56.11H229.94Z"/><path d="M258.87,17.65h10.05v4.91h.14c2.53-4.1,6.7-6,11.46-6,12.05,0,17.48,9.75,17.48,20.69,0,10.26-5.65,19.86-16.88,19.86a13.65,13.65,0,0,1-11.53-5.8h-.15V69.64H258.87ZM287.44,37c0-6.1-2.46-12.43-9.22-12.43-6.92,0-9.16,6.18-9.16,12.43s2.39,12.2,9.23,12.2S287.44,43.24,287.44,37Z"/><path d="M321.14,16.6c12.12,0,19.93,8,19.93,20.31s-7.81,20.24-19.93,20.24-19.86-8-19.86-20.24S309.09,16.6,321.14,16.6Zm0,32.59c7.21,0,9.37-6.18,9.37-12.28s-2.16-12.35-9.37-12.35-9.3,6.18-9.3,12.35S314,49.19,321.14,49.19Z"/><path d="M344.2,17.65h10v7.14h.15a13.59,13.59,0,0,1,12.27-8.19A7.66,7.66,0,0,1,369,17V26.8a18.76,18.76,0,0,0-3.79-.38c-7.74,0-10.42,5.58-10.42,12.35V56.11H344.2Z"/><path d="M388.39,17.65h7.73v7.06h-7.73v19c0,3.57.89,4.46,4.46,4.46a15.74,15.74,0,0,0,3.27-.3v8.26a40.13,40.13,0,0,1-6.17.37c-6.47,0-12.13-1.49-12.13-9.15V24.71h-6.4V17.65h6.4V6.12h10.57Z"/><path d="M400.28,46.19h10.11v9.92H400.28Z"/><path d="M-.36,81.18h9.6c3.31,0,4.7,1.89,4.7,4.32A3.6,3.6,0,0,1,11,89.17v0a4,4,0,0,1,3.57,4.21c0,3.57-3,4.89-5.58,4.89H-.36Zm1.75,7.44H8.31c2.37,0,3.88-.77,3.88-3.05,0-2.09-1.37-2.76-3.28-2.76H1.39Zm0,8.06H8.74c2.27,0,4-.91,4-3.26s-1.51-3.17-3.54-3.17H1.39Z"/><path d="M29.6,93.1H20.71l-2.3,5.21H16.52l7.66-17.13h2l7.67,17.13h-2ZM25.17,83l-3.76,8.52h7.48Z"/><path d="M47.8,86.07c-.23-2.93-2.57-3.7-5.29-3.7s-4.78,1.08-4.78,3c0,2.23,2.06,2.76,6.17,3.46,3.08.52,6.15,1.24,6.15,4.53,0,4.2-3.76,5.35-7,5.35-4.28,0-7.4-1.48-7.66-6.09h1.75c.31,3.6,2.67,4.46,5.91,4.46,2.53,0,5.16-.69,5.16-3.41S45.08,90.78,42,90.27c-4-.65-6.17-1.8-6.17-4.56,0-3.74,3.4-5,6.67-5,3.45,0,6.92,1.25,7,5.33Z"/><path d="M53.5,81.18H66.93v1.63H55.25v5.81H66.51v1.63H55.25v6.43H67.12v1.63H53.5Z"/><path d="M70.48,81.18h1.75v15.5H82.94v1.63H70.48Z"/><path d="M123.31,81.18h2.48V98.31H124V83.5H124l-7.45,14.81h-1.6l-7.43-14.83h-.05V98.31h-1.75V81.18h2.56l7.52,14.9Z"/><path d="M145.16,91.69c0,3.12-.86,7-7.55,7s-7.54-3.93-7.54-7V81.18h1.75V91.69c0,4.49,2.86,5.42,5.79,5.42s5.8-.93,5.8-5.42V81.18h1.75Z"/><path d="M149.44,81.18h1.75v15.5H161.9v1.63H149.44Z"/><path d="M164.52,81.18h1.75v7.24h12.2V81.18h1.75V98.31h-1.75V90.05h-12.2v8.26h-1.75Z"/><path d="M192.92,80.74c4.8,0,9.18,3,9.18,9s-4.38,9-9.18,9-9.17-2.95-9.17-9S188.12,80.74,192.92,80.74Zm0,16.37c3.71,0,7.28-2.21,7.28-7.37s-3.57-7.37-7.28-7.37-7.28,2.21-7.28,7.37S189.21,97.11,192.92,97.11Z"/><path d="M220.8,91.69c0,3.12-.85,7-7.54,7s-7.55-3.93-7.55-7V81.18h1.75V91.69c0,4.49,2.86,5.42,5.8,5.42s5.79-.93,5.79-5.42V81.18h1.75Z"/><path d="M236.52,86.07c-.23-2.93-2.57-3.7-5.29-3.7s-4.78,1.08-4.78,3c0,2.23,2.06,2.76,6.17,3.46,3.08.52,6.15,1.24,6.15,4.53,0,4.2-3.76,5.35-7,5.35-4.29,0-7.41-1.48-7.67-6.09h1.75c.31,3.6,2.68,4.46,5.92,4.46,2.53,0,5.15-.69,5.15-3.41s-3.07-2.92-6.15-3.43c-4-.65-6.17-1.8-6.17-4.56,0-3.74,3.41-5,6.67-5,3.45,0,6.93,1.25,7,5.33Z"/><path d="M242.22,81.18h13.44v1.63H244v5.81h11.26v1.63H244v6.43h11.87v1.63H242.22Z"/><path d="M279.35,81.18H292v1.63H281.1v5.81h10.36v1.63H281.1v8.06h-1.75Z"/><path d="M295.14,81.18h9.2c2.86,0,5.49,1,5.49,4.63A4.17,4.17,0,0,1,306.52,90V90c2.39.38,2.88,1.94,3,4.75.05,1.08.19,3.17.59,3.55h-1.89c-.31-.36-.42-1.63-.45-3.5,0-3-1.18-4-4.09-4h-6.79v7.53h-1.75Zm1.75,8h7.41c1.91,0,3.64-.72,3.64-3.33s-1.87-3-3.48-3h-7.57Z"/><path d="M313.73,81.18h13.43v1.63H315.48v5.81h11.26v1.63H315.48v6.43h11.87v1.63H313.73Z"/><path d="M330.9,81.18h1.75V98.31H330.9Z"/><path d="M337,81.18h9.6c3.31,0,4.71,1.89,4.71,4.32a3.6,3.6,0,0,1-2.91,3.67v0A4,4,0,0,1,352,93.42c0,3.57-3,4.89-5.58,4.89H337Zm1.75,7.44h6.93c2.36,0,3.88-.77,3.88-3.05,0-2.09-1.37-2.76-3.29-2.76h-7.52Zm0,8.06h7.36c2.27,0,4-.91,4-3.26s-1.51-3.17-3.55-3.17h-7.78Z"/><path d="M370.79,91.69c0,3.12-.85,7-7.54,7s-7.55-3.93-7.55-7V81.18h1.75V91.69c0,4.49,2.86,5.42,5.8,5.42s5.79-.93,5.79-5.42V81.18h1.75Z"/><path d="M375.35,81.18h9.2c2.86,0,5.49,1,5.49,4.63A4.17,4.17,0,0,1,386.73,90V90c2.39.38,2.88,1.94,3,4.75,0,1.08.19,3.17.59,3.55h-1.89c-.31-.36-.43-1.63-.45-3.5-.05-3-1.18-4-4.09-4H377.1v7.53h-1.75Zm1.75,8h7.4c1.92,0,3.65-.72,3.65-3.33s-1.87-3-3.48-3H377.1Z"/><path d="M409.1,95.07h-.05a7.61,7.61,0,0,1-7,3.67c-5.73,0-8.85-3.64-8.85-9,0-5.18,3.43-9,9-9,4.7,0,7.7,2.69,8.15,5.86h-1.89c-.68-2.9-3.24-4.23-6.26-4.23-4.62,0-7.15,2.86-7.15,7.37s2.32,7.37,6.82,7.37c5.05,0,6.66-2.93,7.18-6h-6.19V89.48h7.8v8.83h-1.35Z"/><path d="M410.9,11.56a6.45,6.45,0,0,1-.51,2.6,6.05,6.05,0,0,1-3.34,3.3,6.23,6.23,0,0,1-2.38.46,6.47,6.47,0,0,1-2.52-.48,5.93,5.93,0,0,1-2-1.34,6.09,6.09,0,0,1-1.29-2,6.58,6.58,0,0,1-.47-2.53,6.62,6.62,0,0,1,.5-2.6,6,6,0,0,1,1.36-2,6.11,6.11,0,0,1,2-1.3,6.41,6.41,0,0,1,4.77,0A6.13,6.13,0,0,1,409,7a5.86,5.86,0,0,1,1.36,2A6.45,6.45,0,0,1,410.9,11.56Zm-1.36,0a5.79,5.79,0,0,0-.38-2.12,4.92,4.92,0,0,0-1-1.67,4.77,4.77,0,0,0-1.54-1.08,4.86,4.86,0,0,0-1.91-.38,5,5,0,0,0-1.93.38,4.81,4.81,0,0,0-1.55,1.08,5.08,5.08,0,0,0-1,1.67,5.79,5.79,0,0,0-.37,2.12,5.9,5.9,0,0,0,.34,2,4.82,4.82,0,0,0,1,1.67,4.69,4.69,0,0,0,1.53,1.13,4.77,4.77,0,0,0,2,.42,4.69,4.69,0,0,0,1.91-.39,4.48,4.48,0,0,0,1.54-1.08,4.83,4.83,0,0,0,1-1.65A5.86,5.86,0,0,0,409.54,11.56Zm-6.12,3.64h-1.16v-7h2.67a3.2,3.2,0,0,1,1.92.48,1.8,1.8,0,0,1,.65,1.55,1.72,1.72,0,0,1-.53,1.39,2.45,2.45,0,0,1-1.31.53l2,3.09h-1.31l-1.82-3h-1.08Zm1.29-4c.21,0,.42,0,.62,0a1.37,1.37,0,0,0,.52-.14,1,1,0,0,0,.35-.34,1.11,1.11,0,0,0,.14-.6.88.88,0,0,0-.14-.51,1.06,1.06,0,0,0-.37-.29,1.54,1.54,0,0,0-.49-.13l-.53,0h-1.39v2.06Z"/></svg>