<svg xmlns="http://www.w3.org/2000/svg" xmlns:xlink="http://www.w3.org/1999/xlink" viewBox="0 0 295.23 118.75"><defs><style>.cls-1{fill:none;}.cls-2{fill:#fff;}.cls-3{clip-path:url(#clip-path);}.cls-4{fill:url(#linear-gradient);}.cls-5{clip-path:url(#clip-path-2);}.cls-6{fill:url(#linear-gradient-2);}.cls-7{clip-path:url(#clip-path-3);}.cls-8{fill:url(#linear-gradient-3);}.cls-9{clip-path:url(#clip-path-4);}.cls-10{fill:url(#linear-gradient-4);}.cls-11{clip-path:url(#clip-path-5);}.cls-12{fill:url(#linear-gradient-5);}.cls-13{clip-path:url(#clip-path-6);}.cls-14{fill:url(#linear-gradient-6);}.cls-15{clip-path:url(#clip-path-7);}.cls-16{fill:url(#linear-gradient-7);}.cls-17{clip-path:url(#clip-path-8);}.cls-18{fill:url(#linear-gradient-8);}.cls-19{clip-path:url(#clip-path-9);}.cls-20{fill:url(#linear-gradient-9);}.cls-21{clip-path:url(#clip-path-10);}.cls-22{fill:url(#linear-gradient-10);}.cls-23{clip-path:url(#clip-path-11);}.cls-24{fill:url(#linear-gradient-11);}.cls-25{clip-path:url(#clip-path-12);}.cls-26{fill:url(#linear-gradient-12);}.cls-27{clip-path:url(#clip-path-13);}.cls-28{fill:url(#linear-gradient-13);}.cls-29{clip-path:url(#clip-path-14);}.cls-30{fill:url(#linear-gradient-14);}.cls-31{clip-path:url(#clip-path-15);}.cls-32{fill:url(#linear-gradient-15);}.cls-33{clip-path:url(#clip-path-16);}.cls-34{fill:url(#linear-gradient-16);}</style><clipPath id="clip-path"><path class="cls-1" d="M24.24,84.77h9.11A1.63,1.63,0,0,0,35,83.17V71.46a4.46,4.46,0,0,0-1.16-2.75L25.4,60.43A1.67,1.67,0,0,0,24.24,60Z"/></clipPath><linearGradient id="linear-gradient" x1="-273.09" y1="320.97" x2="-271.53" y2="320.97" gradientTransform="matrix(0, 15.92, 15.92, 0, -5080.29, 4407.61)" gradientUnits="userSpaceOnUse"><stop offset="0" stop-color="#ed145b"/><stop offset="1" stop-color="#740f36"/></linearGradient><clipPath id="clip-path-2"><path class="cls-1" d="M23.09,60.43l-8.43,8.28a4.4,4.4,0,0,0-1.15,2.75V83.17a1.62,1.62,0,0,0,1.63,1.61h9.11V60a1.62,1.62,0,0,0-1.15.47"/></clipPath><linearGradient id="linear-gradient-2" x1="-256.34" y1="327.86" x2="-254.79" y2="327.86" gradientTransform="matrix(0, -15.92, -15.92, 0, 5238.42, -3996.31)" gradientUnits="userSpaceOnUse"><stop offset="0" stop-color="#ed145b"/><stop offset="1" stop-color="#bf194f"/></linearGradient><clipPath id="clip-path-3"><path class="cls-1" d="M21,33.82A4.57,4.57,0,0,0,18.24,35L9.81,43.24a1.59,1.59,0,0,0,0,2.27l6.44,6.33L34.11,34.29A1.65,1.65,0,0,0,33,33.82Z"/></clipPath><linearGradient id="linear-gradient-3" x1="-260.81" y1="333.02" x2="-259.22" y2="333.02" gradientTransform="matrix(11.26, -11.26, -11.26, -11.26, 6699.47, 863.03)" xlink:href="#linear-gradient-2"/><clipPath id="clip-path-4"><path class="cls-1" d="M16.25,51.84l6.44,6.32a1.66,1.66,0,0,0,2.31,0l8.43-8.28a4.48,4.48,0,0,0,1.15-2.75V35.43a1.59,1.59,0,0,0-.48-1.13Z"/></clipPath><linearGradient id="linear-gradient-4" x1="-268.72" y1="315.39" x2="-267.13" y2="315.39" gradientTransform="matrix(-11.26, 11.26, 11.26, 11.26, -6539.43, -489.38)" xlink:href="#linear-gradient"/><clipPath id="clip-path-5"><path class="cls-1" d="M34.59,23.26v8.95a1.63,1.63,0,0,0,1.64,1.61H48.15a4.55,4.55,0,0,0,2.79-1.14l8.43-8.28a1.58,1.58,0,0,0,.48-1.14Z"/></clipPath><linearGradient id="linear-gradient-5" x1="-267.66" y1="333.65" x2="-266.07" y2="333.65" gradientTransform="matrix(15.92, 0, 0, -15.92, 4295.76, 5340.27)" xlink:href="#linear-gradient"/><clipPath id="clip-path-6"><path class="cls-1" d="M36.23,12.71a1.62,1.62,0,0,0-1.64,1.6v8.95H59.85a1.57,1.57,0,0,0-.48-1.13l-8.43-8.28a4.55,4.55,0,0,0-2.79-1.14Z"/></clipPath><linearGradient id="linear-gradient-6" x1="-267.66" y1="333.88" x2="-266.07" y2="333.88" gradientTransform="matrix(15.92, 0, 0, -15.92, 4295.76, 5333.49)" xlink:href="#linear-gradient-2"/><clipPath id="clip-path-7"><path class="cls-1" d="M74,9.48,67.61,15.8,85.47,33.35a1.59,1.59,0,0,0,.48-1.13V20.5a4.39,4.39,0,0,0-1.16-2.74L76.36,9.48a1.65,1.65,0,0,0-2.31,0"/></clipPath><linearGradient id="linear-gradient-7" x1="-273.04" y1="329.28" x2="-271.46" y2="329.28" gradientTransform="matrix(11.26, 11.26, 11.26, -11.26, -563.6, 6794.43)" xlink:href="#linear-gradient-2"/><clipPath id="clip-path-8"><path class="cls-1" d="M61.17,22.13a1.58,1.58,0,0,0,0,2.27l8.43,8.28a4.61,4.61,0,0,0,2.79,1.14H84.32a1.66,1.66,0,0,0,1.15-.47L67.61,15.8Z"/></clipPath><linearGradient id="linear-gradient-8" x1="-256.48" y1="319.13" x2="-254.89" y2="319.13" gradientTransform="matrix(-11.26, -11.26, -11.26, 11.26, 788.8, -6444.48)" xlink:href="#linear-gradient"/><clipPath id="clip-path-9"><path class="cls-1" d="M87.32,33.82a1.63,1.63,0,0,0-1.64,1.61V47.14a4.48,4.48,0,0,0,1.16,2.75l8.44,8.28a1.65,1.65,0,0,0,1.16.47V33.82Z"/></clipPath><linearGradient id="linear-gradient-9" x1="-273.71" y1="322.31" x2="-272.15" y2="322.31" gradientTransform="matrix(0, 15.92, 15.92, 0, -5040.12, 4391.2)" xlink:href="#linear-gradient-2"/><clipPath id="clip-path-10"><path class="cls-1" d="M96.43,33.82V58.63a1.63,1.63,0,0,0,1.15-.47L106,49.88a4.46,4.46,0,0,0,1.16-2.75V35.43a1.63,1.63,0,0,0-1.63-1.61Z"/></clipPath><linearGradient id="linear-gradient-10" x1="-255.79" y1="325.94" x2="-254.23" y2="325.94" gradientTransform="matrix(0, -15.92, -15.92, 0, 5290.74, -4013.46)" xlink:href="#linear-gradient"/><clipPath id="clip-path-11"><path class="cls-1" d="M95.28,60.43l-8.44,8.28a4.47,4.47,0,0,0-1.16,2.75V83.17a1.6,1.6,0,0,0,.49,1.14L104,66.76l-6.44-6.33A1.63,1.63,0,0,0,96.43,60a1.65,1.65,0,0,0-1.16.47"/></clipPath><linearGradient id="linear-gradient-11" x1="-269.32" y1="317.13" x2="-267.74" y2="317.13" gradientTransform="matrix(-11.26, 11.26, 11.26, 11.26, -6499.65, -473.33)" xlink:href="#linear-gradient-2"/><clipPath id="clip-path-12"><path class="cls-1" d="M86.17,84.3a1.65,1.65,0,0,0,1.15.47H99.24A4.6,4.6,0,0,0,102,83.64l8.43-8.28a1.59,1.59,0,0,0,0-2.28L104,66.76Z"/></clipPath><linearGradient id="linear-gradient-12" x1="-260.2" y1="331.47" x2="-258.61" y2="331.47" gradientTransform="matrix(11.26, -11.26, -11.26, -11.26, 6748.48, 888.64)" xlink:href="#linear-gradient"/><clipPath id="clip-path-13"><path class="cls-1" d="M60.82,95.33a1.6,1.6,0,0,0,.48,1.13l8.43,8.28a4.59,4.59,0,0,0,2.79,1.14H84.44a1.63,1.63,0,0,0,1.63-1.61V95.33Z"/></clipPath><linearGradient id="linear-gradient-13" x1="-267.06" y1="332.02" x2="-265.48" y2="332.02" gradientTransform="matrix(15.92, 0, 0, -15.92, 4312.53, 5386.51)" xlink:href="#linear-gradient"/><clipPath id="clip-path-14"><path class="cls-1" d="M72.52,84.77a4.6,4.6,0,0,0-2.79,1.14l-8.43,8.28a1.61,1.61,0,0,0-.48,1.14H86.08V86.38a1.63,1.63,0,0,0-1.63-1.61Z"/></clipPath><linearGradient id="linear-gradient-14" x1="-262.4" y1="316.31" x2="-260.81" y2="316.31" gradientTransform="matrix(-15.92, 0, 0, 15.92, -4091.39, -4945.75)" xlink:href="#linear-gradient-2"/><clipPath id="clip-path-15"><path class="cls-1" d="M36.23,84.77a1.67,1.67,0,0,0-1.16.47l17.87,17.55,6.44-6.33a1.6,1.6,0,0,0,0-2.27l-8.43-8.28a4.6,4.6,0,0,0-2.79-1.14Z"/></clipPath><linearGradient id="linear-gradient-15" x1="-257.07" y1="320.84" x2="-255.48" y2="320.84" gradientTransform="matrix(-11.26, -11.26, -11.26, 11.26, 772.8, -6404.94)" xlink:href="#linear-gradient-2"/><clipPath id="clip-path-16"><path class="cls-1" d="M34.59,86.38V98.09a4.44,4.44,0,0,0,1.16,2.74l8.43,8.28a1.67,1.67,0,0,0,2.31,0l6.44-6.32L35.07,85.25a1.6,1.6,0,0,0-.48,1.14"/></clipPath><linearGradient id="linear-gradient-16" x1="-272.47" y1="327.75" x2="-270.88" y2="327.75" gradientTransform="matrix(11.26, 11.26, 11.26, -11.26, -589.23, 6844.25)" xlink:href="#linear-gradient"/></defs><title>Asset 2</title><g id="Layer_2" data-name="Layer 2"><g id="Layer_1-2" data-name="Layer 1"><path class="cls-2" d="M247.53,38.54a.81.81,0,0,0-.24-.28.85.85,0,0,0-.3-.13,2,2,0,0,0-.28,0h-.42V42.5h0v.14a3.7,3.7,0,0,1-.81,2.47,2.86,2.86,0,0,1-2.17,1.12l-.38,0,.15.35c.15.33.25.56.33.7l.08.15.17,0a4,4,0,0,0,2.9-1.57,5.25,5.25,0,0,0,1.07-3.37h0V39a1,1,0,0,0-.1-.47"/><path class="cls-2" d="M293.5,42.56a1.06,1.06,0,0,1-.93.45,1.2,1.2,0,0,1-.95-.45,2.19,2.19,0,0,1-.47-1.49,2.45,2.45,0,0,1,.4-1.5,1.08,1.08,0,0,1,.92-.44,1.15,1.15,0,0,1,1,.45,2.18,2.18,0,0,1,.47,1.49,2.38,2.38,0,0,1-.4,1.5M267,42.88a6.56,6.56,0,0,1,2.26-3,3.17,3.17,0,0,1,1.78-.57h.19c.87.07,1.48.72,1.82,2a6.12,6.12,0,0,1,.26,1.63Zm27.56-3.94a2.6,2.6,0,0,0-2.09-1c-1.67,0-2.69,1.19-2.69,3.1a3.3,3.3,0,0,0,.5,1.83H274.57c-.19-3-1.31-4.59-3.29-4.8H271a4,4,0,0,0-2.25.73A6,6,0,0,0,266.83,41h0v-5.5a.88.88,0,0,0-.09-.44.57.57,0,0,0-.22-.26.91.91,0,0,0-.28-.12,1.49,1.49,0,0,0-.26,0l-.29,0h-.1v8.21l-14.42,0a.79.79,0,0,1-.65-.77V34.7a1,1,0,0,0-.09-.47.69.69,0,0,0-.24-.28,1,1,0,0,0-.3-.13l-.28,0h-.42v1h0v7.46a1.88,1.88,0,0,0,.64,1.42,1.62,1.62,0,0,0,1.12.49h41.64c1.64,0,2.66-1.18,2.66-3.11a3.22,3.22,0,0,0-.7-2.11"/><path class="cls-2" d="M155,40.3v.51c0,.68,0,1.24,0,1.7,0,.14,0,.25,0,.36h-1.11c-.86,0-1.32-.92-1.32-1.76,0-1.2.57-2,1.4-2,.45,0,1,.14,1,1.24M153.84,38c-1.56,0-2.68,1.35-2.68,3.21a2.66,2.66,0,0,0,2.44,2.88h1.12A3.29,3.29,0,0,1,152,46.2h-.39l.15.37c.11.25.22.48.34.7l.09.16h.17a4.24,4.24,0,0,0,2.87-1.62c1-1.21,1.05-2,1.08-3.52V40.64a2.28,2.28,0,0,0-2.5-2.6"/><path class="cls-2" d="M149.6,34.68a1.06,1.06,0,0,0-.09-.47.72.72,0,0,0-.24-.27.84.84,0,0,0-.3-.13,1.09,1.09,0,0,0-.29,0h-.31a.22.22,0,0,1-.11,0v4.36h0c0,1.39,0,2.65,0,3.75,0,.67-.25,1-.88,1H134.5a1.32,1.32,0,0,1-.34,0,.51.51,0,0,1-.25-.19,1,1,0,0,1-.14-.39,3.61,3.61,0,0,1,0-.71v-3h-1.93a3.09,3.09,0,0,0-2.26.73,2.91,2.91,0,0,0-.73,2.17v1.83a3.09,3.09,0,0,1-.75,1.87,2.6,2.6,0,0,1-2.1,1,2.57,2.57,0,0,1-2-1,3.38,3.38,0,0,1-.87-2.27c0-.06,0-.21,0-.43h0v-.65a1,1,0,0,0-.1-.47.7.7,0,0,0-.24-.27,1.05,1.05,0,0,0-.29-.13,1.38,1.38,0,0,0-.29,0h-.36v.9h0v.65c0,.18,0,.32,0,.4A4.59,4.59,0,0,0,123,46.06a3.83,3.83,0,0,0,3,1.36,3.87,3.87,0,0,0,3-1.34,4.45,4.45,0,0,0,1.1-3h0V41.59a2.45,2.45,0,0,1,.14-.92,1.19,1.19,0,0,1,.41-.55,1.5,1.5,0,0,1,.64-.26,4.4,4.4,0,0,1,.85-.07h.27v2.28a2.91,2.91,0,0,0,.15,1,1.79,1.79,0,0,0,.43.62,1.34,1.34,0,0,0,.6.35,2,2,0,0,0,.68.11h13.25a2.12,2.12,0,0,0,1.6-.62,2.38,2.38,0,0,0,.48-1.58V40.25c0-.69,0-1.4,0-2.09h0Z"/><path class="cls-2" d="M182.18,34.21a.71.71,0,0,0-.24-.27.75.75,0,0,0-.3-.13,1.23,1.23,0,0,0-.28,0h-.32a.19.19,0,0,1-.09,0V44.13h1.32V34.68a1,1,0,0,0-.1-.47"/><path class="cls-2" d="M179.21,34.21a.76.76,0,0,0-.24-.27.68.68,0,0,0-.29-.13,1.27,1.27,0,0,0-.29,0h-.31a.2.2,0,0,1-.11,0v8.11c0,.67-.25,1-.89,1H163.47a6.83,6.83,0,0,0-1-3.43,3,3,0,0,0-1.34-1.18h0l-.23-.08a1.44,1.44,0,0,0-.45,0,.51.51,0,0,0-.31.13.84.84,0,0,0-.21.22,1,1,0,0,0-.11.25,1.13,1.13,0,0,0,0,.12.32.32,0,0,1,0,.11.67.67,0,0,1,0,.12,3.07,3.07,0,0,1,.93.29h0l.13.07a2.56,2.56,0,0,1,.81,1,5.88,5.88,0,0,1,.69,2.46h-4.12l-.39,1.27h19.48a2.1,2.1,0,0,0,1.6-.63,2.4,2.4,0,0,0,.48-1.58V34.68a1.06,1.06,0,0,0-.09-.47"/><path class="cls-2" d="M213.05,44.52a1.16,1.16,0,0,1-1-.52,2.44,2.44,0,0,1-.48-1.58c0-1.26.52-2.06,1.36-2.06a1.17,1.17,0,0,1,.94.51,2.36,2.36,0,0,1,.47,1.55c0,1.28-.53,2.1-1.34,2.1m-2.39-.4a2.55,2.55,0,0,0,2.36,1.4,2.41,2.41,0,0,0,2.34-1.4h21.72v-.25a8.37,8.37,0,0,0-.88-4,3.58,3.58,0,0,0-3.35-1.94,4.81,4.81,0,0,0-1.66.28h0l-.22.12a1.15,1.15,0,0,0-.35.28.63.63,0,0,0-.13.33.78.78,0,0,0,0,.31,2.21,2.21,0,0,0,.09.26l.06.11.06.09.07.09a4,4,0,0,1,1.05-.51,4.63,4.63,0,0,1,1.07-.15,2.33,2.33,0,0,1,1.92,1,4.66,4.66,0,0,1,.86,2.72h-20c0-.14,0-.29,0-.47a3.21,3.21,0,0,0-.72-2.1,2.53,2.53,0,0,0-2.07-1c-1.66,0-2.69,1.19-2.69,3.09,0,.15,0,.31,0,.47H195.67a6.77,6.77,0,0,0-1-3.43,3.07,3.07,0,0,0-1.34-1.19h0l-.23-.08a1.35,1.35,0,0,0-.45,0,.57.57,0,0,0-.32.13,1.18,1.18,0,0,0-.21.22,1.1,1.1,0,0,0-.11.25.5.5,0,0,0,0,.12.62.62,0,0,1,0,.11.53.53,0,0,1,0,.12,3,3,0,0,1,.93.28h0a2.36,2.36,0,0,1,1,1,6,6,0,0,1,.67,2.46h-4.11l-.39,1.27Z"/><path class="cls-2" d="M171.75,64.73h-1.33v-10l.12,0h.26a1.5,1.5,0,0,1,.3,0,1.15,1.15,0,0,1,.3.13.68.68,0,0,1,.24.28,1,1,0,0,1,.11.49Z"/><path class="cls-2" d="M174.11,57.69a1.22,1.22,0,0,1,.62.18.8.8,0,0,1,.34.59,2.87,2.87,0,0,1,.92-.61,3.32,3.32,0,0,1,1.39-.27,2.35,2.35,0,0,1,1.55.45,2,2,0,0,1,.7,1.12,3.4,3.4,0,0,1,.09.66c0,.25,0,.48,0,.71v4.23h-1.26V60.55c0-.18,0-.36,0-.54a1.64,1.64,0,0,0-.09-.49.93.93,0,0,0-.43-.59,1.65,1.65,0,0,0-1-.21,2.42,2.42,0,0,0-1.36.34.91.91,0,0,0-.51.72v5h-1.26v-7h.26"/><path class="cls-2" d="M181.95,63.84a2.12,2.12,0,0,1-.13-.63c0-.21,0-.43,0-.65v-7h.26a1.19,1.19,0,0,1,.7.21.82.82,0,0,1,.3.75v1.18h2.21v1.09h-2.21v3.83c0,.81.32,1.22,1,1.22a1.39,1.39,0,0,0,.45-.08,1.6,1.6,0,0,0,.37-.2,2.52,2.52,0,0,0,.28-.21.78.78,0,0,0,.14-.16,3.44,3.44,0,0,1,.3.44.68.68,0,0,1,.13.4.45.45,0,0,1-.13.29,1.38,1.38,0,0,1-.37.29,2.49,2.49,0,0,1-.58.23,3.61,3.61,0,0,1-.78.09,2.24,2.24,0,0,1-1.23-.3,1.57,1.57,0,0,1-.65-.81"/><path class="cls-2" d="M191.2,60.52a3,3,0,0,0-.08-.74,1.66,1.66,0,0,0-.27-.6,1.3,1.3,0,0,0-.52-.41,1.64,1.64,0,0,0-.77-.15,1.68,1.68,0,0,0-1.27.5,2.14,2.14,0,0,0-.55,1.39Zm-1.26,3.35a2.74,2.74,0,0,0,.75-.09,2.81,2.81,0,0,0,.55-.22,2.49,2.49,0,0,0,.39-.28l.27-.26a3.38,3.38,0,0,1,.29.45.85.85,0,0,1,.13.37.59.59,0,0,1-.07.25,1.17,1.17,0,0,1-.26.27,3,3,0,0,1-.87.43,4.06,4.06,0,0,1-1.3.18,4.1,4.1,0,0,1-1.31-.21,2.78,2.78,0,0,1-1.08-.64,3.08,3.08,0,0,1-.74-1.17,5,5,0,0,1-.27-1.76,4.24,4.24,0,0,1,.27-1.62,3.21,3.21,0,0,1,.72-1.13,2.79,2.79,0,0,1,1-.64,3.24,3.24,0,0,1,1.18-.22,2.91,2.91,0,0,1,1.3.26,2.42,2.42,0,0,1,.89.68,2.63,2.63,0,0,1,.49,1,3.91,3.91,0,0,1,.18,1.15c0,.14,0,.28,0,.42s0,.28,0,.4h-4.68a2.87,2.87,0,0,0,.56,1.74,2,2,0,0,0,1.63.66"/><path class="cls-2" d="M194.37,57.69a1.19,1.19,0,0,1,.62.18.75.75,0,0,1,.34.58,2.15,2.15,0,0,1,.62-.59,1.67,1.67,0,0,1,1-.28,1.32,1.32,0,0,1,.35,0,.86.86,0,0,1,.35.09.67.67,0,0,1,.27.19.44.44,0,0,1,.11.31,1.22,1.22,0,0,1-.13.51,2.13,2.13,0,0,1-.24.46,1.22,1.22,0,0,0-.41-.27,1.47,1.47,0,0,0-.57-.1,1.55,1.55,0,0,0-.48.08,1.7,1.7,0,0,0-.41.22,1.19,1.19,0,0,0-.28.33.71.71,0,0,0-.1.36v4.94H194.1v-7h.27"/><path class="cls-2" d="M199.42,57.69a1.23,1.23,0,0,1,.62.18.79.79,0,0,1,.33.59,2.87,2.87,0,0,1,.93-.61,3.27,3.27,0,0,1,1.39-.27,2.35,2.35,0,0,1,1.54.45,2,2,0,0,1,.7,1.12,3.25,3.25,0,0,1,.09.66c0,.25,0,.48,0,.71v4.23h-1.27V60.55c0-.18,0-.36,0-.54a1.52,1.52,0,0,0-.09-.49.88.88,0,0,0-.43-.59,1.71,1.71,0,0,0-1-.21,2.42,2.42,0,0,0-1.35.34.91.91,0,0,0-.5.72v5h-1.27v-7h.25"/><path class="cls-2" d="M211.12,61.21h-.44a8.77,8.77,0,0,0-1,.06,3.91,3.91,0,0,0-.89.23,1.69,1.69,0,0,0-.65.46,1.12,1.12,0,0,0-.26.77,1.29,1.29,0,0,0,.27.78,1.19,1.19,0,0,0,1,.34,2.78,2.78,0,0,0,.73-.1,2.46,2.46,0,0,0,.62-.28,1.47,1.47,0,0,0,.43-.36.65.65,0,0,0,.16-.37Zm1.24,1.9c0,.25,0,.43,0,.57a.62.62,0,0,0,.13.29.35.35,0,0,0,.22.13,1.57,1.57,0,0,0,.36,0v.59a1.35,1.35,0,0,1-.32.08,2.76,2.76,0,0,1-.41,0,1.5,1.5,0,0,1-.81-.19.78.78,0,0,1-.41-.66,3.23,3.23,0,0,1-.9.63,2.94,2.94,0,0,1-1.36.27,3.36,3.36,0,0,1-.77-.09,1.89,1.89,0,0,1-.71-.33,1.74,1.74,0,0,1-.53-.63,2.23,2.23,0,0,1-.21-1,1.93,1.93,0,0,1,.39-1.27,2.86,2.86,0,0,1,1-.78,4.8,4.8,0,0,1,1.23-.38,8.86,8.86,0,0,1,1.21-.12h.62V60a1.43,1.43,0,0,0-.32-1,1.64,1.64,0,0,0-1.22-.35,3.27,3.27,0,0,0-1.13.18,4.11,4.11,0,0,0-.89.46h-.14a1.9,1.9,0,0,1-.2-.41,1.13,1.13,0,0,1-.08-.36.45.45,0,0,1,.24-.37,2.51,2.51,0,0,1,.62-.3,4.32,4.32,0,0,1,.84-.22,5.78,5.78,0,0,1,.91-.08,4.11,4.11,0,0,1,1.27.17,2,2,0,0,1,.81.49,1.75,1.75,0,0,1,.45.82,4.72,4.72,0,0,1,.13,1.13Z"/><path class="cls-2" d="M214.66,63.84a1.85,1.85,0,0,1-.12-.63,6,6,0,0,1,0-.65v-7h.27a1.17,1.17,0,0,1,.69.21.83.83,0,0,1,.29.75v1.18H218v1.09h-2.22v3.83c0,.81.33,1.22,1,1.22a1.4,1.4,0,0,0,.45-.08,1.75,1.75,0,0,0,.37-.2,2.53,2.53,0,0,0,.27-.21.64.64,0,0,0,.14-.16,4.19,4.19,0,0,1,.3.44.72.72,0,0,1,.13.4.43.43,0,0,1-.14.29,1.18,1.18,0,0,1-.37.29,2.48,2.48,0,0,1-.59.23,3.4,3.4,0,0,1-.77.09,2.24,2.24,0,0,1-1.23-.3,1.55,1.55,0,0,1-.65-.81"/><path class="cls-2" d="M219.71,57.67H220a1.14,1.14,0,0,1,.7.22.94.94,0,0,1,.29.79V63.4a1.09,1.09,0,0,0,.13.6c.08.12.28.19.58.19v.52a1.29,1.29,0,0,1-.36.08,3.36,3.36,0,0,1-.45,0,1.36,1.36,0,0,1-.67-.13.8.8,0,0,1-.34-.36,1.23,1.23,0,0,1-.13-.5c0-.18,0-.36,0-.54Zm1.38-2.22a.78.78,0,0,1-.23.58.81.81,0,0,1-.57.23.82.82,0,0,1-.58-.23.78.78,0,0,1-.23-.58.81.81,0,0,1,.23-.61.78.78,0,0,1,.58-.24.76.76,0,0,1,.57.24.81.81,0,0,1,.23.61"/><path class="cls-2" d="M228,61.21a5.27,5.27,0,0,0-.08-.91,2.92,2.92,0,0,0-.29-.82,1.62,1.62,0,0,0-.58-.58,1.8,1.8,0,0,0-1-.23,1.75,1.75,0,0,0-.94.23,1.61,1.61,0,0,0-.6.58,2.47,2.47,0,0,0-.33.82,4.22,4.22,0,0,0-.1.91,5.4,5.4,0,0,0,.08.94,2.53,2.53,0,0,0,.3.85,1.84,1.84,0,0,0,.6.62,1.66,1.66,0,0,0,.95.25,1.77,1.77,0,0,0,1-.25,1.7,1.7,0,0,0,.6-.62,3,3,0,0,0,.29-.85,5.79,5.79,0,0,0,.08-.94m1.33,0a5,5,0,0,1-.18,1.4,3.2,3.2,0,0,1-.57,1.2,2.71,2.71,0,0,1-1,.83,3.29,3.29,0,0,1-1.52.32,3.41,3.41,0,0,1-1.51-.3,2.57,2.57,0,0,1-1-.8,3.31,3.31,0,0,1-.57-1.18,5.51,5.51,0,0,1-.17-1.42,4.6,4.6,0,0,1,.21-1.42,3.27,3.27,0,0,1,.63-1.17,3,3,0,0,1,1-.8,3.3,3.3,0,0,1,1.45-.3,3.39,3.39,0,0,1,1.49.3,2.84,2.84,0,0,1,1,.8,3.35,3.35,0,0,1,.56,1.15,4.86,4.86,0,0,1,.18,1.38"/><path class="cls-2" d="M231.32,57.69a1.23,1.23,0,0,1,.62.18.77.77,0,0,1,.33.59,3,3,0,0,1,.93-.61,3.3,3.3,0,0,1,1.39-.27,2.37,2.37,0,0,1,1.55.45,2.08,2.08,0,0,1,.7,1.12,2.89,2.89,0,0,1,.09.66c0,.25,0,.48,0,.71v4.23h-1.26V60a1.85,1.85,0,0,0-.09-.49,1,1,0,0,0-.43-.59,1.71,1.71,0,0,0-1-.21,2.45,2.45,0,0,0-1.36.34.93.93,0,0,0-.51.72v5h-1.26v-7h.25"/><path class="cls-2" d="M243,61.21h-.42a8.93,8.93,0,0,0-1,.06,3.94,3.94,0,0,0-.89.23,1.81,1.81,0,0,0-.65.46,1.12,1.12,0,0,0-.26.77,1.24,1.24,0,0,0,.28.78,1.17,1.17,0,0,0,1,.34,2.73,2.73,0,0,0,.73-.1,2.49,2.49,0,0,0,.62-.28,1.57,1.57,0,0,0,.42-.36.62.62,0,0,0,.15-.37Zm1.26,1.9a4.28,4.28,0,0,0,0,.57.58.58,0,0,0,.1.29.42.42,0,0,0,.22.13,1.67,1.67,0,0,0,.37,0v.59a1.39,1.39,0,0,1-.33.08,2.56,2.56,0,0,1-.4,0,1.57,1.57,0,0,1-.82-.19A.79.79,0,0,1,243,64a3.29,3.29,0,0,1-.88.63,3,3,0,0,1-1.37.27,3.5,3.5,0,0,1-.78-.09,1.94,1.94,0,0,1-.7-.33,1.83,1.83,0,0,1-.54-.63,2.36,2.36,0,0,1-.21-1,1.9,1.9,0,0,1,.4-1.27,2.86,2.86,0,0,1,1-.78,5,5,0,0,1,1.23-.38,8.86,8.86,0,0,1,1.21-.12H243V60a1.45,1.45,0,0,0-.32-1,1.64,1.64,0,0,0-1.23-.35,3.2,3.2,0,0,0-1.13.18,4.14,4.14,0,0,0-.89.46h-.14a2.52,2.52,0,0,1-.21-.41,1.22,1.22,0,0,1-.07-.36.43.43,0,0,1,.24-.37,2.3,2.3,0,0,1,.62-.3,4,4,0,0,1,.84-.22,5.73,5.73,0,0,1,.9-.08,4,4,0,0,1,1.27.17,2,2,0,0,1,.82.49,1.74,1.74,0,0,1,.45.82,4.43,4.43,0,0,1,.13,1.13Z"/><path class="cls-2" d="M247.68,63.33c0,.15,0,.28,0,.38a.62.62,0,0,0,.08.26.37.37,0,0,0,.21.16,1.25,1.25,0,0,0,.41.05v.53a1.37,1.37,0,0,1-.36.08,3.44,3.44,0,0,1-.46,0,1.3,1.3,0,0,1-.66-.13.84.84,0,0,1-.34-.36,1.25,1.25,0,0,1-.13-.5,4.78,4.78,0,0,1,0-.53v-9.1h.27a1.17,1.17,0,0,1,.7.21.92.92,0,0,1,.29.78Z"/><path class="cls-2" d="M256.29,56.26,254.62,61H258Zm3,8.48-1-2.67h-4l-1,2.67H252l3.6-9.86a1.41,1.41,0,0,1,.32-.09,1.67,1.67,0,0,1,.41,0,1,1,0,0,1,.51.13.8.8,0,0,1,.37.47l3.44,9.39Z"/><path class="cls-2" d="M262,57.67h.28a1.17,1.17,0,0,1,.7.22.93.93,0,0,1,.29.79V63.4a1.09,1.09,0,0,0,.12.6c.08.12.29.19.59.19v.52a1.44,1.44,0,0,1-.36.08,3.35,3.35,0,0,1-.45,0,1.33,1.33,0,0,1-.67-.13.84.84,0,0,1-.34-.36,1.5,1.5,0,0,1-.14-.5c0-.18,0-.36,0-.54Zm1.38-2.22a.79.79,0,0,1-.23.58A.83.83,0,0,1,262,56a.78.78,0,0,1-.23-.58.81.81,0,0,1,.23-.61.8.8,0,0,1,1.15,0,.82.82,0,0,1,.23.61"/><path class="cls-2" d="M265.72,57.69a1.19,1.19,0,0,1,.62.18.8.8,0,0,1,.34.58,2.2,2.2,0,0,1,.62-.59,1.69,1.69,0,0,1,1-.28,1.39,1.39,0,0,1,.35,0,1,1,0,0,1,.35.09.86.86,0,0,1,.27.19.46.46,0,0,1,.1.31,1.28,1.28,0,0,1-.12.51,3.18,3.18,0,0,1-.24.46,1.35,1.35,0,0,0-.41-.27,1.5,1.5,0,0,0-.56-.1,1.5,1.5,0,0,0-.9.3,1,1,0,0,0-.28.33.6.6,0,0,0-.11.36v4.94h-1.26v-7h.26"/><path class="cls-2" d="M275.32,61.23a5.81,5.81,0,0,0-.09-1,2.52,2.52,0,0,0-.32-.8,1.58,1.58,0,0,0-.58-.55,1.79,1.79,0,0,0-.9-.21,2.18,2.18,0,0,0-1.19.3.86.86,0,0,0-.47.72v3.37a1.69,1.69,0,0,0,.24.26,2.32,2.32,0,0,0,.37.26,3.54,3.54,0,0,0,.49.2,1.84,1.84,0,0,0,.59.09,1.57,1.57,0,0,0,1.39-.68,3.47,3.47,0,0,0,.47-2m-4.52-3.51a1.14,1.14,0,0,1,.61.16.89.89,0,0,1,.35.56,2.2,2.2,0,0,1,.79-.59,2.69,2.69,0,0,1,1.26-.26,3,3,0,0,1,1.09.2,2.21,2.21,0,0,1,.91.62,2.94,2.94,0,0,1,.63,1.1,6.36,6.36,0,0,1,0,3.51,3,3,0,0,1-.71,1.16,2.58,2.58,0,0,1-1,.61,3.15,3.15,0,0,1-1,.18,2.47,2.47,0,0,1-1.27-.27,2.16,2.16,0,0,1-.62-.5v3.76h-1.26V57.73h.28"/><path class="cls-2" d="M283.27,61.21a5.27,5.27,0,0,0-.08-.91,2.41,2.41,0,0,0-.29-.82,1.59,1.59,0,0,0-.58-.58,1.83,1.83,0,0,0-1-.23,1.75,1.75,0,0,0-1.55.81,2.9,2.9,0,0,0-.32.82,4.61,4.61,0,0,0-.1.91,5.05,5.05,0,0,0,.09.94,2.6,2.6,0,0,0,.3.85,1.82,1.82,0,0,0,.6.62,1.66,1.66,0,0,0,1,.25,1.75,1.75,0,0,0,1-.25,1.62,1.62,0,0,0,.6-.62,2.51,2.51,0,0,0,.29-.85,5.8,5.8,0,0,0,.08-.94m1.32,0a5.25,5.25,0,0,1-.17,1.4,3.32,3.32,0,0,1-.57,1.2,2.79,2.79,0,0,1-1,.83,3.81,3.81,0,0,1-3,0,2.54,2.54,0,0,1-1-.8,3.2,3.2,0,0,1-.56-1.18,5.43,5.43,0,0,1-.18-1.42,4.49,4.49,0,0,1,.21-1.42,3.41,3.41,0,0,1,.62-1.17,3,3,0,0,1,1-.8,3.29,3.29,0,0,1,1.44-.3,3.38,3.38,0,0,1,1.49.3,2.72,2.72,0,0,1,1,.8,3.27,3.27,0,0,1,.57,1.15,5.08,5.08,0,0,1,.17,1.38"/><path class="cls-2" d="M286.57,57.69a1.16,1.16,0,0,1,.61.18.77.77,0,0,1,.35.58,2.08,2.08,0,0,1,.62-.59,1.68,1.68,0,0,1,1-.28,1.43,1.43,0,0,1,.36,0,1,1,0,0,1,.35.09.7.7,0,0,1,.25.19.44.44,0,0,1,.11.31,1.24,1.24,0,0,1-.12.51,3,3,0,0,1-.24.46,1.44,1.44,0,0,0-.41-.27,1.51,1.51,0,0,0-.57-.1,1.45,1.45,0,0,0-.89.3,1.14,1.14,0,0,0-.29.33.69.69,0,0,0-.1.36v4.94H286.3v-7h.27"/><path class="cls-2" d="M291.49,63.84a2.4,2.4,0,0,1-.13-.63c0-.21,0-.43,0-.65v-7h.27a1.19,1.19,0,0,1,.7.21.84.84,0,0,1,.3.75v1.18h2.21v1.09h-2.21v3.83c0,.81.32,1.22,1,1.22a1.34,1.34,0,0,0,.45-.08,1.87,1.87,0,0,0,.38-.2,1.63,1.63,0,0,0,.27-.21.66.66,0,0,0,.14-.16,4.22,4.22,0,0,1,.3.44.68.68,0,0,1,.12.4.44.44,0,0,1-.13.29,1.3,1.3,0,0,1-.37.29,2.53,2.53,0,0,1-.59.23,3.42,3.42,0,0,1-.76.09,2.24,2.24,0,0,1-1.24-.3,1.56,1.56,0,0,1-.66-.81"/><path class="cls-2" d="M123.18,58.88h4.77V54.62h.37a1.4,1.4,0,0,1,.3,0,.83.83,0,0,1,.29.14.67.67,0,0,1,.24.29.92.92,0,0,1,.1.47v9.15h-1.3V60h-4.77v4.65h-1.31V54.62h.37a1.57,1.57,0,0,1,.32,0,.79.79,0,0,1,.3.14.75.75,0,0,1,.22.29,1.06,1.06,0,0,1,.09.47Z"/><path class="cls-2" d="M135.44,61.11H135a6.7,6.7,0,0,0-1,.07,3.54,3.54,0,0,0-.91.21,1.76,1.76,0,0,0-.65.46,1.16,1.16,0,0,0-.25.77,1.24,1.24,0,0,0,.27.79,1.18,1.18,0,0,0,1,.35,2.36,2.36,0,0,0,.74-.12,2.63,2.63,0,0,0,.62-.28,1.63,1.63,0,0,0,.43-.37.58.58,0,0,0,.15-.37ZM136.71,63a3.29,3.29,0,0,0,0,.56.57.57,0,0,0,.11.31.42.42,0,0,0,.22.13,1.81,1.81,0,0,0,.37,0v.6a1.53,1.53,0,0,1-.33.09l-.4,0a1.73,1.73,0,0,1-.82-.19.79.79,0,0,1-.41-.67,3.57,3.57,0,0,1-.9.64,3.13,3.13,0,0,1-1.38.26,3.22,3.22,0,0,1-.78-.09,1.91,1.91,0,0,1-.72-.34,1.82,1.82,0,0,1-.53-.64,2.28,2.28,0,0,1-.21-1,2,2,0,0,1,.4-1.28,2.91,2.91,0,0,1,1-.78,4.29,4.29,0,0,1,1.25-.38,8.69,8.69,0,0,1,1.22-.12h.62v-.22a1.48,1.48,0,0,0-.32-1,1.65,1.65,0,0,0-1.24-.35,3.23,3.23,0,0,0-1.14.18,4.14,4.14,0,0,0-.9.47h-.15a2.66,2.66,0,0,1-.2-.42,1.07,1.07,0,0,1-.08-.35.45.45,0,0,1,.24-.37,2.58,2.58,0,0,1,.62-.31,4.57,4.57,0,0,1,.85-.21,6,6,0,0,1,.92-.07,3.94,3.94,0,0,1,1.27.16,2,2,0,0,1,.83.5,1.8,1.8,0,0,1,.45.83,4.53,4.53,0,0,1,.13,1.13Z"/><path class="cls-2" d="M142.36,57.46a3.09,3.09,0,0,1,1.11.21,1.74,1.74,0,0,1,.85.71,3.3,3.3,0,0,1,.94-.65,3.1,3.1,0,0,1,1.36-.27,2.29,2.29,0,0,1,1.51.44,2,2,0,0,1,.69,1.13,3.16,3.16,0,0,1,.09.66c0,.24,0,.48,0,.71v4.27h-1.28V60.46c0-.2,0-.37,0-.56a1.68,1.68,0,0,0-.09-.48,1,1,0,0,0-.42-.6,1.78,1.78,0,0,0-1-.21,1.92,1.92,0,0,0-.92.21,1.81,1.81,0,0,0-.64.46c0,.17,0,.35.05.53s0,.38,0,.58v4.28h-1.28V60.46a3.9,3.9,0,0,0,0-.59,2.59,2.59,0,0,0-.1-.51c-.15-.5-.61-.75-1.35-.75a2.15,2.15,0,0,0-1.18.33,1.6,1.6,0,0,0-.39.33.62.62,0,0,0-.15.37v5h-1.28V57.58h.29a1.06,1.06,0,0,1,.64.18.83.83,0,0,1,.31.57,3,3,0,0,1,.91-.62,3.13,3.13,0,0,1,1.32-.26"/><path class="cls-2" d="M155,61.11h-.43a7,7,0,0,0-1,.07,3.49,3.49,0,0,0-.89.21,1.76,1.76,0,0,0-.66.46,1.12,1.12,0,0,0-.25.77,1.23,1.23,0,0,0,.27.79,1.18,1.18,0,0,0,1,.35,2.42,2.42,0,0,0,.74-.12,2.68,2.68,0,0,0,.62-.28,1.55,1.55,0,0,0,.43-.37.58.58,0,0,0,.16-.37ZM156.3,63a4.26,4.26,0,0,0,0,.56.64.64,0,0,0,.12.31.37.37,0,0,0,.23.13,1.7,1.7,0,0,0,.36,0v.6a1.48,1.48,0,0,1-.33.09l-.4,0a1.74,1.74,0,0,1-.82-.19.79.79,0,0,1-.41-.67,3.51,3.51,0,0,1-.9.64,3.08,3.08,0,0,1-1.37.26,3.27,3.27,0,0,1-.79-.09,1.88,1.88,0,0,1-.72-.34,1.94,1.94,0,0,1-.53-.64,2.36,2.36,0,0,1-.21-1,2,2,0,0,1,.4-1.28,2.85,2.85,0,0,1,1-.78,4.48,4.48,0,0,1,1.25-.38,8.85,8.85,0,0,1,1.23-.12H155v-.22a1.45,1.45,0,0,0-.32-1,1.63,1.63,0,0,0-1.23-.35,3.26,3.26,0,0,0-1.14.18,4.39,4.39,0,0,0-.91.47h-.14a2,2,0,0,1-.21-.42,1.13,1.13,0,0,1-.08-.35.46.46,0,0,1,.23-.37,2.78,2.78,0,0,1,.63-.31,4.32,4.32,0,0,1,.84-.21,6,6,0,0,1,.92-.07,4,4,0,0,1,1.28.16,2,2,0,0,1,.83.5,1.74,1.74,0,0,1,.45.83,4.44,4.44,0,0,1,.13,1.13Z"/><path class="cls-2" d="M159.48,61.1a5.94,5.94,0,0,0,.09,1.07,2.47,2.47,0,0,0,.31.86,1.64,1.64,0,0,0,.6.58,1.92,1.92,0,0,0,.92.2,2.22,2.22,0,0,0,.67-.09,1.73,1.73,0,0,0,.53-.22,1,1,0,0,0,.35-.31.66.66,0,0,0,.12-.37v-3.5h0l-.24-.22a1.63,1.63,0,0,0-.37-.24,1.73,1.73,0,0,0-.5-.21,2.36,2.36,0,0,0-.65-.08,1.62,1.62,0,0,0-1.36.64,3.09,3.09,0,0,0-.5,1.9m4.86,3.57H163.1V64a2.6,2.6,0,0,1-.29.29,2,2,0,0,1-.43.27,2.94,2.94,0,0,1-.57.2,2.41,2.41,0,0,1-.68.09,3.16,3.16,0,0,1-1.13-.2,2.67,2.67,0,0,1-1-.62,3,3,0,0,1-.65-1.13,6.18,6.18,0,0,1,0-3.41,3.3,3.3,0,0,1,.66-1.18,2.63,2.63,0,0,1,1-.69,2.9,2.9,0,0,1,1.13-.22,2.64,2.64,0,0,1,1.15.22,3.41,3.41,0,0,1,.77.51V54h.27a1.18,1.18,0,0,1,.71.21.89.89,0,0,1,.3.78Z"/><path class="cls-2" d="M214.25,76.06a.6.6,0,0,0,.23,0,.54.54,0,0,0,.18-.12.6.6,0,0,0,.13-.17.63.63,0,0,0,0-.23.61.61,0,0,0,0-.23.65.65,0,0,0-.13-.18.5.5,0,0,0-.18-.13.54.54,0,0,0-.23-.05A.5.5,0,0,0,214,75a.47.47,0,0,0-.18.13.7.7,0,0,0-.12.18.52.52,0,0,0-.05.23.54.54,0,0,0,.16.41A.55.55,0,0,0,214.25,76.06Z"/><path class="cls-2" d="M211.76,76.06a.6.6,0,0,0,.22,0,.52.52,0,0,0,.19-.12.7.7,0,0,0,.13-.18.61.61,0,0,0,0-.22.65.65,0,0,0,0-.23.63.63,0,0,0-.13-.18A.43.43,0,0,0,212,75a.47.47,0,0,0-.22-.05.54.54,0,0,0-.22,0,.62.62,0,0,0-.19.13.84.84,0,0,0-.12.18.48.48,0,0,0-.06.23.57.57,0,0,0,.17.42A.58.58,0,0,0,211.76,76.06Z"/><path class="cls-2" d="M213,77h0a2.42,2.42,0,0,0-1.7.66,3.24,3.24,0,0,0-1,2.41,3,3,0,0,0,.63,2.08,2.22,2.22,0,0,0,1.79.87h1.65v.12a2.22,2.22,0,0,1,0,.22.53.53,0,0,1-.61.49H201v-.12c-.2-3-1.32-4.67-3.34-4.88h-.3a4.09,4.09,0,0,0-2.28.74,6.2,6.2,0,0,0-1.89,2.23l-.21.39V75.7a.87.87,0,0,0-.08-.4.59.59,0,0,0-.19-.23.87.87,0,0,0-.26-.11,1,1,0,0,0-.25,0h-.29v8.9H180.1a1.16,1.16,0,0,1-.87-.43,1.84,1.84,0,0,1-.48-1.23V79.69a.9.9,0,0,0-.08-.43.62.62,0,0,0-.21-.24.88.88,0,0,0-.27-.12.84.84,0,0,0-.27,0h-.3s0,0,0,.17v4.41a4,4,0,0,1-.87,2.64,3,3,0,0,1-2.35,1.2h-.22l.1.21a6.7,6.7,0,0,0,.33.72l.05.1h.1a4.14,4.14,0,0,0,2.89-1.51,5.08,5.08,0,0,0,1.07-2.45l0-.23.15.18a.74.74,0,0,0,.12.12c.34.32.74.49,2.07.49h33.63c.18,0,.73-.47.79-1.4V79.6C215.48,77.87,214.65,77,213,77Zm0,4.94a1.29,1.29,0,0,1-1.1-.57,2.09,2.09,0,0,1-.38-1.37c0-1.31.67-2.2,1.55-2.2.51,0,1.19.16,1.21,1.43l0,2.71Zm-20,1.91.08-.16a6.89,6.89,0,0,1,2.38-3.2,3.42,3.42,0,0,1,1.92-.61h.2c1,.07,1.63.78,2,2.1a7,7,0,0,1,.27,1.74v.13Z"/><path class="cls-2" d="M130.05,78a4.47,4.47,0,0,0-.74-1.62,3.66,3.66,0,0,0-1.3-1.09,4.25,4.25,0,0,0-1.89-.4,4.37,4.37,0,0,0-2,.42,3.9,3.9,0,0,0-1.35,1.12A4.74,4.74,0,0,0,122,78a7.24,7.24,0,0,0-.25,1.94,8.33,8.33,0,0,0,.23,2,4.89,4.89,0,0,0,.73,1.67A3.67,3.67,0,0,0,124,84.72a4.11,4.11,0,0,0,1.94.43,4.33,4.33,0,0,0,2-.42,3.79,3.79,0,0,0,1.34-1.13,4.86,4.86,0,0,0,.76-1.66,8.13,8.13,0,0,0,.24-2A8,8,0,0,0,130.05,78Zm-1.25,3.53a4.12,4.12,0,0,1-.49,1.29,2.65,2.65,0,0,1-.9.9,3,3,0,0,1-2.75,0,2.7,2.7,0,0,1-.89-.9,4,4,0,0,1-.49-1.29,7.94,7.94,0,0,1-.15-1.54,7.49,7.49,0,0,1,.15-1.5,3.59,3.59,0,0,1,.5-1.25,2.56,2.56,0,0,1,.9-.85,2.92,2.92,0,0,1,1.41-.31,2.76,2.76,0,0,1,1.35.31,2.42,2.42,0,0,1,.88.85,4,4,0,0,1,.48,1.25,7.59,7.59,0,0,1,.15,1.5A8.05,8.05,0,0,1,128.8,81.49Z"/><path class="cls-2" d="M127.61,85.09l-.48-.28a.9.9,0,0,0-.44-.12.58.58,0,0,0-.34.13.79.79,0,0,0-.26.28,5.47,5.47,0,0,0,.47.57,5.61,5.61,0,0,0,.66.56,4.83,4.83,0,0,0,.75.45,1.73,1.73,0,0,0,.74.19.8.8,0,0,0,.65-.32,1.24,1.24,0,0,0,.26-.83,3.46,3.46,0,0,1-1.23-.22A4.85,4.85,0,0,1,127.61,85.09Z"/><path class="cls-2" d="M139.39,84.93l-1-2.66h-4l-1,2.66h-1.3l3.58-9.79.31-.08a2,2,0,0,1,.41-.05,1.09,1.09,0,0,1,.51.13.87.87,0,0,1,.35.49l3.41,9.31Zm-3-8.42-1.67,4.7h3.32Z"/><path class="cls-2" d="M144.94,76.18h-3.13l0-.14a.34.34,0,0,1,0-.13v-.15a.66.66,0,0,1,.22-.5,1,1,0,0,1,.68-.21h6.79a.51.51,0,0,0,0,.14.44.44,0,0,0,0,.11s0,.07,0,.09a.75.75,0,0,1-.22.55.88.88,0,0,1-.67.23h-2.34v8.75h-1.31Z"/><path class="cls-2" d="M157.47,84.93l-1-2.66h-4l-1,2.66h-1.3l3.58-9.79.31-.08a2,2,0,0,1,.41-.05,1,1,0,0,1,.51.13.9.9,0,0,1,.37.49l3.41,9.31Zm-3-8.42-1.66,4.7h3.32Z"/><path class="cls-2" d="M167.6,77.77a3.22,3.22,0,0,1-.18,1.11,2.53,2.53,0,0,1-.47.83,2.58,2.58,0,0,1-.68.6,3,3,0,0,1-.84.34l2.71,4.28a1.59,1.59,0,0,1-.34.1l-.36,0a1.16,1.16,0,0,1-1.05-.58l-2.3-3.6h-1.31v4.06h-1.29V75.09c.35-.06.74-.08,1.15-.11s.8,0,1.17,0a4.84,4.84,0,0,1,2.91.69A2.55,2.55,0,0,1,167.6,77.77Zm-1.35.07a2,2,0,0,0-.17-.9,1.23,1.23,0,0,0-.48-.56,2,2,0,0,0-.76-.28,6.5,6.5,0,0,0-1-.07h-.62l-.48,0h0v3.72h1.07a4.38,4.38,0,0,0,1-.1,2.32,2.32,0,0,0,.77-.34,1.55,1.55,0,0,0,.5-.62A2,2,0,0,0,166.25,77.85Z"/><path class="cls-2" d="M126.33,49.45a.79.79,0,0,0,.57.23.8.8,0,0,0,.31-.07.88.88,0,0,0,.25-.17.72.72,0,0,0,.17-.25.83.83,0,0,0,.06-.31.82.82,0,0,0-.06-.31.75.75,0,0,0-.17-.26.76.76,0,0,0-.25-.17.71.71,0,0,0-.31-.07.7.7,0,0,0-.31.07.73.73,0,0,0-.25.17.85.85,0,0,0-.16.26.67.67,0,0,0-.07.31.76.76,0,0,0,.23.57"/><path class="cls-2" d="M124.19,49.45a.78.78,0,0,0,.88.16.85.85,0,0,0,.26-.17.7.7,0,0,0,.17-.25.74.74,0,0,0,.06-.31.73.73,0,0,0-.06-.31.73.73,0,0,0-.17-.26.74.74,0,0,0-.26-.17.75.75,0,0,0-.62,0,.73.73,0,0,0-.25.17.77.77,0,0,0-.17.26.67.67,0,0,0-.06.31.77.77,0,0,0,.23.57"/><g class="cls-3"><rect class="cls-4" x="24.24" y="59.96" width="10.75" height="24.81"/></g><g class="cls-5"><rect class="cls-6" x="13.5" y="59.96" width="10.74" height="24.81"/></g><g class="cls-7"><polygon class="cls-8" points="0 42.83 21.64 21.57 43.28 42.83 21.64 64.08 0 42.83"/></g><g class="cls-9"><polygon class="cls-10" points="47.06 46.54 25.42 67.79 3.78 46.54 25.42 25.28 47.06 46.54"/></g><g class="cls-11"><rect class="cls-12" x="34.59" y="23.26" width="25.26" height="10.56"/></g><g class="cls-13"><rect class="cls-14" x="34.59" y="12.71" width="25.26" height="10.55"/></g><g class="cls-15"><polygon class="cls-16" points="76.77 0 98.33 21.17 76.77 42.35 55.21 21.17 76.77 0"/></g><g class="cls-17"><polygon class="cls-18" points="73 46.07 51.35 24.81 73 3.55 94.63 24.81 73 46.07"/></g><g class="cls-19"><rect class="cls-20" x="85.68" y="33.82" width="10.75" height="24.81"/></g><g class="cls-21"><rect class="cls-22" x="96.43" y="33.82" width="10.74" height="24.81"/></g><g class="cls-23"><polygon class="cls-24" points="116.41 72.13 94.86 93.31 73.3 72.13 94.86 50.95 116.41 72.13"/></g><g class="cls-25"><polygon class="cls-26" points="77 75.77 98.63 54.51 120.27 75.77 98.63 97.02 77 75.77"/></g><g class="cls-27"><rect class="cls-28" x="60.82" y="95.33" width="25.26" height="10.55"/></g><g class="cls-29"><rect class="cls-30" x="60.82" y="84.77" width="25.26" height="10.56"/></g><g class="cls-31"><polygon class="cls-32" points="47.54 115.04 25.9 93.78 47.54 72.53 69.18 93.78 47.54 115.04"/></g><g class="cls-33"><polygon class="cls-34" points="43.77 76.23 65.4 97.49 43.77 118.75 22.12 97.49 43.77 76.23"/></g></g></g></svg>