<svg id="Ebene_1" data-name="Ebene 1" xmlns="http://www.w3.org/2000/svg" viewBox="0 0 998.16 370.3"><defs><style>.cls-1{fill:#134392}.cls-2{fill:#e20e18}.cls-3{fill:#fff}</style></defs><rect class="cls-3" width="998.16" height="370.3" rx="185.15" ry="185.15"/><path class="cls-1" d="M278.07 72.41c-18.74-.02-34.11 8.06-36.96 24.24-.27 1.55-.4 3.01-.4 4.37 0 11.77 9.74 16.24 19.17 18.9 9.52 2.61 18.77 3.96 18.51 8.13 0 .2-.01.42-.06.65-.5 3.13-4.61 5.11-10.65 5.11-2.31 0-4.71-.61-6.35-1.79-1.74-1.17-2.76-2.97-2.81-5.54v-.45h-24.26l-.05.39c-.15 1.02-.21 2.02-.21 3.02.02 12.46 10.92 22.48 29.29 22.5h.07c20.56 0 36.71-8.51 39.8-26.1.26-1.42.37-2.76.37-4.01 0-11.37-9.77-15.77-19.21-18.49-9.54-2.65-18.81-4.15-18.56-8.3 0-.2.03-.41.06-.62.42-2.38 2.72-3.85 8.08-3.88 2.32 0 4.35.41 5.85 1.29 1.44.86 2.37 2.16 2.39 4.54v.18l.02.44h24.07v-.44c.03-.44.04-.88.04-1.3-.03-12.69-8.04-22.8-28.21-22.82m108.04 1.95l-13.3 75.6h22.46l.07-.38 13.24-75.22H386.1zm68.1 75.6h-51.99l2.66-15.12 27.96-23.47h-21.65l2.93-16.68h49.81l-2.77 15.74-27.03 22.85h23.05l-2.97 16.68zm122.2-55.27l-4.67 26.52c-1.52 8.38-4.14 12.68-10.03 12.69-4.08-.1-5.86-1.29-5.95-5.66 0-1.04.12-2.26.37-3.66l5.26-29.9h-22.46l-5.89 33.47c-.44 2.44-.65 4.67-.65 6.72.02 11.18 6.41 16.63 16.55 16.64h.12c8.42 0 14.13-1.96 20.4-8.54l-1.23 6.99h20.9l9.74-55.27H576.4zm69.75-1.24c-.88-.1-1.79-.32-2.78-.32-7.93-.01-13.85 3.61-18.28 10.98l1.66-9.42h-20.5l-9.74 55.27h22.48l3.37-19.16c2.11-11.62 6.97-15.43 15.6-15.49 1.36 0 2.82.4 4.28.62l.44.06 3.96-22.5-.48-.05zm47.9 1.24l-1.12 6.32c-3.1-4.82-8.45-7.88-14.68-7.88-18.11 0-27.19 14.47-29.55 27.97-.34 1.93-.51 3.82-.51 5.65.02 11.52 6.84 20.59 20.04 20.61 7.22 0 12.26-2.4 15.91-5.23l-.57 3.25c-1.42 7.7-4.07 10.13-10.11 10.2-2.11 0-3.44-.51-4.09-1.2-.6-.64-.83-1.32-.83-1.79 0-.09 0-.15.02-.19l.13-.56h-22.66l-.02.44c-.01.21-.02.43-.02.64.02 8.09 7.24 15.5 25.99 15.51h.26c26.67 0 31.1-13.17 33.87-29.41l7.8-44.31h-19.87zm-6.14 26c-.98 5.57-4.21 10.84-10.12 10.83h-.5c-4.55-.12-6.38-3.3-6.43-7.48 0-.83.08-1.69.23-2.56 1.25-6.95 3.98-11.97 10.01-11.97h.14l.06-.45v.46c5.22.04 6.86 3.3 6.92 7.74 0 1.1-.12 2.26-.32 3.44zM508.66 93.15c-6.11 0-11.3 1.87-16.19 6.24l4.4-25.01H474.4l-13.31 75.59h20.3l1.2-6.8c2.04 4.76 6.54 8.35 14.94 8.35h.09c17.97.01 27.28-13.23 30.1-29.41.42-2.35.61-4.6.61-6.75-.02-13.04-7.49-22.19-19.66-22.21zm.81 29.53c-1.05 5.85-4.23 12.41-10.91 12.38-5.13-.01-6.65-4.05-6.7-8.71 0-1.32.13-2.67.36-3.94.97-5.49 4.62-11.68 10.78-11.65 5.17.03 6.74 3.76 6.79 8.29 0 1.19-.12 2.43-.32 3.63zm-140.15-6.48c.53-3.03.96-5.88.96-8.5 0-4.31-1.18-8.06-4.92-10.6-3.72-2.55-9.87-3.95-19.75-3.95-21.49-.04-31.23 6.85-33.28 18.64l-.09.53h21.59l.09-.32c1.27-4.38 5.08-4.94 8.05-4.95 2.14 0 5.86.52 5.87 3.23 0 .21-.02.44-.07.69-.55 4.47-10.03 4.52-20.05 6-9.94 1.53-20.5 5.02-22.72 17.64-.21 1.17-.3 2.28-.3 3.33.01 9.36 7.92 13.58 17.23 13.59h.09c7.82 0 14.27-1.59 21.15-6.88v5.33h23.12l.07-.38.19-1.04.04-.25-.18-.17c-1.49-1.43-1.87-2.41-1.88-3.78 0-.77.14-1.66.34-2.75l4.47-25.41zm-33.8 22.18c-3.79-.04-5.63-1.47-5.64-3.42 0-.21.01-.41.05-.6.98-6.35 9.22-5.13 16.91-8.18-.96 6.99-4.32 12.19-11.33 12.2z"/><path class="cls-2" d="M653.58 245.91l9.88-10.05.03-.04h76.26l-9.91 10.09h-76.26z"/><path class="cls-1" d="M637.82 235.82h57.21s16.93 1.62 29.78-14.68c10.59-13.43 29.15-11.09 30.55-11.09l14.97-14.84s-34.61-7.5-54.09 12.65c-14.44 14.92-18.86 13.43-29.93 13.28-11.07-.16-33.67 0-33.67 0l-14.81 14.68zM313.8 245.91h22.44l.07-.38 9.65-54.83h-22.44l-9.72 55.21zm79.49-33.93l3.95-22.47-.48-.05c-.88-.1-1.79-.32-2.79-.32-7.91-.02-13.82 3.6-18.25 10.97l1.66-9.42h-20.47l-9.73 55.21h22.45l3.37-19.13c2.1-11.6 6.96-15.42 15.58-15.48 1.36 0 2.82.4 4.27.62l.43.06zm184.58-22.84c-7.91-.02-13.82 3.6-18.25 10.98l1.66-9.42H540.8l-9.72 55.22h22.45l3.37-19.14c2.11-11.61 6.96-15.42 15.58-15.48 1.37 0 2.82.4 4.28.62l.44.06 3.95-22.47-.48-.04c-.89-.11-1.79-.32-2.8-.32m39.04 14.89h10.35l2.34-13.35h-10.34l2.98-16.89h-22.13l-2.97 16.89h-7.97l-2.35 13.35h7.66l-3.9 22.15c-.66 3.76-1.08 6.85-1.08 9.41 0 4.04 1.07 6.86 3.89 8.52 2.79 1.64 7.12 2.19 13.64 2.2 3.46 0 7.52-.16 12.31-.41l.36-.02 2.87-16.33h-3.95c-4.56-.11-5.36-.81-5.44-3.22 0-.81.13-1.8.35-2.98l3.4-19.32zm-113.74-14.9c-18.48-.02-33 10.64-36.33 29.7a33.83 33.83 0 0 0-.56 5.99c.03 14.93 11.33 22.6 26.89 22.62h.08c17.5 0 32.82-9.5 36.34-29.6.35-2.02.53-3.97.53-5.83-.02-13.9-9.93-22.87-26.95-22.89zm4 28.56c-1.82 10.19-5.95 14.33-11.45 14.34-4.17-.05-6.74-2.54-6.8-8.89 0-1.54.16-3.3.52-5.28 1.06-6.04 4.5-13.3 11.43-13.3h.05v-.45l.02.45h.39c3.98 0 6.16 3.5 6.2 9.02 0 1.29-.12 2.66-.37 4.12zm-65.91-28.55c-5.91 0-13.63 2.64-18.13 8.52l1.22-6.97h-20.27l-.07.38-12.9 73.27h22.45l4.06-23.07c2.84 4.04 6.8 6.19 12.39 6.17 12.29.03 27.14-7.95 30.91-29.49.42-2.37.63-4.7.63-6.96-.01-12.06-6.29-21.84-20.3-21.86zm-2.79 28.97c-1.31 7.33-5.63 11.95-11.03 11.95-4.26-.02-6.42-3.09-6.47-8.35 0-1.2.12-2.49.37-3.86 1.25-7.13 5.54-11.87 10.39-11.85 4.49.06 7.05 2.46 7.12 8.12 0 1.18-.13 2.51-.38 3.99zm-111.35-47.73l-2.85 16.25h22.44l2.86-16.25h-22.44zm-58.97 0l-40.31 75.52h24.95l.13-.27 4.41-9.57h23.61l1.15 9.84h25.27l-13.73-75.52h-25.48zm-3.02 49.22L276.41 195l2.9 24.61h-14.18zm372.69 67.27h92.02v1.58h-92.02zm-403.55 0h92.02v1.58h-92.02zm139.17-8.94l-4.96 15.8h-.05l-5.33-15.8h-3.43l-5.2 15.8h-.05l-4.98-15.8h-3.13l6.4 19.45h3.18l5.36-16.13h.05l5.39 16.13h3.16l6.57-19.45h-2.98zm12.52 16.29h3.37v3.16h-3.37zm24.81-13.62l3.72 8.61h-7.37l3.65-8.61zm-1.53-2.67l-8.78 19.46h3.1l2.48-5.67h9.52l2.48 5.67h3.29l-8.78-19.46h-3.29zm23.2 16.29h3.37v3.16h-3.37zm36.22-16.29l-7.78 16.13-7.7-16.13h-4.05v19.46h2.88v-15.81h.06l7.53 15.81h2.56l7.56-16.14h.06v16.14h2.88v-19.46h-4zm26.3-.49c7.8 0 10.8 5.23 10.8 10.22s-3 10.22-10.8 10.22-10.8-5.23-10.8-10.22 3-10.22 10.8-10.22m0 2.5c-4.43 0-7.92 2.56-7.92 7.72s3.48 7.71 7.92 7.71 7.91-2.57 7.91-7.71-3.48-7.72-7.91-7.72m21.55-2.01v2.5h12.9l-13.87 14.37v2.58h17.87v-2.5h-14.15l13.93-14.45v-2.5h-16.68zm35.85 2.67l3.72 8.61h-7.37l3.65-8.61zm-1.52-2.67l-8.79 19.46h3.1l2.48-5.67h9.52l2.48 5.67h3.29l-8.79-19.46h-3.29zm22.53 0h12.02c3.89 0 5.31 2.7 5.31 5.18s-1.14 4.12-3.26 4.8v.05c1.71.25 2.72 1.85 2.83 4.14.17 3.62.27 4.52.92 5.29h-3.05c-.46-.55-.46-1.37-.6-3.71-.19-3.49-1.36-4.55-3.75-4.55h-7.54v8.26h-2.88v-19.46zm10.94 8.69c2.83 0 3.51-1.72 3.51-3.08 0-1.85-1.12-3.11-3.43-3.11h-8.14v6.19h8.05zm15.9-8.69v2.51h7.35v16.95h2.88v-16.95h7.35v-2.51h-17.58z"/></svg>