<svg width="465" height="300" viewBox="0 0 165 55" fill="none" xmlns="http://www.w3.org/2000/svg">
<path d="M44.2031 10.1976H50.5674C54.7285 10.1976 56.4253 11.9221 56.4253 14.3418C56.4253 15.8253 55.4782 16.9808 53.9809 17.4608C56.206 17.9408 57.0195 19.4678 57.0195 21.125C57.0195 23.8529 55.2569 25.532 50.8087 25.532H44.2031V10.1976ZM50.4996 16.329C51.7996 16.329 52.4596 15.7838 52.4596 14.8238C52.4596 13.929 51.7777 13.3403 50.4777 13.3403H48.2307V16.329H50.4996ZM50.8306 22.3932C52.2841 22.3932 52.9879 21.7828 52.9879 20.8228C52.9879 19.7976 52.328 19.2959 50.8306 19.2959H48.2327V22.3932H50.8306Z" fill="#004489"/>
<path d="M59.2426 18.6638V10.1976H63.4475V18.9897C63.4475 20.408 64.1733 22.0218 66.3545 22.0218C68.5358 22.0218 69.3273 20.408 69.3273 18.9897V10.1976H73.5323V18.6618C73.5323 23.3315 70.6692 25.7295 66.3545 25.7295C62.0399 25.7295 59.2426 23.3295 59.2426 18.6618V18.6638Z" fill="#004489"/>
<path d="M76.5291 10.1976H82.6501C88.0015 10.1976 91.2594 13.2515 91.2594 17.8559C91.2594 22.4603 87.9995 25.5359 82.6501 25.5359H76.5291V10.1976ZM82.9153 21.8697C85.4913 21.8697 86.9667 20.2776 86.9667 17.8994C86.9667 15.5211 85.4913 13.8638 82.9153 13.8638H80.736V21.8697H82.9153Z" fill="#004489"/>
<path d="M98.2856 10.1976H100.818L107.688 25.5339H103.328L102.271 22.9601H96.7005L95.6438 25.5339H91.3271L98.2856 10.1976ZM101.258 19.8194L99.4959 15.6534L97.7114 19.8194H101.256H101.258Z" fill="#004489"/>
<path d="M109.098 10.1976H115.153C119.205 10.1976 121.671 12.6194 121.671 16.0445C121.671 19.2742 119.139 21.5853 114.954 21.5853H113.213V25.5339H109.096V10.1976H109.098ZM114.868 18.0297C116.741 18.0297 117.466 17.0045 117.466 15.9576C117.466 14.8238 116.695 13.7315 114.868 13.7315H113.217V18.0297H114.868Z" fill="#004489"/>
<path d="M123.697 10.1976H134.862V13.8184H127.86V15.9991H134.003V19.5329H127.86V21.9112H134.906V25.532H123.697V10.1976Z" fill="#004489"/>
<path d="M136.469 23.8332L138.429 20.5601C139.883 21.6722 141.093 22.1739 142.987 22.1739C144 22.1739 144.55 21.7808 144.55 21.1053C144.55 20.3191 143.978 20.0149 141.797 19.3808C138.449 18.3991 137.151 17.1329 137.151 14.8218C137.151 11.8984 139.552 10.0001 143.229 10.0001C145.498 10.0001 147.28 10.6105 148.843 11.6791L147.081 14.7981C145.892 14.0119 144.461 13.5537 143.139 13.5537C141.994 13.5537 141.398 13.8598 141.398 14.4919C141.398 15.0806 141.817 15.3433 144.084 16.0189C147.344 16.9789 148.73 18.3971 148.73 20.7319C148.73 23.8944 146.528 25.7275 142.696 25.7275C140.208 25.7275 138.138 25.0302 136.464 23.8292L136.469 23.8332Z" fill="#004489"/>
<path d="M154.857 13.8638H149.902V10.1976H164.084V13.8618H159.063V25.5339H154.859V13.8638H154.857Z" fill="#004489"/>
<path d="M49.8696 30.401H52.4018L59.2725 45.7373H54.912L53.8552 43.1635H48.2845L47.2278 45.7373H42.9111L49.8696 30.401ZM52.8424 40.0228L51.0798 35.8549L49.2954 40.0228H52.8404H52.8424Z" fill="#004489"/>
<path d="M60.3512 32.6055C60.3512 31.3176 61.3421 30.2707 62.7737 30.2707C64.2053 30.2707 65.1743 31.3176 65.1743 32.6055C65.1743 33.8934 64.1833 34.962 62.7737 34.962C61.3641 34.962 60.3512 33.9151 60.3512 32.6055ZM60.6602 36.0741H64.8892V45.7393H60.6602V36.0741Z" fill="#004489"/>
<path d="M73.1016 41.8104H72.1984V45.7373H68.0812V30.401H74.5771C78.5627 30.401 80.9194 32.8879 80.9194 36.2045C80.9194 38.3418 79.8188 40.0228 77.9905 40.9828L77.6157 41.1566C78.3653 41.7235 79.3782 41.9428 80.2136 41.9428V45.9783C76.9756 45.9783 74.2461 44.3428 73.1016 41.8104ZM74.2481 38.3418C75.7674 38.3418 76.7145 37.3818 76.7145 36.161C76.7145 34.8731 75.8112 33.8697 74.1823 33.8697H72.2004V38.3418H74.2481Z" fill="#004489"/>
<path d="M83.7167 30.401H89.772C93.8234 30.401 96.2898 32.8228 96.2898 36.2479C96.2898 39.4776 93.7576 41.7887 89.5726 41.7887H87.832V45.7373H83.7147V30.401H83.7167ZM89.4849 38.2331C91.3571 38.2331 92.0828 37.2079 92.0828 36.161C92.0828 35.0272 91.3112 33.9349 89.4849 33.9349H87.834V38.2331H89.4849Z" fill="#004489"/>
<path d="M97.5459 38.0158C97.5459 33.5003 101.091 30.0534 105.892 30.0534C110.693 30.0534 114.15 33.3916 114.15 38.0158C114.15 42.64 110.649 46 105.892 46C101.135 46 97.5459 42.5097 97.5459 38.0158ZM109.854 38.0158C109.854 35.5507 108.181 33.8262 105.89 33.8262C103.599 33.8262 101.839 35.5724 101.839 38.0158C101.839 40.4593 103.555 42.2272 105.89 42.2272C108.225 42.2272 109.854 40.4376 109.854 38.0158Z" fill="#004489"/>
<path d="M121.592 41.8104H120.688V45.7373H116.571V30.401H123.067C127.053 30.401 129.409 32.8879 129.409 36.2045C129.409 38.3418 128.309 40.0228 126.48 40.9828L126.106 41.1566C126.855 41.7235 127.868 41.9428 128.703 41.9428V45.9783C125.466 45.9783 122.736 44.3428 121.592 41.8104ZM122.736 38.3418C124.255 38.3418 125.202 37.3818 125.202 36.161C125.202 34.8731 124.299 33.8697 122.67 33.8697H120.688V38.3418H122.736Z" fill="#004489"/>
<path d="M135.333 34.0672H130.378V30.403H144.561V34.0672H139.54V45.7393H135.335V34.0672H135.333Z" fill="#004489"/>
<path d="M60.3512 32.6056C60.3512 31.3177 61.3421 30.2708 62.7737 30.2708C64.2053 30.2708 65.1743 31.3177 65.1743 32.6056C65.1743 33.8935 64.1833 34.9621 62.7737 34.9621C61.3641 34.9621 60.3512 33.9152 60.3512 32.6056Z" fill="#009669"/>
<path d="M3.57495 42.5037C3.63078 42.5235 3.69059 42.5432 3.75041 42.563L8.07303 42.5077C6.48793 42.2509 5.11817 41.8874 4.09135 41.5654L3.57495 42.5037Z" fill="#004489"/>
<path d="M34.8002 36.3131C33.7494 35.9516 32.5791 35.6573 31.3309 35.517C32.0288 35.8173 33.1034 36.2518 34.8002 36.3131Z" fill="#004489"/>
<path d="M5.12411 39.689L4.59375 40.6509C6.11305 41.1033 8.33816 41.6248 10.8683 41.769C11.1315 41.6188 11.4047 41.4391 11.6838 41.2198C11.6838 41.2198 11.951 41.0104 12.3936 40.6667C12.3198 40.6667 12.2461 40.6707 12.1743 40.6707C9.42679 40.6707 6.94248 40.1848 5.12411 39.689Z" fill="#004489"/>
<path d="M6.17684 37.7768L5.63452 38.7605C7.72605 39.2978 10.661 39.8035 13.8032 39.5704C14.3296 39.1615 14.9178 38.7052 15.5299 38.2312C14.3874 38.4129 13.2589 38.4899 12.1723 38.4899C9.92324 38.4899 7.85166 38.164 6.17684 37.7749V37.7768Z" fill="#004489"/>
<path d="M27.1599 33.522C27.8079 33.8301 28.4738 34.1521 29.06 34.4366C30.8824 34.3378 32.7765 34.5867 34.7066 35.201C35.7433 35.5309 36.6765 35.926 37.478 36.321H39.2425C37.5139 35.1753 32.5871 32.3783 27.1619 33.524L27.1599 33.522Z" fill="#004489"/>
<path d="M7.26551 35.8291C7.08606 36.1314 6.91459 36.4375 6.7491 36.7398L6.69727 36.8326C9.55442 37.4529 13.5102 37.8598 17.4201 36.7733C18.4509 35.9793 19.4279 35.2306 20.1656 34.6756C17.4918 35.8924 14.7204 36.3131 12.1743 36.3131C10.3898 36.3131 8.71701 36.1077 7.26551 35.8272V35.8291Z" fill="#004489"/>
<path d="M34.3138 32.9077C32.5273 31.8351 31.2931 31.3235 30.1527 31.0786C28.3243 31.0272 26.3704 31.3433 24.4084 32.2736C24.4104 32.2736 24.4144 32.2756 24.4164 32.2776C24.7035 32.3882 25.1741 32.5976 25.7323 32.8544C28.4121 32.0129 31.3171 32.0287 34.3138 32.9097V32.9077Z" fill="#004489"/>
<path d="M23.0326 30.8534C22.899 30.9383 22.7654 31.0252 22.6318 31.1161C19.2463 33.4173 15.5159 34.1363 12.1742 34.1363C10.9241 34.1363 9.72979 34.0356 8.6272 33.8795C8.35006 34.2015 8.09684 34.5393 7.86157 34.885C11.8413 35.5783 17.3681 35.6534 22.0576 32.4652C23.0645 31.7818 24.1212 31.2464 25.2178 30.8534H23.0306H23.0326Z" fill="#004489"/>
<path d="M21.1564 30.8534H18.8535C16.5965 31.6632 14.3056 31.9576 12.1742 31.9576C11.7874 31.9576 11.4086 31.9477 11.0337 31.9299C10.4775 32.2242 9.98698 32.5679 9.54834 32.9472C13.0395 33.3304 17.3183 33.0855 21.1564 30.8534Z" fill="#004489"/>
<path d="M34.5869 23.6929C31.5263 27.5724 30.0748 27.7739 27.3273 28.2144L18.6721 29.6011C20.6739 29.2811 23.2958 27.2979 24.4363 26.3497C25.6804 25.3147 30.3839 20.4119 30.3839 20.4119C31.0378 19.8648 32.1544 18.5077 34.6188 18.1127L39.4737 17.3344L34.5869 23.6929Z" fill="#009669"/>
<path d="M0 13.451L5.2637 12.7122C5.2637 12.7122 6.80693 12.4653 8.83664 14.2312C8.83664 14.2312 19.1966 23.1774 20.7797 24.3804C22.5382 25.7196 25.9576 28.4317 28.9424 27.9537L16.0423 30.0219C10.0748 30.9779 7.25354 26.5137 4.85896 22.1917L0 13.451Z" fill="#80CAB4"/>
</svg>
