<svg width="130" height="39" viewBox="0 0 130 39" fill="none" xmlns="http://www.w3.org/2000/svg">
<g clip-path="url(#clip0_6016_47519)">
<path d="M81.5359 12.7004L80.6835 13.9052C96.0834 14.6726 107.379 18.4081 107.649 23.4582C107.988 29.8213 92.5944 36.2476 65.7075 36.8245C45.1436 36.8245 28.3935 31.2646 28.3935 24.173C28.3935 18.2847 39.7684 13.3893 55.0463 11.7623L48.3428 8.8833C31.4021 11.1839 19.5354 16.7781 19.5354 23.366C19.5354 32.0007 40.0962 39.0001 65.4613 39.0001C66.2199 39.0001 67.4368 38.9986 68.187 38.9857C92.1095 37.7534 111.19 30.8828 110.802 23.6396C110.5 17.9715 98.2601 13.6758 81.5351 12.6996" fill="#FFCD00"/>
<path fill-rule="evenodd" clip-rule="evenodd" d="M0 27.6251L3.04444 20.8086H5.88227L8.92519 27.6251H6.14531L5.8228 26.7327H3.04368L2.7265 27.6251H0ZM4.43286 22.8562L3.5591 25.3321H5.33636L4.43286 22.8562Z" fill="#041E42"/>
<path fill-rule="evenodd" clip-rule="evenodd" d="M15.7376 25.6003H11.0524C11.0677 25.8952 11.1813 26.1246 11.3925 26.2907C11.6075 26.4538 11.9102 26.5346 12.3013 26.5346C12.7237 26.5346 13.0203 26.3997 13.1926 26.1307H15.544C15.4776 26.3685 15.3579 26.5788 15.1864 26.7602C14.905 27.0574 14.5093 27.302 14.0015 27.4925C13.493 27.6838 12.8891 27.7798 12.19 27.7798C11.0715 27.7798 10.1939 27.542 9.55725 27.0657C8.92365 26.5864 8.60724 25.9737 8.60724 25.2284C8.60724 24.439 8.92747 23.7935 9.56868 23.2928C10.2099 22.7884 11.0585 22.5369 12.1137 22.5361C12.665 22.5361 13.1811 22.6116 13.6623 22.7625C14.1464 22.9126 14.5551 23.1473 14.8875 23.4666C15.2237 23.7828 15.4624 24.1562 15.6027 24.5853C15.6965 24.8604 15.7414 25.1995 15.7376 25.6003ZM11.0699 24.5952H13.2917C13.2848 24.3262 13.1789 24.1143 12.9761 23.9612C12.7725 23.8042 12.4988 23.7264 12.1549 23.7264C11.8453 23.7264 11.5953 23.7996 11.4039 23.9467C11.2125 24.0938 11.1012 24.3102 11.0699 24.5952Z" fill="#041E42"/>
<path d="M16.3362 27.6248V22.6829H18.5762V23.6736C18.776 23.2766 19.0314 22.9885 19.344 22.8094C19.6566 22.6281 20.0477 22.5374 20.5166 22.5366C20.6188 22.5366 20.7164 22.5435 20.8102 22.5564V24.5195C20.5677 24.489 20.3824 24.473 20.2536 24.473C19.7679 24.473 19.405 24.5766 19.1625 24.7824C18.9193 24.9866 18.7988 25.3249 18.7988 25.7974V27.6248H16.3354H16.3362Z" fill="#041E42"/>
<path fill-rule="evenodd" clip-rule="evenodd" d="M24.5523 22.5361C25.6708 22.5361 26.5377 22.7762 27.156 23.2555C27.7736 23.7348 28.0824 24.3734 28.0824 25.172C28.0824 25.6765 27.949 26.1223 27.6829 26.5102C27.4213 26.8988 27.0104 27.209 26.4515 27.4407C25.8965 27.6693 25.2651 27.7828 24.5576 27.7843C23.9751 27.7843 23.4101 27.6975 22.8627 27.526C22.3191 27.3538 21.8791 27.0673 21.5429 26.6664C21.2105 26.2648 21.0443 25.7725 21.0443 25.1865C21.0443 24.3849 21.353 23.7425 21.9706 23.2601C22.592 22.7777 23.4528 22.5369 24.5507 22.5361M24.5858 26.4454C24.7657 26.4454 24.9358 26.4058 25.0959 26.3281C25.256 26.2465 25.381 26.1048 25.471 25.9051C25.5648 25.7047 25.6121 25.4494 25.6121 25.1385C25.6121 24.6874 25.4969 24.3445 25.2659 24.1098C25.0974 23.9337 24.8672 23.8461 24.5744 23.8461C24.2816 23.8461 24.0147 23.9497 23.8119 24.157C23.6122 24.3605 23.513 24.7019 23.513 25.1812C23.513 25.4883 23.5603 25.736 23.6533 25.9234C23.7509 26.1078 23.8844 26.2412 24.0521 26.3227C24.2244 26.4043 24.4021 26.4454 24.5858 26.4454Z" fill="#041E42"/>
<path fill-rule="evenodd" clip-rule="evenodd" d="M28.7221 29.3062V22.6824H30.9332V23.4155C31.0658 23.1656 31.3121 22.9568 31.672 22.7907C32.0319 22.6215 32.4497 22.5361 32.927 22.5361C33.4546 22.5361 33.9334 22.6451 34.3634 22.8608C34.7934 23.0772 35.1175 23.3889 35.3371 23.7958C35.5559 24.1997 35.6649 24.65 35.6657 25.1439C35.6657 25.9585 35.3958 26.6016 34.856 27.0749C34.3169 27.5481 33.6498 27.7836 32.8568 27.7843C32.5785 27.7843 32.3384 27.7569 32.1355 27.7043C31.9358 27.654 31.7719 27.5908 31.6422 27.5115C31.518 27.4338 31.3647 27.3081 31.1855 27.1358V29.3062H28.7221ZM32.1767 23.984C31.8832 23.984 31.6354 24.0778 31.4318 24.266C31.2282 24.4504 31.1268 24.7224 31.1268 25.0829C31.1268 25.502 31.2214 25.8045 31.4082 25.989C31.6003 26.1749 31.8458 26.2663 32.1477 26.2663C32.3513 26.2663 32.5328 26.2252 32.6929 26.1437C32.8576 26.0629 32.9819 25.9333 33.068 25.7543C33.158 25.5721 33.2022 25.361 33.203 25.1195C33.203 24.7415 33.1031 24.4573 32.9033 24.269C32.7081 24.0785 32.4657 23.9833 32.176 23.9833" fill="#041E42"/>
<path fill-rule="evenodd" clip-rule="evenodd" d="M39.7676 22.5361C40.8861 22.5361 41.7538 22.7762 42.3714 23.2555C42.989 23.7348 43.2977 24.3734 43.2977 25.172C43.2977 25.6765 43.1651 26.1223 42.899 26.5102C42.6367 26.8988 42.2257 27.209 41.6676 27.4407C41.1126 27.6693 40.4813 27.7828 39.773 27.7843C39.1905 27.7843 38.6255 27.6975 38.078 27.526C37.5352 27.3538 37.0945 27.0673 36.7583 26.6664C36.4266 26.2648 36.2596 25.7725 36.2596 25.1865C36.2596 24.3849 36.5676 23.7425 37.186 23.2601C37.8081 22.7777 38.6674 22.5369 39.7661 22.5361M39.8019 26.4454C39.9811 26.4454 40.1519 26.4058 40.312 26.3281C40.4721 26.2465 40.5979 26.1048 40.6871 25.9051C40.7809 25.7047 40.8274 25.4494 40.8274 25.1385C40.8274 24.6874 40.7123 24.3445 40.4813 24.1098C40.3128 23.9337 40.0825 23.8461 39.789 23.8461C39.4954 23.8461 39.2301 23.9497 39.0273 24.157C38.8275 24.3605 38.7276 24.7019 38.7276 25.1812C38.7276 25.4883 38.7749 25.736 38.8687 25.9234C38.9655 26.1078 39.099 26.2412 39.2675 26.3227C39.439 26.4043 39.6167 26.4454 39.8012 26.4454" fill="#041E42"/>
<path d="M43.9786 27.6248V22.6829H46.2187V23.6736C46.4184 23.2766 46.6754 22.9885 46.9872 22.8094C47.2998 22.6281 47.6902 22.5374 48.1606 22.5366C48.2613 22.5366 48.3589 22.5435 48.4534 22.5564V24.5195C48.2109 24.489 48.0249 24.473 47.8961 24.473C47.4119 24.473 47.0482 24.5766 46.805 24.7824C46.5625 24.9866 46.4413 25.3249 46.4413 25.7974V27.6248H43.9778H43.9786Z" fill="#041E42"/>
<path d="M49.8411 22.6449V21.123H52.2626V22.6449H53.4413V23.7719H52.2328V25.7212C52.2328 25.8912 52.2862 26.0139 52.3914 26.0931C52.4967 26.1708 52.6804 26.2097 52.9427 26.2097H53.4177V27.6004C52.9877 27.6416 52.5302 27.6614 52.0453 27.6614C51.3492 27.6614 50.8582 27.6088 50.5738 27.5021C50.2886 27.3916 50.0866 27.2385 49.9699 27.0419C49.8563 26.8445 49.7999 26.4863 49.7999 25.9666V23.7719H48.9261V22.6449H49.8411Z" fill="#041E42"/>
<path fill-rule="evenodd" clip-rule="evenodd" d="M57.435 22.5361C58.5535 22.5361 59.4212 22.7762 60.0388 23.2555C60.6563 23.7348 60.9651 24.3734 60.9651 25.172C60.9651 25.6765 60.8325 26.1223 60.5664 26.5102C60.3041 26.8988 59.8939 27.209 59.335 27.4407C58.78 27.6693 58.1487 27.7828 57.4411 27.7843C56.8578 27.7843 56.2929 27.6975 55.7462 27.526C55.2026 27.3538 54.7634 27.0673 54.4272 26.6664C54.0947 26.2648 53.9285 25.7725 53.9285 25.1865C53.9285 24.3849 54.2373 23.7425 54.8549 23.2601C55.4771 22.7777 56.3371 22.5369 57.435 22.5361ZM57.4701 26.4454C57.65 26.4454 57.8208 26.4058 57.9802 26.3281C58.1403 26.2465 58.2653 26.1048 58.3553 25.9051C58.4491 25.7047 58.4956 25.4494 58.4956 25.1385C58.4956 24.6874 58.3804 24.3445 58.1494 24.1098C57.9809 23.9337 57.7507 23.8461 57.4579 23.8461C57.1651 23.8461 56.899 23.9497 56.6954 24.157C56.4964 24.3605 56.3966 24.7019 56.3966 25.1812C56.3966 25.4883 56.4438 25.736 56.5369 25.9234C56.6344 26.1078 56.7679 26.2412 56.9356 26.3227C57.1072 26.4043 57.2856 26.4454 57.4686 26.4454" fill="#041E42"/>
<path fill-rule="evenodd" clip-rule="evenodd" d="M69.5106 23.1706V20.7983H71.9733V27.6248H69.763V26.958C69.5282 27.2361 69.2644 27.4419 68.9708 27.5729C68.678 27.7048 68.3067 27.7703 67.8569 27.7703C67.0403 27.7703 66.3671 27.5447 65.8395 27.0936C65.3157 26.6432 65.0534 26.0229 65.0534 25.2335C65.0534 24.6947 65.1708 24.2146 65.4056 23.7955C65.6435 23.3756 65.9782 23.0616 66.4082 22.8521C66.8421 22.6387 67.3011 22.532 67.786 22.532C68.1886 22.532 68.5439 22.5952 68.8534 22.7195C69.0722 22.8101 69.2911 22.9603 69.5099 23.1698M69.5976 25.1763C69.5976 24.7854 69.5015 24.4996 69.3101 24.3213C69.1226 24.1399 68.8748 24.0492 68.566 24.0485C68.2488 24.0485 67.9918 24.1422 67.7921 24.3304C67.5961 24.5187 67.4985 24.8212 67.4985 25.238C67.4985 25.6259 67.5877 25.9079 67.7684 26.0831C67.9514 26.2554 68.1924 26.3415 68.4897 26.3415C68.8183 26.3415 69.0837 26.2493 69.2872 26.0641C69.4939 25.8766 69.5976 25.5802 69.5976 25.1763Z" fill="#041E42"/>
<path fill-rule="evenodd" clip-rule="evenodd" d="M73.4654 20.6196H75.9281V22.034H73.4654V20.6196ZM73.4654 22.6825H75.9281V27.6244H73.4654V22.6825Z" fill="#041E42"/>
<path fill-rule="evenodd" clip-rule="evenodd" d="M80.6736 27.6251V20.8086H84.8838C85.9314 20.8086 86.7045 20.9305 87.2001 21.1751C87.8451 21.4914 88.1677 21.9532 88.1677 22.5613C88.1677 23.1694 87.8002 23.6289 87.0652 24.0084C87.4998 24.1022 87.8436 24.2873 88.0983 24.5624C88.356 24.8391 88.4856 25.1797 88.4856 25.5874C88.4856 25.8785 88.4269 26.1429 88.3095 26.3814C88.1921 26.6192 88.0281 26.8181 87.8169 26.9774C87.6721 27.094 87.4609 27.206 87.1833 27.3157C86.9058 27.4247 86.6298 27.5055 86.3561 27.5558C86.0862 27.6022 85.6234 27.6259 84.9662 27.6259H80.6736V27.6251ZM83.3711 22.3449V23.5474H84.4271C84.8571 23.5474 85.156 23.4925 85.3245 23.3828C85.496 23.27 85.5822 23.126 85.5822 22.9515C85.5822 22.8166 85.5319 22.6985 85.4297 22.5986C85.3314 22.495 85.201 22.4249 85.0363 22.3876C84.9151 22.3594 84.6574 22.3456 84.2632 22.3456H83.3711V22.3449ZM83.3711 24.7735V26.0652H84.5087C85.0523 26.0652 85.4137 26.0073 85.5936 25.8922C85.7728 25.7748 85.8628 25.6156 85.8628 25.4075C85.8628 25.1995 85.7751 25.0479 85.599 24.9381C85.4229 24.8291 85.0592 24.7735 84.5079 24.7735H83.3704H83.3711Z" fill="#041E42"/>
<path fill-rule="evenodd" clip-rule="evenodd" d="M92.66 22.5361C93.7785 22.5361 94.6462 22.7762 95.2638 23.2555C95.8813 23.7348 96.1901 24.3734 96.1901 25.172C96.1901 25.6765 96.0567 26.1223 95.7914 26.5102C95.5291 26.8988 95.1181 27.209 94.5593 27.4407C94.0042 27.6693 93.3729 27.7828 92.6661 27.7843C92.0828 27.7843 91.5179 27.6975 90.9704 27.526C90.4276 27.3538 89.9876 27.0673 89.6514 26.6664C89.319 26.2648 89.1528 25.7725 89.1528 25.1865C89.1528 24.3849 89.4616 23.7425 90.0791 23.2601C90.7005 22.7777 91.5606 22.5369 92.6593 22.5361M92.6943 26.4454C92.8743 26.4454 93.0443 26.4058 93.2052 26.3281C93.366 26.2465 93.4903 26.1048 93.5803 25.9051C93.6741 25.7047 93.7213 25.4494 93.7213 25.1385C93.7213 24.6874 93.6054 24.3445 93.3752 24.1098C93.2067 23.9337 92.9764 23.8461 92.6836 23.8461C92.3909 23.8461 92.124 23.9497 91.9212 24.157C91.723 24.3605 91.6223 24.7019 91.6223 25.1812C91.6223 25.4883 91.6688 25.736 91.7634 25.9234C91.861 26.1078 91.9936 26.2412 92.1614 26.3227C92.3329 26.4043 92.5113 26.4454 92.6951 26.4454" fill="#041E42"/>
<path d="M99.4694 20.7983H97.0242V27.6248H99.4694V20.7983Z" fill="#041E42"/>
<path fill-rule="evenodd" clip-rule="evenodd" d="M103.756 22.5361C104.874 22.5361 105.742 22.7762 106.36 23.2555C106.978 23.7348 107.287 24.3734 107.287 25.172C107.287 25.6765 107.154 26.1223 106.888 26.5102C106.625 26.8988 106.215 27.209 105.657 27.4407C105.102 27.6693 104.47 27.7828 103.762 27.7843C103.179 27.7843 102.614 27.6975 102.067 27.526C101.524 27.3538 101.083 27.0673 100.748 26.6664C100.416 26.2648 100.25 25.7725 100.25 25.1865C100.25 24.3849 100.558 23.7425 101.176 23.2601C101.798 22.7777 102.658 22.5369 103.756 22.5361ZM103.792 26.4454C103.972 26.4454 104.141 26.4058 104.302 26.3281C104.462 26.2465 104.588 26.1048 104.677 25.9051C104.771 25.7047 104.818 25.4494 104.818 25.1385C104.818 24.6874 104.703 24.3445 104.472 24.1098C104.303 23.9337 104.073 23.8461 103.779 23.8461C103.486 23.8461 103.221 23.9497 103.018 24.157C102.818 24.3605 102.718 24.7019 102.718 25.1812C102.718 25.4883 102.765 25.736 102.859 25.9234C102.958 26.1078 103.09 26.2412 103.258 26.3227C103.43 26.4043 103.608 26.4454 103.792 26.4454Z" fill="#041E42"/>
<path fill-rule="evenodd" clip-rule="evenodd" d="M112.459 23.326V22.692H114.628V26.7788C114.628 27.3306 114.582 27.7421 114.489 28.0149C114.39 28.2907 114.231 28.5117 114.008 28.6771C113.719 28.8996 113.341 29.0642 112.875 29.1709C112.41 29.2768 111.894 29.3302 111.328 29.3302C110.667 29.3302 110.096 29.2631 109.615 29.129C109.138 28.9933 108.777 28.8089 108.531 28.5742C108.347 28.3959 108.22 28.1688 108.149 27.8922H110.612C110.635 27.9928 110.706 28.0743 110.823 28.1376C110.94 28.1993 111.122 28.2305 111.368 28.2313C111.685 28.2313 111.918 28.1581 112.066 28.0141C112.218 27.8701 112.294 27.5996 112.294 27.2018C112.294 27.1355 112.288 27.0166 112.277 26.8451C112.07 27.0235 111.857 27.1507 111.638 27.2254C111.341 27.329 110.982 27.3809 110.558 27.3809C109.757 27.3809 109.101 27.1667 108.588 26.7415C108.08 26.3155 107.827 25.7379 107.827 25.0078C107.827 24.4912 107.944 24.0446 108.178 23.6689C108.416 23.2925 108.753 23.0098 109.187 22.8185C109.62 22.628 110.066 22.5327 110.524 22.5327C110.982 22.5327 111.352 22.6104 111.697 22.7674C111.954 22.8833 112.208 23.0707 112.458 23.3268M111.292 26.0328C111.585 26.0328 111.826 25.9482 112.013 25.779C112.201 25.6068 112.294 25.3485 112.294 25.0033C112.294 24.6581 112.197 24.3784 112.002 24.2001C111.81 24.0187 111.563 23.9273 111.262 23.9273C110.961 23.9273 110.695 24.0179 110.5 24.2001C110.305 24.3814 110.207 24.6588 110.207 25.0315C110.207 25.3355 110.31 25.5786 110.517 25.76C110.728 25.9413 110.987 26.032 111.291 26.032" fill="#041E42"/>
<path d="M115.486 27.625V22.6686H117.749V23.4398C118.046 23.1167 118.359 22.8851 118.688 22.7441C119.02 22.6023 119.409 22.5322 119.854 22.5322C120.613 22.5322 121.199 22.7014 121.614 23.039C122.032 23.375 122.241 23.875 122.241 24.5387V27.625H119.766V24.8953C119.766 24.608 119.689 24.3992 119.532 24.2705C119.38 24.1394 119.163 24.0738 118.881 24.0738C118.6 24.0738 118.379 24.1508 118.206 24.304C118.035 24.4533 117.949 24.6972 117.949 25.0317V27.625H115.486Z" fill="#041E42"/>
<path fill-rule="evenodd" clip-rule="evenodd" d="M125.567 24.1856H123.186C123.217 23.8701 123.295 23.6186 123.42 23.4342C123.545 23.2468 123.733 23.0875 123.983 22.9587C124.315 22.7903 124.706 22.6714 125.155 22.6021C125.604 22.5304 126.07 22.4946 126.551 22.4946C127.031 22.4946 127.424 22.5198 127.788 22.5701C128.156 22.6173 128.466 22.6958 128.721 22.8048C128.975 22.9145 129.17 23.0372 129.308 23.1706C129.444 23.3054 129.546 23.4777 129.612 23.688C129.655 23.8168 129.677 24.0698 129.677 24.4485V26.9998C129.677 27.2246 129.784 27.4014 129.999 27.5257V27.624H127.466L127.344 27.089C127.03 27.3207 126.692 27.4921 126.329 27.6057C125.965 27.7146 125.551 27.7703 125.086 27.7703C124.312 27.7703 123.742 27.6232 123.374 27.329C123.006 27.0341 122.822 26.6828 122.822 26.2759C122.822 26.0412 122.887 25.8171 123.016 25.6045C123.149 25.3889 123.329 25.2182 123.555 25.0924C123.782 24.9644 124.101 24.8646 124.511 24.7922C124.926 24.7168 125.524 24.6428 126.305 24.5712C126.712 24.5331 126.97 24.4897 127.08 24.4394C127.236 24.3677 127.314 24.2595 127.314 24.1155C127.314 23.9898 127.25 23.8876 127.12 23.8099C126.995 23.7322 126.77 23.6926 126.446 23.6926C126.122 23.6926 125.913 23.7345 125.784 23.8191C125.654 23.9006 125.582 24.0233 125.566 24.1856M127.284 25.4216C127.19 25.459 127.068 25.4963 126.915 25.5337C126.766 25.5718 126.487 25.6244 126.076 25.6937C125.795 25.7402 125.605 25.8065 125.508 25.8918C125.414 25.9764 125.367 26.0793 125.367 26.2012C125.367 26.3331 125.428 26.4397 125.548 26.5213C125.672 26.6021 125.867 26.6432 126.129 26.6432C126.325 26.6432 126.51 26.612 126.686 26.5487C126.866 26.4832 127.008 26.3948 127.114 26.2858C127.188 26.2043 127.237 26.1014 127.261 25.9757C127.276 25.8941 127.283 25.7089 127.283 25.4216" fill="#041E42"/>
<path d="M63.6337 6.94224L87.2687 0L75.277 15.7484L63.6337 6.94224Z" fill="#041E42"/>
<path d="M61.9708 6.82492L69.4412 12.8321L61.3875 15.34L60.4246 10.5871L53.6845 7.81482L57.8574 6.56201L61.9708 6.82492Z" fill="#041E42"/>
<path d="M53.1874 5.19121L79.3317 1.45947L62.41 6.32895L53.1874 5.19121Z" fill="#041E42"/>
</g>
<defs>
<clipPath id="clip0_6016_47519">
<rect width="130" height="39" fill="white"/>
</clipPath>
</defs>
</svg>
