<svg version="1.1" id="Calque_1" xmlns="http://www.w3.org/2000/svg" x="0" y="0" viewBox="0 0 131.9 68" xml:space="preserve"><style>.st0{fill:#234d93}.st1{fill:#e51f35}</style><g id="g10" transform="translate(0 393.832)"><g id="g12" transform="translate(0 -393.832)"><g id="g14"><g id="g16"><path id="path22" class="st0" d="M10.4,61.7l-1.8-4.4l-1.9,4.4H10.4z M7.3,51.5h2.6l7.2,16.2h-4.6L11.4,65H5.6l-1.1,2.7H0 L7.3,51.5"/><path id="path24" class="st0" d="M18.6,51.5h11.7v3.8h-7.3v2.3h6.4v3.7h-6.4v2.5h7.4v3.8H18.6V51.5"/><path id="path26" class="st0" d="M39.6,59.9c1.3,0.1,2.4-0.8,2.6-2.1c0-0.1,0-0.1,0-0.2c0-1.3-1-2.4-2.3-2.4c-0.1,0-0.2,0-0.3,0 h-2.1v4.7L39.6,59.9z M38.4,63.6h-0.9v4.1h-4.3V51.5H40c4.2,0,6.6,2.6,6.6,6.1c0,2.1-1.2,4.1-3.1,5l-0.4,0.2 c0.8,0.6,1.7,0.8,2.7,0.8V68C42.7,68.1,39.8,66.4,38.4,63.6"/><path id="path28" class="st0" d="M61.3,59.6c0.2-2.3-1.6-4.2-3.8-4.4c-0.1,0-0.2,0-0.3,0c-2.3,0-4.2,1.8-4.2,4.1 c0,0.1,0,0.2,0,0.3c-0.1,2.3,1.7,4.3,4,4.4c0.1,0,0.1,0,0.2,0c2.3,0,4.2-1.9,4.2-4.2C61.3,59.7,61.3,59.7,61.3,59.6z M48.4,59.6 c0-4.6,3.7-8.4,8.3-8.4c0.1,0,0.3,0,0.4,0c4.6-0.2,8.4,3.3,8.6,7.9c0,0.2,0,0.4,0,0.5c0.1,4.6-3.6,8.4-8.2,8.4 c-0.2,0-0.3,0-0.5,0c-4.6,0.2-8.5-3.4-8.7-8.1C48.4,59.8,48.4,59.7,48.4,59.6"/><path id="path30" class="st0" d="M74.3,59.8c2,0,2.7-1.1,2.7-2.2c0-1.2-0.8-2.3-2.7-2.3h-1.7v4.5L74.3,59.8z M68.3,51.5h6.3 c4.2,0,6.8,2.6,6.8,6.2c0,3.4-2.6,5.8-7,5.8h-1.8v4.2h-4.3V51.5"/><path id="path32" class="st0" d="M95.6,59.6c0.2-2.3-1.6-4.2-3.8-4.4c-0.1,0-0.2,0-0.3,0c-2.3,0-4.2,1.8-4.2,4.1 c0,0.1,0,0.2,0,0.3c-0.1,2.3,1.7,4.3,4,4.4c0.1,0,0.1,0,0.2,0c2.3,0,4.2-1.9,4.2-4.2C95.6,59.7,95.6,59.7,95.6,59.6z M82.8,59.6 c0-4.6,3.7-8.4,8.3-8.4c0.1,0,0.3,0,0.4,0c4.6-0.2,8.4,3.3,8.6,7.9c0,0.2,0,0.4,0,0.5c0.1,4.6-3.6,8.4-8.2,8.4 c-0.2,0-0.3,0-0.5,0c-4.6,0.2-8.5-3.4-8.7-8.1C82.8,59.8,82.8,59.7,82.8,59.6"/><path id="path34" class="st0" d="M109.1,59.9c1.3,0.1,2.4-0.8,2.6-2.1c0-0.1,0-0.1,0-0.2c0-1.3-1-2.4-2.3-2.4 c-0.1,0-0.2,0-0.3,0H107v4.7L109.1,59.9z M107.9,63.6H107v4.1h-4.3V51.5h6.8c4.2,0,6.6,2.6,6.6,6.1c0,2.1-1.2,4.1-3.1,5 l-0.4,0.2c0.8,0.6,1.7,0.8,2.7,0.8V68C112.2,68.1,109.3,66.4,107.9,63.6"/><path id="path36" class="st0" d="M122.3,55.4h-5.2v-3.9h14.8v3.9h-5.3v12.3h-4.4L122.3,55.4"/><path id="path38" class="st0" d="M0.5,30.4H5v12.3h7.2v3.8H0.5V30.4"/><path id="path40" class="st0" d="M16,40.3l-5.8-9.9h5.3l2.9,5.6l2.9-5.6h5l-5.9,9.9v6.3H16V40.3"/><path id="path42" class="st0" d="M39,38.5c0.2-2.3-1.6-4.2-3.8-4.4c-0.1,0-0.2,0-0.3,0c-2.3,0-4.2,1.8-4.2,4.1 c0,0.1,0,0.2,0,0.3c-0.1,2.3,1.7,4.3,4,4.4c0.1,0,0.1,0,0.2,0c2.3,0,4.2-1.9,4.2-4.2C39,38.6,39,38.6,39,38.5z M26.1,38.5 c0-4.6,3.7-8.4,8.3-8.4c0.1,0,0.3,0,0.4,0c4.6-0.2,8.4,3.3,8.6,7.9c0,0.2,0,0.4,0,0.5c0.1,4.6-3.6,8.4-8.2,8.4 c-0.2,0-0.3,0-0.5,0c-4.6,0.2-8.5-3.4-8.7-8.1C26.1,38.7,26.1,38.6,26.1,38.5"/><path id="path44" class="st0" d="M50.3,37.8v8.8H46V30.3h2.4l8.2,8.8v-8.6H61v16.3h-2.4L50.3,37.8"/><path id="path46" class="st1" d="M27,47.7v3.2h-5.4L27,47.7"/><path id="path48" class="st1" d="M15.8,10.6c0-0.2,0.1-0.3,0.1-0.5c0,0,0,0,0,0c0.2-0.6,0.4-1.2,0.6-1.9c1.2-3,2.9-5.8,5.1-8.2 l0,0c0.1-0.1-2.1,0.8-5.2,4.1c-5.7,5.9-5.1,8.3-6.6,13.1c-0.7,2.5-1.8,4.8-3.3,7c3.9-2.9,6.8-6.9,8.5-11.4 C15.4,12.1,15.6,11.4,15.8,10.6"/><path id="path50" class="st1" d="M0.3,9.6c2.9,2.2,6.3,3.8,9.9,4.8c0.2-1.3,0.6-2.5,1.2-3.7c-1.1,0-2.2,0.1-3.6,0.1 C5.2,10.9,2.7,10.4,0.3,9.6"/><path id="path52" class="st1" d="M21.8,13.6c-1.8-0.9-3.8-1.7-5.8-2.3c-0.4,1.2-0.8,2.5-1.3,3.6c0.3,0,0.7,0,1,0 c0.2,0,0.3,0,0.5,0c0,0,0,0,0,0c0.6,0,1.3,0,1.9,0c3.2,0.3,6.3,1.2,9.2,2.7C25.6,16.2,23.8,14.8,21.8,13.6"/></g></g></g></g></svg>