<?xml version="1.0" encoding="UTF-8"?>
<svg id="Layer_1" xmlns="http://www.w3.org/2000/svg" version="1.1" viewBox="0 0 1386.89 375.83">
  <!-- Generator: Adobe Illustrator 29.3.1, SVG Export Plug-In . SVG Version: 2.1.0 Build 151)  -->
  <defs>
    <style>
      .st0 {
        fill: #001a70;
      }

      .st1 {
        fill: #fff;
      }
    </style>
  </defs>
  <g>
    <path class="st0" d="M931.68,173.63h0c0-6.24,4.82-9.36,12.19-9.36,3.69,0,6.24.57,8.79,1.13v-.85c0-5.1-3.12-7.66-8.51-7.66-3.4,0-5.96.85-8.51,1.99l-1.13-3.4c3.12-1.42,6.24-2.27,10.21-2.27s7.09,1.13,9.07,3.12,2.84,4.54,2.84,8.22v17.3h-3.97v-4.25c-1.99,2.55-5.39,4.82-10.21,4.82-5.39,0-10.78-2.84-10.78-8.79M952.66,171.36v-2.84c-1.99-.57-4.82-1.13-8.22-1.13-5.39,0-8.22,2.27-8.22,5.96h0c0,3.69,3.4,5.67,7.09,5.67,5.1.28,9.36-3.12,9.36-7.66"/>
    <path class="st0" d="M982.16,153.49h4.25v4.82c1.99-2.84,4.54-5.39,9.07-5.39s7.66,2.55,9.07,5.67c1.99-3.12,5.1-5.67,9.93-5.67,6.52,0,10.49,4.54,10.49,11.34v17.58h-4.25v-16.73c0-5.39-2.84-8.51-7.37-8.51-4.25,0-7.94,3.12-7.94,8.79v16.45h-4.25v-16.73c0-5.39-2.84-8.51-7.37-8.51s-7.94,3.69-7.94,9.07v16.16h-4.25v-28.36h.57Z"/>
    <path class="st0" d="M1032.63,167.67h0c0-8.22,5.67-15.03,13.61-15.03,8.51,0,13.33,6.81,13.33,15.03v1.42h-22.4c.57,6.24,4.82,9.64,9.93,9.64,3.97,0,6.52-1.7,9.07-3.97l2.55,2.27c-2.84,3.12-6.24,5.39-11.63,5.39-8.22.28-14.46-5.96-14.46-14.75M1055.32,166.26c-.57-5.1-3.4-9.64-9.07-9.64-4.82,0-8.79,4.25-9.36,9.64h18.43Z"/>
    <path class="st0" d="M1066.95,153.49h4.25v4.82c1.99-2.84,4.25-5.39,9.07-5.39,4.54,0,7.66,2.55,9.07,5.67,1.99-3.12,5.1-5.67,9.93-5.67,6.52,0,10.49,4.54,10.49,11.34v17.58h-3.97v-16.73c0-5.39-2.84-8.51-7.37-8.51-4.25,0-7.94,3.12-7.94,8.79v16.45h-4.25v-16.73c0-5.39-2.84-8.51-7.37-8.51s-7.94,3.69-7.94,9.07v16.16h-4.25v-28.36h.28Z"/>
    <path class="st0" d="M1123.38,176.46v5.39h-4.25v-39.98h4.25v17.3c2.27-3.4,5.67-6.24,10.78-6.24,6.81,0,13.61,5.39,13.61,14.75h0c0,9.36-6.81,14.75-13.61,14.75-5.1,0-8.51-2.84-10.78-5.96M1143.51,167.67h0c0-6.81-4.54-11.06-9.93-11.06s-10.21,4.54-10.21,11.06h0c0,6.52,5.1,11.06,10.21,11.06,5.39,0,9.93-3.97,9.93-11.06"/>
    <path class="st0" d="M1154,167.67h0c0-8.22,5.67-15.03,13.61-15.03,8.51,0,13.33,6.81,13.33,15.03v1.42h-22.4c.57,6.24,4.82,9.64,9.93,9.64,3.97,0,6.52-1.7,9.07-3.97l2.55,2.27c-2.84,3.12-6.24,5.39-11.63,5.39-8.22.28-14.46-5.96-14.46-14.75M1176.41,166.26c-.57-5.1-3.4-9.64-9.07-9.64-4.82,0-8.79,4.25-9.36,9.64h18.43Z"/>
    <path class="st0" d="M1188.32,153.49h4.25v7.37c1.99-4.82,6.24-8.22,11.63-7.94v4.54h-.28c-6.24,0-11.34,4.54-11.34,13.04v11.34h-4.25v-28.36Z"/>
    <path class="st0" d="M1225.18,167.96h0c0-8.22,6.24-15.03,14.75-15.03s14.75,6.81,14.75,14.75h0c0,7.94-6.24,14.75-15.03,14.75-8.22.28-14.46-6.52-14.46-14.46M1250.42,167.96h0c0-6.24-4.54-11.34-10.49-11.34s-10.49,5.1-10.49,11.06h0c0,6.24,4.54,11.06,10.49,11.06s10.49-4.82,10.49-10.78"/>
    <path class="st0" d="M1264.03,157.18h-3.97v-3.69h3.97v-2.55c0-3.12.85-5.67,2.55-7.37,1.42-1.42,3.4-2.27,6.24-2.27,1.99,0,3.4.28,4.54.85v3.69c-1.42-.57-2.84-.85-4.25-.85-3.4,0-4.82,1.99-4.82,5.96v2.55h9.07v3.69h-9.07v24.67h-4.25v-24.67Z"/>
    <path class="st0" d="M1265.74,214.46c0,3.97-2.84,6.24-7.66,6.24h-6.81v-12.76h6.81c4.82,0,7.66,2.55,7.66,6.52M1274.24,214.46c0-8.22-6.52-13.33-15.6-13.33h-15.6v38.57h8.22v-11.91h7.37c9.07,0,15.6-5.1,15.6-13.33"/>
    <path class="st0" d="M1227.17,220.42c0,8.22-4.82,11.91-11.63,11.91h-7.37v-24.39h7.37c7.09.28,11.63,3.97,11.63,12.48M1235.68,220.42c0-12.76-7.94-19.28-20.13-19.28h-15.6v38.57h15.6c12.48,0,20.13-7.37,20.13-19.28"/>
    <path class="st0" d="M1173.86,224.11c-2.27,0-5.1.57-7.37,1.99l7.37-18.43,7.37,18.43c-2.55-1.7-5.1-1.99-7.37-1.99M1186.62,239.7h8.79c-5.67-13.04-11.34-25.81-16.73-38.85h-9.93c-5.67,13.04-10.78,25.81-16.45,38.85h8.51l.57-1.42c2.27-5.39,6.52-8.22,12.19-8.22s10.21,2.84,12.19,8.22l.85,1.42Z"/>
    <path class="st0" d="M931.68,220.42h0c0-11.06,8.51-20.13,20.13-20.13,6.81,0,11.06,1.99,15.03,5.39l-5.39,6.52c-2.84-2.55-5.67-3.97-9.93-3.97-6.24,0-11.06,5.39-11.06,11.91h0c0,7.09,4.82,12.19,11.63,12.19,3.12,0,5.96-.85,7.94-2.27v-5.39h-8.51v-7.37h16.73v16.73c-3.97,3.4-9.36,6.24-16.45,6.24-11.91,0-20.13-8.22-20.13-19.85"/>
    <path class="st0" d="M975.63,210.21h8.22v5.96c1.7-3.97,4.54-6.81,9.36-6.52v8.79h-.57c-5.67,0-9.07,3.4-9.07,10.49v10.78h-8.22v-29.49h.28Z"/>
    <path class="st0" d="M996.33,225.24h0c0-8.51,6.81-15.31,15.88-15.31s15.88,6.81,15.88,15.31h0c0,8.51-6.81,15.31-15.88,15.31-9.07-.28-15.88-7.09-15.88-15.31M1019.87,225.24h0c0-4.54-3.12-8.22-7.66-8.22-4.82,0-7.66,3.69-7.66,7.94h0c0,4.25,3.12,8.22,7.66,8.22,4.82,0,7.66-3.69,7.66-7.94"/>
    <path class="st0" d="M1034.05,229.21v-19h8.22v16.45c0,3.97,1.99,5.96,5.1,5.96s5.1-1.99,5.1-5.96v-16.45h8.22v29.49h-8.22v-4.25c-1.99,2.55-4.54,4.82-8.51,4.82-6.24,0-9.93-4.25-9.93-11.06"/>
    <path class="st0" d="M1068.65,210.21h8.22v4.25c1.99-2.84,4.82-4.82,9.07-4.82,6.81,0,13.33,5.39,13.33,15.31h0c0,9.93-6.52,15.31-13.33,15.31-4.54,0-7.09-1.99-9.07-4.25v12.76h-8.22v-38.57ZM1091.05,224.96h0c0-5.1-3.4-8.22-7.09-8.22-3.97,0-7.09,3.12-7.09,8.22h0c0,4.82,3.12,8.22,7.09,8.22,3.97,0,7.09-3.12,7.09-8.22"/>
    <path class="st0" d="M1104.09,225.24h0c0-8.51,5.96-15.31,14.46-15.31,9.93,0,14.46,7.66,14.46,15.88v2.27h-20.42c.85,3.69,3.4,5.67,7.09,5.67,2.84,0,4.82-.85,7.09-3.12l4.82,4.25c-2.84,3.4-6.81,5.39-11.91,5.39-9.07,0-15.6-6.24-15.6-15.03M1125.08,222.69c-.57-3.69-2.84-6.24-6.24-6.24s-5.67,2.55-6.24,6.24h12.48Z"/>
    <path class="st0" d="M772.02,108.41l-82.24,82.24,82.24,82.24,82.24-82.24-82.24-82.24ZM692.05,190.64l80.25-80.25,80.25,80.25-80.25,80.25-80.25-80.25Z"/>
    <rect class="st0" x="772.02" y="142.15" width="1.42" height="76.57"/>
    <path class="st0" d="M769.19,219l-4.82-49.34-1.42.85,4.54,48.78c.85,0,1.13-.28,1.7-.28"/>
    <path class="st0" d="M777.69,219.29l4.82-48.78-1.42-.85-4.82,49.34c.57,0,1.13.28,1.42.28"/>
    <path class="st0" d="M764.93,219.85l-5.96-28.93-1.13.85,5.67,28.36c.57,0,1.13-.28,1.42-.28"/>
    <path class="st0" d="M760.96,221.27l-6.24-20.42-1.13,1.13,5.96,20.13c.57-.57.85-.85,1.42-.85"/>
    <path class="st0" d="M757.56,222.97l-5.96-15.6-1.13,1.13,5.96,15.31c.28-.57.85-.57,1.13-.85"/>
    <path class="st0" d="M754.44,224.96l-6.24-12.48-1.13,1.13,6.24,12.19c.28-.28.85-.57,1.13-.85"/>
    <path class="st0" d="M751.6,227.23l-6.81-10.78-1.13,1.13,6.81,10.78c.57-.28.85-.85,1.13-1.13"/>
    <path class="st0" d="M792.16,225.81l6.24-12.48-1.13-1.13-6.24,12.48c.57.57.85.85,1.13,1.13"/>
    <path class="st0" d="M789.32,223.54l5.96-15.31-1.42-.85-5.96,15.6c.57,0,.85.28,1.42.57"/>
    <path class="st0" d="M785.92,221.84l5.96-20.13-1.13-1.13-6.24,20.42c.57.28.85.57,1.42.85"/>
    <path class="st0" d="M781.95,220.14l5.67-28.64-1.13-.85-5.96,29.21c.57,0,.85.28,1.42.28"/>
    <path class="st0" d="M794.99,228.36l6.81-10.49-1.13-1.13-6.81,10.49c.28.28.85.85,1.13,1.13"/>
  </g>
  <g>
    <g>
      <path class="st0" d="M162.61,250.82c.76-.92,1.14-1.81,1.14-2.66,0-.77-.21-2.33-.65-4.66-.28-1.49-.57-2.95-.88-4.38-.56-2.51-.98-4-1.25-4.46-.27-.46-.8-.7-1.58-.7v-.89c1.05-.1,2.16-.25,3.32-.46,1.16-.21,1.68-.3,1.56-.28l.23-.03c.26.78.67,2.34,1.22,4.66.55,2.33.97,4.43,1.28,6.32l.13.79.63-1.09c.52-.88,1.04-1.94,1.55-3.17.51-1.24.77-2.07.77-2.51,0-.21-.05-.41-.17-.61-.11-.19-.29-.38-.55-.56l-.27-.18c-.19-.13-.36-.31-.53-.53-.25-.37-.38-.75-.38-1.16,0-.49.19-.94.56-1.35s.84-.62,1.4-.62c.5,0,.97.18,1.43.55.45.37.68.96.68,1.77,0,1.35-.64,3.37-1.91,6.08-.95,2.01-2.06,4.03-3.32,6.04-1.77,2.8-3.37,4.87-4.8,6.21-1.43,1.34-2.88,2.01-4.35,2.01-.63,0-1.15-.21-1.57-.64-.42-.42-.62-.9-.62-1.43,0-.56.19-1.01.58-1.34.39-.33.82-.5,1.31-.5s1.08.2,1.72.59c.64.39,1.07.59,1.29.59.58,0,1.24-.46,2.01-1.38Z"/>
      <path class="st0" d="M176.63,235.82c2.03-2.38,4.27-3.58,6.7-3.58,1.05,0,1.92.26,2.61.78.69.52,1.04,1.25,1.04,2.2,0,1.43-.81,2.79-2.42,4.07-1.61,1.28-3.71,2.1-6.28,2.45-.07.34-.12.66-.15.96-.03.3-.05.54-.05.73,0,.7.1,1.24.3,1.64.35.74,1.03,1.11,2.04,1.11.82,0,1.63-.42,2.44-1.26.43-.44.9-1.06,1.39-1.84l.99.58c-.85,1.42-1.65,2.47-2.4,3.13-1.19,1.06-2.59,1.59-4.19,1.59-1.19,0-2.32-.43-3.37-1.3-1.06-.87-1.58-2.19-1.58-3.97,0-2.56.98-5,2.95-7.3ZM183.68,233.76c-.14-.27-.4-.41-.78-.41-.8,0-1.58.64-2.35,1.92-.77,1.28-1.45,3.07-2.05,5.38,1.96-.44,3.34-1.29,4.16-2.55.82-1.26,1.23-2.38,1.23-3.36,0-.39-.07-.71-.21-.98Z"/>
      <path class="st0" d="M191.17,236.27c2.05-2.68,4.14-4.03,6.26-4.03.86,0,1.5.25,1.9.76.24.31.46.83.65,1.56l.58-1.81,3.54-.25-2.21,7.94c-.32,1.13-.54,1.99-.67,2.59-.3,1.14-.45,1.95-.45,2.44,0,.2.04.34.13.41.09.08.19.12.3.12.2,0,.39-.07.58-.22.19-.15.4-.36.63-.64.11-.12.3-.35.56-.69s.49-.62.66-.85l.71.51c-.92,1.35-1.79,2.4-2.63,3.17-.83.76-1.68,1.14-2.53,1.14-.52,0-1.02-.19-1.51-.58s-.73-.96-.73-1.71c0-.29.14-.99.43-2.11.04-.04,0,.03-.12.23-.13.2-.32.49-.59.88-.6.91-1.3,1.67-2.11,2.3s-1.72.94-2.71.94c-.9,0-1.73-.34-2.5-1.01-.77-.67-1.16-1.82-1.16-3.43,0-2.5.99-5.06,2.98-7.67ZM199.02,234.43c-.21-.51-.6-.76-1.18-.76-1.23,0-2.48,1.45-3.78,4.36-1.14,2.57-1.71,4.55-1.71,5.92,0,.54.13,1.01.41,1.41s.63.6,1.07.6c1.13.01,2.4-1.48,3.83-4.48,1.02-2.51,1.52-4.5,1.52-5.97,0-.44-.06-.8-.17-1.08Z"/>
      <path class="st0" d="M205.16,247.91c.93-3.24,1.7-6.02,2.29-8.35.68-2.51,1.03-4,1.03-4.48,0-.42-.14-.69-.41-.81-.28-.12-.75-.18-1.43-.18v-.9c1.45-.09,2.67-.2,3.66-.35.64-.09,1.74-.28,3.29-.56l-1.89,6.02.15.03c.97-1.88,1.75-3.21,2.33-3.99,1.03-1.37,2.02-2.06,2.96-2.06.66,0,1.15.22,1.47.66.31.44.47.93.47,1.47,0,.65-.17,1.24-.52,1.76-.35.52-.83.78-1.45.78-.28,0-.53-.05-.77-.17-.24-.11-.44-.28-.61-.5l-.31-.4c-.06-.07-.11-.12-.17-.17-.06-.04-.14-.07-.24-.07-.43,0-.99.59-1.69,1.76-.7,1.17-1.28,2.36-1.76,3.58-.33.84-.74,2.03-1.23,3.58-.49,1.55-.85,2.66-1.08,3.33h-4.09Z"/>
      <path class="st0" d="M219.38,242.74l.9.07c.17,1.67.59,2.84,1.28,3.51.69.67,1.36,1.01,2.02,1.01.58,0,1.03-.18,1.38-.55.34-.36.51-.79.51-1.29,0-.45-.15-.95-.46-1.49-.3-.54-.66-1.07-1.07-1.57l-1.26-1.57c-.55-.6-1.02-1.29-1.41-2.09s-.58-1.59-.58-2.38c0-1.13.42-2.1,1.27-2.91.85-.82,2-1.23,3.46-1.23.6,0,1.22.13,1.89.38.66.25,1.1.38,1.31.38.26,0,.46-.06.6-.18.13-.12.25-.3.36-.53h.98l-.76,5.19-.89-.08c-.21-1.44-.6-2.47-1.18-3.1s-1.18-.95-1.81-.95-1.1.19-1.39.56c-.29.38-.44.79-.44,1.24,0,.4.11.79.33,1.17.22.38.63.96,1.26,1.75l1.66,2.12c.37.46.69,1.02.98,1.68.29.66.43,1.31.43,1.96,0,1.37-.49,2.47-1.48,3.3-.99.83-2.19,1.25-3.6,1.25-.6,0-1.24-.13-1.92-.38-.68-.25-1.09-.38-1.24-.38-.28,0-.49.08-.63.23-.14.15-.26.33-.35.53h-.9l.76-5.65Z"/>
    </g>
    <path class="st0" d="M263.51,224.6c-11.5-5.35-23.79-9.06-36.43-11.32,1.83-3.46,2.75-7.33,2.75-11.63,0-10.65-5.01-18.07-15.01-22.24-5.33-2.23-12.28-3.47-20.85-3.73l2.52-8.96h30.64l4.75-14.09h-35.58l-10.74,38.17c5.87.4,10.13.81,12.79,1.24,4.1.68,7.77,1.76,11.01,3.24,3.02,1.37,5.74,3.29,8.15,5.78,2.41,2.48,3.62,5.51,3.62,9.07,0,.76-.06,1.48-.16,2.18-13.25-1.86-26.8-2.17-40.14-1.1v-54.69h-1.94l-27.91,12.04v2.81c2.05-.79,3.67-1.37,4.86-1.73,1.87-.61,3.26-.92,4.16-.92,1.69,0,2.85.58,3.48,1.73.63,1.15.94,3.1.94,5.83v36.96c-5.27.88-10.48,1.97-15.58,3.26-14.85,4.12-30.13,10.26-40.86,21.66,17.65-13.29,42.88-18.15,64.47-20.31,18.87-1.73,38-1.32,56.77,1.33,11.16,1.71,22.51,4.22,33.08,8.19,7.12,2.65,13.94,6.11,20.1,10.79-5.24-5.71-11.93-10.06-18.89-13.56Z"/>
  </g>
  <g>
    <g>
      <path class="st0" d="M304.16,277.18h-7.94l11.1-29.71h7.88l11.1,29.71h-8.07l-1.83-5.33h-10.37l-1.88,5.33ZM311.28,255.7h-.07l-3.37,10.41h6.73l-3.29-10.41Z"/>
      <path class="st0" d="M331.47,247.47h7.08v5.41h-7.08v-5.41ZM338.55,277.18h-7.08v-21.59h7.08v21.59Z"/>
    </g>
    <g>
      <path class="st0" d="M353.84,277.18h-7.08v-21.59h6.86v3.78h.08c1.06-2.81,3.23-4.2,6.51-4.2.63,0,1.19.05,1.66.16v6.46c-1.03-.28-1.92-.41-2.71-.41-1.66,0-2.97.49-3.91,1.49-.94.99-1.41,2.19-1.41,3.63v10.69Z"/>
      <path class="st0" d="M374.27,284.42h-7.07v-28.83h6.75v2.49h.08c1.42-2.07,3.4-3.12,5.95-3.12,3.19,0,5.64,1.23,7.36,3.67,1.54,2.15,2.29,4.9,2.29,8.24,0,3.01-.75,5.55-2.25,7.57-1.69,2.24-3.97,3.37-6.87,3.37-2.63,0-4.68-.99-6.15-2.96h-.1v9.57ZM382.55,266.16c0-1.58-.3-2.89-.91-3.91-.74-1.25-1.84-1.89-3.28-1.89-1.16,0-2.11.41-2.88,1.21-.97,1.04-1.46,2.56-1.46,4.59,0,4.16,1.44,6.23,4.29,6.23,1.44,0,2.55-.65,3.32-1.98.61-1.14.91-2.55.91-4.24"/>
      <path class="st0" d="M406.71,277.81c-3.33,0-6.06-1.1-8.2-3.26-2.1-2.17-3.17-4.88-3.17-8.15s1.07-5.99,3.17-8.16c2.14-2.19,4.87-3.29,8.2-3.29s6.04,1.1,8.2,3.29c2.13,2.17,3.2,4.89,3.2,8.16s-1.07,5.98-3.2,8.15c-2.16,2.16-4.88,3.26-8.2,3.26M406.71,260.36c-1.5,0-2.62.67-3.38,2.01-.6,1.05-.91,2.4-.91,4.04s.31,2.99.91,4.04c.76,1.29,1.88,1.95,3.38,1.95s2.63-.65,3.4-1.95c.62-1.08.92-2.43.92-4.04s-.3-2.95-.92-4.04c-.77-1.34-1.9-2.01-3.4-2.01"/>
      <path class="st0" d="M432.09,277.18h-7.07v-21.59h6.87v3.78h.07c1.07-2.81,3.24-4.2,6.51-4.2.63,0,1.19.05,1.66.16v6.46c-1.03-.28-1.94-.41-2.71-.41-1.66,0-2.96.49-3.91,1.49-.94.99-1.41,2.19-1.41,3.63v10.69Z"/>
      <path class="st0" d="M454.12,255.59h4.37v4.58h-4.37v9.81c0,1.39.85,2.1,2.53,2.1.2,0,.5-.03.87-.06.42-.02.73-.05.96-.05v5.21c-.34,0-.97.05-1.92.12-.83.06-1.49.08-1.96.08-3,0-5-.53-6.03-1.58-1.02-1.05-1.54-3.06-1.54-6.03v-9.61h-3.59v-4.58h3.59v-6.55h7.07v6.55Z"/>
      <path class="st0" d="M473.92,277.81c-2.95,0-5.33-.54-7.1-1.63-2.22-1.3-3.37-3.33-3.46-6.11h6.75c0,1.03.37,1.83,1.17,2.41.66.49,1.54.75,2.61.75.84,0,1.56-.17,2.18-.5.78-.42,1.16-1.01,1.16-1.78,0-.73-.42-1.28-1.24-1.66-.32-.12-1.05-.33-2.21-.63-1.53-.32-3.06-.67-4.57-1.04-1.72-.47-3-1.11-3.84-1.88-1.08-.99-1.62-2.39-1.62-4.16,0-2.36,1.11-4.1,3.32-5.24,1.75-.91,3.93-1.37,6.54-1.37,6.44,0,9.75,2.33,9.95,6.99h-6.54c0-1.62-1.05-2.41-3.16-2.41s-3.05.53-3.05,1.62c0,.85.94,1.55,2.79,2.07,1.72.34,3.45.69,5.21,1.05,1.95.41,3.4,1.27,4.36,2.58.76.99,1.14,2.07,1.14,3.23,0,2.67-1.14,4.68-3.39,6.04-1.83,1.11-4.16,1.67-7,1.67"/>
      <rect class="st0" x="296.22" y="142.09" width="96.79" height="96.79"/>
      <path class="st1" d="M316.19,182.03h2.55c3.04-11.29,6.13-18.43,18.98-17.48v56.84h-7.68v2.78h31.01v-2.78h-7.67v-56.84c12.85-.96,15.93,6.19,19.02,17.48h2.51l-.96-20.3h-56.81l-.95,20.3Z"/>
      <rect class="st0" x="515.21" y="142.09" width="96.79" height="96.79"/>
      <rect class="st0" x="405.72" y="142.09" width="96.79" height="96.79"/>
      <path class="st1" d="M533.55,163.18h5.33l24.77,60.99h2.87l17.44-50.23c3.57-10.23,4.52-10.76,6.77-10.76h3.82v-2.83h-19.5v2.83h3.15c5.23,0,5.61,1.28,5.32,2.02l-12.57,36.39-15.61-38.41h7.19v-2.83h-28.98v2.83Z"/>
      <path class="st1" d="M443.96,224.17v-2.77c-1.32,0-8.41.75-8.41-1.6,0-.85.85-3.56,1.87-6.35l2.45-6.75h19.13l5.06,14.69h-7.19v2.77h29.63v-2.77h-5.61l-23.18-61.05h-3.68l-22.06,58.33c-1.01,2.82-5.11,2.72-7.35,2.72v2.77h19.33Z"/>
      <polygon class="st0" points="451.38 184.49 457.19 200.36 445.45 200.36 451.38 184.49"/>
    </g>
  </g>
</svg>