<svg width="189" height="75" viewBox="0 0 189 75" fill="none" xmlns="http://www.w3.org/2000/svg">
<path d="M106.714 1.5386L89.4859 27.4386L72.193 1.5386H55.7359L82.2859 41.3947V72.9421H96.8145V41.1351L123.236 1.47368H106.714V1.5386ZM142.522 13.2877H151.2C165.729 13.2877 173.507 22.8947 173.507 37.1754C173.507 51.4561 165.729 61.0632 151.2 61.0632H142.522V13.2877ZM127.993 1.5386V72.9421H150.172C173.314 72.9421 188.422 60.414 188.422 37.2403C188.422 14.0667 173.7 1.5386 150.622 1.5386H127.993ZM28.6716 0.5C13.243 0.5 1.2216 9.32807 1.2216 21.5965C1.2216 31.5281 8.03588 38.2789 21.0216 41.2649L32.143 43.8614C41.3359 46.0035 45.9002 48.3404 45.9002 53.2737C45.9002 58.986 39.793 62.1667 32.0145 62.1667C22.8216 62.1667 15.943 56.2596 15.1073 47.7561H0.0644531C1.41445 60.0895 12.2145 73.9158 31.3716 73.9158C47.5073 73.9158 60.6216 65.0877 60.6216 52.1053C60.6216 41.9789 54.3216 34.1895 40.5002 31.0088L29.443 28.4123C20.0573 26.2702 16.1359 24.7123 16.1359 20.3632C16.1359 15.3649 21.5359 12.314 28.6716 12.314C34.4573 12.314 42.3645 14.2614 43.2645 22.7649H58.8859C57.6645 10.4316 47.3144 0.5 28.6716 0.5Z" fill="url(#paint0_linear_820_53472)"/>
<defs>
<linearGradient id="paint0_linear_820_53472" x1="0.0542317" y1="37.2254" x2="188.411" y2="37.2254" gradientUnits="userSpaceOnUse">
<stop stop-color="white" stop-opacity="0.45"/>
<stop offset="1" stop-color="white"/>
</linearGradient>
</defs>
</svg>
