<svg xmlns="http://www.w3.org/2000/svg" xmlns:xlink="http://www.w3.org/1999/xlink" width="140" height="78" viewBox="0 0 140 78">
    <defs>
        <path id="a" d="M.17.416h19.654V19.5H.171z"/>
        <path id="c" d="M.159.067h13.267V18.42H.16z"/>
        <path id="e" d="M.287.321h31.178v27.485H.287z"/>
    </defs>
    <g fill="none" fill-rule="evenodd">
        <path fill="#004489" d="M8.237 59.013L0 77.366h5.109l1.25-3.081h6.596l1.251 3.08h5.16l-8.131-18.352H8.237zM9.67 65.54l2.085 4.986H7.56l2.11-4.986zM21.008 77.366h5.005V65.8h-5.005zM37.09 68.516c1.798 0 2.919-1.149 2.919-2.611 0-1.54-1.068-2.741-2.998-2.741h-2.345v5.352h2.424zm-1.356 4.15h-1.068v4.7H29.79V59.012h7.69c4.717 0 7.506 2.976 7.506 6.944 0 2.559-1.303 4.569-3.466 5.718l-.443.208c.886.68 2.085.94 3.076.94v4.83c-3.832 0-7.064-1.958-8.42-4.987zM55.126 68.385c2.216 0 3.075-1.227 3.075-2.48 0-1.358-.912-2.663-3.075-2.663H53.17v5.143h1.955zm-6.83-9.372h7.169c4.795 0 7.715 2.898 7.715 6.997 0 3.863-2.998 6.63-7.95 6.63h-2.06v4.726h-4.874V59.013z"/>
        <g transform="translate(64.493 58.179)">
            <path fill="#004489" d="M14.742 9.945c0-2.95-1.982-5.013-4.692-5.013-2.763 0-4.796 2.09-4.796 5.013 0 2.871 2.033 5.039 4.796 5.039 2.71 0 4.692-2.141 4.692-5.039m-14.571 0C.17 4.541 4.367.416 10.05.416c5.63 0 9.774 3.994 9.774 9.53 0 5.482-4.144 9.554-9.774 9.554-5.683 0-9.88-4.177-9.88-9.555"/>
        </g>
        <path fill="#004489" d="M94.482 68.516c1.798 0 2.92-1.149 2.92-2.611 0-1.54-1.07-2.741-2.998-2.741h-2.346v5.352h2.424zm-1.356 4.15h-1.068v4.7h-4.875V59.012h7.69c4.718 0 7.507 2.976 7.507 6.944 0 2.559-1.303 4.569-3.467 5.718l-.443.208c.886.68 2.085.94 3.076.94v4.83c-3.832 0-7.064-1.958-8.42-4.987zM109.39 63.399h-5.865v-4.386h16.787v4.386h-5.943v13.967h-4.978zM8.33 49.683c1.72 0 2.554-.73 2.554-1.88 0-1.226-.782-1.827-2.554-1.827H5.255v3.707H8.33zm-.391-7.257c1.538 0 2.32-.652 2.32-1.802 0-1.07-.808-1.775-2.346-1.775H5.255v3.577h2.684zM.484 35.09h7.533c4.927 0 6.934 2.063 6.934 4.96 0 1.775-1.12 3.16-2.894 3.733 2.633.575 3.598 2.402 3.598 4.387 0 3.263-2.086 5.272-7.351 5.272H.484V35.09zM18.495 35.09H31.71v4.334H23.42v2.61h7.273v4.23H23.42v2.845h8.341v4.334H18.495zM35.019 35.09h5.005v13.993h8.132v4.36H35.02zM48.78 44.358c0-5.221 4.068-9.503 10.036-9.503 3.676 0 5.735 1.123 6.751 1.828l-2.163 3.968c-1.095-.705-2.19-1.227-4.353-1.227-3.05 0-5.109 1.88-5.109 4.934 0 2.95 2.19 4.881 4.953 4.881.86 0 1.746-.104 2.502-.443v-5.143h4.561v7.65c-.86.835-3.206 2.375-7.377 2.375-5.733 0-9.8-4.1-9.8-9.32M76.383 44.593c1.799 0 2.92-1.149 2.92-2.611 0-1.54-1.069-2.741-2.998-2.741h-2.346v5.352h2.424zm-1.355 4.15h-1.069v4.7h-4.874V35.09h7.69c4.717 0 7.506 2.976 7.506 6.944 0 2.559-1.304 4.569-3.467 5.718l-.443.208c.886.68 2.085.94 3.076.94v4.83c-3.832 0-7.064-1.958-8.42-4.986zM97.156 46.603l-2.085-4.986-2.111 4.986h4.196zM93.637 35.09h2.998l8.132 18.353h-5.16l-1.252-3.081H91.76l-1.25 3.081H85.4l8.237-18.353zM113.967 49.057c3.05 0 4.796-1.906 4.796-4.751 0-2.899-1.746-4.83-4.796-4.83h-2.58v9.58h2.58zm-7.559-13.967h7.246c6.334 0 10.192 3.655 10.192 9.163 0 5.508-3.858 9.19-10.192 9.19h-7.246V35.09z"/>
        <g transform="translate(126.553 35.023)">
            <path fill="#004489" d="M.159.067h13.215v4.334H5.085v2.61h7.273v4.23H5.085v2.845h8.341v4.334H.16z"/>
        </g>
        <g transform="translate(0 .288)">
            <path fill="#E20025" d="M6.068 27.806c4.878-1.738 9.254-7.178 13.182-12.78 3.195 1.573 6.932 2.821 12.215 3.182v-.213c-4.71-.836-8.182-2.497-11.331-4.238C24.12 7.997 27.79 2.264 31.465.567V.321c-7.987 1.195-12.77 5.423-18.239 9.501C9.745 8.01 5.833 6.532.286 6.142v.193c4.985.87 8.46 2.631 11.616 4.459-3.274 2.357-6.887 4.644-11.615 6.09v.244c5.067-1.187 9.21-3.368 12.73-5.674 1.583.947 3.118 1.913 4.766 2.81-3.735 5.773-7.507 11.62-12.15 13.542h.435zm12.584-14.89c-1.408-.815-2.778-1.644-4.198-2.432a111.752 111.752 0 0 0 2.928-2.116c2.49-1.85 6.118-4.33 8.69-5.349-2.484 2.293-4.91 6.006-7.42 9.897z"/>
        </g>
        <path fill="#E20025" d="M20.643 61.65c0-1.54 1.173-2.794 2.867-2.794 1.668 0 2.841 1.254 2.841 2.794 0 1.566-1.173 2.82-2.841 2.82-1.694 0-2.867-1.254-2.867-2.82"/>
    </g>
</svg>
