<?xml version="1.0" encoding="UTF-8"?>
<svg id="Layer_1" data-name="Layer 1" xmlns="http://www.w3.org/2000/svg" width="76.7742mm" height="39.5115mm" xmlns:xlink="http://www.w3.org/1999/xlink" viewBox="0 0 217.6277 112.0011">
  <defs>
    <style>
      .cls-1 {
        mask: url(#mask);
      }

      .cls-2 {
        fill: #fff;
      }

      .cls-2, .cls-3 {
        fill-rule: evenodd;
      }

      .cls-3 {
        fill: #000091;
      }

      .cls-4 {
        mask: url(#mask-1);
      }
    </style>
    <mask id="mask" x="0" y="0" width="116.0967" height="73.7971" maskUnits="userSpaceOnUse">
      <g id="C">
        <path id="A" class="cls-2" d="M.0007.0011h116.096v73.796H.0007V.0011Z"/>
      </g>
    </mask>
    <mask id="mask-1" x="200.1417" y="56.3751" width="17.486" height="17.829" maskUnits="userSpaceOnUse">
      <g id="D">
        <path id="B" class="cls-2" d="M200.1417,56.3751h17.485v17.829h-17.485v-17.829Z"/>
      </g>
    </mask>
  </defs>
  <g>
    <g class="cls-1">
      <path class="cls-3" d="M93.0837,22.8741c-1.786,0-3.438-.084-4.946-.256-4.295-.482-7.442-1.66-9.353-3.498-1.328-1.274-1.922-2.795-1.767-4.527.305-3.427,3.544-7.107,6.212-9.589,2.872-2.678,5.716-4.586,5.746-4.602.046-.03.207-.114.335-.019.112.082.082.22.03.28-.063.071-6.16,6.625-5.918,11.77.068,1.481.656,2.719,1.747,3.68,3.291,2.904,11.391,3.637,17.608,3.74,6.887.117,12.973-.49,13.033-.495.093-.008.253.019.28.161.038.215-.171.272-.231.286-.768.191-7.624,1.875-15.384,2.665-2.662.269-5.134.406-7.393.406M53.8317,18.7301c3.735-1.026,7.167-2.594,10.21-4.657,2.433-1.65,4.63-3.626,6.522-5.869,2.94-3.49,4.453-7.227,4.706-7.886.005-.022.093-.174-.038-.286-.068-.057-.182-.038-.275.057-.163.174-9.32,10.15-21.155,13.384-11.255,3.073-20.406-1.336-20.853-1.557-.063-.03-.147-.052-.275.016-.122.071-.117.193-.082.286.231.599,1.432,3.5,4.494,5.297,1.96,1.151,4.195,1.881,6.642,2.172.811.098,1.647.144,2.504.144,2.374,0,4.919-.37,7.6-1.102M.0057,48.7711c-.027-.106.044-.215.169-.269.201-.09,20.172-8.645,25.235-16.841,1.211-1.963,1.554-3.909,1.021-5.787-1.108-3.906-5.673-6.288-5.869-6.388-.06-.03-.131-.125-.084-.25.052-.144.229-.155.31-.144.259.041,2.548.403,5.066,1.298,2.458.876,5.645,2.458,6.878,5.019.904,1.873.661,4.015-.719,6.367-1.532,2.613-4.156,5.139-7.801,7.513-2.91,1.894-6.467,3.694-10.583,5.349-7.054,2.837-13.269,4.266-13.329,4.275-.073.014-.25.041-.294-.142M44.8447,73.5871c.014-.03,1.345-3.253,2.164-7.447.757-3.862,1.209-9.336-.925-13.495-1.516-2.959-4.146-4.894-7.807-5.751-3.217-.754-7.161-.58-11.715.512-3.631.868-7.668,2.319-11.998,4.317-7.246,3.348-12.897,7.126-13.136,7.284-.049.035-.223.155-.12.34.068.117.231.103.31.065.21-.103,21.514-10.055,32.092-7.328,11.473,2.964,10.594,21.258,10.588,21.444-.003.101.033.269.245.269.12,0,.24-.068.302-.21M68.0927,68.5921c-.196.079-.302-.024-.359-.117-.024-.044-2.891-4.622-3.811-10.602-.539-3.498-.305-6.772.694-9.731,1.247-3.699,3.696-6.906,7.287-9.538,3.367-2.463,7.684-4.369,12.837-5.659,4.11-1.026,8.759-1.669,13.822-1.905,8.422-.395,15.243.49,15.578.531.087.011.264.06.25.248-.014.12-.122.212-.272.22-.063.005-6.446.362-14.222,1.777-7.031,1.279-16.62,3.705-22.383,8.008-11.715,8.74-9.263,26.313-9.236,26.487.019.136-.084.242-.185.28"/>
    </g>
    <path class="cls-3" d="M99.7277,103.5031l-3.4-23.787h-3.5l-13.084,23.787h3.805l3.468-6.391h7.717l.713,6.391h4.282-.001ZM88.3417,94.3951c1.293-2.444,3.876-7.477,5.098-10.297.204,2.991.749,8.12.985,10.297h-6.084.001ZM108.8657,86.5121h-4.042l-3.163,16.99h4.077l3.128-16.99ZM110.1587,80.8371c0-1.157-.849-2.077-2.006-2.077-1.494,0-2.684,1.258-2.684,2.755,0,1.222.849,2.139,2.006,2.139,1.494,0,2.684-1.219,2.684-2.817h0ZM123.2297,87.2551c-.885-.882-1.53-1.154-2.447-1.154-1.429,0-2.278.648-3.432,2.278l-.985,1.394.61-3.261h-4.042l-3.163,16.99h4.077l1.26-6.761c.373-2.11.713-3.432,1.29-4.388.953-1.625,2.074-2.175,3.4-2.175.476,0,.885.106,1.494.376l1.938-3.299h0ZM139.2977,92.6281c0-4.148-1.837-6.527-4.965-6.527-2.003,0-3.805,1.018-5.98,3.506l.577-3.095h-4.045l-4.726,25.489h4.048l1.835-9.924c1.258,1.258,2.651,1.832,4.35,1.832,2.003,0,3.909-.947,5.539-2.681,2.107-2.208,3.367-5.335,3.367-8.599h0v-.001ZM135.0137,92.7971c0,4.758-2.548,8.667-5.403,8.667-1.157,0-2.55-.713-3.095-1.938.308-3.397.885-5.3,2.006-7.374,1.189-2.139,2.548-3.4,4.045-3.4,1.53,0,2.447,1.225,2.447,4.045h0ZM157.6497,93.8501c0-4.518-2.991-7.749-7.069-7.749-5.302,0-9.652,4.489-9.652,9.992,0,4.521,3.057,7.815,7.306,7.815,5.196,0,9.415-4.445,9.415-10.058h0ZM153.3327,93.1371c0,2.414-.645,5.098-1.663,6.593-.784,1.157-1.87,1.873-3.163,1.873-2.071,0-3.228-1.873-3.228-5.134,0-4.282,2.208-8.057,4.861-8.057,2.104,0,3.193,1.701,3.193,4.725h0ZM171.6567,87.2551c-.882-.882-1.53-1.154-2.447-1.154-1.426,0-2.276.648-3.432,2.278l-.985,1.394.612-3.261h-4.045l-3.16,16.99h4.077l1.258-6.761c.373-2.11.713-3.432,1.293-4.388.95-1.625,2.071-2.175,3.397-2.175.476,0,.885.106,1.494.376l1.938-3.299h0ZM183.2387,86.5121h-4.045l.95-5.134-4.178.915-.781,4.219h-2.107l-.444,2.344h2.074l-1.562,8.495c-.444,2.45-.476,2.515-.476,3.234,0,2.137,1.394,3.324,3.941,3.324,1.326,0,2.959-.338,4.249-.915l-.237-2.243c-.885.308-1.532.476-2.039.476-1.225,0-1.701-.817-1.701-1.867,0-.476.171-1.598.373-2.619l1.497-7.886h4.045l.441-2.344v.001ZM97.9927,73.7961h-12.758l4.42-23.817h4.322l-3.876,20.926h8.4l-.508,2.891ZM109.1847,51.1021c0,.795-.261,1.464-.787,2.006-.4884.5321-1.1808.8301-1.903.819-.591,0-1.075-.207-1.448-.615s-.563-.917-.563-1.53c-.0105-.7262.2743-1.4256.789-1.938.52-.547,1.151-.819,1.903-.819.591,0,1.072.201,1.445.596s.563.89.563,1.481h.001ZM104.8237,73.4901c-.542,2.994-1.424,5.199-2.651,6.617s-2.948,2.15-5.172,2.194l.408-2.346c.4123-.104.7998-.289,1.14-.544.329-.25.618-.612.868-1.089s.474-1.102.68-1.873l.642-2.923,3.1-16.743h4.083l-3.1,16.707h.002ZM123.4277,73.7961h-4.083l.743-3.707c-1.04,1.426-2.153,2.472-3.332,3.128s-2.414.988-3.707.988c-1.206,0-2.148-.308-2.828-.917s-1.021-1.464-1.021-2.553c0-.272.033-.675.087-1.206l.253-1.688,2.08-11.057h4.045l-1.87,10.139-.234,1.464c-.0454.3146-.0681.6321-.068.95-.0002.4605.1343.911.387,1.296.261.406.757.612,1.483.612.5904-.0014,1.1706-.1543,1.685-.444.534-.294,1.037-.713,1.511-1.258.618-.661,1.138-1.454,1.568-2.384s.759-2.006.983-3.231l1.399-7.145h4.083l-3.163,17.012-.001.001ZM140.7107,63.1131c0-1.429-.212-2.466-.642-3.114s-1.048-.969-1.84-.969c-.724,0-1.456.327-2.197.985-.732.659-1.388,1.532-1.957,2.621-.498.953-.904,1.995-1.222,3.13s-.531,2.485-.648,4.048c.278.615.713,1.089,1.312,1.429s1.198.512,1.788.512c.7,0,1.38-.234,2.041-.697.653-.465,1.233-1.094,1.731-1.889s.898-1.712,1.192-2.757.441-2.142.441-3.299M144.9997,62.9441c.0053,1.601-.2958,3.1882-.887,4.676-.591,1.486-1.415,2.795-2.482,3.931-.814.863-1.701,1.519-2.654,1.973s-1.93.68-2.923.68c-1.658,0-3.1-.612-4.322-1.84l-.269,1.432h-4.083l4.625-25.009h4.083l-2.012,10.923c1.113-1.203,2.129-2.061,3.049-2.57.8993-.5047,1.9138-.7682,2.945-.765,1.562,0,2.774.566,3.642,1.698.86,1.135,1.29,2.757,1.29,4.87M150.3547,73.7961h-4.083l4.625-25.009h4.083l-4.625,25.009ZM162.8957,51.1021c0,.795-.261,1.464-.787,2.006-.4884.5321-1.1808.8301-1.903.819-.591,0-1.075-.207-1.448-.615s-.563-.917-.563-1.53c-.0105-.7262.2743-1.4256.789-1.938.52-.547,1.151-.819,1.903-.819.591,0,1.072.201,1.445.596s.563.89.563,1.481h.001ZM158.5347,73.4901c-.542,2.994-1.424,5.199-2.651,6.617s-2.945,2.15-5.174,2.194l.411-2.346c.43-.114.814-.294,1.143-.544s.615-.612.866-1.089.474-1.102.68-1.873l.642-2.923,3.1-16.743h4.083l-3.1,16.707ZM174.9637,61.6481c0-.746-.245-1.388-.735-1.922-.482-.531-1.146-.8-1.987-.8-.68,0-1.339.245-1.973.735-.637.485-1.195,1.132-1.685,1.935s-.871,1.737-1.16,2.793c-.2838,1.0712-.4267,2.1748-.425,3.283,0,1.157.196,2.104.58,2.842s1.059,1.105,2.009,1.105c.792,0,1.543-.359,2.246-1.07s1.29-1.652,1.769-2.809c.18-.408.357-.879.525-1.413l.441-1.617c.128-.542.226-1.081.294-1.617.0641-.4791.0978-.9617.101-1.445h0ZM177.0047,73.7961h-4.083l.512-2.586c-.612.566-1.176,1.04-1.688,1.41-.4576.343-.9406.6506-1.445.92-.4335.2326-.8968.4049-1.377.512-.4748.1023-.9593.1532-1.445.152-1.5,0-2.668-.58-3.519-1.734s-1.277-2.768-1.277-4.834c0-1.497.24-2.926.729-4.287s1.143-2.556,1.957-3.588,1.764-1.856,2.844-2.469c1.072-.612,2.205-.917,3.381-.917,1.818,0,3.19.784,4.118,2.349l.373-1.941h4.083l-3.163,17.012v.001ZM198.4087,60.1511c0,.294-.038.71-.117,1.241l-.256,1.65-2.009,10.754h-4.083l1.769-9.598.289-1.462c.079-.452.122-.86.122-1.225,0-.634-.196-1.162-.58-1.581s-.909-.629-1.562-.629c-.661,0-1.298.226-1.911.68s-1.151,1.018-1.63,1.698c-.4643.6792-.8678,1.398-1.206,2.148-.349.773-.634,1.72-.836,2.855l-1.328,7.112h-4.083l3.168-17.012h4.083l-.751,3.811c.996-1.385,2.063-2.433,3.196-3.147s2.371-1.072,3.71-1.072c1.293,0,2.286.34,2.978,1.021s1.037,1.598,1.037,2.755"/>
  </g>
  <g class="cls-4">
    <path class="cls-3" d="M212.4227,61.6471c0-.746-.245-1.388-.735-1.922-.482-.531-1.146-.8-1.987-.8-.68,0-1.339.245-1.973.735-.637.485-1.195,1.132-1.685,1.935s-.871,1.737-1.16,2.793c-.2838,1.0712-.4267,2.1748-.425,3.283,0,1.157.196,2.104.58,2.842.389.735,1.059,1.105,2.009,1.105.792,0,1.543-.359,2.246-1.07.7-.716,1.29-1.652,1.769-2.809.18-.408.357-.879.525-1.413l.441-1.617c.128-.542.226-1.081.294-1.617.0641-.4791.0978-.9617.101-1.445h0ZM214.4637,73.7951h-4.082l.512-2.586c-.612.566-1.176,1.04-1.688,1.41-.4575.343-.9406.6506-1.445.92-.452.24-.915.411-1.377.512-.4748.1023-.9593.1532-1.445.152-1.5,0-2.668-.58-3.519-1.734s-1.278-2.767-1.278-4.833c0-1.497.24-2.926.729-4.287.489-1.361,1.143-2.556,1.957-3.588s1.764-1.856,2.845-2.469c1.072-.612,2.205-.917,3.381-.917,1.818,0,3.19.784,4.118,2.349l.373-1.941h4.083l-3.163,17.012h-.001Z"/>
  </g>
</svg>