<svg width="222" height="49" viewBox="0 0 222 49" fill="none" xmlns="http://www.w3.org/2000/svg">
<path d="M69.86 16.65L64.69 31.85H60.88L55.71 16.65H59.5L62.43 26.92L62.85 28.51H62.9L63.32 26.92L66.31 16.65H69.86Z" fill="#1B0759"/>
<path d="M78.01 28.89H72.49L71.65 31.85H68.04L73.29 16.65H77.36L82.69 31.85H78.86L78.02 28.89H78.01ZM74.84 20.81L73.32 26.02H77.19L75.72 20.81L75.32 19.22H75.26L74.83 20.81H74.84ZM79.04 13.35L76.21 15.8H73.71L75.02 13.35H79.04Z" fill="#1B0759"/>
<path d="M94.42 31.29C93.29 31.81 91.52 32.13 89.86 32.13C84.68 32.13 82.65 29.46 82.65 24.25C82.65 19.04 84.85 16.38 89.98 16.38C91.41 16.38 93.02 16.65 94.19 17.07L93.86 20.03C92.78 19.63 91.41 19.35 90.17 19.35C87.18 19.35 86.26 20.47 86.26 24.21C86.26 27.95 87.13 29.06 89.79 29.06C90.37 29.06 90.91 29.02 91.41 28.85V23.65H94.43V31.28L94.42 31.29Z" fill="#1B0759"/>
<path d="M105.42 28.89H99.91L99.05 31.85H95.44L100.69 16.65H104.78L110.09 31.85H106.27L105.41 28.89H105.42ZM102.26 20.81L100.75 26.02H104.61L103.16 20.81L102.75 19.22H102.69L102.26 20.81Z" fill="#1B0759"/>
<path d="M120.46 19.71V23.01H126.02L125.98 25.93H120.46V31.85H117.06V16.65H127.07L127.13 19.71H120.46Z" fill="#1B0759"/>
<path d="M138.34 28.76L138.26 31.85H128.63V16.65H132.08V28.76H138.34Z" fill="#1B0759"/>
<path d="M145.82 32.13C141.14 32.13 139.12 29.66 139.12 24.25C139.12 18.84 141.08 16.4 145.82 16.4C150.56 16.4 152.51 18.81 152.51 24.25C152.51 29.69 150.59 32.13 145.82 32.13ZM145.82 19.45C143.52 19.45 142.7 20.39 142.7 24.25C142.7 28.11 143.54 29.07 145.84 29.07C148.14 29.07 148.95 28.09 148.95 24.25C148.95 20.41 148.14 19.45 145.82 19.45Z" fill="#1B0759"/>
<path d="M165.72 31.29C164.59 31.81 162.84 32.13 161.18 32.13C155.97 32.13 153.94 29.46 153.94 24.25C153.94 19.04 156.15 16.38 161.28 16.38C162.71 16.38 164.33 16.65 165.47 17.07L165.15 20.03C164.08 19.63 162.71 19.35 161.46 19.35C158.47 19.35 157.53 20.47 157.53 24.21C157.53 27.95 158.42 29.06 161.07 29.06C161.67 29.06 162.2 29.02 162.69 28.85V23.65H165.71V31.28L165.72 31.29Z" fill="#1B0759"/>
<path d="M176.64 31.85V25.63H171.34V31.85H167.9V16.65H171.34V22.53H176.64V16.65H180.04V31.85H176.64Z" fill="#1B0759"/>
<path d="M191.36 28.89H185.87L185.02 31.85H181.4L186.65 16.65H190.72L196.05 31.85H192.24L191.37 28.89H191.36ZM188.22 20.81L186.68 26.02H190.57L189.1 20.81L188.71 19.22H188.64L188.22 20.81Z" fill="#1B0759"/>
<path d="M208.36 16.65L203.19 31.85H199.37L194.2 16.65H197.96L200.92 26.92L201.32 28.51H201.38L201.8 26.92L204.78 16.65H208.34H208.36Z" fill="#1B0759"/>
<path d="M219.58 31.85L213.68 23.55L212.76 22.2L212.72 22.22V23.87L212.73 31.86H209.71V16.66H212.62L218.03 24.49L218.94 25.85H218.98L218.94 24.21V16.66H221.96V31.86H219.57L219.58 31.85Z" fill="#1B0759"/>
<path d="M48.46 0H0V48.47H48.46V0Z" fill="#1B0759"/>
<path d="M9.91002 19.68V22.99H15.51L15.47 25.91H9.92002V31.85H6.52002V16.58H16.57L16.64 19.67H9.93002L9.91002 19.68Z" fill="#CBD400"/>
<path d="M25.61 28.89H20.07L19.21 31.85H15.58L20.87 16.58H24.96L30.31 31.85H26.47L25.61 28.89ZM22.43 20.78L20.89 26.01H24.79L23.31 20.78L22.91 19.16H22.84L22.42 20.78H22.43Z" fill="#CBD400"/>
<path d="M42.18 28.89L42.09 31.85H31.7V16.58H41.8L41.85 19.63H35.15V22.65H40.78V25.38H35.15V28.88H42.18V28.89Z" fill="#CBD400"/>
</svg>
