<?xml version="1.0" encoding="UTF-8"?>
<svg width="328px" height="108px" viewBox="0 0 328 108" version="1.1" xmlns="http://www.w3.org/2000/svg" xmlns:xlink="http://www.w3.org/1999/xlink">
    <title>DFW_logo_white</title>
    <g id="Page-1" stroke="none" stroke-width="1" fill="none" fill-rule="evenodd">
        <g id="dfw_pri_rgb_blk_pos" transform="translate(-54.000000, -54.000000)" fill="#FFFFFF">
            <path d="M341.082,130.109 L336.916,115.652 L320.885,115.652 L334.728,161.994 L347.619,161.994 L362.05,115.652 L345.403,115.652 L341.082,130.109 Z M363.969,54 L349.994,100.378 L366.808,100.378 L381.275,54.007 L363.969,54 Z M319.188,54 L305.578,54 L292.233,100.378 L308.385,100.378 L312.378,87.206 L316.319,100.378 L332.535,100.378 L319.188,54 Z M260.855,54.002 L243.537,54.002 L258.012,100.378 L274.841,100.378 L260.855,54.002 Z M283.716,130.051 L279.402,115.652 L262.78,115.652 L277.23,161.997 L290.009,161.994 L303.826,115.652 L287.834,115.652 L283.716,130.051 Z M92.201,54.002 L54,54.002 L54,100.364 L70.308,100.364 L70.308,69.424 L92.201,69.424 C113.226,69.424 128.659,81.805 132.014,100.364 L148.973,100.364 C145.441,73.091 122.655,54.002 92.201,54.002 L92.201,54.002 Z M92.201,146.579 L70.308,146.579 L70.308,115.638 L54,115.638 L54,162 L92.201,162 C108.346,162 122.998,156.461 133.453,146.404 C141.947,138.236 147.298,127.509 148.921,115.638 L132.057,115.638 C128.791,134.187 113.315,146.579 92.201,146.579 L92.201,146.579 Z M158.43,54.001 L236.987,54.001 L236.987,69.424 L174.734,69.424 L174.734,100.364 L229.38,100.364 L229.38,115.639 L174.734,115.639 L174.734,162 L158.43,162 L158.43,115.639 L174.734,115.639 L174.734,100.364 L158.43,100.364 L158.43,54.001 L158.43,54.001 Z" id="DFW_logo_white"></path>
        </g>
    </g>
</svg>