<svg xmlns="http://www.w3.org/2000/svg" viewBox="0 0 269.46 45.31"><defs><style>.cls-1,.cls-2{fill:#fff;}.cls-1{fill-rule:evenodd;}</style></defs><g id="Layer_2" data-name="Layer 2"><g id="Layer_1-2" data-name="Layer 1"><path class="cls-1" d="M101.45,21.59c0-10.35-21.18-18.78-47.92-19.33L53.26,1a1.64,1.64,0,0,0-1.37-1H49.7a1.49,1.49,0,0,0-1.38,1L48,2.26c-26.73.55-48,9-48,19.33,0,9,16,16.52,37.77,18.71l-1,4a.8.8,0,0,0,.82,1H64a.8.8,0,0,0,.83-1l-1-4c21.66-2.19,37.7-9.73,37.7-18.71ZM60.8,29.27,54.63,6.37C74.78,7,90.48,11.93,90.48,18c0,5.41-12.61,9.94-29.68,11.24ZM11,18c0-6.1,15.69-11.11,35.84-11.66l-6.16,22.9C23.65,28,11,23.44,11,18Z"/><path class="cls-2" d="M118,37.63h.85v7.55H118Z"/><path class="cls-2" d="M121.09,37.63h.8l4.76,6v-6h.83v7.55h-.68L121.92,39v6.19h-.83Z"/><path class="cls-2" d="M131.61,38.42h-2.54v-.79H135v.79h-2.53v6.76h-.86Z"/><path class="cls-2" d="M136.6,37.63h5.46v.78h-4.61V41h4.12v.78h-4.12V44.4h4.66v.78H136.6Z"/><path class="cls-2" d="M143.82,37.63h3.25a3,3,0,0,1,2.15.75,2.13,2.13,0,0,1,.58,1.49v0a2.2,2.2,0,0,1-2.05,2.2l2.32,3.09h-1l-2.19-2.93h-2.15v2.93h-.86ZM147,41.48c1.14,0,1.95-.58,1.95-1.55v0c0-.93-.72-1.49-1.93-1.49h-2.33v3.06Z"/><path class="cls-2" d="M151.62,37.63h.8l4.75,6v-6H158v7.55h-.67L152.45,39v6.19h-.83Z"/><path class="cls-2" d="M162.93,37.58h.8l3.44,7.6h-.92l-.88-2h-4.11l-.89,2h-.88ZM165,42.41l-1.72-3.84-1.73,3.84Z"/><path class="cls-2" d="M169.68,38.42h-2.53v-.79h5.93v.79h-2.53v6.76h-.87Z"/><path class="cls-2" d="M174.75,37.63h.85v7.55h-.85Z"/><path class="cls-2" d="M177.48,41.43v0a3.85,3.85,0,1,1,7.7,0v0a3.83,3.83,0,0,1-3.86,3.91A3.79,3.79,0,0,1,177.48,41.43Zm6.81,0v0a3,3,0,0,0-3-3.11,3,3,0,0,0-3,3.09v0a3,3,0,0,0,3,3.12A3,3,0,0,0,184.29,41.43Z"/><path class="cls-2" d="M187,37.63h.8l4.75,6v-6h.83v7.55h-.68L187.81,39v6.19H187Z"/><path class="cls-2" d="M198.29,37.58h.8l3.44,7.6h-.92l-.88-2h-4.11l-.9,2h-.87Zm2.1,4.83-1.71-3.84L197,42.41Z"/><path class="cls-2" d="M204,37.63h.85v6.76h4.25v.79H204Z"/><path class="cls-2" d="M216.72,37.58h.8l3.44,7.6H220l-.88-2h-4.11l-.9,2h-.87Zm2.1,4.83-1.71-3.84-1.73,3.84Z"/><path class="cls-2" d="M222.52,37.63h.85v7.55h-.85Z"/><path class="cls-2" d="M225.58,37.63h3.25a3,3,0,0,1,2.14.75,2.09,2.09,0,0,1,.59,1.49v0a2.2,2.2,0,0,1-2.05,2.2l2.32,3.09h-1.05l-2.19-2.93h-2.16v2.93h-.85Zm3.17,3.85c1.13,0,1.94-.58,1.94-1.55v0c0-.93-.71-1.49-1.93-1.49h-2.33v3.06Z"/><path class="cls-2" d="M233.38,37.63h2.82c1.71,0,2.83.91,2.83,2.39v0c0,1.62-1.36,2.47-3,2.47h-1.83v2.66h-.85Zm2.72,4.11c1.25,0,2.07-.67,2.07-1.66v0c0-1.08-.81-1.64-2-1.64h-1.91v3.32Z"/><path class="cls-2" d="M240.25,41.43v0a3.85,3.85,0,1,1,7.7,0v0a3.83,3.83,0,0,1-3.86,3.91A3.79,3.79,0,0,1,240.25,41.43Zm6.81,0v0a3,3,0,0,0-3-3.11,3,3,0,0,0-3,3.09v0a3,3,0,0,0,3,3.12A3,3,0,0,0,247.06,41.43Z"/><path class="cls-2" d="M249.75,37.63H253a3,3,0,0,1,2.15.75,2.08,2.08,0,0,1,.58,1.49v0a2.2,2.2,0,0,1-2.05,2.2L256,45.18h-1.05l-2.18-2.93H250.6v2.93h-.85Zm3.17,3.85c1.13,0,1.94-.58,1.94-1.55v0c0-.93-.71-1.49-1.93-1.49H250.6v3.06Z"/><path class="cls-2" d="M259.46,38.42h-2.53v-.79h5.93v.79h-2.53v6.76h-.87Z"/><path class="cls-2" d="M263.8,44.08l.53-.63a3.54,3.54,0,0,0,2.58,1.07c1,0,1.69-.54,1.69-1.28v0c0-.7-.38-1.1-2-1.44s-2.53-.94-2.53-2.18v0a2.24,2.24,0,0,1,2.48-2.06,3.9,3.9,0,0,1,2.65.93l-.49.66a3.34,3.34,0,0,0-2.18-.82c-1,0-1.61.54-1.61,1.22v0c0,.71.39,1.11,2.05,1.46s2.46,1,2.46,2.14v0c0,1.3-1.08,2.14-2.58,2.14A4.39,4.39,0,0,1,263.8,44.08Z"/><path class="cls-2" d="M127.27,6.54h4.37l9.24,21.71h-5l-2-4.83h-9.12l-2,4.83H118Zm5,12.69-2.86-7-2.86,7Z"/><path class="cls-2" d="M144.2,6.7h9.85a8.62,8.62,0,0,1,6.28,2.18,6.8,6.8,0,0,1,1.85,4.93v.06a6.69,6.69,0,0,1-4.62,6.68l5.26,7.7h-5.54l-4.62-6.9h-3.72v6.9H144.2Zm9.54,10.47c2.31,0,3.63-1.24,3.63-3.05v-.06c0-2-1.41-3.08-3.72-3.08h-4.71v6.19Z"/><path class="cls-2" d="M166.45,6.7h5.11l5.67,9.11,5.66-9.11H188V28.25h-4.72V14.18l-6.06,9.21h-.12l-6-9.12v14h-4.65Z"/><path class="cls-2" d="M193.17,6.7h16.26v4.22H197.88v4.37H208v4.22H197.88V24h11.7v4.22H193.17Z"/><path class="cls-2" d="M213.8,6.7h4.37L228.27,20V6.7H233V28.25h-4l-10.44-13.7v13.7H213.8Z"/><path class="cls-2" d="M238.33,6.7h4.75V28.25h-4.75Z"/><path class="cls-2" d="M255.85,6.54h4.37l9.24,21.71h-5l-2-4.83h-9.11l-2,4.83h-4.84Zm5,12.69-2.86-7-2.87,7Z"/></g></g></svg>