<svg width="122" height="31" viewBox="0 0 122 31" fill="none" xmlns="http://www.w3.org/2000/svg">
    <g clip-path="url(#prefix__clip0_32_579)">
        <g clip-path="url(#prefix__clip1_32_579)" fill="#fff">
            <path
                d="M44.88 22.522h2.35L42.3 7.392l-8.9 15.13h2.35l1.98-3.44h6.08l1.07 3.44zm-6.01-5.49l2.79-4.82 1.52 4.82h-4.31zm10.81-5.42c1.77-1.39 3.25-1.58 4.23-1.58 1.34 0 2.54.32 3.42 1.37.56.66.95 1.64.96 2.8h-7l-.25 2.05h7.07c-.21 1.2-.81 2.28-1.61 3.03-.92.88-2.32 1.52-4.03 1.52-.75 0-2.31-.15-3.7-1.64l-.32 2.58c.68.43 1.92 1.07 3.93 1.07 1.9 0 3.65-.52 5.3-1.97 1.75-1.54 2.53-3.39 2.78-5.38.33-2.65-.37-4.42-1.43-5.57-1.37-1.52-3.17-1.86-4.83-1.86-2.01 0-3.24.47-4.18 1.02l-.32 2.56h-.02zm14.37-3.33l-1.75 14.24h2.18l.71-5.78h.98c1.05 0 2.37-.15 3.61-1.11 1.3-1 1.67-2.28 1.77-3.12.16-1.3-.25-2.67-1.34-3.46-.94-.68-2.15-.77-3.02-.77h-3.14zm1.93 2.01h.96c2.48 0 2.62 1.41 2.53 2.2-.16 1.32-1.17 2.24-3.05 2.24h-.98l.55-4.44h-.01zm15.07-2.26c-4.27 0-7.8 3.2-8.31 7.39-.52 4.18 2.23 7.39 6.5 7.39s7.8-3.21 8.32-7.39c.51-4.18-2.23-7.39-6.5-7.39h-.01zm-1.57 12.76c-3.05 0-4.96-2.22-4.57-5.38.39-3.16 2.84-5.38 5.89-5.38s4.96 2.22 4.57 5.38c-.39 3.16-2.84 5.38-5.89 5.38zm18.64-10.46l.25-2.05h-8.71l-.25 2.05h3.27l-1.5 12.19h2.18l1.5-12.19h3.27-.01zm.59-2.05l3.92 9.99-2.44 4.25h2.26l8.18-14.24h-2.26l-4.17 7.39-2.83-7.39H98.71zm13.75 0l-1.75 14.24h2.18l.71-5.78h.98c1.05 0 2.37-.15 3.61-1.11 1.3-1 1.67-2.28 1.77-3.12.16-1.3-.25-2.67-1.34-3.46-.94-.68-2.15-.77-3.02-.77h-3.14zm1.93 2.01h.96c2.48 0 2.62 1.41 2.53 2.2-.16 1.32-1.17 2.24-3.05 2.24h-.98l.55-4.44h-.01z" />
            <path fill-rule="evenodd" clip-rule="evenodd"
                d="M23.07 16.252c0-1.2-1.03-1.99-2.27-1.77-1.25.22-2.25 1.37-2.24 2.56 0 1.2 1.03 1.99 2.27 1.77 1.25-.22 2.25-1.37 2.24-2.56zM20.27 20.802c0-1-.85-1.66-1.89-1.47-1.04.18-1.87 1.14-1.87 2.14 0 1 .85 1.66 1.89 1.47 1.04-.18 1.87-1.14 1.87-2.14zM15.7 22.782c0-.8-.68-1.33-1.51-1.18-.83.15-1.5.91-1.49 1.71 0 .8.68 1.33 1.51 1.18.83-.15 1.5-.91 1.49-1.71zM11.83 22.372c0-.6-.51-.99-1.14-.88-.62.11-1.12.68-1.12 1.28s.51.99 1.14.88c.62-.11 1.12-.68 1.12-1.28zM9.26 20.522c0-.4-.34-.66-.76-.59-.42.07-.75.46-.75.85 0 .4.34.66.76.59.42-.07.75-.46.75-.85zM6.07 14.322c.07 1.19 1.13 1.93 2.36 1.64 1.23-.29 2.17-1.49 2.09-2.68-.07-1.19-1.13-1.93-2.36-1.64-1.23.29-2.17 1.49-2.09 2.68zM8.62 9.622c.06.99.94 1.61 1.97 1.37s1.81-1.24 1.75-2.24c-.06-.99-.94-1.61-1.97-1.37s-1.81 1.24-1.75 2.24zM13.07 7.392c.05.8.76 1.29 1.58 1.09.82-.19 1.45-.99 1.4-1.79-.05-.8-.76-1.29-1.58-1.09-.82.19-1.45.99-1.4 1.79zM16.95 7.592c.04.6.57.96 1.18.82.62-.14 1.08-.74 1.05-1.34-.03-.6-.57-.96-1.18-.82-.62.14-1.08.74-1.05 1.34zM19.62 9.292c.02.4.38.64.79.55.41-.1.72-.5.7-.89-.02-.4-.38-.64-.79-.55-.41.1-.72.5-.7.89z" />
            <path fill-rule="evenodd" clip-rule="evenodd"
                d="M14.71 15.532c-4.37 2.26-8.74 3.53-12.62 3.83 3.81.77 8.52.04 13.15-2.36 4.63-2.4 8.31-6.01 10.48-9.88-2.86 3.19-6.63 6.14-11 8.41h-.01z" />
            <path
                d="M14.56 29.372C6.53 29.372 0 22.842 0 14.822S6.53.262 14.56.262c8.03 0 14.56 6.53 14.56 14.56 0 8.03-6.53 14.56-14.56 14.56v-.01zm0-28.31C6.97 1.062.8 7.232.8 14.822s6.17 13.76 13.76 13.76 13.76-6.17 13.76-13.76-6.18-13.76-13.76-13.76z" />
        </g>
    </g>
    <defs>
        <clipPath id="prefix__clip0_32_579">
            <path fill="#fff" transform="translate(0 .262)" d="M0 0h121.373v30H0z" />
        </clipPath>
        <clipPath id="prefix__clip1_32_579">
            <path fill="#fff" transform="translate(0 .262)" d="M0 0h120v29.11H0z" />
        </clipPath>
    </defs>
</svg>