<svg xmlns="http://www.w3.org/2000/svg" id="LOGO-LCH-K_x5F_EN-110x41" version="1.1" viewBox="0.0 0.0 110.0 41.0" width="110.0" height="41.0">
  
  <path d="M18.730999,1.0000721c1.8488503,0,3.3475685,1.4988016,3.3475685,3.3476502v6.0519905c0,1.8488512-1.4987183,3.3476534-3.3475685,3.3476534-1.8487701,0-3.3475723-1.4988012-3.3475723-3.3476534v-6.05199c0-1.8488491,1.4988022-3.3476505,3.3475723-3.3476505M34.393158,25.6772263l-5.2412109-3.0260353c-1.6011047-.9244251-3.6483994-.3757687-4.5729065,1.2253361-.9243393,1.6011047-.3757706,3.6483994,1.2253418,4.5729084l5.2412033,3.0259533c1.601181.9245033,3.6484833.3758507,4.5729065-1.2252541s.3758469-3.6484833-1.2253342-4.5729084M28.5653229,18.7021248l5.8279114-3.3503637c1.6011047-.9244261,2.1496811-2.9718046,1.2252579-4.5729084-.9244232-1.6011066-2.9717255-2.1496811-4.5728302-1.225338l-5.8279114,3.3503666c-1.6011047.9244261-2.1496773,2.9718018-1.2253342,4.5729074.924427,1.6011047,2.9718056,2.1496811,4.5729065,1.2253361M20.4067154,17.6329967c.9994469.5790596,1.6718521,1.6576405,1.6718521,2.8959579v16.1236267c0,1.8487701-1.4987183,3.3474884-3.3475685,3.3474884s-3.3475723-1.4987183-3.3475723-3.3474884v-10.3251381l-8.9670143,5.1766205c-1.6011047.9245071-3.6485634.3760166-4.5729027-1.225172-.9243469-1.6011047-.3758507-3.6483994,1.2251701-4.5729084l8.9754753-5.1822891L3.0641594,15.3200399c-1.5975723-.9256573-2.1440926-2.9704046-1.2206497-4.5699492.9243393-1.6011066,2.974678-2.1479559,4.5757828-1.2235298l13.9874268,8.1064358M19.47892,20.9074375c.7088928-.4091301,1.3179436-1.0930405,1.1046257-1.4625664-.2133179-.369442-1.110054-.1838989-1.8189392.2254791l-1.2746429.7360077-4.1070786-2.3711338c-.3540764-.2045231-.8038826-.1251469-1.0667458.1880894l2.8150215,2.3233089.5289383.9161263-1.3270683.7660809c-.3932724.2272053-1.0063515.6819401-1.1738129.9095535l-1.3305168-.5394535c-.118248-.0479069-.2521858-.0387039-.3627853.0253105l-.4330444.2499638,1.4854088,1.2272263.3200531,1.8999615.4330444-.2500477c.1106834-.0637646.1857071-.175106.2032928-.301569l.1981163-1.4218884c.2808571-.0312252.981205-.3347664,1.3744774-.5618877l1.3269806-.7661648.5289383.9161282.6046143,3.5994244c.4026413-.0709152.6963196-.4207993.6962395-.8295994l.000164-4.7424278,1.2747231-.7359238M47.6262436,12.3909666l1.3248444-5.6305342,1.3503189,5.6305342h1.8344727l1.8471298-7.6431513h-1.4905014l-.9808807,4.4074154-.2929382,1.6562405-1.4013519-5.9362912h-1.5414505l-1.3504028,5.8853459-.2800446-1.6052942-1.019165-4.5476012-1.5670013.229341,1.8343887,7.5539961s1.7325821,0,1.7325821-.000001ZM56.136467,12.3912127h-1.5285492l2.5220795-7.6435623h1.8344727l2.4458237,7.5669785-1.5285492.1911316-.5223618-1.7325792h-2.7132111s-.5097046,1.6180305-.5097046,1.6180315ZM57.0281067,9.4739725h1.9492722l-.9681473-3.4778137-.9811249,3.4778137ZM64.6546631,12.3910496h-1.5034027v-7.6433167h2.1021042c1.9745789,0,2.9298172.7644391,2.9298172,2.2929864,0,1.1209793-.5223618,1.885416-1.5285492,2.25494l2.165535,2.9807587-1.6687317.2676334-1.9108047-2.9936609h-.5859604s0,2.8406582-.0000076,2.8406591ZM64.6546631,8.4419853h.4202194c1.1466141,0,1.6177826-.3692789,1.6177826-1.2228732,0-.7897468-.4075623-1.1463695-1.3121033-1.1463695h-.7258987v2.3692427ZM72.4821167,11.1427032c-.5350189,0-1.0318222-.1274471-1.7579651-.4331236l-.3055954,1.4140024c.662468.2802868,1.3121109.4204702,1.9745789.4204702,1.795929,0,2.9808426-.9937782,2.9808426-2.4970179,0-1.4266558-1.0573807-1.7578888-1.9746552-2.0380096-.7260666-.2293386-1.36306-.4333696-1.36306-1.1338811,0-.5859613.4458542-.8916383,1.274147-.8916383.4457779,0,.9169464.0892377,1.5541077.2929406l.2801208-1.3759561c-.6242523-.2164392-1.1720047-.3055139-1.7453156-.3055139-1.7578888,0-2.789711.90446-2.789711,2.4203534,0,1.5797386,1.1083221,1.9362812,2.0253525,2.2419558.6624603.2166872,1.2231216.4075708,1.2231216.9935322,0,.5606537-.5097046.8918867-1.3759613.8918867M81.3518372,10.7731811h-2.7132034l-.5097046,1.6180305h-1.5285492l2.5223236-7.6435623h1.8342285l2.4460678,7.5669785-1.5287933.1911316-.5223694-1.7325783ZM80.9698334,9.4739725l-.9681396-3.4778137-.9811249,3.4778137h1.9492645ZM92.5145569,4.7477328l-.9808807,4.4074979-.2929382,1.6563234-1.4013519-5.9362912h-1.5414505l-1.3503952,5.885345-.2800369-1.6053772-1.0191727-4.5476012-1.5667496.229341,1.834137,7.5543251h1.7325745l1.324852-5.6308627,1.3503189,5.6308627h1.8342209l1.8471222-7.6435623s-1.4902496,0-1.4902496-.0000005ZM48.0847626,17.8283169c.4587555,0,.9171906.0765839,1.515892.2676334l.318573-1.3503208c-.5986176-.2166843-1.1973114-.3185768-1.8089142-.3185768-2.3055573,0-3.7323761,1.5797386-3.7323761,4.1656666,0,2.3694878,1.2101364,3.7834911,3.2356567,3.7834911.8406906,0,1.6177826-.242403,2.4075317-.7388l-.4331207-1.2104626c-.700592.3568687-1.2865524.5352612-1.834465.5352612-1.2099762,0-1.8342285-.8535919-1.8342285-2.5096722,0-1.7705421.7131653-2.6242199,2.1654587-2.6242199M57.769783,24.2232067v-7.6433163h-1.515892v3.0317879h-2.8280029v-3.0317879h-1.5158997v7.6433163h1.5158997v-3.2358189h2.8280029v3.2358189h1.515892ZM66.7235641,20.1849892c0,2.585928-1.3757095,4.1910591-3.566803,4.1910591-2.0255203,0-3.1975327-1.4011002-3.1975327-3.7961445,0-2.5732727,1.3504028-4.1527691,3.5414963-4.1527691,2.0382538,0,3.2228394,1.3757095,3.2228394,3.7578545M63.2840424,23.0129902c1.2357712,0,1.9109802-.9425869,1.9109802-2.7004719,0-1.6689796-.5988693-2.5223274-1.7961807-2.5223274-1.2358551,0-1.9110565.9298496-1.9110565,2.6878185,0,1.6687336.6116028,2.5349808,1.796257,2.5349808M73.992012,19.0257179c0,1.7707882-1.1339645,2.8280029-3.0446854,2.8280029h-.5476685v2.3694878h-1.5032425v-7.6433163h2.0509109c2.0635605,0,3.0446854.7897472,3.0446854,2.4458256M70.3996582,20.5416119h.5859604c1.0061874,0,1.5029907-.4585171,1.5029907-1.3757935,0-.8789043-.458519-1.2481804-1.5029907-1.2481804h-.5859604v2.6239738ZM77.4475632,16.5798904h-1.515892v7.6432362h1.515892v-7.6432362ZM84.7708206,19.7264721l.1018906,2.9298954-2.9427948-6.0764771h-1.9490204v7.6433163h1.3886108v-3.1465816l-.0891647-2.9169941,2.9427948,6.0635757h1.9363708v-7.6433163h-1.3886948s0,3.1465816.0000076,3.1465816ZM48.2376785,28.4121296l2.4458237,7.5667305-1.5285492.1911316-.5223618-1.7325783h-2.7134628l-.5093765,1.6180305h-1.5287933l2.5223236-7.6433163s1.8343964,0,1.8343964.0000019ZM48.2504196,33.1382l-.9682236-3.4778118-.9807968,3.4778118h1.9490204ZM52.4245453,36.055196h1.515892v-7.6432343h-1.515892v7.6432343ZM61.5172043,30.7049515c0,1.1210613-.5222778,1.8854198-1.528801,2.2549419l2.1657867,2.9808426-1.6687317.2675476-1.9110565-2.99366h-.5859604v2.8406563h-1.5031586v-7.6432343h2.1021042c1.9743271,0,2.9298172.7643566,2.9298172,2.2929039M58.4089127,32.1062939c1.1466141,0,1.6177826-.369524,1.6177826-1.2228699,0-.7897472-.4075623-1.1463699-1.3121033-1.1463699h-.7261505v2.3692398h.4204712M65.9984055,28.4120476c2.0635605,0,3.0446854.7897472,3.0446854,2.4458256,0,1.7707901-1.1339645,2.8280029-3.0446854,2.8280029h-.5476685v2.3694878h-1.5032425v-7.6433163h2.0509109M66.0366974,32.3740093c1.0064316,0,1.5031586-.4587631,1.5031586-1.3760395,0-.8789024-.4586792-1.2484283-1.5031586-1.2484283h-.5859604v2.6244678h.5859604M74.2553787,28.2592918c2.0382538,0,3.2229156,1.3756294,3.2229156,3.7578526,0,2.5859261-1.3757935,4.1909752-3.566803,4.1909752-2.0256042,0-3.197525-1.4010201-3.197525-3.7961426,0-2.5732727,1.3503189-4.1526852,3.5414124-4.1526852M74.0389404,34.8450596c1.2356033,0,1.9107285-.942585,1.9107285-2.7003899,0-1.6690617-.5988693-2.5224094-1.7961807-2.5224094-1.2357712,0-1.9109726.9299316-1.9109726,2.6878185,0,1.6687317.6116028,2.5349808,1.7964249,2.5349808M84.6829834,30.7049515c0,1.1210613-.5223694,1.8854198-1.5288849,2.2549419l2.1657867,2.9808426-1.6687317.2675476-1.9109726-2.99366h-.5860519v2.8406563h-1.5031586v-7.6432343h2.1021042c1.9743271,0,2.9298935.7643566,2.9298935,2.2929039M81.5746078,32.1062939c1.1466141,0,1.6177826-.369524,1.6177826-1.2228699,0-.7897472-.4075623-1.1463699-1.3121109-1.1463699h-.7261505v2.3692398h.4204788M86.2839279,29.7624485h2.1271591v6.2929115h1.5032349v-6.2929153h2.1274872v-1.3504009h-5.7578888s0,1.3504009.0000076,1.3504047Z" />
</svg>