<?xml version="1.0" encoding="UTF-8"?>
<svg id="Layer_1" xmlns="http://www.w3.org/2000/svg" viewBox="0 0 78 38">
  <defs>
    <style>
      .cls-1 {
        fill: #041c2c;
      }

      .cls-2 {
        fill: #ffd100;
      }

      .cls-3 {
        fill: #2c2d65;
      }
    </style>
  </defs>
  <path class="cls-3" d="M34.45.82h-7.57l6.71,11.63h-7.51C24.69,5.67,19.04.82,11.92.82H0v29.81h11.92c7.12,0,12.76-4.85,14.15-11.63h7.51l-6.71,11.63h7.57l8.61-14.9L34.45.82ZM11.92,24.07h-5.11V7.37h5.11c4.68,0,7.92,3.24,7.92,8.35s-3.24,8.35-7.92,8.35Z" />
  <polygon class="cls-1" points="43.05 15.72 40.53 11.35 34.22 22.28 36.74 26.65 43.05 15.72" />
  <path class="cls-2" d="M74.34,21.73c1.62-1.41,2.6-3.36,2.6-5.83,0-5.15-4.22-8.52-9.41-8.52h-11.67v11.63h-9.65l6.71-11.63h-7.57l-8.61,14.9,8.61,14.9h7.57l-6.71-11.63h9.65v11.63h12.52c5.32,0,9.62-3.45,9.62-8.73,0-3.02-1.45-5.32-3.66-6.73ZM62.67,13.76h4.85c1.58,0,2.6,1.11,2.6,2.64s-1.06,2.64-2.6,2.64h-4.85v-5.28ZM68.38,30.8h-5.71v-5.71h5.71c1.7,0,2.81,1.19,2.81,2.85s-1.11,2.85-2.81,2.85Z" />
</svg>