<?xml version="1.0" encoding="UTF-8"?><svg id="b" xmlns="http://www.w3.org/2000/svg" width="357.97" height="138.97" viewBox="0 0 357.97 138.97"><defs><style>.d{fill:#e6a72e;}.d,.e{fill-rule:evenodd;}.f{fill:#879398;}.e{fill:#005a96;}.g{fill:#2f4792;}.h{fill:#53b7e8;}</style></defs><g id="c"><path class="g" d="M110.77,25.63l4.47-6.87h-14.74l-17.42,26.8h8.04l3.48-5.36h13.13l1.47,5.36h8.04l-6.48-19.93ZM98.09,34.84l5.74-9.38,2.43,9.38h-8.17ZM150.07,24.12c-1.34-2.13-3.11-3.96-5.36-5.36h34.84l-3.49,5.36h-9.92v21.44h-7.37v-21.44h-8.71ZM150,30.62c-.8-7.81-8.92-13.37-18.14-12.43-9.22.94-16.05,8.03-15.25,15.83.8,7.81,8.92,13.37,18.14,12.43,9.22-.94,16.05-8.03,15.25-15.83ZM136.65,40.01c-5.24,2.07-10.97.24-12.81-4.1-1.84-4.34.91-9.54,6.14-11.61,5.23-2.07,10.97-.24,12.81,4.1,1.84,4.34-.91,9.53-6.14,11.61ZM65.65,45.56H0l2.61-4.02h60.29l11.32-17.42h5.36l-13.94,21.44ZM80.46,22.78h-6.7l-11.32,17.42H3.48l2.61-4.02h53.59l11.32-17.42h12.06l-2.61,4.02Z"/><path class="h" d="M41.55,0c-4.66,0-9.11.96-13.15,2.68h26.3c-4.04-1.72-8.48-2.68-13.15-2.68Z"/><path class="h" d="M58.65,4.69H24.45c-1.35.8-2.64,1.7-3.86,2.68h41.93c-1.22-.98-2.51-1.88-3.86-2.68Z"/><path class="h" d="M64.79,9.38H18.3c-1.08,1.05-2.1,2.17-3.04,3.35h52.56c-.94-1.18-1.95-2.3-3.04-3.35Z"/><path class="h" d="M52.35,28.14c.8,1.62,1.25,3.43,1.25,5.36,0,.23,0,.45-.02.67h5.4l3.92-6.03h-10.56Z"/><path class="h" d="M41.55,21.44c3.89,0,7.34,1.84,9.55,4.69h13.12l3.48-5.36H10.56c-.71,1.72-1.28,3.51-1.69,5.36h23.14c2.21-2.85,5.66-4.69,9.54-4.69Z"/><path class="h" d="M41.55,66.99c8.31,0,15.92-3.03,21.77-8.04H19.78c5.85,5.01,13.46,8.04,21.77,8.04Z"/><path class="h" d="M70.44,16.55c-.36-.61-.74-1.22-1.14-1.81H13.79c-.87,1.28-1.65,2.62-2.33,4.02h57.54l1.43-2.21Z"/><path class="h" d="M75.04,34.22l-8.67,13.34H11.14c1.49,3.21,3.47,6.15,5.84,8.71h49.12c5.39-5.81,8.75-13.54,8.93-22.05Z"/><path class="h" d="M29.49,33.5c0-1.93.45-3.74,1.25-5.36H8.48c-.28,1.74-.43,3.54-.43,5.36,0,.22,0,.45,0,.67h21.45c-.01-.22-.02-.44-.02-.67Z"/><path class="f" d="M91.38,80v-6.34c0-.73-.18-1.23-.53-1.51-.36-.28-.74-.42-1.16-.42s-.82.17-1.22.51c-.4.34-.6.85-.6,1.54v6.21h-2.62v-10.49h2.54v1.09c.36-.4.76-.7,1.18-.91.42-.21.9-.31,1.44-.31s1.05.1,1.49.3c.44.2.82.48,1.13.83.31.35.55.77.71,1.25.16.48.25.99.25,1.54v6.7h-2.62Z"/><path class="f" d="M91.49,63.43h2.52v4.05h-2.52v-4.05Z"/><path class="f" d="M95.23,71.35c.45-.62.98-1.1,1.58-1.44.61-.34,1.27-.51,2-.51,1.25,0,2.18.31,2.8.93.62.62.94,1.52.94,2.7v6.96h-2.6v-6.91c0-.42-.08-.74-.25-.99-.17-.24-.46-.36-.9-.36-.57,0-1.08.29-1.53.86l-2.05-1.25Z"/><path class="f" d="M104.73,71.38c.69-.66,1.37-1.16,2.04-1.49.67-.34,1.45-.51,2.35-.51,1.63,0,2.86.45,3.69,1.35.83.9,1.25,2.24,1.25,4.02,0,1.68-.41,3-1.23,3.95-.82.95-1.97,1.43-3.44,1.43-1.09,0-2-.28-2.74-.83-.74-.55-1.28-1.3-1.62-2.23-.07-.17-.12-.4-.16-.69-.04-.29-.06-.59-.08-.92s-.03-.67-.03-1.01v-.96h4.39v2.21h-1.84c0,.54.2,1.02.58,1.44s.89.64,1.49.64c.42,0,.76-.08,1.03-.25.27-.16.48-.38.64-.66.16-.28.26-.6.33-.96.06-.36.09-.74.09-1.14,0-.35-.03-.7-.09-1.06-.06-.36-.18-.69-.36-.97-.18-.29-.43-.52-.74-.7-.31-.18-.71-.27-1.19-.27-.4,0-.78.08-1.16.25-.37.17-.78.45-1.23.84l-1.95-1.45Z"/><path class="f" d="M114.78,71.35c.45-.62.98-1.1,1.58-1.44.61-.34,1.27-.51,2-.51,1.25,0,2.18.31,2.8.93.62.62.94,1.52.94,2.7v6.96h-2.6v-6.91c0-.42-.08-.74-.25-.99-.17-.24-.46-.36-.9-.36-.57,0-1.08.29-1.53.86l-2.05-1.25Z"/><path class="f" d="M127.63,73.79v6.21h-2.6v-5.79l-1.17-1.56c.48-1.09,1.19-1.9,2.1-2.44.92-.54,2.01-.8,3.27-.8,1.64,0,2.86.39,3.63,1.16.78.77,1.17,1.83,1.17,3.18v6.26h-2.6v-6.1c0-1.51-.75-2.24-2.23-2.21-.35,0-.76.05-1.25.14-.49.1-.88.33-1.19.71l.86,1.25Z"/><path class="f" d="M135.27,71.35c.45-.62.98-1.1,1.58-1.44.61-.34,1.27-.51,2-.51,1.25,0,2.18.31,2.8.93.62.62.94,1.52.94,2.7v6.96h-2.6v-6.91c0-.42-.08-.74-.25-.99-.17-.24-.46-.36-.9-.36-.57,0-1.08.29-1.53.86l-2.05-1.25Z"/><path class="f" d="M147.76,80h-2.57v-6.49c0-.71.13-1.32.39-1.83.26-.51.6-.93,1.03-1.27.42-.34.92-.59,1.48-.75.56-.16,1.16-.25,1.78-.25.81,0,1.58.15,2.31.44l1.95-1.9,1.71,1.64-1.84,1.79c.17.29.31.62.4.97.09.35.14.74.14,1.16v6.49h-2.57v-6.34c0-.67-.19-1.16-.56-1.47-.37-.3-.89-.45-1.54-.45s-1.15.14-1.53.43-.57.75-.57,1.39v.57c.09-.03.18-.06.29-.06.1,0,.19-.01.26-.01h1.69v2.13h-1.51c-.29,0-.49.06-.58.18-.1.12-.14.3-.14.55v3.09Z"/><path class="f" d="M161.36,75.43c-.74.05-1.28.16-1.61.32-.33.17-.49.46-.49.9,0,.29.18.56.55.79.36.23.87.35,1.51.35.81,0,1.35-.2,1.62-.61.27-.41.4-.94.4-1.6v-6.08h2.62v6.08c0,.71-.08,1.35-.23,1.91-.16.56-.42,1.04-.78,1.43-.36.39-.84.69-1.44.91-.6.22-1.33.32-2.19.32-1.02,0-1.83-.14-2.44-.42-.61-.28-1.07-.61-1.39-1-.32-.39-.53-.78-.64-1.18-.1-.4-.16-.72-.16-.96,0-.4.06-.77.19-1.12s.35-.67.66-.96c-.52-.52-.8-1.15-.86-1.9,0-.43.06-.83.19-1.21.13-.37.33-.7.6-.99.27-.29.6-.51.99-.67s.84-.25,1.36-.25h1.53v2.31h-1.35c-.26,0-.45.06-.56.17-.11.11-.18.27-.2.48,0,.24.07.43.21.56s.31.23.52.3c.21.07.44.11.69.13.25.02.48.03.69.03v1.95Z"/><path class="f" d="M167.18,71.35c.45-.62.98-1.1,1.58-1.44.61-.34,1.27-.51,2-.51,1.25,0,2.18.31,2.8.93.62.62.94,1.52.94,2.7v6.96h-2.6v-6.91c0-.42-.08-.74-.25-.99-.17-.24-.46-.36-.9-.36-.57,0-1.08.29-1.53.86l-2.05-1.25Z"/><path class="f" d="M179.72,69.51v6.34c0,.73.17,1.23.52,1.51.35.28.73.42,1.14.42s.82-.17,1.22-.51c.4-.34.6-.85.6-1.55v-6.21h2.62v10.49h-2.54v-1.09c-.36.4-.76.7-1.18.91-.42.21-.9.31-1.44.31s-1.05-.1-1.49-.3-.81-.47-1.12-.82c-.3-.35-.54-.76-.7-1.25-.17-.48-.25-1-.25-1.56v-6.7h2.62Z"/><path class="f" d="M97.49,115.83h-5.67c-.94,0-1.66.25-2.15.74-.49.49-.74,1.05-.74,1.68,0,.71.21,1.33.62,1.86s1.17.8,2.27.8v4.84c-2.44,0-4.43-.63-5.96-1.89-1.54-1.26-2.3-3.11-2.3-5.55,0-.94.17-1.86.5-2.75.33-.89.84-1.66,1.51-2.33.67-.67,1.52-1.2,2.57-1.59,1.04-.39,2.25-.59,3.63-.59h5.61v-.89c0-1.3-.35-2.24-1.03-2.83-.69-.59-1.82-.89-3.39-.89-1.02,0-1.91.15-2.66.44-.75.29-1.48.76-2.18,1.39l-3.66-3.6c.67-.63,1.33-1.15,1.98-1.56.65-.41,1.31-.75,1.98-1,.67-.26,1.4-.43,2.18-.53.79-.1,1.65-.15,2.6-.15,1.85,0,3.46.24,4.84.71l4.07-4.01,3.9,3.72-3.72,3.6c.71,1.18,1.06,2.64,1.06,4.37v15.7h-5.84v-9.68Z"/><path class="f" d="M97.84,134.36c0-.43-.14-.65-.41-.65h-2.07v-4.78h2.48c1.02,0,1.88.07,2.57.21.69.14,1.25.41,1.68.83.43.41.75.99.95,1.74.2.75.29,1.73.29,2.95v4.19h-5.49v-4.49Z"/><path class="f" d="M106.4,107.03c1.1-1.77,2.47-3.15,4.1-4.13,1.63-.98,3.37-1.48,5.22-1.48,3.15,0,5.57.9,7.26,2.69,1.69,1.79,2.54,4.16,2.54,7.11v4.66c0,1.3-.19,2.55-.56,3.75-.38,1.2-.96,2.25-1.77,3.16-.81.91-1.83,1.62-3.07,2.15-1.24.53-2.71.8-4.4.8-1.38,0-2.78-.31-4.22-.94-1.44-.63-2.74-1.57-3.92-2.83l4.13-3.54c.63.59,1.31,1.06,2.04,1.42.73.35,1.39.53,1.98.53,1.38,0,2.38-.44,3.01-1.33.63-.89.94-1.96.94-3.22v-4.6c0-1.18-.31-2.21-.92-3.1-.61-.89-1.62-1.33-3.04-1.33-.71,0-1.44.25-2.18.74-.75.49-1.4,1.19-1.95,2.1l-5.19-2.6Z"/><path class="f" d="M148.19,118.13c0,1.02-.2,2-.59,2.92-.39.92-.99,1.74-1.8,2.45-.81.71-1.82,1.27-3.04,1.68-1.22.41-2.64.62-4.25.62-2.2,0-4.07-.33-5.61-1-1.54-.67-3.01-1.75-4.43-3.25l3.66-3.95c.98,1.02,1.94,1.76,2.86,2.21.92.45,2.06.68,3.39.68,1.46,0,2.46-.24,3.01-.71.55-.47.83-1.02.83-1.65s-.31-1.11-.92-1.45c-.61-.33-1.25-.58-1.92-.74l-1.83-.41c-1.22-.27-2.31-.59-3.28-.94-.96-.35-1.79-.8-2.48-1.33-.69-.53-1.21-1.17-1.56-1.92-.35-.75-.53-1.63-.53-2.66,0-2.01.73-3.72,2.18-5.14,1.46-1.42,3.64-2.12,6.55-2.12,1.65,0,3.19.26,4.6.77,1.42.51,2.93,1.42,4.54,2.72l-3.84,3.54c-.98-.75-1.88-1.23-2.69-1.45-.81-.22-1.68-.32-2.63-.32s-1.66.16-2.16.47c-.49.32-.74.75-.74,1.3,0,.32.11.57.32.77.22.2.48.36.8.5.31.14.65.25,1,.32.35.08.67.16.94.24l2.07.53c1.02.24,1.99.53,2.89.89s1.7.82,2.39,1.39c.69.57,1.23,1.27,1.62,2.1.39.83.59,1.81.59,2.95Z"/><path class="f" d="M170.03,118.13c0,1.02-.2,2-.59,2.92-.39.92-.99,1.74-1.8,2.45-.81.71-1.82,1.27-3.04,1.68-1.22.41-2.64.62-4.25.62-2.2,0-4.07-.33-5.61-1-1.54-.67-3.01-1.75-4.43-3.25l3.66-3.95c.98,1.02,1.94,1.76,2.86,2.21.92.45,2.06.68,3.39.68,1.46,0,2.46-.24,3.01-.71.55-.47.83-1.02.83-1.65s-.31-1.11-.92-1.45c-.61-.33-1.25-.58-1.92-.74l-1.83-.41c-1.22-.27-2.31-.59-3.28-.94-.96-.35-1.79-.8-2.48-1.33-.69-.53-1.21-1.17-1.56-1.92-.35-.75-.53-1.63-.53-2.66,0-2.01.73-3.72,2.18-5.14,1.46-1.42,3.64-2.12,6.55-2.12,1.65,0,3.19.26,4.6.77,1.42.51,2.93,1.42,4.54,2.72l-3.84,3.54c-.98-.75-1.88-1.23-2.69-1.45-.81-.22-1.68-.32-2.63-.32s-1.66.16-2.16.47c-.49.32-.74.75-.74,1.3,0,.32.11.57.32.77.22.2.48.36.8.5.31.14.65.25,1,.32.35.08.67.16.94.24l2.07.53c1.02.24,1.99.53,2.89.89s1.7.82,2.39,1.39c.69.57,1.23,1.27,1.62,2.1.39.83.59,1.81.59,2.95Z"/><path class="f" d="M175.29,112.35l-2.6-3.54c1.1-2.48,2.7-4.33,4.78-5.55,2.09-1.22,4.55-1.83,7.38-1.83,3.74,0,6.49.88,8.26,2.63,1.77,1.75,2.66,4.16,2.66,7.23v4.72c0,1.42.29,2.52.86,3.31.57.79,1.48,1.18,2.74,1.18,1.02,0,1.94-.41,2.75-1.24.81-.83,1.21-1.91,1.21-3.25v-14.34h5.9v23.85h-5.9v-2.24c-.43.59-1.09,1.15-1.98,1.68-.88.53-1.88.8-2.98.8-2.48,0-4.52-.78-6.11-2.33-1.59-1.55-2.39-3.87-2.39-6.94v-4.84c0-3.34-1.69-5.02-5.08-5.02-.39,0-.84.02-1.33.06-.49.04-.98.13-1.48.27-.49.14-.97.33-1.45.59-.47.26-.89.6-1.24,1.03l1.89,2.83v7.73c0,.32.04.57.12.77.08.2.28.29.59.29h2.66v5.31h-3.13c-2.24,0-3.83-.56-4.75-1.68s-1.39-2.67-1.39-4.63v-6.85Z"/><path class="f" d="M236.97,125.51h-5.9v-13.87c0-3.42-1.69-5.1-5.08-5.02-.79,0-1.73.11-2.83.32-1.1.22-2.01.76-2.72,1.62l1.95,2.83v7.79c0,1.42-.29,2.55-.86,3.39-.57.85-1.27,1.5-2.09,1.95-.83.45-1.69.74-2.6.86s-1.71.18-2.42.18l-1.12-5.19c.75.04,1.33,0,1.74-.12.41-.12.73-.27.94-.44.22-.18.35-.36.41-.56.06-.2.09-.39.09-.59v-6.32l-2.66-3.54c1.1-2.48,2.7-4.33,4.78-5.55,2.09-1.22,4.56-1.83,7.44-1.83,3.74,0,6.49.88,8.26,2.63,1.77,1.75,2.66,4.16,2.66,7.23v14.23Z"/><path class="f" d="M224.93,133.54s-.06-.02-.06-.06c-.04,0-.06-.01-.06-.03,0-.02-.02-.03-.06-.03h-1.71v-4.49h2.77c1.65,0,2.75.32,3.31.97s.83,1.76.83,3.33v.3c0,.2.08.37.24.53.16.16.39.24.71.24s.54-.08.68-.24c.14-.16.21-.33.21-.53v-4.6h5.19v4.6c0,1.65-.58,2.97-1.74,3.95-1.16.98-2.59,1.48-4.28,1.48s-3.22-.49-4.34-1.48c-1.12-.98-1.68-2.3-1.68-3.95Z"/><path class="f" d="M262.71,101.66v15.23c0,1.26-.19,2.44-.56,3.54-.37,1.1-.91,2.05-1.59,2.83-.69.79-1.53,1.41-2.54,1.86-1,.45-2.13.68-3.39.68s-2.31-.24-3.28-.71c-.96-.47-1.86-1.16-2.69-2.07v2.48h-5.79v-23.85h5.96v14.11c0,1.57.45,2.75,1.36,3.51.91.77,1.83,1.15,2.77,1.15s1.81-.31,2.6-.94c.79-.63,1.18-1.77,1.18-3.42v-14.4h5.96Z"/><path class="f" d="M242.46,93.22h20.25v4.43h-20.25v-4.43Z"/><polygon class="f" points="278.26 127.4 299.15 95.25 294.6 95.25 273.7 127.4 278.26 127.4"/><path class="d" d="M333.35,104.51c5.26,1.07,14.02,4.06,20.03,1.29-.91,1.81-3.58,3.1-6.73,3.15.3,2.67-4.13,2.93-3.43-.29-.54.04-.77.37-.72,1-2.87-1.9-5.92-3.62-9.16-5.15Z"/><path class="e" d="M340.94,122.68c-1.87,0-4.15-.8-6.3-1-5.69-12.14-16.07-19.61-29.9-23.61-.26.04-.29-.13-.14-.14,16.88,3.48,28.38,12.35,36.34,24.75Z"/><path class="d" d="M327.92,102.07c-.62,0-.02-.25.29-.14,10.14,1.5,23.56,1.41,29.76-3.58-1.32,2.73-3.61,4.49-6.58,5.58-.16,1.84-2.92,2.26-3.58.57-.48.35.05.9-.14,1.14-7.8.03-13.66-1.88-19.75-3.57Z"/><path class="e" d="M348.52,124.68c-1.86-.34-3.36-1.02-5.3-1.29-7.19-11.36-17.3-19.81-31.48-24.18-.63,0-.02-.24.28-.14,16.82,3.79,28.82,13.15,36.49,25.61Z"/><path class="e" d="M355.82,127.4c-1.54-.56-2.85-1.35-4.58-1.72-7.43-11.7-17.67-20.59-32.05-25.33-.95-.42,1.88.43,2.44.57,15.73,4.15,26.75,14.11,34.2,26.47Z"/></g></svg>