<?xml version="1.0" encoding="utf-8"?>
<!-- Generator: Adobe Illustrator 26.3.1, SVG Export Plug-In . SVG Version: 6.00 Build 0)  -->
<svg version="1.1" id="Layer_1" xmlns="http://www.w3.org/2000/svg" xmlns:xlink="http://www.w3.org/1999/xlink" x="0px" y="0px"
	 viewBox="0 0 358 72.7" style="enable-background:new 0 0 358 72.7;" xml:space="preserve">
<style type="text/css">
	.st0{opacity:0.35;clip-path:url(#SVGID_00000021094534943834059080000006344408255606036644_);}
	.st1{clip-path:url(#SVGID_00000021094534943834059080000006344408255606036644_);fill:#001A70;}
	.st2{clip-path:url(#SVGID_00000021094534943834059080000006344408255606036644_);fill:#FFFFFF;}
</style>
<g>
	<g>
		<defs>
			<rect id="SVGID_1_" x="5.5" y="5.1" width="347" height="62.6"/>
		</defs>
		<clipPath id="SVGID_00000030453786222692721840000016711570908503961218_">
			<use xlink:href="#SVGID_1_"  style="overflow:visible;"/>
		</clipPath>
		<g style="opacity:0.35;clip-path:url(#SVGID_00000030453786222692721840000016711570908503961218_);">
			<g>
				<defs>
					<rect id="SVGID_00000136403022537348451680000012754149482371571389_" x="227.9" y="221.8" width="16.3" height="6.6"/>
				</defs>
				<clipPath id="SVGID_00000099653505131752051620000004182946087644262025_">
					<use xlink:href="#SVGID_00000136403022537348451680000012754149482371571389_"  style="overflow:visible;"/>
				</clipPath>
			</g>
		</g>
		<g style="opacity:0.35;clip-path:url(#SVGID_00000030453786222692721840000016711570908503961218_);">
			<g>
				<defs>
					<rect id="SVGID_00000151509024650285016680000000726521308115523498_" x="144" y="221.8" width="16.3" height="6.6"/>
				</defs>
				<clipPath id="SVGID_00000132789752045532890340000016550892971136179096_">
					<use xlink:href="#SVGID_00000151509024650285016680000000726521308115523498_"  style="overflow:visible;"/>
				</clipPath>
			</g>
		</g>
		<g style="opacity:0.35;clip-path:url(#SVGID_00000030453786222692721840000016711570908503961218_);">
			<g>
				<defs>
					<rect id="SVGID_00000075850134959708815960000010400962853930537134_" x="368.1" y="221.8" width="16.3" height="6.6"/>
				</defs>
				<clipPath id="SVGID_00000170965070725958679870000016828241450073416855_">
					<use xlink:href="#SVGID_00000075850134959708815960000010400962853930537134_"  style="overflow:visible;"/>
				</clipPath>
			</g>
		</g>
		<g style="opacity:0.35;clip-path:url(#SVGID_00000030453786222692721840000016711570908503961218_);">
			<g>
				<defs>
					<rect id="SVGID_00000166660521659815995520000007379821021622867122_" x="393.2" y="236.8" width="6.6" height="16.3"/>
				</defs>
				<clipPath id="SVGID_00000111903039748334371130000001811653950758001317_">
					<use xlink:href="#SVGID_00000166660521659815995520000007379821021622867122_"  style="overflow:visible;"/>
				</clipPath>
			</g>
		</g>
		<g style="opacity:0.35;clip-path:url(#SVGID_00000030453786222692721840000016711570908503961218_);">
			<g>
				<defs>
					<rect id="SVGID_00000013911841733354590470000016078487751980246685_" x="130" y="273.9" width="6.6" height="16.3"/>
				</defs>
				<clipPath id="SVGID_00000113352223000629044400000005372433478437831101_">
					<use xlink:href="#SVGID_00000013911841733354590470000016078487751980246685_"  style="overflow:visible;"/>
				</clipPath>
			</g>
		</g>
		<g style="opacity:0.35;clip-path:url(#SVGID_00000030453786222692721840000016711570908503961218_);">
			<g>
				<defs>
					<rect id="SVGID_00000127031015271485048630000011299128990965343638_" x="279.2" y="221.8" width="16.3" height="6.6"/>
				</defs>
				<clipPath id="SVGID_00000005231517146374119610000016835997408392331662_">
					<use xlink:href="#SVGID_00000127031015271485048630000011299128990965343638_"  style="overflow:visible;"/>
				</clipPath>
			</g>
		</g>
		<path style="clip-path:url(#SVGID_00000030453786222692721840000016711570908503961218_);fill:#001A70;" d="M230.6,28.1
			L230.6,28.1c0-2.2,1.7-3.3,4.3-3.3c1.3,0,2.2,0.2,3.1,0.4v-0.3c0-1.8-1.1-2.7-3-2.7c-1.2,0-2.1,0.3-3,0.7l-0.4-1.2
			c1.1-0.5,2.2-0.8,3.6-0.8c1.4,0,2.5,0.4,3.2,1.1c0.7,0.7,1,1.6,1,2.9V31h-1.4v-1.5c-0.7,0.9-1.9,1.7-3.6,1.7
			C232.5,31.2,230.6,30.2,230.6,28.1 M238,27.3v-1c-0.7-0.2-1.7-0.4-2.9-0.4c-1.9,0-2.9,0.8-2.9,2.1v0c0,1.3,1.2,2,2.5,2
			C236.5,30.1,238,28.9,238,27.3"/>
		<path style="clip-path:url(#SVGID_00000030453786222692721840000016711570908503961218_);fill:#001A70;" d="M248.4,21h1.5v1.7
			c0.7-1,1.6-1.9,3.2-1.9c1.6,0,2.7,0.9,3.2,2c0.7-1.1,1.8-2,3.5-2c2.3,0,3.7,1.6,3.7,4V31h-1.5v-5.9c0-1.9-1-3-2.6-3
			c-1.5,0-2.8,1.1-2.8,3.1V31h-1.5v-5.9c0-1.9-1-3-2.6-3c-1.6,0-2.8,1.3-2.8,3.2V31h-1.5V21z"/>
		<path style="clip-path:url(#SVGID_00000030453786222692721840000016711570908503961218_);fill:#001A70;" d="M266.2,26L266.2,26
			c0-2.9,2-5.3,4.8-5.3c3,0,4.7,2.4,4.7,5.3c0,0.2,0,0.3,0,0.5h-7.9c0.2,2.2,1.7,3.4,3.5,3.4c1.4,0,2.3-0.6,3.2-1.4l0.9,0.8
			c-1,1.1-2.2,1.9-4.1,1.9C268.4,31.3,266.2,29.1,266.2,26 M274.2,25.5c-0.2-1.8-1.2-3.4-3.2-3.4c-1.7,0-3.1,1.5-3.3,3.4H274.2z"/>
		<path style="clip-path:url(#SVGID_00000030453786222692721840000016711570908503961218_);fill:#001A70;" d="M278.3,21h1.5v1.7
			c0.7-1,1.5-1.9,3.2-1.9c1.6,0,2.7,0.9,3.2,2c0.7-1.1,1.8-2,3.5-2c2.3,0,3.7,1.6,3.7,4V31H292v-5.9c0-1.9-1-3-2.6-3
			c-1.5,0-2.8,1.1-2.8,3.1V31h-1.5v-5.9c0-1.9-1-3-2.6-3c-1.6,0-2.8,1.3-2.8,3.2V31h-1.5V21z"/>
		<path style="clip-path:url(#SVGID_00000030453786222692721840000016711570908503961218_);fill:#001A70;" d="M298.2,29.1V31h-1.5
			V16.9h1.5V23c0.8-1.2,2-2.2,3.8-2.2c2.4,0,4.8,1.9,4.8,5.2v0c0,3.3-2.4,5.2-4.8,5.2C300.2,31.2,299,30.2,298.2,29.1 M305.3,26
			L305.3,26c0-2.4-1.6-3.9-3.5-3.9c-1.9,0-3.6,1.6-3.6,3.9v0c0,2.3,1.8,3.9,3.6,3.9C303.7,29.9,305.3,28.5,305.3,26"/>
		<path style="clip-path:url(#SVGID_00000030453786222692721840000016711570908503961218_);fill:#001A70;" d="M309,26L309,26
			c0-2.9,2-5.3,4.8-5.3c3,0,4.7,2.4,4.7,5.3c0,0.2,0,0.3,0,0.5h-7.9c0.2,2.2,1.7,3.4,3.5,3.4c1.4,0,2.3-0.6,3.2-1.4l0.9,0.8
			c-1,1.1-2.2,1.9-4.1,1.9C311.2,31.3,309,29.1,309,26 M316.9,25.5c-0.2-1.8-1.2-3.4-3.2-3.4c-1.7,0-3.1,1.5-3.3,3.4H316.9z"/>
		<path style="clip-path:url(#SVGID_00000030453786222692721840000016711570908503961218_);fill:#001A70;" d="M321.1,21h1.5v2.6
			c0.7-1.7,2.2-2.9,4.1-2.8v1.6h-0.1c-2.2,0-4,1.6-4,4.6v4h-1.5V21z"/>
		<path style="clip-path:url(#SVGID_00000030453786222692721840000016711570908503961218_);fill:#001A70;" d="M334.1,26.1
			L334.1,26.1c0-2.9,2.2-5.3,5.2-5.3c3,0,5.2,2.4,5.2,5.2v0c0,2.8-2.2,5.2-5.3,5.2C336.3,31.3,334.1,28.9,334.1,26.1 M343,26.1
			L343,26.1c0-2.2-1.6-4-3.7-4c-2.2,0-3.7,1.8-3.7,3.9v0c0,2.2,1.6,3.9,3.7,3.9C341.5,29.9,343,28.2,343,26.1"/>
		<path style="clip-path:url(#SVGID_00000030453786222692721840000016711570908503961218_);fill:#001A70;" d="M347.8,22.3h-1.4V21
			h1.4v-0.9c0-1.1,0.3-2,0.9-2.6c0.5-0.5,1.2-0.8,2.2-0.8c0.7,0,1.2,0.1,1.6,0.3v1.3c-0.5-0.2-1-0.3-1.5-0.3c-1.2,0-1.7,0.7-1.7,2.1
			V21h3.2v1.3h-3.2V31h-1.5V22.3z"/>
		<path style="clip-path:url(#SVGID_00000030453786222692721840000016711570908503961218_);fill:#001A70;" d="M348.4,42.5
			c0,1.4-1,2.2-2.7,2.2h-2.4v-4.5h2.4C347.4,40.2,348.4,41.1,348.4,42.5 M351.4,42.5c0-2.9-2.3-4.7-5.5-4.7h-5.5v13.6h2.9v-4.2h2.6
			C349.1,47.2,351.4,45.4,351.4,42.5"/>
		<path style="clip-path:url(#SVGID_00000030453786222692721840000016711570908503961218_);fill:#001A70;" d="M334.8,44.6
			c0,2.9-1.7,4.2-4.1,4.2h-2.6v-8.6h2.6C333.2,40.3,334.8,41.6,334.8,44.6 M337.8,44.6c0-4.5-2.8-6.8-7.1-6.8h-5.5v13.6h5.5
			C335.1,51.4,337.8,48.8,337.8,44.6"/>
		<path style="clip-path:url(#SVGID_00000030453786222692721840000016711570908503961218_);fill:#001A70;" d="M316,45.9
			c-0.8,0-1.8,0.2-2.6,0.7l2.6-6.5l2.6,6.5C317.7,46,316.8,45.9,316,45.9 M320.5,51.4h3.1c-2-4.6-4-9.1-5.9-13.7h-3.5
			c-2,4.6-3.8,9.1-5.8,13.7h3l0.2-0.5c0.8-1.9,2.3-2.9,4.3-2.9c2,0,3.6,1,4.3,2.9L320.5,51.4z"/>
		<path style="clip-path:url(#SVGID_00000030453786222692721840000016711570908503961218_);fill:#001A70;" d="M230.6,44.6
			L230.6,44.6c0-3.9,3-7.1,7.1-7.1c2.4,0,3.9,0.7,5.3,1.9l-1.9,2.3c-1-0.9-2-1.4-3.5-1.4c-2.2,0-3.9,1.9-3.9,4.2v0
			c0,2.5,1.7,4.3,4.1,4.3c1.1,0,2.1-0.3,2.8-0.8v-1.9h-3v-2.6h5.9v5.9c-1.4,1.2-3.3,2.2-5.8,2.2C233.5,51.6,230.6,48.7,230.6,44.6"
			/>
		<path style="clip-path:url(#SVGID_00000030453786222692721840000016711570908503961218_);fill:#001A70;" d="M246.1,41h2.9v2.1
			c0.6-1.4,1.6-2.4,3.3-2.3v3.1h-0.2c-2,0-3.2,1.2-3.2,3.7v3.8h-2.9V41z"/>
		<path style="clip-path:url(#SVGID_00000030453786222692721840000016711570908503961218_);fill:#001A70;" d="M253.4,46.3
			L253.4,46.3c0-3,2.4-5.4,5.6-5.4c3.2,0,5.6,2.4,5.6,5.4v0c0,3-2.4,5.4-5.6,5.4C255.8,51.6,253.4,49.2,253.4,46.3 M261.7,46.3
			L261.7,46.3c0-1.6-1.1-2.9-2.7-2.9c-1.7,0-2.7,1.3-2.7,2.8v0c0,1.5,1.1,2.9,2.7,2.9C260.7,49.1,261.7,47.8,261.7,46.3"/>
		<path style="clip-path:url(#SVGID_00000030453786222692721840000016711570908503961218_);fill:#001A70;" d="M266.7,47.7V41h2.9
			v5.8c0,1.4,0.7,2.1,1.8,2.1c1.1,0,1.8-0.7,1.8-2.1V41h2.9v10.4h-2.9v-1.5c-0.7,0.9-1.6,1.7-3,1.7C268,51.6,266.7,50.1,266.7,47.7"
			/>
		<path style="clip-path:url(#SVGID_00000030453786222692721840000016711570908503961218_);fill:#001A70;" d="M278.9,41h2.9v1.5
			c0.7-1,1.7-1.7,3.2-1.7c2.4,0,4.7,1.9,4.7,5.4v0c0,3.5-2.3,5.4-4.7,5.4c-1.6,0-2.5-0.7-3.2-1.5v4.5h-2.9V41z M286.8,46.2
			L286.8,46.2c0-1.8-1.2-2.9-2.5-2.9c-1.4,0-2.5,1.1-2.5,2.9v0c0,1.7,1.1,2.9,2.5,2.9C285.7,49.1,286.8,48,286.8,46.2"/>
		<path style="clip-path:url(#SVGID_00000030453786222692721840000016711570908503961218_);fill:#001A70;" d="M291.4,46.3
			L291.4,46.3c0-3,2.1-5.4,5.1-5.4c3.5,0,5.1,2.7,5.1,5.6c0,0.2,0,0.5,0,0.8h-7.2c0.3,1.3,1.2,2,2.5,2c1,0,1.7-0.3,2.5-1.1l1.7,1.5
			c-1,1.2-2.4,1.9-4.2,1.9C293.7,51.6,291.4,49.4,291.4,46.3 M298.8,45.4c-0.2-1.3-1-2.2-2.2-2.2c-1.2,0-2,0.9-2.2,2.2H298.8z"/>
		<path style="clip-path:url(#SVGID_00000030453786222692721840000016711570908503961218_);fill:#001A70;" d="M174.3,5.1l-29,29
			l29,29l29-29L174.3,5.1z M146.1,34.1l28.3-28.3l28.3,28.3l-28.3,28.3L146.1,34.1z"/>
		
			<rect x="174.3" y="17" style="clip-path:url(#SVGID_00000030453786222692721840000016711570908503961218_);fill:#001A70;" width="0.5" height="27"/>
		<path style="clip-path:url(#SVGID_00000030453786222692721840000016711570908503961218_);fill:#001A70;" d="M173.3,44.1l-1.7-17.4
			l-0.5,0.3l1.6,17.2C173,44.2,173.1,44.1,173.3,44.1"/>
		<path style="clip-path:url(#SVGID_00000030453786222692721840000016711570908503961218_);fill:#001A70;" d="M176.3,44.2L178,27
			l-0.5-0.3l-1.7,17.4C176,44.1,176.2,44.2,176.3,44.2"/>
		<path style="clip-path:url(#SVGID_00000030453786222692721840000016711570908503961218_);fill:#001A70;" d="M171.8,44.4l-2.1-10.2
			l-0.4,0.3l2,10C171.5,44.5,171.7,44.4,171.8,44.4"/>
		<path style="clip-path:url(#SVGID_00000030453786222692721840000016711570908503961218_);fill:#001A70;" d="M170.4,44.9l-2.2-7.2
			l-0.4,0.4l2.1,7.1C170.1,45,170.2,44.9,170.4,44.9"/>
		<path style="clip-path:url(#SVGID_00000030453786222692721840000016711570908503961218_);fill:#001A70;" d="M169.2,45.5l-2.1-5.5
			l-0.4,0.4l2.1,5.4C168.9,45.6,169.1,45.6,169.2,45.5"/>
		<path style="clip-path:url(#SVGID_00000030453786222692721840000016711570908503961218_);fill:#001A70;" d="M168.1,46.2l-2.2-4.4
			l-0.4,0.4l2.2,4.3C167.8,46.4,168,46.3,168.1,46.2"/>
		<path style="clip-path:url(#SVGID_00000030453786222692721840000016711570908503961218_);fill:#001A70;" d="M167.1,47l-2.4-3.8
			l-0.4,0.4l2.4,3.8C166.9,47.3,167,47.1,167.1,47"/>
		<path style="clip-path:url(#SVGID_00000030453786222692721840000016711570908503961218_);fill:#001A70;" d="M181.4,46.5l2.2-4.4
			l-0.4-0.4l-2.2,4.4C181.2,46.3,181.3,46.4,181.4,46.5"/>
		<path style="clip-path:url(#SVGID_00000030453786222692721840000016711570908503961218_);fill:#001A70;" d="M180.4,45.7l2.1-5.4
			L182,40l-2.1,5.5C180.1,45.5,180.2,45.6,180.4,45.7"/>
		<path style="clip-path:url(#SVGID_00000030453786222692721840000016711570908503961218_);fill:#001A70;" d="M179.2,45.1l2.1-7.1
			l-0.4-0.4l-2.2,7.2C178.9,44.9,179,45,179.2,45.1"/>
		<path style="clip-path:url(#SVGID_00000030453786222692721840000016711570908503961218_);fill:#001A70;" d="M177.8,44.5l2-10.1
			l-0.4-0.3l-2.1,10.3C177.5,44.4,177.6,44.5,177.8,44.5"/>
		<path style="clip-path:url(#SVGID_00000030453786222692721840000016711570908503961218_);fill:#001A70;" d="M182.4,47.4l2.4-3.7
			l-0.4-0.4L182,47C182.1,47.1,182.3,47.3,182.4,47.4"/>
		<path style="clip-path:url(#SVGID_00000030453786222692721840000016711570908503961218_);fill:#001A70;" d="M8.3,65.1H5.5l4-10.6
			h2.8l4,10.6h-2.9l-0.7-1.9H9L8.3,65.1z M10.9,57.4L10.9,57.4l-1.2,3.7H12L10.9,57.4z"/>
		<path style="clip-path:url(#SVGID_00000030453786222692721840000016711570908503961218_);fill:#001A70;" d="M18.1,54.5h2.5v1.9
			h-2.5V54.5z M20.6,65.1h-2.5v-7.7h2.5V65.1z"/>
		<path style="clip-path:url(#SVGID_00000030453786222692721840000016711570908503961218_);fill:#001A70;" d="M25.8,65.1h-2.5v-7.7
			h2.4v1.4h0c0.4-1,1.2-1.5,2.3-1.5c0.2,0,0.4,0,0.6,0.1v2.3c-0.4-0.1-0.7-0.1-1-0.1c-0.6,0-1.1,0.2-1.4,0.5
			c-0.3,0.4-0.5,0.8-0.5,1.3V65.1z"/>
		<path style="clip-path:url(#SVGID_00000030453786222692721840000016711570908503961218_);fill:#001A70;" d="M33.3,67.7h-2.5V57.4
			h2.4v0.9h0c0.5-0.7,1.2-1.1,2.1-1.1c1.1,0,2,0.4,2.6,1.3c0.6,0.8,0.8,1.8,0.8,2.9c0,1.1-0.3,2-0.8,2.7c-0.6,0.8-1.4,1.2-2.4,1.2
			c-0.9,0-1.7-0.4-2.2-1.1h0V67.7z M36.3,61.1c0-0.6-0.1-1-0.3-1.4c-0.3-0.4-0.7-0.7-1.2-0.7c-0.4,0-0.8,0.1-1,0.4
			c-0.3,0.4-0.5,0.9-0.5,1.6c0,1.5,0.5,2.2,1.5,2.2c0.5,0,0.9-0.2,1.2-0.7C36.2,62.2,36.3,61.7,36.3,61.1"/>
		<path style="clip-path:url(#SVGID_00000030453786222692721840000016711570908503961218_);fill:#001A70;" d="M44.9,65.3
			c-1.2,0-2.2-0.4-2.9-1.2c-0.8-0.8-1.1-1.7-1.1-2.9c0-1.2,0.4-2.1,1.1-2.9c0.8-0.8,1.7-1.2,2.9-1.2c1.2,0,2.2,0.4,2.9,1.2
			c0.8,0.8,1.1,1.7,1.1,2.9c0,1.2-0.4,2.1-1.1,2.9C47.1,64.9,46.1,65.3,44.9,65.3 M44.9,59.1c-0.5,0-0.9,0.2-1.2,0.7
			c-0.2,0.4-0.3,0.9-0.3,1.4c0,0.6,0.1,1.1,0.3,1.4c0.3,0.5,0.7,0.7,1.2,0.7c0.5,0,0.9-0.2,1.2-0.7c0.2-0.4,0.3-0.9,0.3-1.4
			c0-0.6-0.1-1.1-0.3-1.4C45.8,59.3,45.4,59.1,44.9,59.1"/>
		<path style="clip-path:url(#SVGID_00000030453786222692721840000016711570908503961218_);fill:#001A70;" d="M53.8,65.1h-2.5v-7.7
			h2.4v1.4h0c0.4-1,1.2-1.5,2.3-1.5c0.2,0,0.4,0,0.6,0.1v2.3c-0.4-0.1-0.7-0.1-1-0.1c-0.6,0-1.1,0.2-1.4,0.5
			c-0.3,0.4-0.5,0.8-0.5,1.3V65.1z"/>
		<path style="clip-path:url(#SVGID_00000030453786222692721840000016711570908503961218_);fill:#001A70;" d="M61.8,57.4h1.6V59
			h-1.6v3.5c0,0.5,0.3,0.7,0.9,0.7c0.1,0,0.2,0,0.3,0c0.2,0,0.3,0,0.3,0v1.9c-0.1,0-0.3,0-0.7,0c-0.3,0-0.5,0-0.7,0
			c-1.1,0-1.8-0.2-2.1-0.6c-0.4-0.4-0.5-1.1-0.5-2.2V59H58v-1.6h1.3V55h2.5V57.4z"/>
		<path style="clip-path:url(#SVGID_00000030453786222692721840000016711570908503961218_);fill:#001A70;" d="M68.9,65.3
			c-1.1,0-1.9-0.2-2.5-0.6c-0.8-0.5-1.2-1.2-1.2-2.2h2.4c0,0.4,0.1,0.7,0.4,0.9c0.2,0.2,0.5,0.3,0.9,0.3c0.3,0,0.6-0.1,0.8-0.2
			c0.3-0.2,0.4-0.4,0.4-0.6c0-0.3-0.1-0.5-0.4-0.6c-0.1,0-0.4-0.1-0.8-0.2c-0.5-0.1-1.1-0.2-1.6-0.4c-0.6-0.2-1.1-0.4-1.4-0.7
			c-0.4-0.4-0.6-0.9-0.6-1.5c0-0.8,0.4-1.5,1.2-1.9c0.6-0.3,1.4-0.5,2.3-0.5c2.3,0,3.5,0.8,3.5,2.5H70c0-0.6-0.4-0.9-1.1-0.9
			c-0.7,0-1.1,0.2-1.1,0.6c0,0.3,0.3,0.6,1,0.7c0.6,0.1,1.2,0.2,1.9,0.4c0.7,0.1,1.2,0.5,1.6,0.9c0.3,0.4,0.4,0.7,0.4,1.2
			c0,1-0.4,1.7-1.2,2.2C70.7,65.1,69.9,65.3,68.9,65.3"/>
		
			<rect x="83.6" y="16.8" style="clip-path:url(#SVGID_00000030453786222692721840000016711570908503961218_);fill:#001A70;" width="34.5" height="34.6"/>
		<path style="clip-path:url(#SVGID_00000030453786222692721840000016711570908503961218_);fill:#FFFFFF;" d="M90.1,24.3H92
			l8.8,21.8h1l6.2-17.9c1.3-3.7,1.6-3.8,2.4-3.8h1.4v-1h-7v1h1.1c1.9,0,2,0.5,1.9,0.7l-4.5,13l-5.6-13.7h2.6v-1H90.1V24.3z"/>
		
			<rect x="44.6" y="16.8" style="clip-path:url(#SVGID_00000030453786222692721840000016711570908503961218_);fill:#001A70;" width="34.5" height="34.6"/>
		<path style="clip-path:url(#SVGID_00000030453786222692721840000016711570908503961218_);fill:#FFFFFF;" d="M71.4,45.1l-8.3-21.8
			h-1.3l-7.9,20.8c-0.4,1-1.8,1-2.6,1v1h6.9v-1c-0.5,0-3,0.3-3-0.6c0-0.3,0.3-1.3,0.7-2.3l0.9-2.4h6.8l1.8,5.2h-2.6v1h10.6v-1H71.4z
			 M58.7,37.6l2.1-5.7l2.1,5.7H58.7z"/>
		
			<rect x="5.5" y="16.8" style="clip-path:url(#SVGID_00000030453786222692721840000016711570908503961218_);fill:#001A70;" width="34.5" height="34.6"/>
		<path style="clip-path:url(#SVGID_00000030453786222692721840000016711570908503961218_);fill:#FFFFFF;" d="M12.6,31.1h0.9
			c1.1-4,2.2-6.6,6.8-6.2v20.3h-2.7v1h11.1v-1h-2.7V24.8c4.6-0.3,5.7,2.2,6.8,6.2h0.9l-0.3-7.3H13L12.6,31.1z"/>
	</g>
</g>
</svg>
