<svg width="169" height="36" viewBox="0 0 169 36" fill="none" xmlns="http://www.w3.org/2000/svg">
<g clip-path="url(#clip0_1_2)">
<path d="M10.4865 8.77609C7.76605 5.7246 2.06281 2.01856 2.54952 2.35423C3.03624 2.68989 0.468404 1.0726 0.245645 0L0 0.0183082L0.505022 4.62149C0.639288 5.84361 1.71647 6.65378 2.90197 7.16948C2.90197 7.16948 8.49994 9.92956 10.1935 11.2554C11.8871 12.5813 11.9802 13.4998 11.9802 13.4998C11.9802 13.4998 12.6362 11.1868 10.4865 8.77609Z" fill="url(#paint0_linear_1_2)"/>
<path d="M11.9771 13.4937C11.9771 13.4937 11.8871 14.4122 10.192 15.7442C8.49688 17.0762 2.88519 19.8561 2.88519 19.8561C1.69663 20.3764 0.617928 21.1896 0.489765 22.4102L0.00305176 27.0088L0.248697 27.0256C0.468405 25.9545 3.04081 24.328 2.5541 24.6652C2.06739 25.0024 7.77826 21.2765 10.4987 18.2174C12.6469 15.8006 11.9786 13.4937 11.9786 13.4937H11.9771Z" fill="url(#paint1_linear_1_2)"/>
<path d="M10.4865 17.7506C7.76605 14.6991 2.06281 10.993 2.54952 11.3287C3.03624 11.6643 0.468404 10.0471 0.245645 8.97446L0 8.99277L0.505022 13.5959C0.639288 14.8181 1.71647 15.6282 2.90197 16.1439C2.90197 16.1439 8.49994 18.904 10.1935 20.2299C11.8871 21.5558 11.9802 22.4743 11.9802 22.4743C11.9802 22.4743 12.6362 20.1612 10.4865 17.7506Z" fill="url(#paint2_linear_1_2)"/>
<path d="M11.9771 22.4681C11.9771 22.4681 11.8871 23.3866 10.192 24.7186C8.49688 26.0506 2.88519 28.8305 2.88519 28.8305C1.69663 29.3508 0.617928 30.164 0.489765 31.3846L0.00305176 35.9832L0.248697 36C0.468405 34.9289 3.04081 33.3025 2.5541 33.6397C2.06586 33.9768 7.77826 30.251 10.4987 27.1919C12.6469 24.7751 11.9786 22.4681 11.9786 22.4681H11.9771Z" fill="url(#paint3_linear_1_2)"/>
<path d="M23.6827 9.97382C25.4144 9.97382 26.757 10.3354 27.7137 11.0571C28.6703 11.7803 29.1479 12.7888 29.1479 14.0842C29.1479 15.0332 28.8961 15.8113 28.3911 16.4216C27.8861 17.0319 27.1598 17.4423 26.2124 17.6529C28.5757 18.0588 29.7582 19.3022 29.7582 21.3788C29.7582 22.7489 29.2501 23.8261 28.234 24.6088C27.2178 25.3915 25.7684 25.7836 23.8871 25.7836H17.8802V9.97382H23.6842H23.6827ZM20.4755 16.681H23.7498C24.6378 16.681 25.3274 16.4781 25.8157 16.0707C26.3054 15.6649 26.5495 15.108 26.5495 14.4C26.5495 13.6921 26.3039 13.1397 25.8157 12.74C25.3259 12.3418 24.6378 12.1419 23.7498 12.1419H20.4755V16.681ZM20.4755 23.5926H23.9085C24.9322 23.5926 25.7195 23.3867 26.2688 22.9717C26.8181 22.5582 27.0927 21.9814 27.0927 21.2445C27.0927 20.5076 26.8135 19.882 26.2566 19.4609C25.6997 19.0398 24.917 18.8293 23.9085 18.8293H20.4755V23.5942V23.5926Z" fill="#0A294F"/>
<path d="M37.5273 14.22V16.501H36.4441C35.4355 16.501 34.7047 16.829 34.2531 17.4835C33.8015 18.1381 33.5757 18.9711 33.5757 19.9797V25.7836H31.136V14.22H33.3041L33.5757 15.9593C33.9067 15.4177 34.3355 14.992 34.8634 14.6838C35.3898 14.3756 36.0977 14.2215 36.9857 14.2215H37.5273V14.22Z" fill="#0A294F"/>
<path d="M41.0273 10.0074C41.3126 10.2866 41.456 10.636 41.456 11.0571C41.456 11.4782 41.3126 11.8291 41.0273 12.1068C40.7405 12.386 40.3865 12.5249 39.9654 12.5249C39.5443 12.5249 39.1903 12.386 38.9035 12.1068C38.6166 11.8291 38.4747 11.4782 38.4747 11.0571C38.4747 10.636 38.6182 10.2851 38.9035 10.0074C39.1888 9.72969 39.5428 9.58932 39.9654 9.58932C40.388 9.58932 40.7405 9.72817 41.0273 10.0074ZM38.7463 14.22H41.186V25.7836H38.7463V14.22Z" fill="#0A294F"/>
<path d="M44.7304 21.9662C44.7762 22.5688 45.0584 23.0617 45.5772 23.4461C46.0959 23.8306 46.7703 24.0229 47.5988 24.0229C48.3357 24.0229 48.9353 23.884 49.3946 23.6048C49.8538 23.3256 50.0827 22.9533 50.0827 22.4865C50.0827 22.0943 49.9774 21.8014 49.7669 21.6061C49.5563 21.4108 49.2741 21.2704 48.9201 21.188C48.5661 21.1057 48.0199 21.0187 47.283 20.9287C46.2744 20.8081 45.4429 20.6464 44.7868 20.4435C44.1323 20.2406 43.6044 19.9171 43.2062 19.4716C42.8064 19.0276 42.6081 18.4295 42.6081 17.6758C42.6081 16.9678 42.8079 16.3392 43.2062 15.79C43.6044 15.2407 44.1552 14.815 44.8555 14.5144C45.5558 14.2139 46.3492 14.0628 47.2387 14.0628C48.6989 14.0628 49.8844 14.3863 50.7952 15.0332C51.7061 15.6801 52.1989 16.591 52.2752 17.7658H49.9042C49.8432 17.2394 49.5807 16.8061 49.1139 16.4674C48.647 16.1287 48.0596 15.9593 47.3516 15.9593C46.6437 15.9593 46.0715 16.0951 45.6352 16.3652C45.1988 16.6367 44.9806 17.006 44.9806 17.4713C44.9806 17.8177 45.0889 18.077 45.3086 18.251C45.5268 18.4249 45.8015 18.5439 46.1326 18.6126C46.4636 18.6797 46.9976 18.7591 47.7361 18.8491C48.7294 18.9544 49.5655 19.1161 50.2429 19.3343C50.9203 19.5524 51.462 19.8988 51.8694 20.3733C52.2752 20.8478 52.4797 21.4917 52.4797 22.3049C52.4797 23.0281 52.2691 23.6643 51.848 24.2136C51.4269 24.7629 50.8471 25.1855 50.1086 25.4784C49.3702 25.7714 48.5432 25.9194 47.6247 25.9194C46.0746 25.9194 44.8204 25.57 43.8638 24.8697C42.9071 24.1694 42.4143 23.202 42.3838 21.9677H44.7319L44.7304 21.9662Z" fill="#0A294F"/>
<path d="M62.6853 14.7952C63.5138 15.2697 64.1607 15.9502 64.6276 16.8397C65.0945 17.7277 65.3279 18.7819 65.3279 20.001C65.3279 21.2201 65.0945 22.1874 64.6276 23.083C64.1607 23.9786 63.5138 24.6759 62.6853 25.1718C61.8568 25.6692 60.9155 25.9163 59.8627 25.9163C59.0052 25.9163 58.2591 25.7546 57.6275 25.4312C56.9958 25.1077 56.4832 24.6668 56.091 24.1099L55.7981 25.7806H53.6758V9.97076H56.1154V15.9334C57.0339 14.6991 58.2835 14.0811 59.8642 14.0811C60.9185 14.0811 61.8584 14.3176 62.6868 14.7921L62.6853 14.7952ZM61.9057 22.7916C62.5297 22.076 62.8425 21.1469 62.8425 20.0025C62.8425 18.8582 62.5297 17.9504 61.9057 17.2364C61.2801 16.5208 60.4638 16.1638 59.4553 16.1638C58.4468 16.1638 57.6336 16.5177 57.0156 17.2257C56.3977 17.9336 56.0895 18.8521 56.0895 19.9812C56.0895 21.1102 56.3977 22.0593 57.0156 22.7825C57.6336 23.5057 58.4453 23.8673 59.4553 23.8673C60.4654 23.8673 61.2801 23.5102 61.9057 22.7947V22.7916Z" fill="#0A294F"/>
<path d="M77.5674 23.6598V25.7821H76.2797C75.5275 25.7821 74.9843 25.6234 74.6533 25.3076C74.3222 24.9917 74.1559 24.5325 74.1559 23.9298C73.2831 25.2542 72.0107 25.9179 70.3384 25.9179C69.0431 25.9179 68.004 25.6173 67.2213 25.0146C66.4386 24.412 66.0465 23.585 66.0465 22.5307C66.0465 21.3421 66.4676 20.4267 67.3114 19.7874C68.1551 19.1481 69.3818 18.8277 70.993 18.8277H73.9056V18.1274C73.9056 17.4805 73.6798 16.9724 73.2282 16.6032C72.7766 16.2339 72.151 16.0493 71.3531 16.0493C70.6451 16.0493 70.0623 16.2034 69.603 16.5116C69.1438 16.8198 68.8691 17.2303 68.7791 17.7429H66.3852C66.5058 16.5833 67.0169 15.6847 67.9217 15.0439C68.8249 14.4046 70.0074 14.0842 71.4675 14.0842C73.0177 14.0842 74.2154 14.4458 75.0576 15.1674C75.9013 15.8907 76.3224 16.9297 76.3224 18.2845V22.8465C76.3224 23.3882 76.5787 23.6598 77.0899 23.6598H77.5644H77.5674ZM73.9087 20.6342H70.8831C70.1294 20.6342 69.5511 20.7807 69.1438 21.0751C68.7379 21.3681 68.5335 21.8014 68.5335 22.3735C68.5335 22.8709 68.7257 23.2692 69.1087 23.5697C69.4932 23.8718 70.015 24.0214 70.6787 24.0214C71.6872 24.0214 72.4745 23.7498 73.039 23.2081C73.6035 22.6665 73.8934 21.9433 73.9087 21.04V20.6342Z" fill="#0A294F"/>
<path d="M88.0127 15.349C88.8778 16.1928 89.3111 17.5476 89.3111 19.4136V25.7821H86.8501V19.5494C86.8501 18.4509 86.6166 17.6147 86.1497 17.0426C85.6829 16.4704 84.9978 16.1851 84.0946 16.1851C83.1303 16.1851 82.3735 16.5208 81.8242 17.1906C81.275 17.8604 81.0003 18.7835 81.0003 19.9568V25.7836H78.5607V14.22H80.683L80.9546 15.7335C81.8273 14.635 83.0616 14.0842 84.6591 14.0842C86.0292 14.0842 87.1476 14.5053 88.0127 15.349Z" fill="#0A294F"/>
<path d="M91.0169 16.8961C91.4914 16.0005 92.1536 15.3078 93.005 14.8181C93.8548 14.3283 94.8297 14.0842 95.9298 14.0842C97.0299 14.0842 98.0262 14.31 98.8776 14.7616C99.7274 15.2132 100.399 15.854 100.887 16.681C101.377 17.5095 101.628 18.4798 101.644 19.5952C101.644 19.8973 101.621 20.2055 101.577 20.5213H92.8585V20.6571C92.918 21.6656 93.2353 22.4636 93.8075 23.051C94.3797 23.6384 95.1395 23.9313 96.0885 23.9313C96.8407 23.9313 97.4739 23.7544 97.985 23.4004C98.4961 23.0464 98.8348 22.546 99.0011 21.899H101.441C101.23 23.0739 100.661 24.0366 99.735 24.7903C98.8089 25.5441 97.6539 25.9194 96.2685 25.9194C95.0632 25.9194 94.0135 25.6753 93.1179 25.1855C92.2222 24.6957 91.5296 24.0076 91.0398 23.1196C90.55 22.2317 90.3059 21.2003 90.3059 20.0254C90.3059 18.8506 90.5424 17.7933 91.0169 16.8976V16.8961ZM99.1583 18.7377C99.053 17.894 98.7173 17.2364 98.1528 16.7619C97.5883 16.2873 96.8773 16.0509 96.0183 16.0509C95.2203 16.0509 94.5307 16.2965 93.9524 16.7847C93.3727 17.2745 93.0385 17.926 92.947 18.7377H99.1583Z" fill="#0A294F"/>
<path d="M104.149 25.7836L110.179 9.97382H112.506L118.512 25.7836H116.411L114.741 21.5146H107.852L106.181 25.7836H104.149ZM108.439 19.731H114.153L111.285 12.1205L108.439 19.731Z" fill="#0A294F"/>
<path d="M121.471 10.1554C121.697 10.3812 121.809 10.668 121.809 11.0128C121.809 11.3577 121.697 11.6445 121.471 11.8703C121.245 12.0961 120.958 12.209 120.613 12.209C120.268 12.209 119.982 12.0961 119.756 11.8703C119.53 11.6445 119.417 11.3592 119.417 11.0128C119.417 10.6665 119.53 10.3812 119.756 10.1554C119.982 9.92956 120.267 9.81665 120.613 9.81665C120.96 9.81665 121.245 9.92956 121.471 10.1554ZM119.687 14.2657H121.539V25.7836H119.687V14.2657Z" fill="#0A294F"/>
<path d="M129.579 14.2657V16.0722H128.652C127.554 16.0722 126.767 16.4415 126.292 17.1784C125.818 17.9169 125.581 18.8277 125.581 19.911V25.7836H123.729V14.2657H125.332L125.581 16.0051C125.912 15.4787 126.341 15.0561 126.869 14.7403C127.395 14.4244 128.126 14.2657 129.06 14.2657H129.579Z" fill="#0A294F"/>
<path d="M139.594 14.8303C140.43 15.2971 141.084 15.9746 141.559 16.8626C142.033 17.7505 142.27 18.8048 142.27 20.0239C142.27 21.243 142.033 22.2072 141.559 23.0952C141.084 23.9832 140.425 24.6759 139.583 25.1733C138.739 25.6707 137.792 25.9179 136.737 25.9179C135.804 25.9179 135.006 25.7485 134.344 25.4098C133.681 25.0711 133.161 24.6072 132.786 24.0214V30.2998H130.933V14.2642H132.537L132.786 16.1165C133.748 14.7921 135.067 14.1284 136.737 14.1284C137.807 14.1284 138.759 14.3619 139.594 14.8287V14.8303ZM139.324 23.0845C140.024 22.2942 140.373 21.2735 140.373 20.0239C140.373 18.7743 140.024 17.7536 139.324 16.9633C138.623 16.1729 137.702 15.7777 136.557 15.7777C135.819 15.7777 135.161 15.9547 134.582 16.3087C134.002 16.6627 133.553 17.1601 133.237 17.7994C132.922 18.4402 132.763 19.1664 132.763 19.9781C132.763 20.7898 132.922 21.5481 133.237 22.2027C133.553 22.8572 134.002 23.3653 134.582 23.7269C135.161 24.0885 135.82 24.2685 136.557 24.2685C137.702 24.2685 138.623 23.8734 139.324 23.083V23.0845Z" fill="#0A294F"/>
<path d="M145.941 25.1733C145.074 24.6759 144.401 23.9847 143.919 23.0952C143.437 22.2072 143.196 21.1835 143.196 20.0239C143.196 18.8643 143.437 17.8406 143.919 16.9526C144.401 16.0646 145.074 15.3719 145.941 14.8745C146.806 14.3771 147.796 14.1299 148.91 14.1299C150.024 14.1299 151.014 14.3786 151.879 14.8745C152.744 15.3719 153.418 16.0646 153.901 16.9526C154.383 17.8406 154.624 18.8643 154.624 20.0239C154.624 21.1835 154.383 22.2072 153.901 23.0952C153.418 23.9832 152.746 24.6759 151.879 25.1733C151.012 25.6707 150.024 25.9179 148.91 25.9179C147.796 25.9179 146.806 25.6692 145.941 25.1733ZM150.909 23.7284C151.488 23.3668 151.937 22.8633 152.253 22.2149C152.569 21.568 152.727 20.8371 152.727 20.0239C152.727 19.2107 152.569 18.4814 152.253 17.8329C151.937 17.186 151.488 16.681 150.909 16.3194C150.329 15.9578 149.662 15.7778 148.91 15.7778C148.158 15.7778 147.491 15.9578 146.911 16.3194C146.331 16.681 145.883 17.186 145.567 17.8329C145.251 18.4799 145.092 19.2107 145.092 20.0239C145.092 20.8371 145.251 21.568 145.567 22.2149C145.883 22.8618 146.331 23.3668 146.911 23.7284C147.491 24.09 148.156 24.2701 148.91 24.2701C149.664 24.2701 150.329 24.09 150.909 23.7284Z" fill="#0A294F"/>
<path d="M161.806 14.2657V16.0722H160.879C159.781 16.0722 158.994 16.4415 158.519 17.1784C158.045 17.9169 157.808 18.8277 157.808 19.911V25.7836H155.956V14.2657H157.559L157.808 16.0051C158.139 15.4787 158.568 15.0561 159.096 14.7403C159.622 14.4244 160.353 14.2657 161.287 14.2657H161.806Z" fill="#0A294F"/>
<path d="M163.16 11.0357H165.013V14.2657H167.925V15.9593H165.013V22.7581C165.013 23.2402 165.106 23.582 165.295 23.7864C165.483 23.9893 165.811 24.0916 166.277 24.0916H168.287V25.7851H166.165C165.081 25.7851 164.309 25.5441 163.85 25.0619C163.391 24.5798 163.162 23.82 163.162 22.7809V11.0373L163.16 11.0357Z" fill="#0A294F"/>
</g>
<defs>
<linearGradient id="paint0_linear_1_2" x1="0.135202" y1="6.76121" x2="12.2618" y2="6.74216" gradientUnits="userSpaceOnUse">
<stop stop-color="#008FE3"/>
<stop offset="1" stop-color="#1B096F"/>
</linearGradient>
<linearGradient id="paint1_linear_1_2" x1="0.0640067" y1="20.3548" x2="12.1952" y2="20.3273" gradientUnits="userSpaceOnUse">
<stop stop-color="#FFC000"/>
<stop offset="0.15" stop-color="#FFC000"/>
<stop offset="1" stop-color="#FF5E00"/>
</linearGradient>
<linearGradient id="paint2_linear_1_2" x1="0.124887" y1="15.7357" x2="12.25" y2="15.7166" gradientUnits="userSpaceOnUse">
<stop stop-color="#00B2FC"/>
<stop offset="1" stop-color="#1B096F"/>
</linearGradient>
<linearGradient id="paint3_linear_1_2" x1="0.0660878" y1="29.3415" x2="12.1973" y2="29.3139" gradientUnits="userSpaceOnUse">
<stop stop-color="#CBD700"/>
<stop offset="0.59" stop-color="#2FBE02"/>
<stop offset="1" stop-color="#008C33"/>
</linearGradient>
<clipPath id="clip0_1_2">
<rect width="169" height="36" fill="white"/>
</clipPath>
</defs>
</svg>
