<?xml version="1.0" encoding="UTF-8" standalone="no"?>
<svg
   xmlns:dc="http://purl.org/dc/elements/1.1/"
   xmlns:cc="http://creativecommons.org/ns#"
   xmlns:rdf="http://www.w3.org/1999/02/22-rdf-syntax-ns#"
   xmlns:svg="http://www.w3.org/2000/svg"
   xmlns="http://www.w3.org/2000/svg"
   viewBox="0 0 566.1507 82.965332"
   height="82.965332"
   width="566.1507"
   xml:space="preserve"
   id="svg2"
   version="1.1"><metadata
     id="metadata8"><rdf:RDF><cc:Work
         rdf:about=""><dc:format>image/svg+xml</dc:format><dc:type
           rdf:resource="http://purl.org/dc/dcmitype/StillImage" /></cc:Work></rdf:RDF></metadata><defs
     id="defs6"><clipPath
       id="clipPath20"
       clipPathUnits="userSpaceOnUse"><path
         id="path18"
         d="M 0,0 H 424.613 V 62.224 H 0 Z" /></clipPath></defs><g
     transform="matrix(1.3333333,0,0,-1.3333333,0,82.965333)"
     id="g10"><g
       id="g12" /><g
       id="g14"><g
         clip-path="url(#clipPath20)"
         id="g16"><path
           id="path22"
           style="fill:#001b69;fill-opacity:1;fill-rule:nonzero;stroke:none"
           d="m 200.181,31.1125 28.277,28.277 28.278,-28.277 -28.278,-28.277 z m 28.277,29.038 -29.038,-29.038 29.038,-29.039 29.038,29.039 z" /><path
           id="path24"
           style="fill:#001b69;fill-opacity:1;fill-rule:nonzero;stroke:none"
           d="m 228.417,21.172 h 0.518 v 27.017 h -0.518 z" /><path
           id="path26"
           style="fill:#001b69;fill-opacity:1;fill-rule:nonzero;stroke:none"
           d="m 227.4175,21.0938 -1.685,17.443 -0.47,-0.295 1.641,-17.222 c 0.176,0.031 0.349,0.056 0.514,0.074" /><path
           id="path28"
           style="fill:#001b69;fill-opacity:1;fill-rule:nonzero;stroke:none"
           d="m 230.4498,21.0209 1.634,17.158 -0.468,0.294 -1.679,-17.38 c 0.167,-0.019 0.339,-0.042 0.513,-0.072" /><path
           id="path30"
           style="fill:#001b69;fill-opacity:1;fill-rule:nonzero;stroke:none"
           d="m 225.9315,20.8137 -2.074,10.196 -0.433,-0.318 2.009,-10.023 c 0.168,0.054 0.336,0.102 0.498,0.145" /><path
           id="path32"
           style="fill:#001b69;fill-opacity:1;fill-rule:nonzero;stroke:none"
           d="m 224.5284,20.3383 -2.166,7.202 -0.408,-0.35 2.099,-7.063 c 0.148,0.07 0.306,0.141 0.475,0.211" /><path
           id="path34"
           style="fill:#001b69;fill-opacity:1;fill-rule:nonzero;stroke:none"
           d="m 223.3229,19.7436 -2.112,5.499 -0.4,-0.399 2.063,-5.374 c 0.144,0.094 0.294,0.187 0.449,0.274" /><path
           id="path36"
           style="fill:#001b69;fill-opacity:1;fill-rule:nonzero;stroke:none"
           d="m 222.2036,19.0108 -2.197,4.356 -0.386,-0.386 2.17,-4.3 c 0.145,0.122 0.281,0.23 0.413,0.33" /><path
           id="path38"
           style="fill:#001b69;fill-opacity:1;fill-rule:nonzero;stroke:none"
           d="m 221.2344,18.182 -2.407,3.771 -0.375,-0.375 2.408,-3.775 c 0.127,0.135 0.249,0.259 0.374,0.379" /><path
           id="path40"
           style="fill:#001b69;fill-opacity:1;fill-rule:nonzero;stroke:none"
           d="m 235.5643,18.6804 2.204,4.367 -0.387,0.385 -2.23,-4.422 c 0.137,-0.104 0.276,-0.216 0.413,-0.33" /><path
           id="path42"
           style="fill:#001b69;fill-opacity:1;fill-rule:nonzero;stroke:none"
           d="m 234.4807,19.4704 2.065,5.379 -0.4,0.4 -2.114,-5.505 c 0.148,-0.085 0.3,-0.177 0.449,-0.274" /><path
           id="path44"
           style="fill:#001b69;fill-opacity:1;fill-rule:nonzero;stroke:none"
           d="m 233.3001,20.1269 2.098,7.059 -0.407,0.35 -2.165,-7.198 c 0.172,-0.072 0.328,-0.142 0.474,-0.211" /><path
           id="path46"
           style="fill:#001b69;fill-opacity:1;fill-rule:nonzero;stroke:none"
           d="m 231.9211,20.6686 2.02,10.079 -0.434,0.317 -2.084,-10.251 c 0.164,-0.044 0.332,-0.092 0.498,-0.145" /><path
           id="path48"
           style="fill:#001b69;fill-opacity:1;fill-rule:nonzero;stroke:none"
           d="m 236.4912,17.8033 2.38,3.739 -0.375,0.375 -2.379,-3.734 c 0.127,-0.12 0.251,-0.248 0.374,-0.38" /><path
           id="path50"
           style="fill:#001b69;fill-opacity:1;fill-rule:nonzero;stroke:none"
           d="m 17.8149,38.2043 h -9.612 v 9.239 h 30.143 v -9.239 h -9.612 v -23.424 h -10.919 z" /><path
           id="path52"
           style="fill:#001b69;fill-opacity:1;fill-rule:nonzero;stroke:none"
           d="m 58.0849,23.0392 c 2.379,0 3.593,0.98 3.593,2.38 v 0.094 c 0,1.399 -1.167,2.38 -3.547,2.38 h -5.505 v -4.854 z m -0.7,11.572 c 2.333,0 3.453,0.793 3.453,2.241 v 0.092 c 0,1.447 -1.167,2.241 -3.5,2.241 h -4.712 v -4.574 z m -15.398,12.832 h 18.291 c 4.526,0 7.372,-1.026 9.286,-2.939 1.166,-1.167 2.006,-2.847 2.006,-5.087 v -0.093 c 0,-3.873 -2.333,-6.253 -5.833,-7.466 4.2,-1.213 6.906,-3.453 6.906,-7.932 v -0.093 c 0,-5.227 -4.293,-9.053 -12.552,-9.053 h -18.104 z" /><path
           id="path54"
           style="fill:#001b69;fill-opacity:1;fill-rule:nonzero;stroke:none"
           d="m 73.4833,19.6799 5.833,6.952 c 3.546,-2.706 7.605,-3.826 11.432,-3.826 1.959,0 2.799,0.514 2.799,1.4 v 0.093 c 0,0.934 -1.026,1.447 -4.525,2.147 -7.327,1.493 -13.766,3.592 -13.766,10.499 v 0.093 c 0,6.206 4.853,11.012 13.858,11.012 6.3,0 10.966,-1.493 14.745,-4.479 l -5.319,-7.372 c -3.08,2.239 -6.765,3.218 -9.799,3.218 -1.633,0 -2.38,-0.559 -2.38,-1.352 v -0.094 c 0,-0.887 0.887,-1.446 4.34,-2.1 8.353,-1.54 13.951,-3.965 13.951,-10.545 v -0.093 c 0,-6.86 -5.645,-11.059 -14.418,-11.059 -6.626,0 -12.598,1.866 -16.751,5.506" /><path
           id="path56"
           style="fill:#001b69;fill-opacity:1;fill-rule:nonzero;stroke:none"
           d="m 114.8887,47.144 h -2.375 v 1.219 h 6.076 v -1.219 h -2.374 v -6.269 h -1.327 z" /><path
           id="path58"
           style="fill:#001b69;fill-opacity:1;fill-rule:nonzero;stroke:none"
           d="m 124.2505,43.6889 v 0.021 c 0,1.091 -0.738,1.808 -1.615,1.808 -0.877,0 -1.647,-0.727 -1.647,-1.808 v -0.021 c 0,-1.092 0.77,-1.808 1.647,-1.808 0.888,0 1.615,0.696 1.615,1.808 m -3.23,-1.937 v -0.876 h -1.294 v 7.808 h 1.294 v -3.102 c 0.417,0.588 1.005,1.059 1.915,1.059 1.336,0 2.631,-1.059 2.631,-2.931 v -0.021 c 0,-1.872 -1.284,-2.931 -2.631,-2.931 -0.931,0 -1.519,0.47 -1.915,0.994" /><path
           id="path60"
           style="fill:#001b69;fill-opacity:1;fill-rule:nonzero;stroke:none"
           d="m 126.97,46.523 h 1.294 v -5.647 h -1.294 z m -0.054,2.097 h 1.391 v -1.23 h -1.391 z" /><path
           id="path62"
           style="fill:#001b69;fill-opacity:1;fill-rule:nonzero;stroke:none"
           d="m 130.03,40.875 h 1.294 v 7.809 h -1.294 z" /><path
           id="path64"
           style="fill:#001b69;fill-opacity:1;fill-rule:nonzero;stroke:none"
           d="m 133.089,46.523 h 1.294 v -5.647 h -1.294 z m -0.053,2.097 h 1.391 v -1.23 h -1.391 z" /><path
           id="path66"
           style="fill:#001b69;fill-opacity:1;fill-rule:nonzero;stroke:none"
           d="m 135.6148,41.6138 0.578,0.877 c 0.609,-0.46 1.273,-0.695 1.851,-0.695 0.555,0 0.877,0.235 0.877,0.609 v 0.021 c 0,0.439 -0.599,0.589 -1.263,0.792 -0.834,0.236 -1.765,0.578 -1.765,1.658 v 0.021 c 0,1.071 0.888,1.723 2.011,1.723 0.706,0 1.477,-0.246 2.075,-0.642 l -0.512,-0.92 c -0.546,0.331 -1.123,0.535 -1.594,0.535 -0.503,0 -0.792,-0.236 -0.792,-0.567 v -0.021 c 0,-0.407 0.609,-0.578 1.272,-0.792 0.825,-0.256 1.755,-0.631 1.755,-1.647 v -0.021 c 0,-1.188 -0.92,-1.777 -2.097,-1.777 -0.802,0 -1.69,0.289 -2.396,0.846" /><path
           id="path68"
           style="fill:#001b69;fill-opacity:1;fill-rule:nonzero;stroke:none"
           d="m 141.5,46.523 h 1.294 V 40.876 H 141.5 Z m -0.054,2.097 h 1.391 v -1.23 h -1.391 z" /><path
           id="path70"
           style="fill:#001b69;fill-opacity:1;fill-rule:nonzero;stroke:none"
           d="m 113.124,28.036 h 1.315 v 7.487 h -1.315 z" /><path
           id="path72"
           style="fill:#001b69;fill-opacity:1;fill-rule:nonzero;stroke:none"
           d="m 116.291,33.6831 h 1.294 v -0.877 c 0.364,0.535 0.888,0.995 1.765,0.995 1.273,0 2.011,-0.856 2.011,-2.172 v -3.593 h -1.294 v 3.209 c 0,0.876 -0.439,1.379 -1.209,1.379 -0.749,0 -1.273,-0.524 -1.273,-1.401 v -3.187 h -1.294 z" /><path
           id="path74"
           style="fill:#001b69;fill-opacity:1;fill-rule:nonzero;stroke:none"
           d="m 123.1929,29.5972 v 2.974 h -0.717 v 1.112 h 0.717 v 1.551 h 1.294 v -1.551 h 1.519 v -1.112 h -1.519 v -2.771 c 0,-0.503 0.257,-0.706 0.696,-0.706 0.288,0 0.545,0.065 0.802,0.193 v -1.059 c -0.322,-0.182 -0.685,-0.289 -1.167,-0.289 -0.951,0 -1.625,0.418 -1.625,1.658" /><path
           id="path76"
           style="fill:#001b69;fill-opacity:1;fill-rule:nonzero;stroke:none"
           d="m 131.023,31.2554 c -0.085,0.834 -0.577,1.486 -1.432,1.486 -0.792,0 -1.348,-0.609 -1.466,-1.486 z m -4.181,-0.417 v 0.021 c 0,1.616 1.144,2.942 2.76,2.942 1.796,0 2.705,-1.412 2.705,-3.038 0,-0.117 -0.011,-0.236 -0.021,-0.363 h -4.15 c 0.139,-0.92 0.792,-1.434 1.626,-1.434 0.63,0 1.079,0.235 1.529,0.674 l 0.759,-0.674 c -0.535,-0.642 -1.272,-1.059 -2.31,-1.059 -1.636,0 -2.898,1.187 -2.898,2.931" /><path
           id="path78"
           style="fill:#001b69;fill-opacity:1;fill-rule:nonzero;stroke:none"
           d="m 133.6128,33.6831 h 1.295 v -1.272 c 0.352,0.844 1.005,1.422 2,1.379 v -1.369 h -0.075 c -1.134,0 -1.925,-0.738 -1.925,-2.235 v -2.15 h -1.295 z" /><path
           id="path80"
           style="fill:#001b69;fill-opacity:1;fill-rule:nonzero;stroke:none"
           d="m 138.0318,33.6831 h 1.295 v -0.877 c 0.363,0.535 0.888,0.995 1.765,0.995 1.272,0 2.01,-0.856 2.01,-2.172 v -3.593 h -1.294 v 3.209 c 0,0.876 -0.438,1.379 -1.209,1.379 -0.749,0 -1.272,-0.524 -1.272,-1.401 v -3.187 h -1.295 z" /><path
           id="path82"
           style="fill:#001b69;fill-opacity:1;fill-rule:nonzero;stroke:none"
           d="m 148.1538,30.3999 c -0.331,0.128 -0.791,0.225 -1.294,0.225 -0.813,0 -1.294,-0.332 -1.294,-0.877 v -0.022 c 0,-0.535 0.481,-0.835 1.091,-0.835 0.855,0 1.497,0.482 1.497,1.188 z m -0.032,-2.364 v 0.695 c -0.385,-0.46 -0.973,-0.812 -1.829,-0.812 -1.07,0 -2.011,0.609 -2.011,1.743 v 0.021 c 0,1.251 0.974,1.851 2.289,1.851 0.685,0 1.123,-0.097 1.562,-0.236 v 0.107 c 0,0.781 -0.493,1.209 -1.391,1.209 -0.631,0 -1.102,-0.139 -1.615,-0.354 l -0.353,1.038 c 0.62,0.279 1.231,0.471 2.151,0.471 1.667,0 2.481,-0.877 2.481,-2.386 v -3.347 z" /><path
           id="path84"
           style="fill:#001b69;fill-opacity:1;fill-rule:nonzero;stroke:none"
           d="m 151.1616,29.5972 v 2.974 h -0.717 v 1.112 h 0.717 v 1.551 h 1.295 v -1.551 h 1.518 v -1.112 h -1.518 v -2.771 c 0,-0.503 0.256,-0.706 0.695,-0.706 0.288,0 0.545,0.065 0.802,0.193 v -1.059 c -0.321,-0.182 -0.685,-0.289 -1.166,-0.289 -0.952,0 -1.626,0.418 -1.626,1.658" /><path
           id="path86"
           style="fill:#001b69;fill-opacity:1;fill-rule:nonzero;stroke:none"
           d="m 155.356,33.683 h 1.294 v -5.647 h -1.294 z m -0.054,2.097 h 1.391 v -1.23 h -1.391 z" /><path
           id="path88"
           style="fill:#001b69;fill-opacity:1;fill-rule:nonzero;stroke:none"
           d="m 162.7583,30.8276 v 0.021 c 0,0.995 -0.717,1.819 -1.732,1.819 -1.039,0 -1.702,-0.814 -1.702,-1.797 v -0.022 c 0,-0.984 0.717,-1.818 1.723,-1.818 1.048,0 1.711,0.823 1.711,1.797 m -4.728,0 v 0.021 c 0,1.616 1.284,2.953 3.017,2.953 1.732,0 3.005,-1.316 3.005,-2.931 v -0.022 c 0,-1.604 -1.283,-2.941 -3.026,-2.941 -1.723,0 -2.996,1.316 -2.996,2.92" /><path
           id="path90"
           style="fill:#001b69;fill-opacity:1;fill-rule:nonzero;stroke:none"
           d="m 165.3706,33.6831 h 1.295 v -0.877 c 0.363,0.535 0.888,0.995 1.765,0.995 1.272,0 2.01,-0.856 2.01,-2.172 v -3.593 h -1.294 v 3.209 c 0,0.876 -0.438,1.379 -1.209,1.379 -0.749,0 -1.272,-0.524 -1.272,-1.401 v -3.187 h -1.295 z" /><path
           id="path92"
           style="fill:#001b69;fill-opacity:1;fill-rule:nonzero;stroke:none"
           d="m 175.4917,30.3999 c -0.331,0.128 -0.791,0.225 -1.294,0.225 -0.813,0 -1.294,-0.332 -1.294,-0.877 v -0.022 c 0,-0.535 0.481,-0.835 1.091,-0.835 0.855,0 1.497,0.482 1.497,1.188 z m -0.032,-2.364 v 0.695 c -0.385,-0.46 -0.973,-0.812 -1.829,-0.812 -1.07,0 -2.011,0.609 -2.011,1.743 v 0.021 c 0,1.251 0.974,1.851 2.289,1.851 0.685,0 1.123,-0.097 1.562,-0.236 v 0.107 c 0,0.781 -0.493,1.209 -1.391,1.209 -0.631,0 -1.102,-0.139 -1.615,-0.354 l -0.353,1.038 c 0.62,0.279 1.231,0.471 2.151,0.471 1.667,0 2.481,-0.877 2.481,-2.386 v -3.347 z" /><path
           id="path94"
           style="fill:#001b69;fill-opacity:1;fill-rule:nonzero;stroke:none"
           d="m 178.361,28.035 h 1.294 v 7.809 h -1.294 z" /><path
           id="path96"
           style="fill:#001b69;fill-opacity:1;fill-rule:nonzero;stroke:none"
           d="m 117.5845,18.1694 -1.294,2.995 -1.284,-2.995 z m -1.883,4.567 h 1.22 l 3.294,-7.541 h -1.39 l -0.76,1.808 h -3.54 l -0.771,-1.808 h -1.347 z" /><path
           id="path98"
           style="fill:#001b69;fill-opacity:1;fill-rule:nonzero;stroke:none"
           d="m 121.427,20.843 h 1.294 v -5.647 h -1.294 z m -0.053,2.097 h 1.391 v -1.23 h -1.391 z" /><path
           id="path100"
           style="fill:#001b69;fill-opacity:1;fill-rule:nonzero;stroke:none"
           d="m 124.4126,20.8432 h 1.294 v -1.272 c 0.353,0.844 1.005,1.422 2,1.379 v -1.369 h -0.075 c -1.134,0 -1.925,-0.738 -1.925,-2.235 v -2.15 h -1.294 z" /><path
           id="path102"
           style="fill:#001b69;fill-opacity:1;fill-rule:nonzero;stroke:none"
           d="m 133.356,18.0093 v 0.021 c 0,1.091 -0.738,1.808 -1.615,1.808 -0.877,0 -1.648,-0.727 -1.648,-1.808 v -0.021 c 0,-1.092 0.771,-1.808 1.648,-1.808 0.887,0 1.615,0.696 1.615,1.808 m -4.525,2.834 h 1.295 v -0.941 c 0.417,0.588 1.004,1.059 1.914,1.059 1.337,0 2.631,-1.059 2.631,-2.931 v -0.021 c 0,-1.872 -1.284,-2.931 -2.631,-2.931 -0.931,0 -1.519,0.47 -1.914,0.994 v -2.588 h -1.295 z" /><path
           id="path104"
           style="fill:#001b69;fill-opacity:1;fill-rule:nonzero;stroke:none"
           d="m 140.4175,17.9878 v 0.021 c 0,0.995 -0.717,1.819 -1.732,1.819 -1.039,0 -1.702,-0.814 -1.702,-1.797 v -0.022 c 0,-0.984 0.717,-1.818 1.723,-1.818 1.048,0 1.711,0.823 1.711,1.797 m -4.728,0 v 0.021 c 0,1.616 1.284,2.953 3.017,2.953 1.732,0 3.005,-1.316 3.005,-2.931 v -0.022 c 0,-1.604 -1.283,-2.941 -3.026,-2.941 -1.723,0 -2.996,1.316 -2.996,2.92" /><path
           id="path106"
           style="fill:#001b69;fill-opacity:1;fill-rule:nonzero;stroke:none"
           d="m 143.0298,20.8432 h 1.295 v -1.272 c 0.352,0.844 1.005,1.422 2,1.379 v -1.369 h -0.075 c -1.134,0 -1.925,-0.738 -1.925,-2.235 v -2.15 h -1.295 z" /><path
           id="path108"
           style="fill:#001b69;fill-opacity:1;fill-rule:nonzero;stroke:none"
           d="m 147.7163,16.7573 v 2.974 h -0.717 v 1.112 h 0.717 v 1.551 h 1.295 v -1.551 h 1.518 v -1.112 h -1.518 v -2.771 c 0,-0.503 0.256,-0.706 0.695,-0.706 0.288,0 0.545,0.065 0.802,0.193 v -1.059 c -0.321,-0.182 -0.685,-0.289 -1.166,-0.289 -0.952,0 -1.626,0.418 -1.626,1.658" /><path
           id="path110"
           style="fill:#001b69;fill-opacity:1;fill-rule:nonzero;stroke:none"
           d="m 294.9809,40.3937 v 0.867 c -0.687,0.199 -1.59,0.398 -2.729,0.398 -1.734,0 -2.728,-0.759 -2.728,-1.879 v -0.036 c 0,-1.174 1.084,-1.862 2.35,-1.862 1.715,0 3.107,1.031 3.107,2.512 m -6.865,-0.723 v 0.036 c 0,2.005 1.625,3.054 3.992,3.054 1.192,0 2.023,-0.163 2.854,-0.398 v 0.289 c 0,1.662 -1.011,2.529 -2.764,2.529 -1.102,0 -1.969,-0.27 -2.836,-0.668 l -0.416,1.139 c 1.03,0.469 2.023,0.795 3.396,0.795 1.32,0 2.35,-0.362 3.018,-1.031 0.65,-0.65 0.975,-1.553 0.975,-2.746 v -5.709 h -1.373 v 1.392 c -0.65,-0.832 -1.715,-1.59 -3.36,-1.59 -1.752,0 -3.486,0.993 -3.486,2.908" /><path
           id="path112"
           style="fill:#001b69;fill-opacity:1;fill-rule:nonzero;stroke:none"
           d="m 304.0981,43.2482 v 0.036 c 0,3.596 2.8,6.54 6.63,6.54 2.276,0 3.649,-0.614 4.968,-1.734 l -1.752,-2.114 c -0.976,0.813 -1.843,1.283 -3.307,1.283 -2.023,0 -3.631,-1.789 -3.631,-3.939 v -0.036 c 0,-2.312 1.59,-4.011 3.83,-4.011 1.012,0 1.915,0.253 2.619,0.759 v 1.807 h -2.799 v 2.402 h 5.492 v -5.492 c -1.301,-1.102 -3.089,-2.005 -5.402,-2.005 -3.939,0 -6.648,2.765 -6.648,6.504" /><path
           id="path114"
           style="fill:#001b69;fill-opacity:1;fill-rule:nonzero;stroke:none"
           d="m 318.5268,46.6447 h 2.746 v -1.951 c 0.56,1.337 1.464,2.204 3.089,2.132 v -2.873 h -0.145 c -1.824,0 -2.944,-1.102 -2.944,-3.414 v -3.578 h -2.746 z" /><path
           id="path116"
           style="fill:#001b69;fill-opacity:1;fill-rule:nonzero;stroke:none"
           d="m 333.103,41.7492 v 0.035 c 0,1.428 -1.03,2.674 -2.548,2.674 -1.571,0 -2.511,-1.21 -2.511,-2.637 v -0.037 c 0,-1.427 1.031,-2.674 2.548,-2.674 1.572,0 2.511,1.211 2.511,2.639 m -7.769,0 v 0.035 c 0,2.783 2.241,5.041 5.258,5.041 2.998,0 5.221,-2.222 5.221,-5.004 v -0.037 c 0,-2.781 -2.24,-5.04 -5.258,-5.04 -2.998,0 -5.221,2.222 -5.221,5.005" /><path
           id="path118"
           style="fill:#001b69;fill-opacity:1;fill-rule:nonzero;stroke:none"
           d="m 337.7231,40.3762 v 6.269 h 2.746 v -5.402 c 0,-1.301 0.614,-1.97 1.662,-1.97 1.048,0 1.717,0.669 1.717,1.97 v 5.402 h 2.746 v -9.684 h -2.746 v 1.373 c -0.633,-0.813 -1.445,-1.554 -2.837,-1.554 -2.077,0 -3.288,1.373 -3.288,3.596" /><path
           id="path120"
           style="fill:#001b69;fill-opacity:1;fill-rule:nonzero;stroke:none"
           d="m 356.4711,41.7844 v 0.037 c 0,1.608 -1.084,2.674 -2.366,2.674 -1.282,0 -2.349,-1.066 -2.349,-2.674 v -0.037 c 0,-1.607 1.067,-2.674 2.349,-2.674 1.282,0 2.366,1.049 2.366,2.674 m -7.425,4.86 h 2.746 v -1.391 c 0.669,0.904 1.59,1.572 3.017,1.572 2.259,0 4.408,-1.77 4.408,-5.004 v -0.037 c 0,-3.233 -2.113,-5.004 -4.408,-5.004 -1.463,0 -2.366,0.668 -3.017,1.445 v -4.155 h -2.746 z" /><path
           id="path122"
           style="fill:#001b69;fill-opacity:1;fill-rule:nonzero;stroke:none"
           d="m 367.5952,42.5617 c -0.163,1.229 -0.886,2.06 -2.042,2.06 -1.138,0 -1.879,-0.814 -2.096,-2.06 z m -6.829,-0.812 v 0.035 c 0,2.764 1.969,5.041 4.787,5.041 3.234,0 4.716,-2.512 4.716,-5.258 0,-0.217 -0.019,-0.469 -0.036,-0.723 h -6.739 c 0.271,-1.246 1.138,-1.896 2.367,-1.896 0.921,0 1.589,0.289 2.348,0.994 l 1.573,-1.392 c -0.905,-1.12 -2.206,-1.806 -3.958,-1.806 -2.908,0 -5.058,2.042 -5.058,5.005" /><path
           id="path124"
           style="fill:#001b69;fill-opacity:1;fill-rule:nonzero;stroke:none"
           d="m 385.2758,42.2551 -1.68,4.101 -1.68,-4.101 z m -2.927,7.443 h 2.566 l 5.42,-12.737 h -2.909 l -1.156,2.837 h -5.348 l -1.156,-2.837 h -2.837 z" /><path
           id="path126"
           style="fill:#001b69;fill-opacity:1;fill-rule:nonzero;stroke:none"
           d="m 397.2114,39.4719 c 2.277,0 3.813,1.536 3.813,3.776 v 0.037 c 0,2.24 -1.536,3.812 -3.813,3.812 h -2.149 v -7.625 z m -4.932,10.136 h 4.932 c 3.975,0 6.721,-2.728 6.721,-6.287 v -0.036 c 0,-3.559 -2.746,-6.324 -6.721,-6.324 h -4.932 z" /><path
           id="path128"
           style="fill:#001b69;fill-opacity:1;fill-rule:nonzero;stroke:none"
           d="m 411.3881,43.2297 c 1.392,0 2.204,0.832 2.204,1.916 v 0.035 c 0,1.247 -0.867,1.916 -2.258,1.916 h -2.15 v -3.867 z m -4.986,6.378 h 5.167 c 3.017,0 4.841,-1.788 4.841,-4.372 v -0.036 c 0,-2.927 -2.276,-4.445 -5.113,-4.445 h -2.113 v -3.794 h -2.782 z" /><path
           id="path130"
           style="fill:#001b69;fill-opacity:1;fill-rule:nonzero;stroke:none"
           d="m 294.9809,18.7228 v 0.867 c -0.687,0.198 -1.59,0.398 -2.729,0.398 -1.734,0 -2.728,-0.759 -2.728,-1.879 v -0.036 c 0,-1.175 1.084,-1.861 2.35,-1.861 1.715,0 3.107,1.03 3.107,2.511 m -6.865,-0.723 v 0.036 c 0,2.006 1.625,3.053 3.992,3.053 1.192,0 2.023,-0.162 2.854,-0.396 v 0.289 c 0,1.662 -1.011,2.529 -2.764,2.529 -1.102,0 -1.969,-0.271 -2.836,-0.669 l -0.416,1.138 c 1.03,0.471 2.023,0.795 3.396,0.795 1.32,0 2.35,-0.362 3.018,-1.03 0.65,-0.65 0.975,-1.553 0.975,-2.746 v -5.709 h -1.373 v 1.391 c -0.65,-0.83 -1.715,-1.59 -3.36,-1.59 -1.752,0 -3.486,0.994 -3.486,2.909" /><path
           id="path132"
           style="fill:#001b69;fill-opacity:1;fill-rule:nonzero;stroke:none"
           d="m 299.403,24.63 h 1.391 v -9.34 h -1.391 z m -0.091,3.578 h 1.59 v -1.536 h -1.59 z" /><path
           id="path134"
           style="fill:#001b69;fill-opacity:1;fill-rule:nonzero;stroke:none"
           d="m 304.0248,24.6301 h 1.392 v -2.438 c 0.685,1.553 2.041,2.673 3.811,2.601 v -1.499 h -0.108 c -2.041,0 -3.703,-1.464 -3.703,-4.282 v -3.722 h -1.392 z" /><path
           id="path136"
           style="fill:#001b69;fill-opacity:1;fill-rule:nonzero;stroke:none"
           d="m 319.3422,19.9328 v 0.037 c 0,2.203 -1.518,3.613 -3.287,3.613 -1.734,0 -3.379,-1.463 -3.379,-3.595 v -0.036 c 0,-2.168 1.645,-3.614 3.379,-3.614 1.807,0 3.287,1.337 3.287,3.595 m -8.003,4.697 h 1.392 v -1.879 c 0.757,1.121 1.86,2.078 3.576,2.078 2.24,0 4.463,-1.77 4.463,-4.841 v -0.036 c 0,-3.054 -2.204,-4.861 -4.463,-4.861 -1.735,0 -2.854,0.94 -3.576,1.988 v -4.679 h -1.392 z" /><path
           id="path138"
           style="fill:#001b69;fill-opacity:1;fill-rule:nonzero;stroke:none"
           d="m 331.0629,19.9152 v 0.036 c 0,2.005 -1.5,3.65 -3.469,3.65 -2.023,0 -3.414,-1.645 -3.414,-3.614 v -0.036 c 0,-2.005 1.481,-3.632 3.45,-3.632 2.024,0 3.433,1.627 3.433,3.596 m -8.311,0 v 0.036 c 0,2.638 2.06,4.878 4.878,4.878 2.8,0 4.861,-2.204 4.861,-4.842 v -0.036 c 0,-2.638 -2.078,-4.878 -4.897,-4.878 -2.801,0 -4.842,2.204 -4.842,4.842" /><path
           id="path140"
           style="fill:#001b69;fill-opacity:1;fill-rule:nonzero;stroke:none"
           d="m 334.9965,24.6301 h 1.391 v -2.438 c 0.687,1.553 2.042,2.673 3.812,2.601 v -1.499 h -0.108 c -2.042,0 -3.704,-1.464 -3.704,-4.282 v -3.722 h -1.391 z" /><path
           id="path142"
           style="fill:#001b69;fill-opacity:1;fill-rule:nonzero;stroke:none"
           d="m 342.7993,17.7648 v 5.637 h -1.301 v 1.228 h 1.301 v 2.819 h 1.391 v -2.819 h 2.963 v -1.228 h -2.963 v -5.455 c 0,-1.139 0.632,-1.555 1.572,-1.555 0.469,0 0.867,0.091 1.354,0.326 v -1.193 c -0.487,-0.252 -1.011,-0.397 -1.68,-0.397 -1.499,0 -2.637,0.741 -2.637,2.637" /></g></g></g></svg>