<?xml version="1.0" encoding="UTF-8"?><svg id="VIE_Vienna_Airport" xmlns="http://www.w3.org/2000/svg" viewBox="0 0 340.35 96.3"><defs><style>.cls-1{fill:#076b3b;}</style></defs><g><path class="cls-1" d="M234.04,28.48h4.58l3.1,14.13c.48,2.24,.93,4.52,1.45,6.79h.07c1.03-2.21,2.1-4.41,3.17-6.62l7.03-14.31h4.45l-12.27,24.37h-5.72l-5.86-24.37Z"/><path class="cls-1" d="M259.75,34.03h4.21l-2,18.82h-4.21l2-18.82Zm-.48-5.76l3.58-3.24,2.93,3.24-3.62,3.27-2.9-3.27Z"/><path class="cls-1" d="M266.69,46.3c0-6.79,3.31-12.75,9.79-12.75,3.96,0,5.69,2.27,5.69,4.65,0,3.69-3.83,5.1-5.76,5.72l-5.45,1.86v.59c0,2.38,.48,3.34,1.93,3.34s3.62-.86,5.72-2l1.45,2.9c-1.96,1.28-4.89,2.65-7.79,2.65-4.69,0-5.58-3.45-5.58-6.96Zm9.44-5.65c1.28-.52,1.96-1.21,1.96-2.14,0-1.07-.76-1.59-1.9-1.59-2.55,0-4.27,2.65-4.86,5.52l4.79-1.79Z"/><path class="cls-1" d="M286.01,34.03h4.24l-.28,2.41c2-1.45,4.14-2.9,6.69-2.9,3.62,0,3.69,2.79,3.41,5.55l-1.48,13.75h-4.24l1.41-12.79c.17-1.45,.17-2.48-1.1-2.48-1.34,0-3.58,1.21-5.03,2.34l-1.38,12.93h-4.24l2-18.82Z"/><path class="cls-1" d="M305.37,34.03h4.24l-.28,2.41c2-1.45,4.14-2.9,6.69-2.9,3.62,0,3.69,2.79,3.41,5.55l-1.48,13.75h-4.24l1.41-12.79c.17-1.45,.17-2.48-1.1-2.48-1.34,0-3.58,1.21-5.03,2.34l-1.38,12.93h-4.24l2-18.82Z"/><path class="cls-1" d="M322.17,47.26c0-6.83,4.48-13.44,12.27-13.44,1.14,0,2.76,.14,3.83,.34l-1.93,18.68h-4.21l.28-2.79c-2.03,1.93-3.93,3.24-6.07,3.24-2.79,0-4.17-2.27-4.17-6.03Zm5.62,2.24c1.38,0,3.79-1.9,4.96-2.9l.97-9.2c-.17-.03-.41-.07-.59-.07-3.86,0-6.69,4.62-6.69,9.41,0,1.59,.34,2.76,1.34,2.76Z"/></g><g><path class="cls-1" d="M239.95,64.34h5.76l5.21,24.37h-4.48l-1.48-7.89h-8.79l-3.65,7.89h-4.45l11.89-24.37Zm-2.27,13.2h6.65l-1.38-7.27c-.21-1.21-.31-2.24-.48-3.34h-.04c-.48,1.1-.86,2.14-1.38,3.34l-3.38,7.27Z"/><path class="cls-1" d="M255.8,69.89h4.21l-2,18.82h-4.21l2-18.82Zm-.48-5.76l3.58-3.24,2.93,3.24-3.62,3.27-2.9-3.27Z"/><path class="cls-1" d="M264.98,69.89h4.21l-.24,2.38c1.83-1.52,3.69-2.72,5.34-2.72,.38,0,.66,0,1.21,.1l-.79,4.03c-.45-.07-.76-.1-1.1-.1-1.9,0-3.79,1.48-5.03,2.48l-1.38,12.65h-4.21l2-18.82Z"/><path class="cls-1" d="M280.31,88.92l-.79,7.38h-4.21l2.79-26.4h4.21l-.17,1.83c1.52-1.07,3.34-2.1,5.45-2.1,2.93,0,4.72,1.76,4.72,6.17,0,5.38-2.65,13.27-10.51,13.27-.59,0-1.03-.07-1.48-.14Zm.34-3.45c.48,.14,.93,.21,1.38,.21,4.55,0,6-6.31,6-9.75,0-2.24-.62-2.76-1.72-2.76-1.41,0-3.24,.97-4.52,1.76l-1.14,10.55Z"/><path class="cls-1" d="M294.82,81.75c0-6.72,3.76-12.31,9.82-12.31,4.45,0,6.55,3,6.55,7.31s-2.28,12.37-9.76,12.37c-4.34,0-6.62-2.62-6.62-7.38Zm12.06-4.79c0-2.93-1.07-4.03-2.76-4.03-3.14,0-5,4-5,8.41,0,2.93,.83,4.34,2.83,4.34,2.79,0,4.93-3.86,4.93-8.72Z"/><path class="cls-1" d="M315.76,69.89h4.21l-.24,2.38c1.83-1.52,3.69-2.72,5.34-2.72,.38,0,.66,0,1.21,.1l-.79,4.03c-.45-.07-.76-.1-1.1-.1-1.9,0-3.79,1.48-5.03,2.48l-1.38,12.65h-4.21l2-18.82Z"/><path class="cls-1" d="M329.42,83.37l1.14-10.24h-2.79l.38-3.24h2.76l.45-3.86h4.21l-.41,3.86h5.21l-.34,3.24h-5.24l-1.1,10.2c-.14,1.28,.21,2.1,1.41,2.1,.83,0,2.21-.34,3.65-.9l.83,3.1c-1.31,.72-3.55,1.48-5.86,1.48-4.31,0-4.58-2.76-4.27-5.76Z"/></g><path class="cls-1" d="M93.51,2.39c-.16-.29-.73-.84-2-1.32-1.27-.47-2.92-.61-2.92-.61,0,0-1.99-.19-2.41-.27-.42-.08-1.97-.27-3.05-.16-1.07,.1-2.8,.39-4.73,.98-1.93,.59-6.98,2.88-6.98,2.88l-3.3,1.68-8.71,4.93-35.5-.42c-1.76-.02-3.5,.45-5.02,1.35l-6.47,3.84,27.88,6.61-17.25,10.27-15.6-3.78c-.27-.07-.55-.11-.82-.12-.98-.05-1.64,.11-2.08,.44l-4.55,3.36,16.46,12.45c9.82-1.07,14.96-2.08,16.84-3.09,0,0,50.69-29.42,52.49-30.57,1.8-1.15,5.48-3.86,6.89-5.47,1.41-1.62,.99-2.7,.83-2.98Z"/><polygon class="cls-1" points="133.68 13.96 125.74 88.72 146.32 88.72 150.39 50.43 154.26 13.96 133.68 13.96"/><polygon class="cls-1" points="102.86 13.96 82.02 67.21 81.75 67.21 76.53 25.68 58.96 36.1 66.26 88.72 92.99 88.72 123.18 13.96 102.86 13.96"/><polygon class="cls-1" points="162.13 88.72 212.34 88.72 213.98 73.28 182.9 73.28 184.59 57.82 210.76 57.82 212.27 43.61 186.09 43.61 187.65 28.48 216.19 28.48 217.73 13.96 170.07 13.96 162.13 88.72"/></svg>