<?xml version="1.0" encoding="utf-8"?>
<!-- Generator: Adobe Illustrator 21.1.0, SVG Export Plug-In . SVG Version: 6.00 Build 0)  -->
<svg version="1.1" id="Ebene_1" xmlns="http://www.w3.org/2000/svg" xmlns:xlink="http://www.w3.org/1999/xlink" x="0px" y="0px"
	 viewBox="0 0 283.5 56.7" style="enable-background:new 0 0 283.5 56.7;" xml:space="preserve">
<style type="text/css">
	.st0{fill:#E61900;}
</style>
<g>
	<path class="st0" d="M0,56.5V0.2h21.6c5.6,0,9.5,0.9,12.2,2.8c3.1,2.3,4.6,6,4.6,11.4c0,4.7-1.4,8.4-3.7,11.2
		c5.1,2.2,7.5,6.9,7.5,14.3c0,5.3-1.3,9.2-4,11.9c-3.1,3.2-8.1,4.7-15.2,4.7H0z M22.3,46.9c6.1,0,8.2-2,8.2-7.4
		c0-5.8-1.4-7.3-7.7-7.3H11.4v14.7H22.3z M19.9,22.9c5.4,0,6.8-2.7,6.8-6.6c0-4.7-1-6.7-6-6.7h-9.4v13.3H19.9z"/>
	<polygon class="st0" points="49.4,56.5 49.4,0.2 84.6,0.2 84.6,10 60.9,10 60.9,23.2 80.7,23.2 80.7,33.1 60.9,33.1 60.9,46.7 
		84.6,46.7 84.6,56.5 	"/>
	<path class="st0" d="M121,56.5l-8.4-21.7h-8.3v21.7H92.8V0.2H114c6.7,0,11.2,1.2,14.1,3.7c3,2.6,4.5,6.7,4.5,12.7
		c0,4.1-0.8,7.6-2.5,10.5c-1.5,2.6-3.6,4.6-6.2,6L134,56.5H121z M112.4,25.4c3.3,0,5.6-0.7,6.9-2.1c1.1-1.2,1.6-3,1.6-5.8
		c0-5.4-1.1-7.7-7.6-7.7h-8.9v15.6H112.4z"/>
	<g>
		<polygon class="st0" points="148.9,12.4 148.9,0.2 155.5,0.2 155.5,1.7 150.7,1.7 150.7,5.5 154.8,5.5 154.8,7 150.7,7 
			150.7,12.4 		"/>
		<polygon class="st0" points="159,12.4 159,0.2 160.9,0.2 160.9,10.9 166,10.9 166,12.4 		"/>
		<path class="st0" d="M173.6,12.6c-3.2,0-4.5-1.2-4.5-4.2V0.2h1.9v8.3c0,1.9,0.8,2.6,2.7,2.6c1.7,0,2.7-0.4,2.7-2.6V0.2h1.9v8.2
			C178.2,11.3,176.8,12.6,173.6,12.6L173.6,12.6z"/>
		<path class="st0" d="M186.8,12.6c-4,0-4.8-2.3-4.8-6.2c0-2.3,0.4-3.8,1.1-4.8c0.9-1.1,2.2-1.6,4.4-1.6c1.4,0,2.6,0.2,3.2,0.3
			l-0.2,1.6c-0.5-0.1-1.9-0.3-2.9-0.3c-2.7,0-3.6,1.2-3.6,4.8c0,3.2,0.5,4.7,3.1,4.7c0.8,0,1.6-0.1,2.2-0.2l0.1,0V7h-2.5V5.4h4.4V12
			C190.1,12.3,188.6,12.6,186.8,12.6L186.8,12.6z"/>
		<polygon class="st0" points="202.3,12.4 202.3,7 196.9,7 196.9,12.4 195,12.4 195,0.2 196.9,0.2 196.9,5.5 202.3,5.5 202.3,0.2 
			204.2,0.2 204.2,12.4 		"/>
		<path class="st0" d="M216.3,12.4l-0.9-2.9h-5l-0.9,2.9h-2l4-12.3h2.9l4,12.3H216.3z M210.9,8h4.1l-2-6.7L210.9,8z"/>
		<polygon class="st0" points="221.7,12.4 221.7,0.2 228.3,0.2 228.3,1.7 223.5,1.7 223.5,5.5 227.6,5.5 227.6,7 223.5,7 
			223.5,12.4 		"/>
		<polygon class="st0" points="231.8,12.4 231.8,0.2 239,0.2 239,1.7 233.7,1.7 233.7,5.4 238.2,5.4 238.2,7 233.7,7 233.7,10.9 
			239,10.9 239,12.4 		"/>
		<polygon class="st0" points="249.4,12.4 245.2,4.4 244.4,2.6 244.2,2.6 244.2,12.4 242.5,12.4 242.5,0.2 245,0.2 249.3,8.2 
			250,10 250.2,10 250.2,0.2 251.9,0.2 251.9,12.4 		"/>
		<path class="st0" d="M148.9,34.5V22.2h4.3c2.5,0,3.5,0.9,3.5,3c0,1.1-0.3,2-0.9,2.5l-0.1,0.1l0.1,0c1.2,0.4,1.8,1.4,1.8,3.1
			c0,2.4-1.2,3.5-4,3.5H148.9z M150.7,33h2.7c1.6,0,2.3-0.6,2.3-2.1c0-1.6-0.5-2-2.2-2h-2.7V33z M150.7,27.4h2.1
			c1.6,0,1.9-0.9,1.9-1.9c0-1.1-0.3-1.8-1.7-1.8h-2.3V27.4z"/>
		<polygon class="st0" points="161.1,34.5 161.1,22.2 168.2,22.2 168.2,23.8 162.9,23.8 162.9,27.5 167.5,27.5 167.5,29 162.9,29 
			162.9,32.9 168.2,32.9 168.2,34.5 		"/>
		<path class="st0" d="M178.2,34.5l-2.1-5h-2.5v5h-1.8V22.2h4.4c2.8,0,3.9,1,3.9,3.5c0,1.7-0.7,2.9-2,3.5l-0.1,0l2.4,5.3H178.2z
			 M173.6,28h2.3c2,0,2.3-1.1,2.3-2.2c0-1.4-0.3-2.1-2.1-2.1h-2.4V28z"/>
		<polygon class="st0" points="183.8,34.5 183.8,22.2 185.7,22.2 185.7,32.9 190.8,32.9 190.8,34.5 		"/>
		<polygon class="st0" points="194.1,34.5 194.1,22.2 195.9,22.2 195.9,25.4 195.9,34.5 		"/>
		<polygon class="st0" points="207,34.5 202.9,26.4 202.1,24.6 201.9,24.6 201.9,34.5 200.2,34.5 200.2,22.2 202.7,22.2 207,30.2 
			207.7,32 207.9,32 207.9,22.2 209.6,22.2 209.6,34.5 		"/>
		<path class="st0" d="M148.9,56.5V44.2h4.3c2.5,0,3.5,0.9,3.5,3c0,1.1-0.3,2-0.9,2.5l-0.1,0.1l0.1,0c1.2,0.4,1.8,1.4,1.8,3.1
			c0,2.4-1.2,3.5-4,3.5H148.9z M150.7,55h2.7c1.6,0,2.3-0.6,2.3-2.1c0-1.6-0.5-2-2.2-2h-2.7V55z M150.7,49.4h2.1
			c1.6,0,1.9-0.9,1.9-1.9c0-1.1-0.3-1.8-1.7-1.8h-2.3V49.4z"/>
		<path class="st0" d="M167.5,56.5l-2.1-5h-2.5v5h-1.8V44.2h4.4c2.8,0,3.9,1,3.9,3.5c0,1.7-0.7,2.9-2,3.5l-0.1,0l2.4,5.3H167.5z
			 M162.9,50.1h2.3c2,0,2.3-1.1,2.3-2.2c0-1.4-0.3-2.1-2.1-2.1h-2.4V50.1z"/>
		<path class="st0" d="M181.4,56.5l-0.9-2.9h-5l-0.9,2.9h-2l4-12.3h2.9l4,12.3H181.4z M175.9,52.1h4.1l-2-6.7L175.9,52.1z"/>
		<polygon class="st0" points="193.5,56.5 189.3,48.5 188.6,46.6 188.4,46.7 188.4,56.5 186.7,56.5 186.7,44.2 189.2,44.2 
			193.5,52.3 194.2,54.1 194.4,54 194.4,44.2 196.1,44.2 196.1,56.5 		"/>
		<path class="st0" d="M200.4,56.5V44.2h4.1c2,0,3.3,0.5,4,1.5c0.7,0.9,1,2.3,1,4.6c0,2.3-0.3,3.7-1.1,4.7c-0.9,1-2.3,1.5-4.5,1.5
			H200.4z M202.2,55h1.7c3.1,0,3.7-1.2,3.7-4.6c0-3.5-0.7-4.6-3.1-4.6h-2.2V55z"/>
		<polygon class="st0" points="213,56.5 213,44.2 220.2,44.2 220.2,45.8 214.9,45.8 214.9,49.5 219.5,49.5 219.5,51 214.9,51 
			214.9,54.9 220.2,54.9 220.2,56.5 		"/>
		<polygon class="st0" points="230.6,56.5 226.4,48.5 225.6,46.6 225.5,46.7 225.5,56.5 223.8,56.5 223.8,44.2 226.3,44.2 
			230.5,52.3 231.2,54.1 231.4,54 231.4,44.2 233.1,44.2 233.1,56.5 		"/>
		<path class="st0" d="M237.4,56.5V44.2h4.3c2.5,0,3.5,0.9,3.5,3c0,1.1-0.3,2-0.9,2.5l-0.1,0.1l0.1,0c1.2,0.4,1.8,1.4,1.8,3.1
			c0,2.4-1.2,3.5-4,3.5H237.4z M239.3,55h2.7c1.6,0,2.3-0.6,2.3-2.1c0-1.6-0.5-2-2.2-2h-2.7V55z M239.3,49.4h2.1
			c1.6,0,1.9-0.9,1.9-1.9c0-1.1-0.3-1.8-1.7-1.8h-2.3V49.4z"/>
		<path class="st0" d="M254,56.7c-3.2,0-4.5-1.2-4.5-4.2v-8.2h1.9v8.3c0,1.9,0.8,2.6,2.7,2.6c1.7,0,2.7-0.4,2.7-2.6v-8.3h1.9v8.2
			C258.7,55.4,257.2,56.7,254,56.7L254,56.7z"/>
		<path class="st0" d="M269.3,56.5l-2.1-5h-2.5v5h-1.8V44.2h4.4c2.8,0,3.9,1,3.9,3.5c0,1.7-0.7,2.9-2,3.5l-0.1,0l2.4,5.3H269.3z
			 M264.7,50.1h2.3c2,0,2.3-1.1,2.3-2.2c0-1.4-0.3-2.1-2.1-2.1h-2.4V50.1z"/>
		<path class="st0" d="M279.3,56.7c-4,0-4.8-2.3-4.8-6.2c0-2.3,0.4-3.8,1.1-4.8c0.9-1.1,2.2-1.6,4.4-1.6c1.4,0,2.6,0.2,3.2,0.3
			l-0.2,1.6c-0.5-0.1-1.9-0.3-2.9-0.3c-2.7,0-3.6,1.2-3.6,4.8c0,3.2,0.5,4.7,3.1,4.7c0.8,0,1.6-0.1,2.2-0.2l0.1,0v-3.8h-2.5v-1.5
			h4.4v6.6C282.5,56.4,281.1,56.7,279.3,56.7L279.3,56.7z"/>
	</g>
</g>
</svg>