<svg width="267" height="60" viewBox="0 0 267 60" fill="none" xmlns="http://www.w3.org/2000/svg">
<g clip-path="url(#clip0_12237_3829)">
<path d="M60.1406 58.6937C52.8658 49.1949 47.6912 39.8931 44.4761 30.3942C41.1879 20.7039 39.9829 10.839 40.7036 0.495542C40.7036 0.377299 40.6304 0.275947 40.5347 0.253425L39.5381 0.0281995C39.3523 -0.0281068 39.1946 4.63969e-05 39.1214 0.191488C35.6417 8.17009 30.2644 15.214 23.2543 21.1149C16.7734 26.5485 8.99191 30.9967 0.146193 34.1386C0.0729949 34.1611 -0.00583395 34.2287 -0.000203321 34.3582L0.146193 35.7095C0.168716 35.8277 0.241914 35.9009 0.365788 35.9009C1.16534 35.8784 1.88606 35.8784 2.61241 35.8784C9.30723 35.8784 15.7599 36.5316 25.7205 39.7467C37.1788 43.4178 48.3669 50.2365 58.9525 59.955C59.0651 60.0338 59.1721 60.0057 59.2453 59.9325L60.118 58.9415C60.1743 58.8683 60.2025 58.7726 60.1462 58.6937H60.1406Z" fill="white"/>
<path d="M60.3768 31.5708C61.0469 28.5246 62.905 27.0212 67.8092 26.43L72.6741 25.8388C72.8318 24.1383 72.0435 23.5077 69.9827 23.5077C68.2822 23.5077 66.5424 23.7442 64.2901 24.2566C63.4624 24.4536 63.1809 24.1383 63.3385 23.3895L64.0874 19.9097C64.2056 19.3185 64.3633 19.1609 65.1178 18.9187C67.0942 18.3275 69.307 18.0122 71.4466 18.0122C77.4939 18.0122 79.8701 21.4131 78.6032 27.421L76.5086 37.3872C76.3903 37.939 76.1933 38.1361 75.557 38.1361H72.0773C71.4072 38.1361 71.2101 37.9784 71.1651 37.3478L71.1257 36.1597C69.5435 37.8996 68.0401 38.4908 65.8273 38.4908C61.5987 38.4908 59.4984 35.4841 60.3712 31.5708H60.3768ZM68.2484 33.9863C69.3183 33.9863 70.3824 33.5527 71.2946 32.68L71.9646 29.5944L68.8002 29.9097C67.2574 30.0674 66.5874 30.6586 66.3509 31.689C66.075 32.9953 66.7451 33.9807 68.2484 33.9807V33.9863Z" fill="#1A2732"/>
<path d="M81.4411 26.7062C82.7474 20.6983 86.0695 18.0068 91.6832 18.0068C97.6517 18.0068 100.264 21.8413 99.0368 28.4066L98.9186 29.0372C98.7609 29.8255 98.485 30.0676 97.9276 30.0676H87.3307C87.3702 32.517 88.7553 33.5474 91.6832 33.5474C93.2654 33.5474 95.0053 33.3503 96.5481 32.8773C97.297 32.6408 97.6573 33.0744 97.5391 33.6262L96.7902 36.9089C96.672 37.4607 96.5143 37.6577 95.878 37.8604C94.0988 38.4122 92.4377 38.5305 90.8161 38.5305C83.226 38.5305 79.8645 33.9021 81.4467 26.7062H81.4411ZM87.8882 26.4303H93.7778C94.1325 23.8233 93.3048 22.714 91.5256 22.714C89.7463 22.714 88.637 23.5868 87.8882 26.4303Z" fill="#1A2732"/>
<path d="M100.186 37.1059L104.02 19.1555C104.138 18.6037 104.336 18.4066 104.972 18.4066H108.649C109.279 18.4066 109.476 18.6431 109.476 19.1949L109.516 20.7771C111.098 18.9584 113.074 18.0068 115.726 18.0068C119.324 18.0068 121.655 20.3773 120.473 25.9967L118.063 37.3875C117.945 37.9393 117.748 38.1363 117.111 38.1363H112.562C111.852 38.1363 111.65 37.7816 111.813 37.1059L114.262 25.7152C114.617 24.0147 113.908 23.187 112.483 23.187C111.374 23.187 110.191 23.6994 109.161 24.6904L106.43 37.3818C106.312 37.9336 106.115 38.1307 105.479 38.1307H100.929C100.22 38.1307 100.017 37.776 100.18 37.1003L100.186 37.1059Z" fill="#1A2732"/>
<path d="M121.779 31.5708C122.449 28.5246 124.307 27.0212 129.212 26.43L134.076 25.8388C134.234 24.1383 133.446 23.5077 131.385 23.5077C129.685 23.5077 127.945 23.7442 125.692 24.2566C124.865 24.4536 124.583 24.1383 124.741 23.3895L125.49 19.9097C125.608 19.3185 125.766 19.1609 126.52 18.9187C128.496 18.3275 130.709 18.0122 132.849 18.0122C138.896 18.0122 141.272 21.4131 140.005 27.421L137.911 37.3872C137.793 37.939 137.596 38.1361 136.959 38.1361H133.48C132.81 38.1361 132.612 37.9784 132.567 37.3478L132.528 36.1597C130.946 37.8996 129.442 38.4908 127.23 38.4908C123.001 38.4908 120.901 35.4841 121.774 31.5708H121.779ZM129.645 33.9863C130.715 33.9863 131.779 33.5527 132.691 32.68L133.361 29.5944L130.197 29.9097C128.654 30.0674 127.984 30.6586 127.748 31.689C127.472 32.9953 128.142 33.9807 129.645 33.9807V33.9863Z" fill="#1A2732"/>
<path d="M158.868 18.8345C158.868 16.9313 159.797 16.0023 162.45 15.687L164.629 15.428C164.589 14.2793 164.037 13.8232 162.725 13.8232C161.695 13.8232 160.766 13.964 159.814 14.2174C159.595 14.2568 159.46 14.1554 159.46 13.9584V12.4156C159.46 12.1566 159.561 12.0777 159.797 11.9989C160.867 11.6611 161.875 11.5034 163.142 11.5034C165.935 11.5034 167.258 12.7478 167.258 15.3435V21.1431C167.258 21.3795 167.157 21.4978 166.92 21.4978H165.118C164.882 21.4978 164.781 21.419 164.764 21.1431L164.702 20.2703C164.026 21.1994 162.962 21.678 161.774 21.678C159.972 21.7005 158.863 20.5687 158.863 18.8289L158.868 18.8345ZM162.748 19.7241C163.339 19.7241 164.054 19.5045 164.651 19.0316V17.089L162.99 17.2692C161.903 17.3705 161.408 17.7422 161.408 18.5136C161.408 19.285 161.824 19.7185 162.754 19.7185L162.748 19.7241Z" fill="white"/>
<path d="M169.775 8.76125C169.775 7.84909 170.405 7.23535 171.301 7.23535C172.196 7.23535 172.826 7.84909 172.826 8.76125C172.826 9.67341 172.173 10.304 171.301 10.304C170.428 10.304 169.775 9.62837 169.775 8.76125ZM169.933 21.1317V12.0664C169.933 11.8299 170.051 11.6892 170.31 11.6892H172.252C172.511 11.6892 172.629 11.8299 172.629 12.0664V21.1317C172.629 21.3908 172.511 21.509 172.252 21.509H170.31C170.073 21.509 169.933 21.3908 169.933 21.1317Z" fill="white"/>
<path d="M175.361 21.1315V12.0662C175.361 11.8297 175.479 11.689 175.738 11.689H177.539C177.776 11.689 177.894 11.7509 177.917 12.0437L177.979 12.9953C178.592 12.0043 179.504 11.5088 180.788 11.5088C181.064 11.5088 181.182 11.627 181.182 11.8635V13.5865C181.182 13.8455 181.103 13.9412 180.805 13.9637C179.758 14.0257 178.862 14.3016 178.052 15.0336V21.1315C178.052 21.3905 177.933 21.5088 177.674 21.5088H175.732C175.496 21.5088 175.355 21.3905 175.355 21.1315H175.361Z" fill="white"/>
<path d="M183.119 25.1912V12.0662C183.119 11.8297 183.238 11.689 183.497 11.689H185.298C185.535 11.689 185.653 11.7678 185.676 12.0662L185.738 12.6969C186.453 11.9255 187.399 11.5088 188.587 11.5088C190.862 11.5088 192.365 13.0347 192.365 16.4356C192.365 20.1349 190.901 21.7002 188.384 21.7002C187.416 21.7002 186.565 21.4018 185.811 20.7487V25.1856C185.811 25.4446 185.693 25.5628 185.434 25.5628H183.491C183.255 25.5628 183.114 25.4446 183.114 25.1856L183.119 25.1912ZM185.811 14.5381V18.9131C186.402 19.3297 186.959 19.4649 187.59 19.4649C188.919 19.4649 189.612 18.6315 189.612 16.5538C189.612 14.4761 188.857 13.7216 187.652 13.7216C187.021 13.7216 186.363 13.9806 185.811 14.5324V14.5381Z" fill="white"/>
<path d="M194.302 16.6158C194.302 13.3106 195.986 11.5088 199.054 11.5088C202.123 11.5088 203.784 13.3106 203.784 16.6158C203.784 19.921 202.123 21.7059 199.032 21.7059C195.941 21.7059 194.302 19.9041 194.302 16.6158ZM201.031 16.6158C201.031 14.6169 200.4 13.6653 199.049 13.6653C197.698 13.6653 197.05 14.6338 197.05 16.6158C197.05 18.5978 197.703 19.5268 199.049 19.5268C200.395 19.5268 201.031 18.5752 201.031 16.6158Z" fill="white"/>
<path d="M206.019 21.1315V12.0662C206.019 11.8297 206.138 11.689 206.396 11.689H208.198C208.435 11.689 208.553 11.7509 208.575 12.0437L208.637 12.9953C209.251 12.0043 210.163 11.5088 211.446 11.5088C211.722 11.5088 211.841 11.627 211.841 11.8635V13.5865C211.841 13.8455 211.762 13.9412 211.463 13.9637C210.416 14.0257 209.521 14.3016 208.71 15.0336V21.1315C208.71 21.3905 208.592 21.5088 208.333 21.5088H206.391C206.154 21.5088 206.014 21.3905 206.014 21.1315H206.019Z" fill="white"/>
<path d="M214.808 18.6766V13.8286H213.48C213.243 13.8286 213.125 13.6878 213.125 13.4513V12.0662C213.125 11.8297 213.226 11.6889 213.48 11.6889H214.865L215.219 9.41416C215.259 9.15515 215.36 9.02002 215.613 9.02002H216.998C217.257 9.02002 217.353 9.16078 217.353 9.41416V11.6889H219.211C219.47 11.6889 219.566 11.8297 219.566 12.0662V13.4513C219.566 13.6878 219.464 13.8286 219.211 13.8286H217.471V18.4626C217.471 19.1383 217.708 19.4142 218.361 19.4142C218.637 19.4142 218.935 19.3916 219.211 19.3522C219.447 19.2903 219.605 19.4311 219.605 19.6507V21.0583C219.605 21.2948 219.504 21.413 219.228 21.475C218.676 21.5763 218.198 21.6326 217.764 21.6326C215.45 21.6326 214.797 20.6811 214.797 18.6822L214.808 18.6766Z" fill="white"/>
<path d="M222.016 21.3511C221.74 21.2892 221.639 21.154 221.639 20.8781V19.6338C221.639 19.3353 221.779 19.2002 222.151 19.2565C223.102 19.4367 224.071 19.5549 224.724 19.5549C225.794 19.5549 226.03 19.1777 226.03 18.6653C226.03 18.2317 225.85 17.9502 224.96 17.618L223.834 17.2013C222.292 16.627 221.757 15.636 221.757 14.2903C221.757 12.6293 222.804 11.52 225.337 11.52C226.227 11.52 227.117 11.6214 227.832 11.8184C228.107 11.8973 228.209 12.038 228.209 12.2914V13.457C228.209 13.7723 228.068 13.913 227.696 13.8511C226.981 13.7103 226.21 13.654 225.58 13.654C224.628 13.654 224.335 13.9299 224.335 14.386C224.335 14.8421 224.532 15.118 225.326 15.4164L226.452 15.8331C228.175 16.4637 228.631 17.4772 228.631 18.8398C228.631 20.5628 227.663 21.7115 225.011 21.7115C224.082 21.7115 223.029 21.5932 222.021 21.3567L222.016 21.3511Z" fill="white"/>
<path d="M160.056 42.4886V35.1856H158.868C158.609 35.1856 158.491 35.0449 158.491 34.8084V33.4232C158.491 33.1868 158.609 33.046 158.868 33.046H160.056V31.6214C160.056 29.403 160.867 28.457 162.984 28.457C163.44 28.457 163.913 28.519 164.47 28.6372C164.769 28.6991 164.864 28.8343 164.864 29.0539V30.4615C164.864 30.6811 164.723 30.7994 164.47 30.76C164.251 30.7205 163.935 30.698 163.62 30.698C162.989 30.698 162.747 30.9964 162.747 31.6665V33.0516H164.391C164.628 33.0516 164.769 33.1699 164.769 33.4289V34.814C164.769 35.0505 164.628 35.1913 164.391 35.1913H162.747V42.4942C162.747 42.7532 162.629 42.8714 162.37 42.8714H160.428C160.191 42.8714 160.051 42.7532 160.051 42.4942L160.056 42.4886Z" fill="white"/>
<path d="M166.115 37.9786C166.115 34.6734 167.799 32.8716 170.867 32.8716C173.936 32.8716 175.597 34.6734 175.597 37.9786C175.597 41.2837 173.936 43.0687 170.845 43.0687C167.754 43.0687 166.115 41.2668 166.115 37.9786ZM172.844 37.9786C172.844 35.9797 172.213 35.0281 170.862 35.0281C169.511 35.0281 168.863 35.9966 168.863 37.9786C168.863 39.9605 169.516 40.8896 170.862 40.8896C172.208 40.8896 172.844 39.938 172.844 37.9786Z" fill="white"/>
<path d="M177.832 42.489V33.4236C177.832 33.1872 177.951 33.0464 178.209 33.0464H180.011C180.248 33.0464 180.366 33.1083 180.388 33.4011L180.45 34.3527C181.064 33.3617 181.976 32.8662 183.259 32.8662C183.535 32.8662 183.654 32.9845 183.654 33.2209V34.9439C183.654 35.2029 183.575 35.2986 183.276 35.3212C182.229 35.3831 181.334 35.659 180.523 36.391V42.489C180.523 42.748 180.405 42.8662 180.146 42.8662H178.204C177.967 42.8662 177.827 42.748 177.827 42.489H177.832Z" fill="white"/>
<path d="M191.948 46.447L193.074 43.5191L189.251 33.5247C189.15 33.2094 189.229 33.0518 189.566 33.0518H191.684C191.982 33.0518 192.038 33.0912 192.14 33.3896L194.398 40.1576L196.712 33.3896C196.791 33.0912 196.909 33.0518 197.168 33.0518H199.071C199.386 33.0518 199.488 33.2094 199.386 33.5247L194.578 46.6103C194.476 46.8862 194.398 46.9256 194.122 46.9256H192.263C191.926 46.9256 191.83 46.7286 191.948 46.4527V46.447Z" fill="white"/>
<path d="M200.299 37.9786C200.299 34.6734 201.982 32.8716 205.051 32.8716C208.12 32.8716 209.781 34.6734 209.781 37.9786C209.781 41.2837 208.12 43.0687 205.029 43.0687C201.937 43.0687 200.299 41.2668 200.299 37.9786ZM207.033 37.9786C207.033 35.9797 206.402 35.0281 205.051 35.0281C203.7 35.0281 203.052 35.9966 203.052 37.9786C203.052 39.9605 203.705 40.8896 205.051 40.8896C206.397 40.8896 207.033 39.938 207.033 37.9786Z" fill="white"/>
<path d="M211.762 39.6793V33.4236C211.762 33.1872 211.881 33.0464 212.117 33.0464H214.077C214.313 33.0464 214.431 33.1872 214.431 33.4236V39.302C214.431 40.3887 214.887 40.8279 215.8 40.8279C216.43 40.8279 217.145 40.5914 217.72 39.9777V33.4236C217.72 33.1872 217.838 33.0464 218.074 33.0464H220.034C220.27 33.0464 220.389 33.1872 220.389 33.4236V42.489C220.389 42.748 220.287 42.8662 220.034 42.8662H218.215C217.956 42.8662 217.86 42.7874 217.838 42.489L217.776 41.8133C217.005 42.6635 215.957 43.0576 214.786 43.0576C212.928 43.0576 211.757 42.0892 211.757 39.6736L211.762 39.6793Z" fill="white"/>
<path d="M159.51 51.2441H232.816C233.091 51.2441 233.21 51.3624 233.21 51.6608V52.4604C233.21 52.7363 233.069 52.8545 232.816 52.8545H159.51C159.234 52.8545 159.116 52.7363 159.116 52.4604V51.6608C159.116 51.3624 159.257 51.2441 159.51 51.2441Z" fill="white"/>
<path d="M265.997 49.724C265.755 48.6317 264.859 47.8997 263.243 47.8997H256.436C255.788 47.3141 253.683 45.4109 251.374 43.3839C250.242 42.3704 248.722 41.9875 247.585 42.4323C247.14 42.6125 246.774 42.9391 246.633 43.3051C246.532 43.5472 246.554 43.7893 246.695 44.054L249.51 48.4909L244.651 48.8738C244.347 48.5922 243.677 48.0235 242.523 47.0494C241.712 46.3625 240.315 45.8163 239.06 46.4639C238.733 46.6272 238.474 46.9481 238.39 47.2747C238.328 47.5393 238.367 47.804 238.491 48.0067C238.57 48.1474 241.368 52.9504 241.368 52.9504C241.47 53.1305 241.65 53.2769 241.875 53.2938C242.179 53.3332 244.567 53.7217 246.492 54.0258C247.77 54.2285 248.925 54.4087 249.268 54.4706C249.369 54.4931 249.493 54.4931 249.651 54.4931C251.109 54.4931 255.079 53.885 261.278 52.8096C262.551 52.59 263.497 52.438 263.992 52.3648C264.73 52.269 265.248 51.9199 265.631 51.3907C265.974 50.9064 266.115 50.2983 265.997 49.7296V49.724ZM263.902 50.9796C263.902 50.9796 262.072 51.2781 261.03 51.447C257.585 52.0326 250.417 53.2094 249.465 53.0686C249.099 53.0067 247.967 52.8265 246.689 52.6238C245.028 52.3591 243.187 52.0776 242.393 51.9537C241.419 50.2702 240.327 48.429 239.859 47.6576C240.467 47.4549 241.154 47.7814 241.582 48.1418C243.266 49.5382 243.913 50.1294 243.913 50.1294C244.054 50.2702 244.24 50.3321 244.443 50.3096L250.76 49.8028C251.002 49.7803 251.228 49.6395 251.329 49.4199C251.43 49.2003 251.43 48.9357 251.29 48.733L248.131 43.7499C248.677 43.5697 249.628 43.7499 250.439 44.4594C253.176 46.8693 255.648 49.1159 255.665 49.1384C255.788 49.2623 255.946 49.3186 256.132 49.3186L263.778 49.3355C264.234 49.3355 264.6 49.7071 264.6 50.1632C264.6 50.5742 264.302 50.9121 263.908 50.9796H263.902Z" fill="white"/>
</g>
<defs>
<clipPath id="clip0_12237_3829">
<rect width="266.036" height="60" fill="white"/>
</clipPath>
</defs>
</svg>
