<svg xmlns="http://www.w3.org/2000/svg" viewBox="0 0 690.79 226.63"><title>资源 1</title><g id="图层_2" data-name="图层 2"><g id="图层_1-2" data-name="图层 1"><path d="M225.9,97.23l-46-46L139.4,10.72a37,37,0,0,0-52.08,0c-22.79,22.79-33.95,53.9-14,84.55a1.33,1.33,0,0,0,2.12.15c9.33-11,39.7-15.9,62.73-15.9a175.3,175.3,0,0,1,84.91,21.53,2.41,2.41,0,0,0,2.85-3.82" style="fill:#fff"/><path d="M88.79,120.87A64.84,64.84,0,0,1,58.74,66.12,68.17,68.17,0,0,1,69.19,30.29a.52.52,0,0,0-.81-.63L13.54,84.51c-23.07,23.06,11.58,55.33,74.26,41.72a3,3,0,0,0,1-5.36" style="fill:#fff"/><path d="M.73,129.4l46,46L87.24,215.9a37,37,0,0,0,52.07,0c22.79-22.79,33.95-53.9,14-84.55a1.33,1.33,0,0,0-2.12-.14c-9.33,11-39.7,15.9-62.72,15.9A175.42,175.42,0,0,1,3.58,125.58,2.41,2.41,0,0,0,.73,129.4" style="fill:#fff"/><path d="M137.84,105.75a64.85,64.85,0,0,1,30,54.76,68.14,68.14,0,0,1-10.45,35.82.52.52,0,0,0,.81.64l54.84-54.85c23.07-23.07-11.58-55.33-74.26-41.72a2.94,2.94,0,0,0-1,5.35" style="fill:#fff"/><path d="M302.22,138,273,198.12h12.76L293,182.8h31.75l6,12.63a4.78,4.78,0,0,0,4.29,2.71h10.07l-30.39-62.84H306.5a4.76,4.76,0,0,0-4.28,2.68m17.85,35H297.74l11.18-23.37Z" style="fill:#fff"/><path d="M379.23,183.47l-19.36-45.26a4.77,4.77,0,0,0-4.38-2.89h-10l27.87,62.84h11.29l27.93-62.82H399.88Z" style="fill:#fff"/><rect x="434.64" y="135.36" width="12.47" height="62.83" style="fill:#fff"/><path d="M520.11,180.13l-33.36-42a7.29,7.29,0,0,0-5.71-2.75h-8l0,62.83h11.73l0-44.73,35.56,44.75h11.51l0-62.83H520.14Z" style="fill:#fff"/><path d="M565,198.24l39,0v-9.88l-33.63,0V170.85h31.22V161H570.35V145.3H604v-9.88l-46.1,0,0,55.74a7.08,7.08,0,0,0,7.09,7.09" style="fill:#fff"/><path d="M664.25,165.85,689,135.47H675l-17.81,21.82-15.5-19a7.66,7.66,0,0,0-5.93-2.82H624.63l24.75,30.32-26.57,32.51h14l19.6-23.94,17.29,21.15a7.63,7.63,0,0,0,5.92,2.81h11.14Z" style="fill:#fff"/><path d="M687.06,54.94H653.69a101.93,101.93,0,0,0,28.19-15,8.94,8.94,0,0,0,3.51-7.11V29.76H633.32v7.56h34.83C653,49.26,631.47,54.53,629.77,54.94V62.5h8.1v5.23c0,16.35-3.89,28.77-11.89,38l-.29.34,5.63,3.38.2-.19c11.51-10.53,19-28.29,19-45.24V62.5h7v5.23c0,16.55-4.12,28.9-13,38.86l-.3.33,6,3.61.2-.19c9.64-8.82,20-27.09,20-46.35V62.5h6V97.75c0,5.54-4.63,6.7-8.51,6.7h-.37v7.65h.37c8.56,0,22.92-2.45,22.92-18.86V58.68a3.74,3.74,0,0,0-3.73-3.74" style="fill:#fff"/><path d="M628.56,96.24v-7.9l-.5.19c-2.9,1.1-5.66,2-8.26,2.88V53.34h8.76V45.78H619.8v-14a3.41,3.41,0,0,0-3.41-3.41h-9.47V45.78h-8.77v7.56h8.77V95a90.25,90.25,0,0,1-9.2,1.71l-.33,0v7.87l.4,0c.17,0,16.94-1.63,30.56-8.21Z" style="fill:#fff"/><path d="M321.29,61.5h36.17V52.67H321.29V31.76a3.44,3.44,0,0,0-3.43-3.43H304.4v74.36H273v8.09H366.9v-8.09H321.29Z" style="fill:#fff"/><path d="M391.58,31.71a2.88,2.88,0,0,0-2.45-1.38H378.3l.39.58c3.84,5.66,7.33,16.15,7.72,17.33l.11.27h12.36l-.12-.46a68,68,0,0,0-7.18-16.34" style="fill:#fff"/><path d="M391.58,54.47a2.87,2.87,0,0,0-2.45-1.39H378.3l.39.58c3.12,4.6,6.05,12.51,7.16,15.7a2.85,2.85,0,0,0,2.69,1.9h10.34l-.12-.46a68.08,68.08,0,0,0-7.18-16.33" style="fill:#fff"/><path d="M385.43,78.8c-.67,5.52-2.77,19.64-7.87,31.46l-.22.52h10.32a2.83,2.83,0,0,0,2.69-1.92c1.8-5.21,6.14-18.76,7.69-32.15l0-.42h-9.83a2.85,2.85,0,0,0-2.83,2.51" style="fill:#fff"/><path d="M471.22,48.89a3.74,3.74,0,0,0-3.73-3.73H415.56a33.28,33.28,0,0,0,3.34-5h56.43V32.87H422.1c.45-1.3.89-2.64,1.28-4.07l.13-.47H413.34a2.87,2.87,0,0,0-2.73,2c-1.91,6.49-7.2,15.1-9.7,17.5l-.66.64h8.47l-1.09,19.22H400.8v7.19h6.42l-.83,14.42a9.13,9.13,0,0,0,9.1,9.63H456.7c-.74,4.73-5.8,5.48-8.92,5.48H437.34v7.65h10.44c6.16,0,19.46-1.41,22.71-13.13h4.84v-7.2h-4.11V74.92h5.71V67.73h-5.71ZM456.8,91.77h-8a50.66,50.66,0,0,0-5.06-9.86,2.84,2.84,0,0,0-2.38-1.29H430.11l.39.58a57.28,57.28,0,0,1,5.63,10.57H423a2.21,2.21,0,0,1-2.22-2.35l.84-14.5H456.8Zm0-24h-8.07a50.82,50.82,0,0,0-5-9.7,2.85,2.85,0,0,0-2.38-1.28H430.11l.39.58a58.81,58.81,0,0,1,5.57,10.4H422l.89-15.38H456.8Z" style="fill:#fff"/><path d="M577.64,102.49V35a3.77,3.77,0,0,0-3.76-3.76H532.47v40c0,11.46-1.29,24.94-10.84,38l-.24.33,5.57,3.35.2-.15c10.88-8.28,17.91-26.05,17.91-45.27v-28h19.06v61.34a9.91,9.91,0,0,0,9.9,9.9h14V103.4h-9.48a.91.91,0,0,1-.9-.91" style="fill:#fff"/><path d="M529.28,72.06c-.08-.21-2.12-5.21-13-17.68V45.22H529V37.86H516.3V31.74a3.41,3.41,0,0,0-3.41-3.41h-8.23v9.53h-13.3v7.36H501c-.57,15-5.64,29.11-15.07,42.15l-.23.31,4.79,3.13.21-.19a64.63,64.63,0,0,0,14-19.7V112.1H516.3V67a69.36,69.36,0,0,1,4.23,10.17l.14.45,8.73-5.26Z" style="fill:#fff"/></g></g></svg>