<svg width="267" height="60" viewBox="0 0 267 60" fill="none" xmlns="http://www.w3.org/2000/svg">
<g clip-path="url(#clip0_12237_3831)">
<path d="M60.1406 58.6937C52.8658 49.1949 47.6912 39.8931 44.4761 30.3942C41.1879 20.7039 39.9829 10.839 40.7036 0.495542C40.7036 0.377299 40.6304 0.275947 40.5347 0.253425L39.5381 0.0281995C39.3523 -0.0281068 39.1946 4.63969e-05 39.1214 0.191488C35.6417 8.17009 30.2644 15.214 23.2543 21.1149C16.7734 26.5485 8.99191 30.9967 0.146193 34.1386C0.0729949 34.1611 -0.00583395 34.2287 -0.000203321 34.3582L0.146193 35.7095C0.168716 35.8277 0.241914 35.9009 0.365788 35.9009C1.16534 35.8784 1.88606 35.8784 2.61241 35.8784C9.30723 35.8784 15.7599 36.5316 25.7205 39.7467C37.1788 43.4178 48.3669 50.2365 58.9525 59.955C59.0651 60.0338 59.1721 60.0057 59.2453 59.9325L60.118 58.9415C60.1743 58.8683 60.2025 58.7726 60.1462 58.6937H60.1406Z" fill="white"/>
<path d="M60.3768 31.5708C61.0469 28.5246 62.905 27.0212 67.8092 26.43L72.6741 25.8388C72.8318 24.1383 72.0435 23.5077 69.9827 23.5077C68.2822 23.5077 66.5424 23.7442 64.2901 24.2566C63.4624 24.4536 63.1809 24.1383 63.3385 23.3895L64.0874 19.9097C64.2056 19.3185 64.3633 19.1609 65.1178 18.9187C67.0942 18.3275 69.307 18.0122 71.4466 18.0122C77.4939 18.0122 79.8701 21.4131 78.6032 27.421L76.5086 37.3872C76.3903 37.939 76.1933 38.1361 75.557 38.1361H72.0773C71.4072 38.1361 71.2101 37.9784 71.1651 37.3478L71.1257 36.1597C69.5435 37.8996 68.0401 38.4908 65.8273 38.4908C61.5987 38.4908 59.4984 35.4841 60.3712 31.5708H60.3768ZM68.2484 33.9863C69.3183 33.9863 70.3824 33.5527 71.2946 32.68L71.9646 29.5944L68.8002 29.9097C67.2574 30.0674 66.5874 30.6586 66.3509 31.689C66.075 32.9953 66.7451 33.9807 68.2484 33.9807V33.9863Z" fill="#1A2732"/>
<path d="M81.4411 26.7062C82.7474 20.6983 86.0695 18.0068 91.6832 18.0068C97.6517 18.0068 100.264 21.8413 99.0368 28.4066L98.9186 29.0372C98.7609 29.8255 98.485 30.0676 97.9276 30.0676H87.3307C87.3702 32.517 88.7553 33.5474 91.6832 33.5474C93.2654 33.5474 95.0053 33.3503 96.5481 32.8773C97.297 32.6408 97.6573 33.0744 97.5391 33.6262L96.7902 36.9089C96.672 37.4607 96.5143 37.6577 95.878 37.8604C94.0988 38.4122 92.4377 38.5305 90.8161 38.5305C83.226 38.5305 79.8645 33.9021 81.4467 26.7062H81.4411ZM87.8882 26.4303H93.7778C94.1325 23.8233 93.3048 22.714 91.5256 22.714C89.7463 22.714 88.637 23.5868 87.8882 26.4303Z" fill="#1A2732"/>
<path d="M100.186 37.1059L104.02 19.1555C104.138 18.6037 104.336 18.4066 104.972 18.4066H108.649C109.279 18.4066 109.476 18.6431 109.476 19.1949L109.516 20.7771C111.098 18.9584 113.074 18.0068 115.726 18.0068C119.324 18.0068 121.655 20.3773 120.473 25.9967L118.063 37.3875C117.945 37.9393 117.748 38.1363 117.111 38.1363H112.562C111.852 38.1363 111.65 37.7816 111.813 37.1059L114.262 25.7152C114.617 24.0147 113.908 23.187 112.483 23.187C111.374 23.187 110.191 23.6994 109.161 24.6904L106.43 37.3818C106.312 37.9336 106.115 38.1307 105.479 38.1307H100.929C100.22 38.1307 100.017 37.776 100.18 37.1003L100.186 37.1059Z" fill="#1A2732"/>
<path d="M121.779 31.5708C122.449 28.5246 124.307 27.0212 129.212 26.43L134.076 25.8388C134.234 24.1383 133.446 23.5077 131.385 23.5077C129.685 23.5077 127.945 23.7442 125.692 24.2566C124.865 24.4536 124.583 24.1383 124.741 23.3895L125.49 19.9097C125.608 19.3185 125.766 19.1609 126.52 18.9187C128.496 18.3275 130.709 18.0122 132.849 18.0122C138.896 18.0122 141.272 21.4131 140.005 27.421L137.911 37.3872C137.793 37.939 137.596 38.1361 136.959 38.1361H133.48C132.81 38.1361 132.612 37.9784 132.567 37.3478L132.528 36.1597C130.946 37.8996 129.442 38.4908 127.23 38.4908C123.001 38.4908 120.901 35.4841 121.774 31.5708H121.779ZM129.645 33.9863C130.715 33.9863 131.779 33.5527 132.691 32.68L133.361 29.5944L130.197 29.9097C128.654 30.0674 127.984 30.6586 127.748 31.689C127.472 32.9953 128.142 33.9807 129.645 33.9807V33.9863Z" fill="#1A2732"/>
<path d="M160.062 21.1263V13.8233H158.874C158.615 13.8233 158.497 13.6826 158.497 13.4461V12.0609C158.497 11.8245 158.615 11.6837 158.874 11.6837H160.062V10.2591C160.062 8.04067 160.872 7.09473 162.989 7.09473C163.445 7.09473 163.918 7.15666 164.475 7.27491C164.774 7.33684 164.87 7.47198 164.87 7.69157V9.09923C164.87 9.31883 164.729 9.43707 164.475 9.39765C164.256 9.35824 163.941 9.33572 163.625 9.33572C162.995 9.33572 162.753 9.63414 162.753 10.3042V11.6893H164.397C164.633 11.6893 164.774 11.8076 164.774 12.0666V13.4517C164.774 13.6882 164.633 13.829 164.397 13.829H162.753V21.1319C162.753 21.3909 162.635 21.5091 162.376 21.5091H160.433C160.197 21.5091 160.056 21.3909 160.056 21.1319L160.062 21.1263Z" fill="white"/>
<path d="M166.909 21.1264V7.78741C166.909 7.5284 167.027 7.41016 167.286 7.41016H169.228C169.487 7.41016 169.605 7.5284 169.605 7.78741V21.132C169.605 21.391 169.487 21.5093 169.228 21.5093H167.286C167.049 21.5093 166.909 21.391 166.909 21.132V21.1264Z" fill="white"/>
<path d="M172.252 18.3165V12.0608C172.252 11.8244 172.37 11.6836 172.607 11.6836H174.566C174.803 11.6836 174.921 11.8244 174.921 12.0608V17.9392C174.921 19.0259 175.377 19.4651 176.289 19.4651C176.92 19.4651 177.635 19.2286 178.209 18.6149V12.0608C178.209 11.8244 178.328 11.6836 178.564 11.6836H180.524C180.76 11.6836 180.878 11.8244 180.878 12.0608V21.1262C180.878 21.3852 180.777 21.5034 180.524 21.5034H178.705C178.446 21.5034 178.35 21.4246 178.328 21.1262L178.266 20.4505C177.494 21.3007 176.447 21.6949 175.276 21.6949C173.418 21.6949 172.247 20.7264 172.247 18.3108L172.252 18.3165Z" fill="white"/>
<path d="M183.339 16.4361C183.339 13.0295 184.865 11.5093 187.117 11.5093C188.322 11.5093 189.257 11.9259 189.966 12.6973L190.006 12.0667C190.028 11.7908 190.147 11.6895 190.4 11.6895H192.202C192.438 11.6895 192.579 11.8302 192.579 12.0667V21.8865C192.579 24.5611 191.689 25.8843 188.063 25.8843C186.937 25.8843 185.986 25.7829 184.978 25.6478C184.679 25.6084 184.6 25.4676 184.6 25.1917V23.8066C184.6 23.4913 184.741 23.3505 185.135 23.4124C185.969 23.5701 186.875 23.6489 187.945 23.6489C189.55 23.6489 189.888 23.0971 189.888 22.0048V20.7773C189.133 21.4304 188.283 21.7063 187.314 21.7063C184.803 21.7063 183.333 20.1241 183.333 16.4417L183.339 16.4361ZM188.108 19.4654C188.739 19.4654 189.313 19.3246 189.888 18.9136V14.5386C189.313 13.9642 188.66 13.7277 188.046 13.7277C186.841 13.7277 186.104 14.5217 186.104 16.56C186.104 18.5982 186.796 19.471 188.103 19.471L188.108 19.4654Z" fill="white"/>
<path d="M195.293 21.1264V7.78741C195.293 7.5284 195.411 7.41016 195.67 7.41016H197.613C197.872 7.41016 197.99 7.5284 197.99 7.78741V12.6579C198.761 11.864 199.792 11.5093 200.918 11.5093C202.776 11.5093 203.964 12.4608 203.964 14.8764V21.132C203.964 21.391 203.846 21.5093 203.587 21.5093H201.644C201.408 21.5093 201.267 21.391 201.267 21.132V15.2536C201.267 14.1669 200.834 13.7277 199.899 13.7277C199.268 13.7277 198.553 13.9642 197.979 14.5779V21.132C197.979 21.391 197.861 21.5093 197.602 21.5093H195.659C195.422 21.5093 195.282 21.391 195.282 21.132L195.293 21.1264Z" fill="white"/>
<path d="M206.16 18.8287C206.16 16.9256 207.089 15.9965 209.741 15.6812L211.92 15.4222C211.881 14.2735 211.329 13.8175 210.017 13.8175C208.986 13.8175 208.057 13.9582 207.106 14.2116C206.886 14.251 206.751 14.1497 206.751 13.9526V12.4098C206.751 12.1508 206.852 12.072 207.089 11.9931C208.159 11.6553 209.167 11.4976 210.434 11.4976C213.226 11.4976 214.55 12.742 214.55 15.3377V21.1373C214.55 21.3738 214.448 21.492 214.212 21.492H212.41C212.173 21.492 212.072 21.4132 212.055 21.1373L211.993 20.2645C211.318 21.1936 210.253 21.6722 209.065 21.6722C207.264 21.6947 206.154 20.563 206.154 18.8231L206.16 18.8287ZM207.371 8.75553C207.371 7.88278 208.001 7.26904 208.834 7.26904C209.668 7.26904 210.298 7.89967 210.298 8.75553C210.298 9.61139 209.668 10.2195 208.834 10.2195C208.001 10.2195 207.371 9.54382 207.371 8.75553ZM210.039 19.724C210.631 19.724 211.346 19.5044 211.943 19.0314V17.0889L210.282 17.269C209.195 17.3704 208.699 17.742 208.699 18.5134C208.699 19.2848 209.116 19.7184 210.045 19.7184L210.039 19.724ZM211.211 8.75553C211.211 7.88278 211.824 7.26904 212.675 7.26904C213.525 7.26904 214.122 7.89967 214.122 8.75553C214.122 9.61139 213.491 10.2195 212.675 10.2195C211.858 10.2195 211.211 9.54382 211.211 8.75553Z" fill="white"/>
<path d="M217.939 21.1263V13.8233H216.751C216.492 13.8233 216.374 13.6826 216.374 13.4461V12.0609C216.374 11.8245 216.492 11.6837 216.751 11.6837H217.939V10.2591C217.939 8.04067 218.75 7.09473 220.867 7.09473C221.323 7.09473 221.796 7.15666 222.353 7.27491C222.651 7.33684 222.747 7.47198 222.747 7.69157V9.09923C222.747 9.31883 222.606 9.43707 222.353 9.39765C222.133 9.35824 221.818 9.33572 221.503 9.33572C220.872 9.33572 220.63 9.63414 220.63 10.3042V11.6893H222.274C222.511 11.6893 222.651 11.8076 222.651 12.0666V13.4517C222.651 13.6882 222.511 13.829 222.274 13.829H220.63V21.1319C220.63 21.3909 220.512 21.5091 220.253 21.5091H218.311C218.074 21.5091 217.933 21.3909 217.933 21.1319L217.939 21.1263Z" fill="white"/>
<path d="M223.998 16.5768C223.998 13.1703 225.738 11.5093 228.514 11.5093C231.289 11.5093 232.827 13.1703 232.827 16.3404V16.971C232.827 17.2075 232.725 17.3257 232.489 17.3257H226.729C226.886 18.8685 227.658 19.5442 229.46 19.5442C230.27 19.5442 231.121 19.4034 232.055 19.1275C232.314 19.0262 232.489 19.1669 232.489 19.364V20.8111C232.489 21.0476 232.449 21.1658 232.151 21.2446C231.239 21.5431 230.152 21.7007 229.24 21.7007C225.636 21.7007 223.992 20.0397 223.992 16.5712L223.998 16.5768ZM226.729 15.6647H230.372C230.332 14.1219 229.758 13.4462 228.632 13.4462C227.506 13.4462 226.869 14.1219 226.729 15.6647Z" fill="white"/>
<path d="M235.101 21.1264V12.0611C235.101 11.8246 235.242 11.6838 235.478 11.6838H237.28C237.517 11.6838 237.635 11.7458 237.657 12.0386L237.719 12.7536C238.513 11.8809 239.561 11.5093 240.726 11.5093C242.584 11.5093 243.772 12.4609 243.772 14.8764V21.132C243.772 21.391 243.654 21.5093 243.395 21.5093H241.452C241.216 21.5093 241.075 21.391 241.075 21.132V15.2536C241.075 14.1669 240.642 13.7277 239.707 13.7277C239.076 13.7277 238.361 13.9642 237.787 14.578V21.132C237.787 21.391 237.669 21.5093 237.41 21.5093H235.467C235.231 21.5093 235.09 21.391 235.09 21.132L235.101 21.1264Z" fill="white"/>
<path d="M160.062 42.4891V35.1861H158.874C158.615 35.1861 158.497 35.0454 158.497 34.8089V33.4237C158.497 33.1872 158.615 33.0465 158.874 33.0465H160.062V31.6219C160.062 29.4035 160.872 28.4575 162.989 28.4575C163.445 28.4575 163.918 28.5195 164.475 28.6377C164.774 28.6996 164.87 28.8348 164.87 29.0544V30.462C164.87 30.6816 164.729 30.7999 164.475 30.7604C164.256 30.721 163.941 30.6985 163.625 30.6985C162.995 30.6985 162.753 30.9969 162.753 31.667V33.0521H164.397C164.633 33.0521 164.774 33.1704 164.774 33.4294V34.8145C164.774 35.051 164.633 35.1918 164.397 35.1918H162.753V42.4947C162.753 42.7537 162.635 42.8719 162.376 42.8719H160.433C160.197 42.8719 160.056 42.7537 160.056 42.4947L160.062 42.4891Z" fill="white"/>
<path d="M166.65 39.6738V33.4181C166.65 33.1816 166.768 33.0409 167.004 33.0409H168.964C169.2 33.0409 169.319 33.1816 169.319 33.4181V39.2965C169.319 40.3832 169.775 40.8224 170.687 40.8224C171.317 40.8224 172.033 40.5859 172.607 39.9722V33.4181C172.607 33.1816 172.725 33.0409 172.962 33.0409H174.921C175.158 33.0409 175.276 33.1816 175.276 33.4181V42.4834C175.276 42.7425 175.174 42.8607 174.921 42.8607H173.102C172.843 42.8607 172.748 42.7819 172.725 42.4834L172.663 41.8078C171.892 42.658 170.844 43.0521 169.673 43.0521C167.815 43.0521 166.644 42.0837 166.644 39.6681L166.65 39.6738ZM167.641 30.113C167.641 29.2402 168.271 28.6265 169.105 28.6265C169.938 28.6265 170.569 29.2571 170.569 30.113C170.569 30.9688 169.938 31.5769 169.105 31.5769C168.271 31.5769 167.641 30.9012 167.641 30.113ZM171.481 30.113C171.481 29.2402 172.094 28.6265 172.945 28.6265C173.795 28.6265 174.392 29.2571 174.392 30.113C174.392 30.9688 173.761 31.5769 172.945 31.5769C172.128 31.5769 171.481 30.9012 171.481 30.113Z" fill="white"/>
<path d="M178.012 42.489V33.4236C178.012 33.1872 178.131 33.0464 178.39 33.0464H180.191C180.428 33.0464 180.546 33.1083 180.568 33.4011L180.63 34.3527C181.244 33.3617 182.156 32.8662 183.44 32.8662C183.716 32.8662 183.834 32.9845 183.834 33.2209V34.9439C183.834 35.2029 183.755 35.2986 183.457 35.3212C182.409 35.3831 181.514 35.659 180.704 36.391V42.489C180.704 42.748 180.585 42.8662 180.326 42.8662H178.384C178.148 42.8662 178.007 42.748 178.007 42.489H178.012Z" fill="white"/>
<path d="M190.501 42.4889C190.202 42.4101 190.107 42.2693 190.107 41.9765V40.4731C190.107 40.1747 190.264 39.9776 190.619 40.0959C191.886 40.4731 193.052 40.7096 194.082 40.7096C195.371 40.7096 195.963 40.276 195.963 39.3019C195.963 38.4292 195.507 37.9562 194.2 37.579L193.288 37.32C191.092 36.6893 190.079 35.3774 190.079 33.3785C190.079 30.9067 191.565 29.6792 194.651 29.6792C195.721 29.6792 196.712 29.8763 197.776 30.2535C198.074 30.3549 198.17 30.49 198.17 30.7659V32.151C198.17 32.4664 198.029 32.624 197.657 32.5283C196.053 32.151 195.383 32.0328 194.628 32.0328C193.44 32.0328 192.888 32.4889 192.888 33.3785C192.888 34.133 193.266 34.5441 194.454 34.9213L195.287 35.1803C197.719 35.9517 198.75 37.1004 198.75 39.2794C198.75 41.9146 197.325 43.0576 194.296 43.0576C192.99 43.0576 191.841 42.8774 190.495 42.4833L190.501 42.4889Z" fill="white"/>
<path d="M200.738 30.1128C200.738 29.2007 201.368 28.5869 202.263 28.5869C203.159 28.5869 203.789 29.2007 203.789 30.1128C203.789 31.025 203.136 31.6556 202.263 31.6556C201.391 31.6556 200.738 30.9799 200.738 30.1128ZM200.895 42.4889V33.4236C200.895 33.1871 201.014 33.0464 201.273 33.0464H203.215C203.474 33.0464 203.592 33.1871 203.592 33.4236V42.4889C203.592 42.7479 203.474 42.8662 203.215 42.8662H201.273C201.036 42.8662 200.895 42.7479 200.895 42.4889Z" fill="white"/>
<path d="M205.828 37.9338C205.828 34.5272 207.568 32.8662 210.344 32.8662C213.12 32.8662 214.657 34.5272 214.657 37.6973V38.3279C214.657 38.5644 214.555 38.6827 214.319 38.6827H208.559C208.716 40.2254 209.488 40.9011 211.29 40.9011C212.1 40.9011 212.951 40.7604 213.885 40.4845C214.144 40.3831 214.319 40.5239 214.319 40.7209V42.168C214.319 42.4045 214.279 42.5227 213.981 42.6016C213.069 42.9 211.982 43.0577 211.07 43.0577C207.466 43.0577 205.822 41.3966 205.822 37.9281L205.828 37.9338ZM208.559 37.0216H212.202C212.162 35.4788 211.588 34.8031 210.462 34.8031C209.336 34.8031 208.7 35.4788 208.559 37.0216Z" fill="white"/>
<path d="M159.516 51.2388H232.821C233.097 51.2388 233.215 51.357 233.215 51.6554V52.455C233.215 52.7309 233.074 52.8491 232.821 52.8491H159.516C159.24 52.8491 159.122 52.7309 159.122 52.455V51.6554C159.122 51.357 159.262 51.2388 159.516 51.2388Z" fill="white"/>
<path d="M265.997 49.7186C265.755 48.6263 264.859 47.8943 263.243 47.8943H256.436C255.788 47.3087 253.683 45.4056 251.374 43.3785C250.242 42.365 248.722 41.9821 247.585 42.427C247.14 42.6071 246.774 42.9337 246.633 43.2997C246.532 43.5418 246.554 43.7839 246.695 44.0486L249.51 48.4855L244.651 48.8684C244.347 48.5869 243.677 48.0182 242.523 47.0441C241.712 46.3571 240.315 45.811 239.06 46.4585C238.733 46.6218 238.474 46.9427 238.39 47.2693C238.328 47.5339 238.367 47.7986 238.491 48.0013C238.57 48.1421 241.368 52.945 241.368 52.945C241.47 53.1252 241.65 53.2716 241.875 53.2884C242.179 53.3279 244.567 53.7164 246.492 54.0204C247.77 54.2231 248.925 54.4033 249.268 54.4653C249.369 54.4878 249.493 54.4878 249.651 54.4878C251.109 54.4878 255.079 53.8797 261.278 52.8042C262.551 52.5846 263.497 52.4326 263.992 52.3594C264.73 52.2637 265.248 51.9146 265.631 51.3853C265.974 50.9011 266.115 50.293 265.997 49.7243V49.7186ZM263.902 50.9743C263.902 50.9743 262.072 51.2727 261.03 51.4416C257.585 52.0272 250.417 53.204 249.465 53.0632C249.099 53.0013 247.967 52.8211 246.689 52.6184C245.028 52.3538 243.187 52.0722 242.393 51.9484C241.419 50.2648 240.327 48.4236 239.859 47.6522C240.467 47.4495 241.154 47.7761 241.582 48.1364C243.266 49.5328 243.913 50.124 243.913 50.124C244.054 50.2648 244.24 50.3267 244.443 50.3042L250.76 49.7975C251.002 49.7749 251.228 49.6342 251.329 49.4146C251.43 49.195 251.43 48.9303 251.29 48.7276L248.131 43.7445C248.677 43.5644 249.628 43.7445 250.439 44.454C253.176 46.8639 255.648 49.1105 255.665 49.133C255.788 49.2569 255.946 49.3132 256.132 49.3132L263.778 49.3301C264.234 49.3301 264.6 49.7017 264.6 50.1578C264.6 50.5689 264.302 50.9067 263.908 50.9743H263.902Z" fill="white"/>
</g>
<defs>
<clipPath id="clip0_12237_3831">
<rect width="266.036" height="60" fill="white"/>
</clipPath>
</defs>
</svg>
