<?xml version="1.0" encoding="UTF-8"?>
<svg width="400pt" height="149.82pt" version="1.1" viewBox="0 0 400 149.82" xmlns="http://www.w3.org/2000/svg" xmlns:xlink="http://www.w3.org/1999/xlink">
 <defs>
  <clipPath id="clip-0">
   <path d="m155 51h7.8672v12h-7.8672z"/>
  </clipPath>
  <clipPath id="clip-1">
   <path d="m110 35.715h8v11.285h-8z"/>
  </clipPath>
  <clipPath id="clip-2">
   <path d="m96 35.715h11v11.285h-11z"/>
  </clipPath>
  <clipPath id="clip-3">
   <path d="m138 35.715h8v11.285h-8z"/>
  </clipPath>
  <clipPath id="clip-4">
   <path d="m148 35.715h9v11.285h-9z"/>
  </clipPath>
  <clipPath id="clip-5">
   <path d="m132 35.715h3v11.285h-3z"/>
  </clipPath>
  <clipPath id="clip-6">
   <path d="m121 35.715h8v11.285h-8z"/>
  </clipPath>
 </defs>
 <g fill="#1e243c" stroke-width="3.1459">
  <path d="m111.48 8.1547e-7 -48.565 149.82h18.163l48.578-149.82z"/>
  <path d="m134.96 8.1547e-7 -21.088 65.008v84.817h27.416v-149.82"/>
  <path d="m0 8.1547e-7v149.82h23.201v-89.72l27.896 89.72h6.5131l12.596-38.869-34.126-110.96"/>
  <path d="m199.07 71.508 3.49-13.886 3.4409 13.886zm8.172-19.957c-0.24577-0.86021-0.70046-1.2657-1.5852-1.2657h-5.9355c-0.8848 0-1.2903 0.40553-1.5361 1.2657l-8.5161 31.361c-0.19662 0.79878 0.0492 1.2535 0.93395 1.2535h4.1413c0.84792 0 1.2412-0.45468 1.4378-1.2535l1.5607-6.0707h9.5607l1.4869 6.0707c0.19662 0.79878 0.60215 1.2535 1.487 1.2535h4.5346c0.84792 0 1.0937-0.45468 0.89708-1.2535"/>
  <path d="m260.12 61.96c0 2.4823-2.0399 3.7235-5.3702 3.7235h-4.9401v-9.8065h4.9401c3.3303 0 5.3702 1.2412 5.3702 3.7358zm-5.3702-11.662h-10.47c-0.88479 0-1.192 0.39324-1.192 1.2903v31.275c0 0.89708 0.30723 1.3026 1.192 1.3026h4.3379c0.89708 0 1.192-0.40553 1.192-1.3026v-11.588h5.2227l4.8909 11.588c0.34409 0.79877 0.49155 1.3026 1.2412 1.3026h4.3871c0.88479 0 1.4869-0.50384 1.1428-1.3026l-5.321-12.596c3.9324-1.3886 5.4194-4.1905 5.4194-7.1152v-4.7312c0-4.1905-3.0353-8.1229-12.043-8.1229"/>
  <path d="m230.33 50.286h-4.3256c-0.89708 0-1.2043 0.40553-1.2043 1.3026v31.275c0 0.89708 0.30722 1.3026 1.2043 1.3026h4.3256c0.89709 0 1.2043-0.40553 1.2043-1.3026v-31.275c0-0.89708-0.30721-1.3026-1.2043-1.3026"/>
  <path d="m294.53 62.906c0 2.4332-2.0399 3.6743-5.3825 3.6743h-4.9278v-10.704h4.9278c3.3426 0 5.3825 1.2412 5.3825 3.7358zm-5.3825-12.621h-10.458c-0.89708 0-1.192 0.40553-1.192 1.3026v31.275c0 0.89708 0.29493 1.3026 1.192 1.3026h4.3256c0.90937 0 1.2043-0.40553 1.2043-1.3026v-10.716h4.9278c9.0077 0 12.055-3.9324 12.055-8.1106v-5.616c0-4.1905-3.0476-8.1352-12.055-8.1352"/>
 </g>
 <g transform="matrix(3.1459 0 0 3.1459 -112.37 -112.36)" clip-path="url(#clip-0)">
  <path d="m162.47 51.699h-6.6484c-0.28516 0-0.39844 0.10156-0.39844 0.38672v0.99219c0 0.28516 0.11328 0.39844 0.39844 0.39844h2.2461v8.5781c0 0.28516 0.10938 0.41406 0.39844 0.41406h1.375c0.28516 0 0.37891-0.12891 0.37891-0.41406v-8.5781h2.25c0.26562 0 0.39453-0.11328 0.39453-0.39844v-0.99219c0-0.28516-0.12891-0.38672-0.39453-0.38672" fill="#1e243c"/>
 </g>
 <path d="m362.46 61.96c0 2.4823-2.0399 3.7235-5.3702 3.7235h-4.9278v-9.8065h4.9278c3.3303 0 5.3702 1.2412 5.3702 3.7358zm-5.3702-11.662h-10.458c-0.89708 0-1.192 0.39324-1.192 1.2903v31.275c0 0.89708 0.29493 1.3026 1.192 1.3026h4.3379c0.89708 0 1.192-0.40553 1.192-1.3026v-11.588h5.235l4.8664 11.588c0.35637 0.79877 0.50384 1.3026 1.2412 1.3026h4.3871c0.90937 0 1.4992-0.50384 1.1552-1.3026l-5.3333-12.596c3.9324-1.3886 5.4194-4.1905 5.4194-7.1152v-4.7312c0-4.1905-3.023-8.1229-12.043-8.1229" fill="#1e243c" stroke-width="3.1459"/>
 <path d="m327.78 75.257c0 2.4823-2.0399 3.7235-5.3825 3.7235-3.3303 0-5.321-1.2412-5.321-3.7235v-16.049c0-2.4823 1.9908-3.7235 5.321-3.7235 3.3426 0 5.3825 1.2412 5.3825 3.7235zm-5.3825-25.364c-9.0077 0-12.104 3.9324-12.104 8.1352v18.421c0 4.1782 3.0968 8.1106 12.104 8.1106 9.02 0 12.117-3.9324 12.117-8.1106v-18.421c0-4.2028-3.0968-8.1352-12.117-8.1352" fill="#1e243c" stroke-width="3.1459"/>
 <g transform="matrix(3.1459 0 0 3.1459 -112.37 -112.36)" clip-path="url(#clip-1)">
  <path d="m117.71 44.156v-7.9023c0-0.28516-0.0781-0.41016-0.36719-0.41016h-1.375c-0.28516 0-0.37891 0.125-0.37891 0.41016v7.5195c0 0.79297-0.66406 1.1875-1.7266 1.1875s-1.6914-0.39453-1.6914-1.1875v-7.5195c0-0.28516-0.11329-0.41016-0.38282-0.41016h-1.3789c-0.28125 0-0.39453 0.125-0.39453 0.41016v7.9023c0 1.3281 0.98046 2.5781 3.8476 2.5781 2.8633 0 3.8477-1.25 3.8477-2.5781" fill="#1e243c"/>
 </g>
 <g transform="matrix(3.1459 0 0 3.1459 -112.37 -112.36)" clip-path="url(#clip-2)">
  <path d="m106.11 35.844h-1.3594c-0.20703 0-0.30078 0.04687-0.36328 0.19141l-2.6641 6.5859-2.7969-6.5547c-0.066406-0.14062-0.14453-0.22266-0.35156-0.22266h-1.3125c-0.28516 0-0.37891 0.125-0.37891 0.39453v9.9727c0 0.26953 0.09375 0.39453 0.37891 0.39453h1.25c0.28516 0 0.37891-0.125 0.37891-0.39453v-5.7891l1.7109 4.1562c0.0937 0.24219 0.23828 0.40234 0.5039 0.40234h1.125c0.26953 0 0.42969-0.14453 0.52344-0.40234l1.6602-4.207v5.8398c0 0.26953 0.0977 0.39453 0.38281 0.39453h1.3125c0.28516 0 0.38281-0.125 0.38281-0.39453v-9.9727c0-0.26953-0.0977-0.39453-0.38281-0.39453" fill="#1e243c"/>
 </g>
 <g transform="matrix(3.1459 0 0 3.1459 -112.37 -112.36)" clip-path="url(#clip-3)">
  <path d="m145.62 43.176c0-0.28516-0.0937-0.40234-0.36328-0.40234h-1.3125c-0.28516 0-0.39844 0.11719-0.39844 0.40234v0.59766c0 0.79297-0.55469 1.1875-1.6133 1.1875-1.0625 0-1.6016-0.39453-1.6016-1.1875v-5.0977c0-0.78906 0.53907-1.1875 1.6016-1.1875 1.0586 0 1.6133 0.39844 1.6133 1.1875v0.38281c0 0.28125 0.11328 0.39062 0.39844 0.39062h1.3125c0.26953 0 0.36328-0.10938 0.36328-0.39062v-0.75781c0-1.332-0.85547-2.5859-3.7188-2.5859-2.8672 0-3.7227 1.2539-3.7227 2.5859v5.8555c0 1.3281 0.85547 2.5781 3.7227 2.5781 2.8633 0 3.7188-1.25 3.7188-2.5781" fill="#1e243c"/>
 </g>
 <g transform="matrix(3.1459 0 0 3.1459 -112.37 -112.36)" clip-path="url(#clip-4)">
  <path d="m156.48 46.195v-9.9414c0-0.28516-0.0937-0.41016-0.38281-0.41016h-1.375c-0.28516 0-0.37891 0.125-0.37891 0.41016v3.9414h-3.418v-3.9414c0-0.28516-0.0977-0.41016-0.38281-0.41016h-1.375c-0.28515 0-0.38281 0.125-0.38281 0.41016v9.9414c0 0.28516 0.0977 0.41406 0.38281 0.41406h1.375c0.28516 0 0.38281-0.12891 0.38281-0.41406v-4.2266h3.418v4.2266c0 0.28516 0.0937 0.41406 0.37891 0.41406h1.375c0.28906 0 0.38281-0.12891 0.38281-0.41406" fill="#1e243c"/>
 </g>
 <g transform="matrix(3.1459 0 0 3.1459 -112.37 -112.36)" clip-path="url(#clip-5)">
  <path d="m134.73 46.195v-9.9414c0-0.28516-0.0937-0.41016-0.38281-0.41016h-1.375c-0.28516 0-0.37891 0.125-0.37891 0.41016v9.9414c0 0.28516 0.0937 0.41406 0.37891 0.41406h1.375c0.28906 0 0.38281-0.12891 0.38281-0.41406" fill="#1e243c"/>
 </g>
 <g transform="matrix(3.1459 0 0 3.1459 -112.37 -112.36)" clip-path="url(#clip-6)">
  <path d="m127.34 46.609h1.25c0.28125 0 0.3789-0.12891 0.3789-0.39844v-9.9727c0-0.26953-0.0977-0.39453-0.3789-0.39453h-1.25c-0.28516 0-0.38281 0.125-0.38281 0.39453v6.1914l-3.7188-6.4297c-0.0625-0.10938-0.16016-0.15625-0.33204-0.15625h-1.25c-0.28906 0-0.3789 0.125-0.3789 0.39453v9.9727c0 0.26953 0.0898 0.39844 0.3789 0.39844h1.25c0.28516 0 0.37891-0.12891 0.37891-0.39844v-6.1562l3.6875 6.3594c0.082 0.14453 0.16016 0.19531 0.36719 0.19531" fill="#1e243c"/>
 </g>
</svg>
