<svg width="85" height="34" viewBox="0 0 85 34" fill="none" xmlns="http://www.w3.org/2000/svg">
<path d="M25.1043 0C24.7618 0 24.1452 0.214147 23.6486 0.543605C23.0834 0.906008 22.0215 1.86143 22.0215 1.86143L17.0891 1.21899L15.9245 2.25678L20.1376 3.52519C20.1376 3.52519 19.2642 4.31589 18.7675 4.8595C18.3394 5.27132 17.7228 5.96318 17.7228 5.96318L15.8903 5.7655L15.2566 6.32558L17.1919 7.28101L18.014 9.20833L18.6476 8.63178L18.5791 6.88566C18.5791 6.88566 19.3669 6.34205 19.8122 5.97965C20.4288 5.51841 21.3194 4.76066 21.3194 4.76066L22.2784 8.89535L23.4773 7.85756L23.2204 3.0969C23.2204 3.0969 24.3165 2.15795 24.7446 1.66376C25.2584 1.05426 25.5496 0.247093 25.3783 0.0494186C25.3098 0.0164729 25.2242 0 25.1043 0Z" fill="#0C65AA"/>
<path d="M15.8676 7.79166C14.3486 9.19593 12.2516 11.5089 10.8977 13.4583H12.7139C13.8697 11.8723 15.4878 9.97241 16.7097 8.73335L16.462 8.10555L15.8676 7.79166Z" fill="#0C65AA"/>
<path d="M5.67666 21.9583C3.25534 28.1494 4.13739 33.0081 8.59954 33.8693C14.4799 34.9905 23.2312 28.7182 28.3333 21.9583H27.7279C22.1243 29.1732 14.3934 34.1618 9.74101 32.9268C5.98797 31.9356 5.45182 27.6782 7.6656 21.9583H5.67666Z" fill="#0C65AA"/>
<path fill-rule="evenodd" clip-rule="evenodd" d="M0 12.0417V20.3965H1.8161V16.7289H5.00699V20.3965H6.82309V12.0417H4.99002V15.3474H1.8161V12.0417H0ZM23.7109 12.0417V19.2123C23.7109 19.4097 23.7024 19.6029 23.6939 19.7961L23.6939 19.7962C23.6854 19.9894 23.6769 20.1827 23.6769 20.3801H25.4082L25.4195 20.2814C25.4495 20.0217 25.478 19.775 25.493 19.5413C25.7816 20.0676 26.2398 20.3472 26.749 20.4787C26.9188 20.5116 27.0885 20.5445 27.2922 20.5445C28.9895 20.5445 29.8041 18.9492 29.8041 17.469C29.8041 15.923 28.9046 14.3935 27.0885 14.3935C26.9867 14.3935 26.8678 14.41 26.766 14.4429C26.2738 14.5415 25.7985 14.8376 25.493 15.2652V12.0417H23.7109ZM49.0345 20.3965L52.0557 12.0417H54.1943L57.1306 20.3965H55.2975L54.6865 18.6203H51.3768L50.7658 20.3965H49.0345ZM57.3172 12.0417V13.5383H59.1842V12.0417H57.3172ZM81.9448 13.4561L83.6761 12.8311V14.5909H85V15.7421H83.693V18.4558C83.693 19.2288 83.8119 19.4426 84.4229 19.4426C84.5142 19.4426 84.6015 19.4308 84.6906 19.4187C84.7837 19.4061 84.8789 19.3933 84.983 19.3933V20.4129C84.7793 20.4952 83.8458 20.5774 83.5912 20.5774C82.2334 20.5774 81.9448 19.8702 81.9448 18.6038V15.7586H80.7567V14.6073H81.9448V13.4561ZM53.0913 13.6699L54.2284 17.2223H53.0403H51.8353L53.0403 13.7521L53.0913 13.6699ZM10.0819 14.4182C10.0989 14.4141 10.1158 14.41 10.1328 14.41C10.1668 14.41 10.2007 14.41 10.2347 14.4429C11.4058 14.4429 12.7127 14.8705 12.7127 16.6138V19.7715C12.7127 19.9836 12.742 20.1294 12.7709 20.2736L12.7709 20.2736L12.7709 20.2736L12.7709 20.2737L12.7709 20.2737L12.771 20.2737L12.771 20.2737L12.771 20.2737L12.771 20.2737L12.771 20.2737L12.771 20.2738L12.771 20.2738L12.771 20.2738L12.771 20.2738L12.771 20.2738L12.771 20.2738C12.7802 20.3197 12.7894 20.3654 12.7976 20.413H11.2191C11.1682 20.1334 11.1512 19.8702 11.1512 19.64C10.8457 20.084 10.4892 20.3472 10.031 20.4787C9.81033 20.5281 9.58968 20.5774 9.33509 20.5774C8.23185 20.5774 7.43413 19.936 7.43413 18.8176C7.43413 18.4229 7.60386 17.4361 8.65617 16.9756C9.06352 16.7947 9.55574 16.7289 10.014 16.6796C10.3195 16.6467 10.659 16.6467 10.9305 16.6467H10.9305V16.104C10.9305 15.8737 10.7438 15.3968 10.1498 15.3968C10.1368 15.3968 10.1238 15.3957 10.111 15.3946C10.074 15.3916 10.0393 15.3887 10.014 15.4132C9.50482 15.4626 9.33509 15.9724 9.36903 16.2191H7.68872C7.70569 15.479 8.0112 15.0349 8.48645 14.7718C8.92774 14.5251 9.47087 14.4264 10.031 14.4264C10.0479 14.4264 10.0649 14.4223 10.0819 14.4182ZM17.1426 14.41C16.26 14.41 15.6999 14.7718 15.3265 15.2816V14.6073H13.5783V20.413H15.3265V16.9098C15.3434 16.0875 15.8187 15.5777 16.3958 15.5777C17.2444 15.5777 17.4311 16.2849 17.4311 16.9098V20.413H19.1793V16.9098C19.1963 16.0875 19.6715 15.5777 20.2147 15.5777C21.0803 15.5777 21.267 16.2849 21.267 16.9098V20.413H23.0152V16.9098C23.0152 16.4493 23.0152 15.9724 22.8454 15.5283C22.6078 14.8869 21.6404 14.41 20.9784 14.41C20.0958 14.41 19.5357 14.7718 18.9926 15.5283C18.772 14.8705 17.7875 14.41 17.1426 14.41ZM40.3444 17.3868C40.3444 15.9231 41.21 14.41 42.8394 14.41C43.0091 14.41 43.1619 14.4264 43.2807 14.4429C43.8069 14.5251 44.1633 14.7882 44.3839 15.2652L44.4009 14.5909H46.1491V19.8702C46.1491 21.2024 45.8436 22.699 43.2977 22.6661H43.2807C41.9908 22.6497 40.6329 22.3372 40.582 20.7912H42.2454C42.2623 21.3011 42.7206 21.4984 43.1958 21.4984H43.2807C44.5367 21.4655 44.4858 20.2814 44.4009 19.4755C44.1293 19.8867 43.722 20.1334 43.2807 20.2156C43.111 20.2649 42.9412 20.2814 42.7376 20.2814C41.1591 20.2814 40.3444 18.7848 40.3444 17.3868ZM67.2297 14.41C67.0939 14.41 66.992 14.4264 66.8732 14.4593C66.381 14.558 65.9227 14.854 65.6342 15.2816L65.6003 14.6073H63.8351C63.8418 14.7563 63.8537 14.9053 63.8658 15.0553C63.8843 15.2861 63.903 15.5193 63.903 15.7586V22.6168H65.6342L65.6512 19.5742C65.9397 20.1005 66.364 20.3801 66.8902 20.5116C67.0599 20.5445 67.2466 20.5774 67.4503 20.5774C69.1476 20.5774 69.9623 18.9821 69.9623 17.5019C69.9453 15.9395 69.0288 14.41 67.2297 14.41ZM70.2845 17.4855C70.2845 15.6764 71.4387 14.41 73.3396 14.41C75.2576 14.41 76.3778 15.6764 76.3778 17.4855C76.3778 19.311 75.2576 20.561 73.3396 20.561C71.4387 20.561 70.2845 19.311 70.2845 17.4855ZM40.1917 14.5251C39.394 14.5251 38.7151 14.7882 38.3417 15.6435L38.3077 14.6073H36.7123C36.7203 14.8086 36.7358 15.0209 36.75 15.2149V15.215V15.215V15.2151C36.7659 15.4331 36.7802 15.6281 36.7802 15.7586V20.413H38.5284V17.5184C38.5284 17.1401 38.5793 16.8276 38.766 16.4987C38.9527 16.2684 39.3261 16.104 39.6146 16.0875H40.3784V14.5415C40.3266 14.5164 40.2747 14.5201 40.2304 14.5232C40.2167 14.5242 40.2037 14.5251 40.1917 14.5251ZM61.6286 15.6435C62.002 14.7882 62.6809 14.5251 63.4787 14.5251C63.4911 14.5251 63.5036 14.5241 63.5163 14.5231C63.5556 14.52 63.5971 14.5167 63.6484 14.5415V16.0875H62.9016C62.6131 16.104 62.2227 16.2684 62.0529 16.4987C61.8662 16.8276 61.8323 17.1401 61.8153 17.5184V20.413H60.0841L60.0502 15.7586C60.0502 15.5119 60.0332 15.0349 60.0162 14.6073H61.6117L61.6286 15.6435ZM80.3495 14.5251C79.5348 14.5251 78.8728 14.7882 78.4994 15.6435L78.4485 14.6073H76.853C76.887 15.0349 76.9209 15.5119 76.9209 15.7586L76.9379 20.413H78.6691V17.5184C78.6691 17.1401 78.7031 16.8276 78.9068 16.4987C79.0765 16.2684 79.4499 16.104 79.7554 16.0875H80.5022V14.5415C80.4766 14.5167 80.4316 14.52 80.3892 14.5231C80.3754 14.5241 80.3619 14.5251 80.3495 14.5251ZM30.3305 18.3242V14.5909H32.0957V18.0611C32.0957 18.6532 32.2824 19.3933 33.1311 19.3933C33.6912 19.3933 34.1664 18.8999 34.1834 18.0611V14.5909H35.9316V19.3439C35.9316 19.6564 35.9486 20.0182 35.9995 20.3801H34.2513L34.1834 19.64C33.81 20.1827 33.2499 20.5445 32.3673 20.5445C31.8072 20.5445 30.67 20.1005 30.4663 19.2452C30.3475 18.8999 30.3305 18.538 30.3305 18.3242ZM57.3683 14.5909V20.3965H59.1165V14.5909H57.3683ZM26.7322 15.5612H26.6474C25.7648 15.627 25.4593 16.7125 25.4593 17.4855C25.4593 18.2749 25.7818 19.4097 26.7322 19.4097C27.8355 19.3933 27.9882 18.3736 27.9882 17.4855C27.9882 16.6138 27.8355 15.5612 26.7322 15.5612ZM43.2129 15.5612H43.2978C44.2483 15.5612 44.418 16.5316 44.418 17.4033C44.418 18.1598 44.2483 19.1137 43.2978 19.1137C42.3473 19.1137 42.1776 18.1598 42.1776 17.4033C42.1776 16.5645 42.3303 15.627 43.2129 15.5612ZM66.873 15.5612H66.7882C65.9226 15.627 65.634 16.7125 65.634 17.4855C65.634 18.2749 65.9395 19.4097 66.873 19.4097C67.9932 19.3933 68.146 18.3736 68.146 17.4855C68.146 16.6138 67.9932 15.5612 66.873 15.5612ZM73.238 15.5612H73.3399C74.4261 15.5612 74.5789 16.5645 74.5789 17.4855C74.5789 18.4065 74.4092 19.4097 73.3399 19.4097C72.2706 19.4097 72.1008 18.4065 72.1008 17.4855C72.1008 16.5974 72.2536 15.627 73.238 15.5612ZM10.9643 17.6499H10.7606C10.6869 17.6559 10.6042 17.6597 10.5174 17.6637C10.3647 17.6707 10.1993 17.6783 10.0478 17.6993C9.57253 17.7815 9.11426 17.9953 9.11426 18.5545C9.11426 19.0479 9.48766 19.3933 9.97987 19.3933C9.98836 19.3933 10.0011 19.3892 10.0138 19.3851C10.0265 19.3809 10.0393 19.3768 10.0478 19.3768C10.9304 19.3439 10.9643 18.3078 10.9643 17.6499Z" fill="#E0001B"/>
</svg>
