<svg xmlns="http://www.w3.org/2000/svg" width="40" height="40" viewBox="0 0 40 40">
  <g id="Group_7006" data-name="Group 7006" transform="translate(-211.269 -499.192)">
    <path id="Path_18881" data-name="Path 18881" d="M231.192,499.192a20,20,0,0,0,0,40,20,20,0,1,0,0-40Zm0,35.312a15.313,15.313,0,1,1,15.389-15.391A15.359,15.359,0,0,1,231.192,534.5Z" fill="#596fa2"/>
    <path id="Path_18882" data-name="Path 18882" d="M227.646,510.109l-3.9,1.56-1.561,3.9,3.9-1.56Z" transform="translate(6.274 6.274)" fill="#596fa2"/>
    <path id="Path_18883" data-name="Path 18883" d="M241.6,515.357a12.99,12.99,0,0,0-11.82-11.667v2.291h-2.345v-2.289a12.911,12.911,0,0,0-11.664,11.665h2.29V517.7h-2.291a12.991,12.991,0,0,0,11.665,11.821v-2.29h2.345v2.288A13.276,13.276,0,0,0,241.6,517.7h-2.286v-2.343ZM231.579,519.5l-9.911,3.965,3.965-9.911,9.909-3.963Z" transform="translate(2.585 2.585)" fill="#596fa2"/>
  </g>
</svg>
