<svg width="150" height="45" viewBox="0 0 150 45" fill="none" xmlns="http://www.w3.org/2000/svg">
<g id="logo 1" clip-path="url(#clip0_54_561)">
<g id="Group">
<path id="Vector" fill-rule="evenodd" clip-rule="evenodd" d="M50.3692 12.5705C50.3692 13.2327 50.4808 13.7984 50.7064 14.2651C50.9308 14.7331 51.2449 15.1162 51.6462 15.4145C52.0487 15.7128 52.5103 15.9314 53.0333 16.069C53.5551 16.2052 54.1231 16.2747 54.7346 16.2747C55.3936 16.2747 55.9551 16.1975 56.4218 16.0432C56.8885 15.8915 57.2654 15.6935 57.5551 15.4518C57.8301 15.2295 58.0459 14.9424 58.1833 14.6161C58.3115 14.3011 58.3756 13.9822 58.3756 13.6608C58.3756 12.9987 58.2269 12.5101 57.9295 12.1951C57.66 11.9002 57.3254 11.6725 56.9526 11.5304C56.2529 11.2785 55.5404 11.0644 54.818 10.8888C54.0064 10.687 53.0051 10.426 51.8154 10.102C51.0756 9.90909 50.4603 9.65452 49.9705 9.34081C49.5209 9.06254 49.1248 8.70543 48.8013 8.28652C48.5205 7.91808 48.3117 7.49974 48.1859 7.05352C48.0657 6.62027 48.0053 6.17252 48.0064 5.72281C48.0064 4.8511 48.1859 4.09767 48.5474 3.45995C48.9022 2.83077 49.3928 2.28912 49.9833 1.87467C50.5769 1.45552 51.2526 1.14438 52.009 0.942524C52.7563 0.742336 53.5265 0.640765 54.3 0.640381C55.2 0.640381 56.0487 0.757381 56.8436 0.991381C57.6385 1.22538 58.3385 1.57638 58.9423 2.04438C59.5449 2.51238 60.0231 3.08838 60.3769 3.77367C60.7295 4.46024 60.9077 5.25481 60.9077 6.15867H57.8923C57.8128 5.04524 57.4346 4.25838 56.7603 3.7981C56.0846 3.3391 55.2231 3.10895 54.1795 3.10895C53.8244 3.10895 53.4628 3.14495 53.0936 3.21824C52.739 3.28523 52.3971 3.40803 52.0808 3.5821C51.7756 3.75052 51.5218 3.98067 51.3218 4.27124C51.1192 4.56181 51.0192 4.9231 51.0192 5.35895C51.0192 5.97352 51.209 6.45181 51.5859 6.79895C51.9641 7.14609 52.4577 7.40967 53.0692 7.58581C53.1333 7.60124 53.3872 7.67067 53.8295 7.79152C54.2718 7.91238 54.7654 8.04609 55.3128 8.19009C55.859 8.33667 56.3936 8.47681 56.9154 8.61438C57.4385 8.75195 57.8128 8.85224 58.0372 8.91781C58.6013 9.09524 59.0897 9.33695 59.509 9.64295C59.9269 9.94895 60.2756 10.3012 60.5577 10.6947C60.8348 11.0814 61.047 11.5109 61.1859 11.9662C61.3205 12.4175 61.3897 12.8701 61.3897 13.3214C61.3897 14.2895 61.1923 15.1162 60.8 15.8028C60.4051 16.4881 59.8872 17.0487 59.2436 17.4845C58.5747 17.9317 57.8313 18.2553 57.0487 18.4398C56.228 18.6416 55.386 18.7431 54.541 18.742C53.6046 18.7483 52.6717 18.6267 51.768 18.3807C50.9466 18.1614 50.176 17.7827 49.5 17.266C48.8454 16.7513 48.3173 16.0928 47.9564 15.3412C47.5718 14.5595 47.3705 13.6351 47.3539 12.5705H50.3692ZM62.141 5.81924H65.0603L67.4962 15.1612H67.5436L69.8833 5.81924H72.6564L74.9 15.1612H74.9487L77.4795 5.81924H80.2769L76.3705 18.3318H73.5487L71.2333 9.03867H71.1859L68.8949 18.3318H66.0013L62.141 5.81924ZM89.6667 10.9737C89.6351 10.5428 89.5413 10.1188 89.3885 9.71495C89.2453 9.32824 89.0324 8.97128 88.7603 8.66195C88.4891 8.35951 88.1616 8.11318 87.7962 7.93681C87.4011 7.74694 86.9675 7.65144 86.5295 7.65781C86.0474 7.65781 85.6103 7.74395 85.2154 7.91238C84.8329 8.07402 84.488 8.3135 84.2026 8.61567C83.9159 8.92224 83.6874 9.27863 83.5282 9.66738C83.3565 10.0821 83.2622 10.5248 83.25 10.9737H89.6654H89.6667ZM83.25 12.7891C83.25 13.2738 83.318 13.7405 83.4551 14.1931C83.5923 14.6444 83.7962 15.0391 84.0705 15.3785C84.3436 15.718 84.6885 15.988 85.1077 16.1885C85.5257 16.3904 86.0231 16.492 86.6026 16.492C87.4064 16.492 88.0526 16.3184 88.5436 15.9712C89.0346 15.6241 89.4 15.1047 89.641 14.4117H92.2462C92.1134 15.0583 91.8598 15.6738 91.4987 16.2258C91.1557 16.7463 90.7229 17.2013 90.2205 17.5694C89.7205 17.932 89.1628 18.2071 88.5436 18.3922C87.9135 18.579 87.2596 18.6726 86.6026 18.67C85.6218 18.67 84.7538 18.508 83.9974 18.1865C83.2667 17.8815 82.6122 17.4183 82.0808 16.8301C81.5455 16.2271 81.1428 15.5178 80.8987 14.7485C80.6252 13.8884 80.491 12.9898 80.5013 12.0871C80.5013 11.2 80.6423 10.3578 80.9231 9.55809C81.2051 8.76095 81.6064 8.05767 82.1282 7.45338C82.6513 6.84781 83.2821 6.36824 84.0218 6.01338C84.7615 5.65724 85.5974 5.47981 86.5295 5.47981C87.5103 5.47981 88.391 5.68681 89.1705 6.09695C89.9296 6.49173 90.5924 7.04972 91.1115 7.73109C91.6269 8.40867 92 9.18652 92.2333 10.0672C92.4667 10.9467 92.5282 11.8544 92.4141 12.7891H83.25ZM96.5167 12.208C96.5167 12.7415 96.5846 13.2661 96.7218 13.7804C96.8577 14.2985 97.068 14.7575 97.3487 15.1612C97.6295 15.5637 97.9872 15.8864 98.4218 16.1294C98.8564 16.3711 99.3705 16.492 99.9654 16.492C100.576 16.492 101.103 16.3634 101.545 16.1037C101.987 15.8465 102.349 15.5084 102.629 15.088C102.912 14.6688 103.121 14.197 103.258 13.6737C103.394 13.1478 103.463 12.6117 103.463 12.0627C103.463 10.6754 103.153 9.5941 102.533 8.8201C101.914 8.04609 101.074 7.65909 100.014 7.65909C99.3705 7.65909 98.8269 7.79281 98.3859 8.05767C97.95 8.31788 97.5787 8.67397 97.3 9.0991C97.018 9.52595 96.818 10.0107 96.6974 10.5494C96.5769 11.0907 96.5167 11.6422 96.5167 12.208ZM106.115 18.3305H103.51V16.6372H103.462C103.09 17.3637 102.551 17.8844 101.846 18.1994C101.14 18.5141 100.375 18.6754 99.6026 18.6725C98.6218 18.6725 97.7654 18.4977 97.0333 18.1505C96.3274 17.8236 95.7049 17.34 95.2128 16.7362C94.7154 16.1091 94.3468 15.3894 94.1282 14.6187C93.8818 13.7652 93.76 12.8804 93.7667 11.992C93.7667 10.8631 93.918 9.88595 94.2244 9.06438C94.5295 8.24152 94.9359 7.56267 95.4423 7.03038C95.9259 6.51352 96.5191 6.11233 97.1782 5.85652C97.8129 5.6103 98.4874 5.48347 99.168 5.48238C99.5526 5.48238 99.9487 5.5171 100.35 5.59038C100.751 5.66238 101.137 5.78067 101.506 5.94138C101.877 6.10338 102.219 6.30909 102.532 6.55852C102.846 6.80924 103.106 7.10238 103.317 7.44181H103.364V1.05181H106.114V18.3318L106.115 18.3305ZM116.128 12.064C115.71 12.3378 115.195 12.5024 114.585 12.559C113.973 12.6155 113.363 12.7004 112.751 12.8135C112.463 12.8611 112.181 12.9292 111.908 13.0192C111.635 13.1092 111.392 13.2288 111.183 13.3818C110.974 13.5361 110.812 13.738 110.69 13.9861C110.563 14.2713 110.501 14.5816 110.51 14.8938C110.501 15.1759 110.595 15.4516 110.774 15.6691C110.951 15.8787 111.164 16.0445 111.413 16.1641C111.663 16.2862 111.936 16.3698 112.233 16.42C112.531 16.4675 112.8 16.492 113.041 16.492C113.346 16.492 113.677 16.4521 114.029 16.3711C114.383 16.2901 114.718 16.1525 115.031 15.9597C115.344 15.7668 115.605 15.52 115.814 15.2217C116.023 14.9234 116.128 14.5557 116.128 14.1198V12.0627V12.064ZM118.877 15.5482C118.877 15.8864 118.922 16.1294 119.01 16.2747C119.099 16.42 119.272 16.4932 119.528 16.4932H119.818C119.931 16.4932 120.059 16.4765 120.204 16.4431V18.355C120.08 18.395 119.955 18.4315 119.829 18.4642C119.676 18.5028 119.519 18.5414 119.36 18.5735C119.066 18.6335 118.768 18.6658 118.468 18.67C117.904 18.67 117.438 18.5568 117.068 18.3305C116.699 18.1055 116.458 17.7095 116.345 17.1451C115.799 17.6774 115.127 18.0644 114.332 18.3074C113.536 18.5491 112.768 18.67 112.028 18.67C111.464 18.67 110.927 18.5928 110.413 18.4385C109.921 18.2984 109.459 18.0692 109.05 17.7622C108.653 17.4607 108.331 17.0713 108.109 16.6244C107.876 16.1641 107.759 15.628 107.759 15.0172C107.759 14.242 107.9 13.612 108.182 13.1272C108.448 12.6588 108.83 12.2673 109.291 11.9907C109.769 11.7084 110.291 11.5085 110.835 11.3992C111.405 11.2771 111.979 11.1832 112.559 11.119C113.056 11.0225 113.532 10.9544 113.982 10.9132C114.431 10.8747 114.828 10.804 115.174 10.7075C115.521 10.6111 115.794 10.462 115.995 10.2601C116.196 10.0582 116.297 9.75609 116.297 9.35238C116.297 8.99752 116.213 8.70695 116.044 8.48067C115.879 8.25901 115.664 8.08075 115.415 7.96124C115.153 7.83618 114.873 7.75455 114.585 7.71952C114.297 7.68027 114.007 7.66008 113.717 7.65909C112.945 7.65909 112.31 7.81981 111.81 8.14252C111.313 8.46652 111.031 8.96538 110.967 9.64295H108.218C108.265 8.83681 108.459 8.16695 108.796 7.63467C109.135 7.1011 109.565 6.67424 110.087 6.35152C110.609 6.02881 111.2 5.80381 111.859 5.67395C112.519 5.54538 113.194 5.4811 113.885 5.4811C114.496 5.4811 115.099 5.54538 115.694 5.67395C116.288 5.80252 116.823 6.01338 117.297 6.30395C117.772 6.59324 118.154 6.96995 118.444 7.42895C118.733 7.88795 118.877 8.44981 118.877 9.11067V15.5482ZM119.808 5.81924H122.799L125.956 15.4274H126.005L129.044 5.81924H131.89L127.428 18.3318H124.341L119.808 5.81924Z" fill="white"/>
<mask id="mask0_54_561" style="mask-type:alpha" maskUnits="userSpaceOnUse" x="0" y="0" width="150" height="45">
<g id="b">
<path id="Vector_2" d="M0 44.928H149.69V0H0V44.928Z" fill="white"/>
</g>
</mask>
<g mask="url(#mask0_54_561)">
<path id="Vector_3" fill-rule="evenodd" clip-rule="evenodd" d="M133.005 18.3318H135.755V5.81919H133.005V18.3318ZM133.005 3.66561H135.755V1.05176H133.005V3.66433V3.66561ZM145.614 12.0639C145.196 12.3378 144.681 12.5023 144.071 12.5589C143.459 12.6155 142.849 12.7003 142.237 12.8135C141.949 12.861 141.667 12.9292 141.394 13.0192C141.121 13.1092 140.879 13.2288 140.669 13.3818C140.46 13.536 140.296 13.7379 140.176 13.986C140.055 14.238 139.996 14.5402 139.996 14.8938C139.987 15.1758 140.081 15.4516 140.26 15.669C140.437 15.8786 140.65 16.0445 140.899 16.164C141.149 16.2862 141.421 16.3698 141.719 16.4199C142.017 16.4675 142.286 16.4919 142.527 16.4919C142.832 16.4919 143.163 16.452 143.515 16.371C143.869 16.29 144.204 16.1525 144.517 15.9596C144.829 15.7668 145.091 15.5199 145.3 15.2216C145.509 14.9233 145.614 14.5556 145.614 14.1198V12.0626V12.0639ZM148.363 15.5482C148.363 15.8863 148.408 16.1293 148.496 16.2746C148.585 16.4199 148.758 16.4932 149.014 16.4932H149.304C149.415 16.4932 149.545 16.4765 149.688 16.443V18.3549C149.565 18.3949 149.441 18.4314 149.315 18.4642C149.162 18.5028 149.005 18.5413 148.845 18.5735C148.551 18.6333 148.253 18.6656 147.954 18.6699C147.39 18.6699 146.924 18.5568 146.554 18.3305C146.185 18.1055 145.944 17.7095 145.831 17.145C145.285 17.6773 144.613 18.0643 143.818 18.3073C143.021 18.549 142.254 18.6699 141.514 18.6699C140.951 18.6699 140.412 18.5928 139.899 18.4385C139.407 18.2984 138.945 18.0692 138.536 17.7622C138.139 17.4606 137.817 17.0712 137.595 16.6243C137.362 16.164 137.245 15.6279 137.245 15.0172C137.245 14.2419 137.386 13.6119 137.668 13.1272C137.934 12.6587 138.316 12.2672 138.777 11.9906C139.255 11.7084 139.777 11.5085 140.321 11.3992C140.891 11.277 141.465 11.1832 142.045 11.1189C142.542 11.0225 143.018 10.9543 143.468 10.9132C143.917 10.8746 144.315 10.8039 144.662 10.7075C145.008 10.611 145.279 10.4619 145.482 10.26C145.682 10.0582 145.783 9.75604 145.783 9.35233C145.783 8.99747 145.699 8.7069 145.529 8.48062C145.365 8.25896 145.15 8.0807 144.901 7.96119C144.639 7.83613 144.359 7.7545 144.071 7.71947C143.783 7.6802 143.493 7.66001 143.203 7.65904C142.431 7.65904 141.795 7.81976 141.296 8.14247C140.799 8.46647 140.517 8.96533 140.453 9.6429H137.704C137.753 8.83676 137.945 8.1669 138.282 7.63462C138.621 7.10104 139.051 6.67419 139.573 6.35147C140.095 6.02876 140.686 5.80376 141.345 5.6739C142.005 5.54533 142.678 5.48104 143.371 5.48104C143.982 5.48104 144.585 5.54533 145.179 5.6739C145.774 5.80247 146.309 6.01333 146.783 6.3039C147.258 6.59319 147.64 6.9699 147.929 7.4289C148.218 7.8879 148.363 8.44976 148.363 9.11061V15.5482ZM52.9013 33.4325H58.1577L55.5782 26.0036H55.5051L52.9013 33.4325ZM53.9628 23.0259H57.1692L63.8013 40.3059H60.5705L58.9551 35.7313H52.0808L50.4654 40.3046H47.3539L53.9628 23.0259ZM64.7013 40.3046H67.45V27.7933H64.7013V40.3046ZM64.7013 25.6398H67.45V23.0259H64.7013V25.6398ZM69.7551 27.7933H72.3346V30.2143H72.3833C72.4641 29.8749 72.6205 29.5445 72.8538 29.2205C73.0859 28.899 73.368 28.6033 73.6974 28.3385C74.0269 28.071 74.3923 27.8576 74.7949 27.6956C75.1859 27.5369 75.6038 27.4553 76.0256 27.4552C76.3462 27.4552 76.568 27.4629 76.6885 27.4783C76.8077 27.495 76.9321 27.5118 77.0615 27.5272V30.1886C76.8692 30.1578 76.6718 30.1282 76.4718 30.1038C76.2752 30.0808 76.0774 30.0692 75.8795 30.069C75.4128 30.069 74.9756 30.1616 74.5654 30.3468C74.1551 30.5319 73.7974 30.8058 73.4923 31.1696C73.1872 31.5322 72.9462 31.9796 72.7692 32.5132C72.5829 33.1078 72.4933 33.7286 72.5039 34.3518V40.3046H69.7551V27.7933ZM88.0538 34.0612C88.0538 33.4955 87.9808 32.9478 87.8359 32.4155C87.7036 31.9095 87.4836 31.4307 87.1859 31.0012C86.9013 30.5941 86.5305 30.2552 86.1 30.0086C85.6437 29.7528 85.1278 29.6232 84.6051 29.6332C83.4474 29.6332 82.5744 30.0369 81.9885 30.8418C81.4013 31.6505 81.1077 32.7228 81.1077 34.0612C81.1077 34.6912 81.1846 35.2762 81.3372 35.8162C81.4897 36.3575 81.7192 36.8216 82.0244 37.2086C82.3295 37.5943 82.6949 37.9016 83.1218 38.1266C83.5474 38.3529 84.0423 38.466 84.6051 38.466C85.232 38.466 85.7628 38.3375 86.1962 38.079C86.6308 37.8206 86.9872 37.4863 87.2692 37.0749C87.5513 36.6635 87.7526 36.1942 87.8718 35.6709C87.9936 35.1476 88.0538 34.6102 88.0538 34.0612ZM78.4551 27.7933H81.0603V29.4879H81.1077C81.4936 28.7615 82.0321 28.2408 82.7231 27.927C83.4283 27.6095 84.1936 27.4485 84.9667 27.4552C85.9462 27.4552 86.8026 27.6275 87.5346 27.9759C88.2654 28.323 88.8731 28.7988 89.3551 29.403C89.8385 30.0073 90.2 30.7145 90.441 31.5206C90.6821 32.328 90.8026 33.1895 90.8026 34.11C90.8026 34.9496 90.6949 35.7635 90.4769 36.5542C90.2782 37.3068 89.9432 38.0163 89.4885 38.6473C89.0462 39.2516 88.4885 39.7363 87.8128 40.1002C87.1372 40.4628 86.341 40.644 85.4244 40.644C85.0231 40.644 84.6205 40.608 84.2192 40.536C83.821 40.4643 83.4324 40.346 83.0615 40.1838C82.6939 40.0245 82.349 39.817 82.0359 39.5666C81.7254 39.3203 81.4603 39.0213 81.2526 38.6833H81.2051V44.928H78.4551V27.7933ZM98.3038 38.466C98.9154 38.466 99.4449 38.3375 99.8962 38.079C100.346 37.8219 100.717 37.4825 101.005 37.0633C101.3 36.6328 101.516 36.1536 101.645 35.6478C101.918 34.596 101.918 33.4916 101.645 32.4399C101.519 31.9329 101.302 31.4532 101.005 31.0243C100.714 30.612 100.335 30.2696 99.8962 30.0215C99.4462 29.763 98.9154 29.6332 98.3038 29.6332C97.6923 29.6332 97.1628 29.7618 96.7128 30.0202C96.2736 30.2684 95.8945 30.6108 95.6026 31.023C95.3141 31.4358 95.1 31.9076 94.9641 32.4399C94.6917 33.4917 94.6917 34.5959 94.9641 35.6478C95.1 36.171 95.3141 36.6429 95.6026 37.062C95.8923 37.4825 96.2628 37.8206 96.7128 38.0778C97.1615 38.3375 97.6923 38.466 98.3038 38.466ZM98.3038 40.644C97.3077 40.644 96.4192 40.4782 95.6385 40.149C94.89 39.8392 94.216 39.3728 93.6615 38.781C93.1111 38.1808 92.6918 37.4718 92.4308 36.6995C92.1418 35.8425 91.9996 34.9426 92.0103 34.038C92.0103 33.0866 92.1513 32.2059 92.4321 31.3998C92.7141 30.5936 93.1231 29.898 93.6628 29.3182C94.2013 28.737 94.859 28.2819 95.6385 27.9502C96.4192 27.6198 97.3077 27.4552 98.3051 27.4552C99.3013 27.4552 100.19 27.6198 100.969 27.9502C101.718 28.2599 102.392 28.7263 102.946 29.3182C103.485 29.898 103.895 30.5936 104.177 31.3998C104.458 32.2059 104.6 33.0853 104.6 34.038C104.6 35.0049 104.458 35.8933 104.177 36.6995C103.916 37.4723 103.497 38.1818 102.946 38.7823C102.408 39.3609 101.749 39.8173 100.969 40.149C100.19 40.4782 99.3013 40.644 98.3038 40.644ZM106.338 27.7933H108.919V30.2143H108.968C109.047 29.8749 109.204 29.5445 109.438 29.2205C109.669 28.899 109.951 28.6033 110.281 28.3385C110.61 28.071 110.977 27.8576 111.379 27.6956C111.77 27.5371 112.188 27.4554 112.609 27.4552C112.929 27.4552 113.151 27.4629 113.272 27.4783C113.392 27.495 113.517 27.5118 113.646 27.5272V30.1886C113.454 30.1578 113.255 30.1282 113.055 30.1038C112.859 30.0809 112.662 30.0693 112.465 30.069C111.997 30.069 111.56 30.1616 111.15 30.3468C110.74 30.5319 110.382 30.8058 110.077 31.1696C109.771 31.5322 109.529 31.9796 109.354 32.5132C109.167 33.1077 109.077 33.7285 109.087 34.3518V40.3046H106.338V27.7933ZM114.859 27.7933H116.721V24.0429H119.471V27.7933H121.954V29.8505H119.471V36.5298C119.471 36.8203 119.482 37.0698 119.506 37.2806C119.531 37.4902 119.587 37.6676 119.676 37.8129C119.769 37.9625 119.908 38.0772 120.073 38.1395C120.25 38.2115 120.491 38.2488 120.796 38.2488C120.99 38.2488 121.182 38.2449 121.376 38.2359C121.568 38.2282 121.76 38.1999 121.953 38.151V40.2815L121.063 40.3779C120.766 40.4102 120.468 40.4265 120.169 40.4268C119.446 40.4268 118.863 40.3573 118.422 40.221C117.979 40.0835 117.633 39.8816 117.383 39.6155C117.127 39.3334 116.952 38.9861 116.878 38.6113C116.783 38.1574 116.73 37.6955 116.721 37.2318V29.8518H114.859V27.7933ZM125.812 36.288C125.891 37.0942 126.196 37.6599 126.728 37.9813C127.259 38.3053 127.894 38.466 128.633 38.466C128.89 38.466 129.185 38.4455 129.513 38.4056C129.842 38.3658 130.153 38.2886 130.442 38.1755C130.731 38.0623 130.968 37.8978 131.154 37.6792C131.337 37.4606 131.423 37.1752 131.406 36.8203C131.404 36.6565 131.368 36.4949 131.302 36.3451C131.236 36.1954 131.14 36.0605 131.021 35.9486C130.751 35.7063 130.435 35.5213 130.092 35.4048C129.672 35.2557 129.241 35.1384 128.803 35.0538C128.311 34.9553 127.82 34.8507 127.331 34.74C126.829 34.6313 126.334 34.4939 125.847 34.3286C125.391 34.1765 124.96 33.9558 124.569 33.6742C124.19 33.3985 123.881 33.0379 123.665 32.6212C123.44 32.1943 123.327 31.6659 123.327 31.0372C123.327 30.3596 123.494 29.79 123.822 29.331C124.152 28.8709 124.58 28.4905 125.076 28.2176C125.582 27.9348 126.145 27.738 126.764 27.6236C127.348 27.5144 127.941 27.458 128.536 27.4552C129.179 27.4552 129.795 27.5246 130.382 27.6609C130.968 27.7985 131.499 28.0209 131.972 28.3256C132.446 28.6342 132.841 29.0328 133.154 29.5239C133.469 30.0163 133.667 30.609 133.745 31.302H130.876C130.747 30.6412 130.445 30.1976 129.972 29.9713C129.461 29.7378 128.905 29.6222 128.344 29.6332C128.151 29.6332 127.921 29.6486 127.656 29.6808C127.401 29.7112 127.149 29.772 126.908 29.862C126.676 29.952 126.478 30.0806 126.318 30.2503C126.236 30.3399 126.172 30.4448 126.131 30.5591C126.089 30.6734 126.07 30.7948 126.076 30.9163C126.076 31.2532 126.192 31.5283 126.427 31.7392C126.659 31.9488 126.965 32.121 127.342 32.2586C127.721 32.3962 128.15 32.5132 128.633 32.6096C129.115 32.7073 129.614 32.8115 130.128 32.9246C130.627 33.0365 131.117 33.174 131.6 33.336C132.082 33.4968 132.512 33.714 132.89 33.9892C133.268 34.263 133.572 34.6102 133.806 35.0306C134.04 35.4498 134.155 35.9653 134.155 36.5786C134.155 37.3205 133.987 37.9505 133.65 38.466C133.314 38.9812 132.864 39.4119 132.335 39.7248C131.796 40.0475 131.197 40.2815 130.538 40.4268C129.897 40.5703 129.242 40.6436 128.585 40.6453C127.797 40.6453 127.069 40.5553 126.403 40.3779C125.777 40.2211 125.188 39.9462 124.665 39.5679C124.181 39.2113 123.785 38.747 123.509 38.2115C123.227 37.6715 123.078 37.0312 123.063 36.288H125.812Z" fill="white"/>
<path id="Vector_4" fill-rule="evenodd" clip-rule="evenodd" d="M22.6691 20.6769C22.6695 21.2486 22.5575 21.8148 22.3397 22.3431C22.1218 22.8714 21.8024 23.3515 21.3995 23.756C20.9966 24.1605 20.5183 24.4814 19.9917 24.7005C19.4652 24.9196 18.9008 25.0326 18.3307 25.0329C17.7606 25.0326 17.1962 24.9196 16.6696 24.7005C16.1431 24.4814 15.6647 24.1605 15.2619 23.756C14.859 23.3515 14.5395 22.8714 14.3217 22.3431C14.1038 21.8148 13.9919 21.2486 13.9922 20.6769C13.9922 19.5228 14.4492 18.4158 15.2628 17.5995C16.0763 16.7831 17.1798 16.3242 18.3307 16.3235C19.4816 16.3242 20.5851 16.7831 21.3986 17.5995C22.2121 18.4158 22.6691 19.5228 22.6691 20.6769ZM25.1435 3.57048C25.2679 3.76719 25.3615 4.01533 25.3615 4.30848V4.33419C25.3562 4.53661 25.3003 4.73446 25.1991 4.90965C25.0979 5.08485 24.9545 5.23179 24.782 5.33705L19.5422 8.69662V13.4345C19.5432 13.6097 19.5038 13.7828 19.427 13.9403C19.3503 14.0977 19.2384 14.2353 19.0999 14.3422C18.8773 14.5075 18.6077 14.5968 18.3307 14.5968C18.0537 14.5968 17.784 14.5075 17.5615 14.3422C17.4228 14.2352 17.3109 14.0974 17.2344 13.9397C17.1578 13.782 17.1188 13.6086 17.1204 13.4332V8.69662L11.882 5.33705C11.7085 5.23205 11.5642 5.08487 11.4625 4.90913C11.3607 4.73339 11.3048 4.53477 11.2999 4.33162V4.30719C11.3012 4.01533 11.3922 3.76719 11.5179 3.56662C11.7102 3.27219 12.0615 2.95719 12.5858 2.94562H12.5986C12.8268 2.94562 13.0627 3.01762 13.273 3.15262L17.1204 5.61991V1.18162V1.18676C17.1179 1.17391 17.1204 1.16491 17.1204 1.16491V1.15976C17.1204 0.777906 17.3102 0.437191 17.5627 0.252048C17.7849 0.0861283 18.055 -0.00237172 18.332 4.83437e-05C18.5743 4.83437e-05 18.8486 0.0643341 19.0999 0.252048C19.3525 0.437191 19.5422 0.779191 19.5422 1.15976V5.61991L23.3884 3.15391C23.5886 3.02117 23.8227 2.94888 24.0627 2.94562H24.0704C24.5961 2.95333 24.9525 3.27219 25.1435 3.56919V3.57048ZM6.97171 6.20362C7.20505 6.19591 7.46402 6.23705 7.71915 6.38233L7.74094 6.39519C8.04864 6.57519 8.30505 6.95062 8.31658 7.40191L8.59735 13.6338L12.6666 15.9943C12.6717 15.9956 12.6768 15.9995 12.6833 16.0033C13.014 16.1962 13.2127 16.5279 13.2461 16.8416C13.279 17.1185 13.2204 17.3985 13.0794 17.6388C12.9427 17.8787 12.7322 18.0677 12.4794 18.1775C12.3177 18.2445 12.1427 18.2731 11.9681 18.2611C11.7935 18.2491 11.624 18.1967 11.473 18.108L11.4576 18.1003L11.4563 18.099L7.38582 15.741L1.8653 18.6133C1.68783 18.7112 1.48867 18.7627 1.28614 18.7632C1.08362 18.7636 0.884231 18.713 0.706328 18.6159C0.698636 18.6095 0.689662 18.6069 0.684533 18.603C0.459741 18.4699 0.276733 18.2761 0.156328 18.0438C-0.00264599 17.7275 -0.0987998 17.2659 0.155046 16.8056L0.158892 16.7953V16.7928C0.282279 16.5867 0.461439 16.4199 0.675559 16.3119L4.72812 14.2033L0.911457 11.988L0.897354 11.9816L0.902482 11.9842C0.893508 11.979 0.883251 11.9752 0.880687 11.9713C0.728899 11.8843 0.599089 11.7634 0.50128 11.6181C0.403471 11.4727 0.340279 11.3068 0.316585 11.133C0.285188 10.8567 0.343646 10.5775 0.483251 10.3372C0.608893 10.1276 0.797354 9.92062 1.08582 9.79719C1.24756 9.73044 1.42243 9.70186 1.59694 9.71368C1.77144 9.72549 1.9409 9.77738 2.09223 9.86533L2.10889 9.87819L5.93966 12.096L5.73453 7.52148C5.72023 7.28054 5.77494 7.04053 5.89223 6.82976L5.89479 6.82462C6.16787 6.36948 6.61915 6.22033 6.97043 6.20233V6.20362H6.97171ZM0.160175 23.31C0.267867 23.1043 0.435816 22.8986 0.68838 22.7533C0.693508 22.7482 0.7012 22.7456 0.710175 22.7405C0.88747 22.6431 1.0864 22.5922 1.28854 22.5924C1.49069 22.5926 1.68951 22.644 1.86658 22.7418L7.38453 25.6153L11.4576 23.2548C11.6096 23.1622 11.7813 23.107 11.9587 23.0936C12.136 23.0802 12.314 23.109 12.4781 23.1776C12.7326 23.2885 12.9441 23.4794 13.0807 23.7215C13.2206 23.9598 13.2791 24.2375 13.2474 24.5122C13.2239 24.6893 13.1592 24.8584 13.0585 25.0058C12.9579 25.1532 12.824 25.2748 12.6679 25.3608H12.6666L8.59607 27.72L8.31658 33.9493C8.31225 34.157 8.25479 34.36 8.14973 34.539C8.04467 34.718 7.89552 34.8669 7.71659 34.9715C7.48937 35.101 7.23024 35.1634 6.96915 35.1515C6.75214 35.1455 6.54006 35.0852 6.35221 34.976C6.16435 34.8669 6.00667 34.7124 5.89351 34.5266V34.524C5.77637 34.3142 5.72164 34.075 5.73582 33.8349L5.94094 29.2578L2.123 31.4718L2.11017 31.4769L2.1153 31.473C2.10633 31.4808 2.09607 31.4846 2.09351 31.4859C1.94279 31.5748 1.77354 31.6273 1.5991 31.6394C1.42467 31.6514 1.24983 31.6227 1.08838 31.5553C0.834309 31.4455 0.622283 31.2565 0.483727 31.0164C0.345171 30.7762 0.287461 30.4977 0.319149 30.222C0.342185 30.0479 0.405099 29.8815 0.502965 29.7359C0.60083 29.5902 0.730991 29.4693 0.883251 29.3825L0.898636 29.3709L4.73069 27.1543L0.678123 25.0458C0.461521 24.9368 0.281141 24.767 0.158892 24.5572C0.0554355 24.3664 0.00123675 24.1527 0.00123675 23.9355C0.00123675 23.7184 0.0554355 23.5047 0.158892 23.3139L0.160175 23.3126V23.31ZM11.5191 37.7846C11.3775 37.5645 11.301 37.3086 11.2986 37.0466V37.0209C11.3042 36.8182 11.3603 36.6202 11.4617 36.4448C11.5631 36.2694 11.7067 36.1222 11.8794 36.0168L17.1204 32.6585V27.9206C17.1204 27.5388 17.3076 27.198 17.5602 27.0129C17.7831 26.8466 18.0542 26.7581 18.332 26.7609C18.573 26.7609 18.8486 26.8252 19.0999 27.0129C19.3563 27.1993 19.5409 27.54 19.5409 27.9219V32.6585L24.7794 36.0168C24.953 36.1218 25.0974 36.2689 25.1993 36.4446C25.3013 36.6204 25.3575 36.819 25.3627 37.0222C25.3627 37.0338 25.3627 37.0415 25.3602 37.0479C25.3602 37.3398 25.2666 37.5879 25.1422 37.7859C24.9525 38.0816 24.5986 38.3966 24.0781 38.4095H24.0627C23.8231 38.4066 23.5893 38.3342 23.3897 38.2012L19.5409 35.7339V40.1735V40.1683V40.1953C19.5421 40.3705 19.503 40.5435 19.4265 40.701C19.35 40.8585 19.2382 40.9961 19.0999 41.1031C18.8778 41.2689 18.6082 41.3584 18.3313 41.3584C18.0544 41.3584 17.7849 41.2689 17.5627 41.1031C17.4239 40.9965 17.3117 40.859 17.2349 40.7015C17.1582 40.5439 17.119 40.3707 17.1204 40.1953V35.7339L13.2743 38.1999C13.0734 38.3336 12.8384 38.4063 12.5974 38.4095H12.5897C12.3734 38.4037 12.1621 38.3436 11.9751 38.2346C11.7881 38.1257 11.6313 37.9714 11.5191 37.7859V37.7846ZM29.6884 35.1515C29.4194 35.1629 29.1527 35.0964 28.9204 34.9599C28.748 34.8532 28.6049 34.705 28.5041 34.5287C28.4034 34.3525 28.3482 34.1537 28.3435 33.9506L28.0666 27.7213L23.9897 25.3608C23.8346 25.2745 23.7018 25.1531 23.6018 25.0062C23.5019 24.8593 23.4376 24.691 23.414 24.5148C23.3768 24.201 23.4615 23.9323 23.5807 23.7176C23.7176 23.4767 23.9291 23.2871 24.1833 23.1776C24.3448 23.1107 24.5196 23.0821 24.6939 23.0942C24.8683 23.1062 25.0375 23.1585 25.1884 23.247L25.205 23.256L29.2756 25.614L34.7935 22.7418C34.9709 22.6437 35.1701 22.592 35.3727 22.5916C35.5752 22.5911 35.7747 22.6419 35.9525 22.7392L35.9756 22.752C36.2243 22.8986 36.3935 23.1043 36.5038 23.3126C36.6615 23.6276 36.7576 24.0892 36.5063 24.5495L36.5012 24.5598V24.5611L36.4999 24.5636C36.377 24.7697 36.1976 24.9362 35.9832 25.0432L31.9294 27.153L35.7499 29.3645L35.7627 29.3722L35.7563 29.3696C35.7679 29.3748 35.7743 29.3812 35.7794 29.3838C36.1102 29.5766 36.3102 29.9109 36.3422 30.222C36.3722 30.4978 36.3139 30.776 36.1759 31.0163C36.0378 31.2567 35.8272 31.4468 35.5743 31.5592C35.4123 31.6258 35.2372 31.6539 35.0627 31.6414C34.8881 31.6289 34.7188 31.5761 34.5679 31.4872C34.564 31.4846 34.5563 31.482 34.5512 31.4769L30.7204 29.2591L30.923 33.8323C30.9398 34.0738 30.8863 34.315 30.7691 34.5266C30.764 34.5305 30.7615 34.5343 30.764 34.5305C30.4935 34.9831 30.0422 35.1348 29.6909 35.1528H29.6884V35.1515ZM36.5012 18.0438C36.3922 18.2495 36.2243 18.4552 35.9743 18.6043C35.9692 18.6082 35.9615 18.6108 35.9525 18.6146C35.7747 18.7119 35.5752 18.7627 35.3727 18.7622C35.1701 18.7618 34.9709 18.7101 34.7935 18.612L29.2756 15.7398L25.2025 18.1003L25.1884 18.1093C25.0374 18.1976 24.8682 18.2497 24.6939 18.2618C24.5196 18.2738 24.3449 18.2454 24.1833 18.1788C23.9295 18.0675 23.718 17.8777 23.5798 17.637C23.4415 17.3963 23.3839 17.1176 23.4153 16.8416C23.4381 16.6677 23.5006 16.5015 23.598 16.3559C23.6954 16.2102 23.8251 16.0891 23.9768 16.002L23.9909 15.9943H23.9935L28.0627 13.635L28.3435 7.40319C28.3483 7.19597 28.4058 6.99341 28.5106 6.81474C28.6154 6.63608 28.764 6.48723 28.9422 6.38233C29.1961 6.23705 29.4563 6.19333 29.6909 6.20233C30.0422 6.22162 30.4897 6.36948 30.7615 6.81948C30.7666 6.82462 30.7666 6.82719 30.7666 6.82719V6.82848H30.7691C30.8859 7.039 30.9405 7.27843 30.9268 7.51891L30.7217 12.096L34.5397 9.88462L34.5525 9.87819L34.5474 9.88076C34.6997 9.78644 34.8722 9.72959 35.0507 9.71484C35.2291 9.70009 35.4086 9.72787 35.5743 9.79591C35.8275 9.90779 36.0386 10.0978 36.1767 10.3383C36.3148 10.5788 36.3728 10.8572 36.3422 11.133C36.3191 11.3068 36.2563 11.4729 36.1587 11.6183C36.0611 11.7637 35.9313 11.8845 35.7794 11.9713L35.7615 11.9816L31.9294 14.202L35.9807 16.3106C36.205 16.4263 36.3871 16.5948 36.5012 16.7928L36.5038 16.7992C36.7602 17.262 36.6615 17.7288 36.5012 18.0438Z" fill="#7AB800"/>
<path id="Vector_5" fill-rule="evenodd" clip-rule="evenodd" d="M28.2731 17.7299C28.1564 17.8039 28.0607 17.9066 27.9949 18.0282C27.9348 18.145 27.9064 18.2757 27.9125 18.407C27.9185 18.5383 27.9589 18.6657 28.0295 18.7765L28.7756 19.9478H27.4487C27.3242 19.9468 27.2018 19.9789 27.0937 20.0408C26.9856 20.1026 26.8958 20.1921 26.8333 20.3001C26.7668 20.4158 26.7314 20.547 26.7308 20.6806C26.7287 20.8096 26.7604 20.9368 26.8227 21.0496C26.885 21.1624 26.9758 21.2569 27.0859 21.3235C27.1961 21.3878 27.3269 21.4199 27.4525 21.4186H28.7756L28.032 22.5886C28.0231 22.6015 28.0192 22.6131 28.0115 22.6233C27.9558 22.719 27.9223 22.8259 27.9134 22.9363C27.9045 23.0467 27.9205 23.1577 27.9602 23.2611C28.0268 23.4283 28.1485 23.5677 28.3051 23.6558C28.4717 23.7591 28.6723 23.7921 28.863 23.7475C29.0538 23.7029 29.2192 23.5844 29.3231 23.4179L30.5936 21.4199H32.3461C32.4426 21.4207 32.5382 21.4018 32.6272 21.3644C32.7162 21.3271 32.7966 21.272 32.8638 21.2025C32.9309 21.133 32.9833 21.0506 33.0177 20.9602C33.0521 20.8699 33.0679 20.7734 33.0641 20.6768C33.0658 20.5491 33.0338 20.4233 32.9715 20.312C32.9091 20.2007 32.8186 20.1079 32.709 20.0429C32.5978 19.9792 32.4716 19.9464 32.3436 19.9478H30.5936L29.3231 17.9511C29.2692 17.8669 29.1991 17.7944 29.117 17.7377C29.0349 17.6809 28.9424 17.6411 28.8448 17.6205C28.7472 17.5999 28.6466 17.599 28.5486 17.6178C28.4507 17.6366 28.3575 17.6747 28.2743 17.7299M20.7577 10.5646C20.7629 10.6934 20.799 10.8191 20.8628 10.9311L20.8769 10.9542C20.9872 11.1471 21.2615 11.3219 21.5423 11.2975L22.9231 11.2345L22.2615 12.3878C22.1981 12.4953 22.1643 12.6177 22.1634 12.7426C22.1625 12.8675 22.1946 12.9904 22.2564 13.0988C22.3359 13.2325 22.4308 13.3173 22.5333 13.3791C22.6436 13.4458 22.7695 13.4822 22.8983 13.4844C23.027 13.4867 23.1541 13.4548 23.2666 13.3919C23.376 13.3261 23.4665 13.2331 23.5295 13.1219L24.1949 11.9712L24.832 13.2029L24.8487 13.2363C24.959 13.4395 25.1833 13.5783 25.3743 13.6002C25.5517 13.6267 25.7327 13.5913 25.8872 13.4999C26.0342 13.4161 26.1506 13.2872 26.2192 13.1322C26.2622 13.0307 26.2819 12.9208 26.2768 12.8106C26.2717 12.7004 26.2419 12.5928 26.1897 12.4958L25.1025 10.3911L25.9795 8.86877C26.0282 8.78537 26.0596 8.69295 26.0718 8.59705C26.084 8.50116 26.0767 8.40379 26.0503 8.31081C26.024 8.21782 25.9791 8.13115 25.9185 8.05602C25.8578 7.98088 25.7826 7.91884 25.6974 7.87363C25.5884 7.8076 25.4638 7.77196 25.3365 7.77038C25.2091 7.7688 25.0837 7.80133 24.9731 7.86463C24.862 7.92865 24.7706 8.02205 24.709 8.13463L23.8333 9.65563L21.4731 9.76234C21.3512 9.76588 21.2323 9.79991 21.1269 9.86134C21.0065 9.93285 20.9083 10.0364 20.8431 10.1606C20.7779 10.2848 20.7483 10.4246 20.7577 10.5646ZM10.8166 13.5128C10.9243 13.5668 11.041 13.6028 11.1872 13.6028H11.2038C11.3363 13.5979 11.465 13.5578 11.577 13.4866C11.6889 13.4155 11.78 13.3158 11.841 13.1978L12.4795 11.9661L13.1423 13.1168C13.2628 13.3495 13.5461 13.4883 13.7538 13.4768C13.9064 13.4768 14.0282 13.4343 14.1333 13.3765C14.2461 13.3139 14.3403 13.2226 14.4065 13.1117C14.4727 13.0009 14.5085 12.8744 14.5102 12.7452C14.5102 12.6179 14.4731 12.4881 14.4115 12.3813L13.7487 11.2293L15.1295 11.2911H15.1679C15.3987 11.2975 15.6295 11.1728 15.7461 11.0159C15.8479 10.8845 15.9062 10.7245 15.9128 10.5582V10.5222C15.9145 10.3529 15.8619 10.1875 15.7628 10.0503C15.6968 9.96202 15.6118 9.8897 15.5142 9.83874C15.4165 9.78778 15.3087 9.75947 15.1987 9.75591L12.8384 9.6492L11.9628 8.12563C11.901 8.01677 11.8117 7.92618 11.7039 7.86297C11.5961 7.79977 11.4736 7.76619 11.3487 7.76562C11.2129 7.76599 11.0796 7.80284 10.9628 7.87234C10.8521 7.93525 10.7597 8.02616 10.6949 8.13602C10.6301 8.24589 10.5952 8.37086 10.5936 8.49848C10.5936 8.62577 10.6308 8.75563 10.6949 8.86491L11.5692 10.3846L10.482 12.4881C10.4253 12.5973 10.395 12.7184 10.3936 12.8416C10.3956 12.9816 10.4362 13.1182 10.5109 13.2364C10.5856 13.3546 10.6914 13.4498 10.8166 13.5115M8.38844 23.6262C8.49691 23.5557 8.58772 23.4611 8.65383 23.3498C8.65896 23.3421 8.66024 23.3331 8.66665 23.3253C8.7275 23.2088 8.75615 23.0781 8.74961 22.9468C8.74308 22.8154 8.70159 22.6882 8.62947 22.5783L7.88588 21.4071H9.21024C9.3349 21.4082 9.45766 21.3763 9.56599 21.3144C9.67432 21.2525 9.76435 21.1629 9.8269 21.0548C9.89355 20.939 9.9289 20.8078 9.92947 20.6742C9.93196 20.5455 9.9007 20.4183 9.83883 20.3055C9.77696 20.1927 9.68664 20.0982 9.5769 20.0313C9.46505 19.9681 9.33864 19.9353 9.21024 19.9362H7.8846L8.62947 18.7662C8.63844 18.7533 8.64357 18.7418 8.6487 18.7328C8.70517 18.6372 8.73925 18.53 8.74836 18.4193C8.75747 18.3086 8.74136 18.1973 8.70126 18.0938C8.63446 17.9274 8.51332 17.7887 8.35767 17.7003C8.27541 17.6486 8.18377 17.6137 8.08801 17.5976C7.99226 17.5815 7.89427 17.5845 7.79968 17.6065C7.7051 17.6285 7.61577 17.669 7.53684 17.7257C7.45791 17.7824 7.39092 17.8542 7.33972 17.9369L6.06793 19.9362H4.31665C4.22009 19.9349 4.12428 19.9533 4.03507 19.9904C3.94587 20.0275 3.86514 20.0825 3.79782 20.1519C3.7305 20.2213 3.67801 20.3038 3.64356 20.3943C3.6091 20.4847 3.5934 20.5813 3.59742 20.6781C3.59742 20.8709 3.66921 21.1371 3.95126 21.3119C4.06024 21.3762 4.19229 21.4083 4.31665 21.4071H6.06793L7.33972 23.4038C7.40383 23.5066 7.49229 23.5966 7.59998 23.6571C7.7216 23.7249 7.85947 23.7579 7.99852 23.7525C8.13758 23.747 8.27247 23.7033 8.38844 23.6262ZM15.9038 30.7902C15.8975 30.6611 15.8615 30.5353 15.7987 30.4225L15.7859 30.3993C15.715 30.2881 15.616 30.1978 15.4988 30.1377C15.3816 30.0776 15.2506 30.0498 15.1192 30.0573L13.7372 30.1191L14.4013 28.9671C14.4494 28.8844 14.4805 28.7929 14.4927 28.6979C14.505 28.603 14.4982 28.5066 14.4728 28.4143C14.4473 28.3221 14.4037 28.2359 14.3446 28.1608C14.2854 28.0857 14.2118 28.0232 14.1282 27.9771C14.0179 27.9104 13.892 27.8741 13.7632 27.8719C13.6345 27.8696 13.5074 27.9015 13.3949 27.9642C13.2845 28.0289 13.193 28.1216 13.1295 28.2329L12.4679 29.3849L11.8295 28.1506L11.8102 28.1172C11.7559 28.021 11.6807 27.9384 11.5901 27.8754C11.4996 27.8124 11.396 27.7707 11.2872 27.7533C11.1216 27.73 10.9529 27.7597 10.8051 27.8382C10.6434 27.9199 10.5155 28.056 10.4436 28.2226C10.4007 28.3238 10.3807 28.4332 10.3851 28.5431C10.3896 28.6529 10.4183 28.7604 10.4692 28.8578L11.559 30.9638L10.6833 32.4861C10.6202 32.5939 10.5865 32.7165 10.5856 32.8415C10.5847 32.9665 10.6166 33.0896 10.6782 33.1983C10.7551 33.3308 10.8525 33.4169 10.9628 33.4812C11.1295 33.5776 11.3949 33.6483 11.6884 33.4915C11.7987 33.426 11.8901 33.333 11.9538 33.2215L12.8295 31.6992L15.1884 31.5938C15.3104 31.5876 15.4293 31.5532 15.5359 31.4935C15.655 31.4207 15.7522 31.3169 15.817 31.193C15.8818 31.0691 15.9118 30.9299 15.9038 30.7902ZM25.8461 27.8433C25.7313 27.7836 25.6038 27.7523 25.4743 27.7521H25.4487C25.3178 27.7578 25.1908 27.7985 25.0808 27.8699C24.9708 27.9413 24.8818 28.0409 24.8231 28.1583L24.182 29.3888L23.5205 28.2368C23.459 28.1282 23.3702 28.0378 23.2628 27.9746C23.1555 27.9114 23.0334 27.8777 22.909 27.8768C22.7753 27.8773 22.644 27.9127 22.5282 27.9796C22.4154 28.0418 22.321 28.1328 22.2548 28.2435C22.1886 28.3542 22.1528 28.4806 22.1513 28.6096C22.1513 28.7382 22.1897 28.8655 22.2513 28.9748L22.9141 30.1255L21.532 30.0638H21.4923C21.3818 30.063 21.2725 30.0872 21.1726 30.1346C21.0727 30.182 20.9848 30.2514 20.9154 30.3376C20.8057 30.4785 20.7469 30.6526 20.7487 30.8313C20.7487 30.9792 20.782 31.1425 20.8987 31.3045C20.9647 31.3929 21.0496 31.4652 21.1473 31.5162C21.2449 31.5672 21.3528 31.5954 21.4628 31.5989L23.8218 31.7056L24.6987 33.2279C24.8231 33.4606 25.1025 33.6008 25.3102 33.5879C25.4465 33.589 25.5804 33.5525 25.6974 33.4825C25.8087 33.42 25.9015 33.3293 25.9665 33.2193C26.0316 33.1094 26.0666 32.9842 26.0679 32.8563C26.0679 32.7303 26.032 32.5992 25.9679 32.4899L25.091 30.9702L26.1807 28.8642C26.2369 28.7561 26.2668 28.6363 26.2679 28.5145C26.2657 28.3744 26.225 28.2377 26.1504 28.1193C26.0758 28.0009 25.97 27.9054 25.8449 27.8433" fill="#7AB800"/>
</g>
</g>
</g>
<defs>
<clipPath id="clip0_54_561">
<rect width="150" height="45" fill="white"/>
</clipPath>
</defs>
</svg>
