<svg data-name="Layer 1" height="32px" version="1.1" viewBox="0 0 706.2 271.6" width="85px" xmlns="http://www.w3.org/2000/svg"><path class="cls-1" d="M706.2,135.8c0,75-60.8,135.8-135.8,135.8s-135.8-60.8-135.8-135.8S495.5,0,570.5,0s135.8,60.8,135.8,135.8ZM139.6,105.2h-59.2c-10.7,0-19.4-8.7-19.4-19.4s8.7-19.4,19.4-19.4h128.6V5.4H80.4C36,5.4,0,41.4,0,85.8s36,80.4,80.4,80.4h59.2c10.7,0,19.4,8.7,19.4,19.4s-8.7,19.4-19.4,19.4H11v61.1h128.6c44.4,0,80.4-36,80.4-80.4s-36-80.4-80.4-80.4ZM246.8,105.2v160.9h61.1v-99.8h95.1v-61.1h-156.2ZM391.1,66.5c33.7,0,61.1-27.4,61.1-61.1h-127.2c-37.8,0-69.4,26-78.1,61.1h144.2Z" fill="#009ade" stroke-width="0"></path></svg>